#VRML V2.0 utf8
# 3D model generated by easyeda2kicad.py (https://github.com/uPesy/easyeda2kicad.py)

Shape{
    appearance Appearance {
        material  Material 	{
            diffuseColor 0.10980392156862745 0.10980392156862745 0.10980392156862745
            specularColor 0.0784313725490196 0.0784313725490196 0.0784313725490196
            ambientIntensity 0.1098
            transparency 0.0
            shininess 0.5
        }
    }
    geometry IndexedFaceSet {
        ccw TRUE
        solid FALSE
        coord DEF co Coordinate {
            point [
                1.7262 -1.1554 0.1969, -0.0749 -1.1554 0.1969, -0.0749 -0.1981 0.1969, -0.0941 -0.1914 0.1969, -0.0941 -0.165 0.1969, -0.1402 -0.1776 0.1969, -0.0976 -0.0299 0.1969, -0.1163 -0.1745 0.1969, -0.0941 -0.0318 0.1969, -0.0749 1.1554 0.1969, -0.2573 0.0 0.1969, -1.7262 1.1554 0.1969, -0.3581 0.0 0.1969, -1.7262 -0.1981 0.1969, -0.1596 -0.1755 0.1969, -0.1742 -0.1702 0.1969, -0.1882 -0.1608 0.1969, -0.2 -0.1476 0.1969, -0.208 -0.1324 0.1969, -0.2132 -0.1111 0.1969, -0.2141 -0.0963 0.1969, -0.2121 -0.075 0.1969, -0.2068 -0.0581 0.1969, -0.1446 -0.0192 0.1969, -0.1894 -0.0348 0.1969, -0.1629 -0.0212 0.1969, -0.1773 -0.0266 0.1969, -0.1986 -0.0444 0.1969, -0.1185 -0.0221 0.1969, -0.3317 -0.1969 0.1969, -0.3317 -0.0216 0.1969, -0.2573 -0.0216 0.1969, -0.2184 -0.1637 0.1969, -0.2012 -0.1802 0.1969, -0.1828 -0.191 0.1969, -0.2076 -0.0169 0.1969, -0.1916 -0.0067 0.1969, -0.1725 -0.0001 0.1969, -0.222 -0.0321 0.1969, -0.2325 -0.0506 0.1969, -0.2386 -0.0717 0.1969, -0.1612 -0.1975 0.1969, -0.1543 -0.1981 0.1969, -0.3581 -0.1969 0.1969, -0.2405 -0.0947 0.1969, -0.2377 -0.1227 0.1969, -0.2301 -0.1451 0.1969, -0.0941 -0.0102 0.1969, -0.1151 -0.0016 0.1969, -0.1429 0.0023 0.1969, -0.1482 0.0024 0.1969, -1.7262 -1.1554 0.1969, -0.1404 -0.1993 0.1969, -0.123 -0.1981 0.1969, -0.1168 -0.1976 0.1969, 0.2099 -0.0211 0.1969, 0.1895 -0.0091 0.1969, 0.3901 -0.0552 0.1969, 0.3088 -0.0552 0.1969, 0.4101 0.0 0.1969, 0.29 0.0 0.1969, 0.226 -0.0367 0.1969, 0.2612 0.0 0.1969, 1.7262 1.1554 0.1969, 0.1668 -0.0022 0.1969, 0.1419 0.0 0.1969, 0.0884 0.0 0.1969, -0.0293 -0.1752 0.1969, -0.0293 -0.1104 0.1969, 0.0452 -0.1752 0.1969, 0.0404 -0.1104 0.1969, 0.0452 -0.1969 0.1969, 0.0884 -0.1969 0.1969, 0.0404 -0.0888 0.1969, 0.2468 -0.1009 0.1969, 0.2441 -0.0746 0.1969, 0.237 -0.054 0.1969, 1.7262 -0.1981 0.1969, 0.362 -0.1969 0.1969, 0.4389 0.0 0.1969, 0.3356 -0.1969 0.1969, 0.1954 -0.1857 0.1969, 0.2149 -0.173 0.1969, 0.2464 -0.1106 0.1969, 0.2426 -0.1314 0.1969, -0.0293 -0.0888 0.1969, -0.0293 -0.0216 0.1969, 0.05 -0.0216 0.1969, 0.05 0.0 0.1969, -0.0557 0.0 0.1969, -0.0557 -0.1969 0.1969, 0.2225 -0.1659 0.1969, 0.2344 -0.1505 0.1969, 0.1439 -0.1969 0.1969, 0.1724 -0.1938 0.1969, -1.7262 -1.1554 1.4961, -1.7262 -0.333 1.4961, -1.7409 -0.3326 1.4942, -1.7409 -1.17 1.4942, -1.7546 -0.3317 1.4888, -1.7546 -1.1838 1.4888, -1.7666 -0.3305 1.4801, -1.7666 -1.1957 1.4801, -1.776 -0.3292 1.4688, -1.776 -1.2052 1.4688, -1.7796 -1.2087 1.4623, -1.7824 -0.3282 1.4554, -1.7824 -1.2115 1.4554, -1.7842 -1.2134 1.4483, -1.7852 -0.3277 1.4409, -1.7852 -1.2143 1.4409, 1.8209 1.25 0.7874, 1.8209 1.25 0.9055, 1.8209 -1.25 0.7874, 1.8209 -1.25 0.9055, -1.8209 1.25 0.7874, -1.8209 1.25 0.9055, -1.8209 -1.25 0.7874, -1.8209 -1.25 0.9055, -1.7262 1.1554 1.4961, -1.7262 0.333 1.4961, -1.7108 0.3326 1.4961, -1.6277 0.3181 1.4961, -1.551 0.2831 1.4961, 1.7262 1.1554 1.4961, -1.4854 0.2299 1.4961, -1.4354 0.162 1.4961, -1.404 0.0837 1.4961, 1.7262 -1.1554 1.4961, -1.3933 -0.0 1.4961, -1.404 -0.0837 1.4961, -1.7108 -0.3326 1.4961, -1.6277 -0.3181 1.4961, -1.4354 -0.162 1.4961, -1.4854 -0.2299 1.4961, -1.551 -0.2831 1.4961, 1.7852 1.2143 0.252, 1.7852 -1.2143 0.252, -1.7852 1.2143 0.252, -1.7852 -1.2143 0.252, 1.7852 -1.2143 1.4409, 1.7852 1.2143 1.4409, -1.7852 1.2143 1.4409, -1.7852 0.3277 1.4409, -1.7881 0.3272 1.3976, -1.7881 -0.3272 1.3976, -1.7409 1.17 0.1987, -1.7824 -1.2115 0.2375, -1.7796 1.2087 0.2306, -1.7796 -1.2087 0.2306, -1.776 1.2052 0.2241, -1.776 -1.2052 0.2241, -1.7666 1.1957 0.2128, -1.7666 -1.1957 0.2128, -1.7546 1.1838 0.2041, -1.7546 -1.1838 0.2041, -1.7409 -1.17 0.1987, -1.7842 -1.2134 0.2446, -1.7842 1.2134 0.2446, -1.7824 1.2115 0.2375, 1.7409 1.17 0.1987, 1.7796 1.2087 0.2306, 1.776 1.2052 0.2241, 1.7666 1.1957 0.2128, 1.7546 1.1838 0.2041, 1.7842 1.2134 0.2446, 1.7824 1.2115 0.2375, 1.7842 -1.2134 0.2446, 1.7824 -1.2115 0.2375, 1.7796 -1.2087 0.2306, 1.776 -1.2052 0.2241, 1.7666 -1.1957 0.2128, 1.7546 -1.1838 0.2041, 1.7409 -1.17 0.1987, -1.7842 1.2134 1.4483, -1.7824 0.3282 1.4554, -1.7824 1.2115 1.4554, -1.7796 1.2087 1.4623, -1.776 0.3292 1.4688, -1.776 1.2052 1.4688, -1.7666 0.3305 1.4801, -1.7666 1.1957 1.4801, -1.7546 0.3317 1.4888, -1.7546 1.1838 1.4888, -1.7409 0.3326 1.4942, -1.7409 1.17 1.4942, 1.7409 -1.17 1.4942, 1.7546 -1.1838 1.4888, 1.7666 -1.1957 1.4801, 1.776 -1.2052 1.4688, 1.7796 -1.2087 1.4623, 1.7824 -1.2115 1.4554, 1.7842 -1.2134 1.4483, 1.7842 1.2134 1.4483, 1.7824 1.2115 1.4554, 1.7796 1.2087 1.4623, 1.776 1.2052 1.4688, 1.7666 1.1957 1.4801, 1.7546 1.1838 1.4888, 1.7409 1.17 1.4942
            ]
        }
        coordIndex [
            0,1,2,-1,2,3,4,-1,5,6,7,-1,7,6,8,-1,7,8,4,-1,9,10,11,-1,11,10,12,-1,11,12,13,-1,5,14,6,-1,6,14,15,-1,6,15,16,-1,16,17,6,-1,6,17,18,-1,6,18,19,-1,19,20,6,-1,6,20,21,-1,6,21,22,-1,23,24,25,-1,25,24,26,-1,22,27,6,-1,6,27,24,-1,6,24,28,-1,28,24,23,-1,29,30,31,-1,32,33,29,-1,29,33,34,-1,35,31,36,-1,36,31,37,-1,35,38,31,-1,31,38,39,-1,31,39,40,-1,34,41,29,-1,29,41,42,-1,29,42,43,-1,40,44,31,-1,31,44,45,-1,31,45,29,-1,29,45,46,-1,29,46,32,-1,4,8,2,-1,2,8,47,-1,2,47,9,-1,9,47,48,-1,9,48,49,-1,31,10,37,-1,37,10,9,-1,37,9,50,-1,50,9,49,-1,12,43,13,-1,13,43,42,-1,13,42,51,-1,51,42,1,-1,42,52,1,-1,1,52,53,-1,1,53,2,-1,2,53,54,-1,2,54,3,-1,55,56,9,-1,57,58,59,-1,59,58,60,-1,61,55,62,-1,62,55,9,-1,62,9,60,-1,60,9,63,-1,60,63,59,-1,56,64,9,-1,9,64,65,-1,9,65,66,-1,67,68,69,-1,69,68,70,-1,71,69,72,-1,72,69,70,-1,72,70,66,-1,66,70,73,-1,74,75,62,-1,62,75,76,-1,62,76,61,-1,77,78,63,-1,63,78,79,-1,63,79,59,-1,80,81,82,-1,74,62,83,-1,83,62,80,-1,83,80,84,-1,80,78,2,-1,2,78,77,-1,2,77,0,-1,85,86,73,-1,73,86,87,-1,73,87,66,-1,66,87,88,-1,66,88,9,-1,9,88,89,-1,9,89,2,-1,2,89,90,-1,2,90,71,-1,82,91,80,-1,80,91,92,-1,80,92,84,-1,71,72,2,-1,2,72,93,-1,2,93,80,-1,80,93,94,-1,80,94,81,-1,95,96,97,-1,95,97,98,-1,98,97,99,-1,98,99,100,-1,100,99,101,-1,100,101,102,-1,102,101,103,-1,102,103,104,-1,104,103,105,-1,105,103,106,-1,105,106,107,-1,107,106,108,-1,108,106,109,-1,108,109,110,-1,111,112,113,-1,113,112,114,-1,115,116,111,-1,111,116,112,-1,117,118,115,-1,115,118,116,-1,113,114,117,-1,117,114,118,-1,119,120,121,-1,121,122,119,-1,119,122,123,-1,119,123,124,-1,124,123,125,-1,125,126,124,-1,124,126,127,-1,124,127,128,-1,128,127,129,-1,128,129,130,-1,96,95,131,-1,131,95,132,-1,130,133,128,-1,128,133,134,-1,128,134,95,-1,95,134,135,-1,95,135,132,-1,136,111,137,-1,137,111,113,-1,138,115,136,-1,136,115,111,-1,137,113,139,-1,139,113,117,-1,139,117,138,-1,138,117,115,-1,140,114,141,-1,141,114,112,-1,141,112,142,-1,142,112,116,-1,110,118,140,-1,140,118,114,-1,143,142,144,-1,144,142,116,-1,144,116,145,-1,145,116,118,-1,145,118,109,-1,109,118,110,-1,146,11,13,-1,147,148,149,-1,149,148,150,-1,149,150,151,-1,151,150,152,-1,151,152,153,-1,153,152,154,-1,153,154,155,-1,155,154,146,-1,155,146,156,-1,156,146,13,-1,156,13,51,-1,139,138,157,-1,157,138,158,-1,157,158,147,-1,147,158,159,-1,147,159,148,-1,160,63,9,-1,159,161,148,-1,148,161,162,-1,148,162,150,-1,150,162,163,-1,150,163,152,-1,152,163,164,-1,152,164,154,-1,154,164,160,-1,154,160,146,-1,146,160,9,-1,146,9,11,-1,138,136,158,-1,158,136,165,-1,158,165,159,-1,159,165,166,-1,159,166,161,-1,137,139,167,-1,167,139,157,-1,167,157,168,-1,156,51,1,-1,157,147,168,-1,168,147,149,-1,168,149,169,-1,169,149,151,-1,169,151,170,-1,170,151,153,-1,170,153,171,-1,171,153,155,-1,171,155,172,-1,172,155,156,-1,172,156,173,-1,173,156,1,-1,173,1,0,-1,173,0,77,-1,166,169,161,-1,161,169,170,-1,161,170,162,-1,162,170,171,-1,162,171,163,-1,163,171,172,-1,163,172,164,-1,164,172,173,-1,164,173,160,-1,160,173,77,-1,160,77,63,-1,136,137,165,-1,165,137,167,-1,165,167,166,-1,166,167,168,-1,166,168,169,-1,142,143,174,-1,174,143,175,-1,174,175,176,-1,176,175,177,-1,177,175,178,-1,177,178,179,-1,179,178,180,-1,179,180,181,-1,181,180,182,-1,181,182,183,-1,183,182,184,-1,183,184,185,-1,185,184,120,-1,185,120,119,-1,128,95,98,-1,128,98,186,-1,186,98,100,-1,186,100,187,-1,187,100,102,-1,187,102,188,-1,188,102,104,-1,188,104,189,-1,189,104,190,-1,190,104,105,-1,190,105,191,-1,105,107,191,-1,191,107,108,-1,191,108,192,-1,192,108,110,-1,192,110,140,-1,141,142,174,-1,141,174,193,-1,193,174,176,-1,193,176,194,-1,194,176,177,-1,194,177,195,-1,195,177,179,-1,195,179,196,-1,196,179,181,-1,196,181,197,-1,197,181,183,-1,197,183,198,-1,198,183,185,-1,198,185,199,-1,199,185,119,-1,199,119,124,-1,191,195,190,-1,190,195,196,-1,190,196,189,-1,189,196,197,-1,189,197,188,-1,188,197,198,-1,188,198,187,-1,187,198,199,-1,187,199,186,-1,186,199,124,-1,186,124,128,-1,140,141,192,-1,192,141,193,-1,192,193,191,-1,191,193,194,-1,191,194,195,-1,
        ]
    }
}
Shape{
    appearance Appearance {
        material  Material 	{
            diffuseColor 0.4117647058823529 0.4117647058823529 0.4117647058823529
            specularColor 0.16470588235294117 0.16470588235294117 0.16470588235294117
            ambientIntensity 0.4118
            transparency 0.0
            shininess 0.5
        }
    }
    geometry IndexedFaceSet {
        ccw TRUE
        solid FALSE
        coord DEF co Coordinate {
            point [
                -1.7108 0.3326 1.3976, -1.7262 0.333 1.4961, -1.7409 0.3326 1.4942, -1.7546 0.3317 1.4888, -1.7666 0.3305 1.4801, -1.776 0.3292 1.4688, -1.7824 0.3282 1.4554, -1.7852 0.3277 1.4409, -1.7881 0.3272 1.3976, -1.7881 -0.3272 1.3976, -1.7852 -0.3277 1.4409, -1.7108 -0.3326 1.3976, -1.7824 -0.3282 1.4554, -1.776 -0.3292 1.4688, -1.7666 -0.3305 1.4801, -1.7546 -0.3317 1.4888, -1.7409 -0.3326 1.4942, -1.7262 -0.333 1.4961, -1.7108 -0.3326 1.4961, -1.6277 -0.3181 1.3976, -1.6277 -0.3181 1.4961, -1.551 -0.2831 1.3976, -1.551 -0.2831 1.4961, -1.4854 -0.2299 1.3976, -1.4854 -0.2299 1.4961, -1.4354 -0.162 1.3976, -1.4354 -0.162 1.4961, -1.404 -0.0837 1.3976, -1.404 -0.0837 1.4961, -1.3933 -0.0 1.3976, -1.3933 -0.0 1.4961, -1.404 0.0837 1.3976, -1.404 0.0837 1.4961, -1.4354 0.162 1.3976, -1.4354 0.162 1.4961, -1.4854 0.2299 1.3976, -1.4854 0.2299 1.4961, -1.551 0.2831 1.3976, -1.551 0.2831 1.4961, -1.6277 0.3181 1.3976, -1.6277 0.3181 1.4961, -1.7108 0.3326 1.4961
            ]
        }
        coordIndex [
            0,1,2,-1,2,3,0,-1,0,3,4,-1,0,4,5,-1,5,6,0,-1,0,6,7,-1,0,7,8,-1,9,10,11,-1,11,10,12,-1,11,12,13,-1,13,14,11,-1,11,14,15,-1,11,15,16,-1,16,17,11,-1,11,17,18,-1,11,18,19,-1,19,18,20,-1,19,20,21,-1,21,20,22,-1,21,22,23,-1,23,22,24,-1,23,24,25,-1,25,24,26,-1,25,26,27,-1,27,26,28,-1,27,28,29,-1,29,28,30,-1,29,30,31,-1,31,30,32,-1,31,32,33,-1,33,32,34,-1,33,34,35,-1,35,34,36,-1,35,36,37,-1,37,36,38,-1,37,38,39,-1,39,38,40,-1,39,40,0,-1,0,40,41,-1,0,41,1,-1,33,35,23,-1,23,35,21,-1,8,9,0,-1,0,9,11,-1,0,11,39,-1,39,11,37,-1,27,29,31,-1,37,11,35,-1,35,11,19,-1,35,19,21,-1,33,23,31,-1,31,23,25,-1,31,25,27,-1,
        ]
    }
}
Shape{
    appearance Appearance {
        material  Material 	{
            diffuseColor 0.7764705882352941 0.7568627450980392 0.7372549019607844
            specularColor 0.38823529411764707 0.3764705882352941 0.3686274509803922
            ambientIntensity 0.7605
            transparency 0.0
            shininess 0.5
        }
    }
    geometry IndexedFaceSet {
        ccw TRUE
        solid FALSE
        coord DEF co Coordinate {
            point [
                0.3155 -0.0768 0.2008, 0.3088 -0.0552 0.2008, 0.3813 -0.0768 0.2008, 0.3901 -0.0552 0.2008, 0.3448 -0.159 0.2008, 0.3356 -0.1969 0.2008, 0.2612 0.0 0.2008, 0.29 0.0 0.2008, 0.3467 -0.1659 0.2008, 0.348 -0.1728 0.2008, 0.362 -0.1969 0.2008, 0.3486 -0.1728 0.2008, 0.3499 -0.1659 0.2008, 0.3516 -0.159 0.2008, 0.4389 0.0 0.2008, 0.4101 0.0 0.2008, 0.3901 -0.0552 0.1969, 0.4101 0.0 0.1969, 0.3088 -0.0552 0.1969, 0.29 0.0 0.1969, 0.2612 0.0 0.1969, 0.3356 -0.1969 0.1969, 0.362 -0.1969 0.1969, 0.4389 0.0 0.1969, 0.3516 -0.159 0.1969, 0.3499 -0.1659 0.1969, 0.3486 -0.1728 0.1969, 0.348 -0.1728 0.1969, 0.3467 -0.1659 0.1969, 0.3448 -0.159 0.1969, 0.3155 -0.0768 0.1969, 0.3813 -0.0768 0.1969, 0.1439 -0.1969 0.2008, 0.1439 -0.1969 0.1969, 0.0884 -0.1969 0.2008, 0.0884 -0.1969 0.1969, 0.1724 -0.1938 0.2008, 0.1724 -0.1938 0.1969, 0.1954 -0.1857 0.2008, 0.1954 -0.1857 0.1969, 0.2149 -0.173 0.2008, 0.2149 -0.173 0.1969, 0.2225 -0.1659 0.2008, 0.2225 -0.1659 0.1969, 0.2344 -0.1505 0.2008, 0.2344 -0.1505 0.1969, 0.2426 -0.1314 0.2008, 0.2426 -0.1314 0.1969, 0.2464 -0.1106 0.2008, 0.2464 -0.1106 0.1969, 0.2468 -0.1009 0.2008, 0.2468 -0.1009 0.1969, 0.2441 -0.0746 0.2008, 0.2441 -0.0746 0.1969, 0.237 -0.054 0.2008, 0.237 -0.054 0.1969, 0.226 -0.0367 0.2008, 0.226 -0.0367 0.1969, 0.2099 -0.0211 0.2008, 0.2099 -0.0211 0.1969, 0.1895 -0.0091 0.2008, 0.1895 -0.0091 0.1969, 0.1668 -0.0022 0.2008, 0.1668 -0.0022 0.1969, 0.1419 0.0 0.2008, 0.1419 0.0 0.1969, 0.0884 0.0 0.2008, 0.0884 0.0 0.1969, 0.2204 -0.1003 0.2008, 0.2187 -0.1199 0.2008, 0.2141 -0.1355 0.2008, 0.2074 -0.1476 0.2008, 0.1978 -0.1577 0.2008, 0.1835 -0.167 0.2008, 0.1672 -0.1727 0.2008, 0.1438 -0.1752 0.2008, 0.1148 -0.1752 0.2008, 0.1148 -0.0216 0.2008, 0.1427 -0.0216 0.2008, 0.1635 -0.0235 0.2008, 0.1801 -0.0287 0.2008, 0.1934 -0.0366 0.2008, 0.2045 -0.0476 0.2008, 0.2128 -0.061 0.2008, 0.218 -0.0767 0.2008, 0.1427 -0.0216 0.1969, 0.1148 -0.0216 0.1969, 0.1635 -0.0235 0.1969, 0.1801 -0.0287 0.1969, 0.1934 -0.0366 0.1969, 0.2045 -0.0476 0.1969, 0.2128 -0.061 0.1969, 0.218 -0.0767 0.1969, 0.2204 -0.1003 0.1969, 0.2187 -0.1199 0.1969, 0.2141 -0.1355 0.1969, 0.2074 -0.1476 0.1969, 0.1978 -0.1577 0.1969, 0.1835 -0.167 0.1969, 0.1672 -0.1727 0.1969, 0.1438 -0.1752 0.1969, 0.1148 -0.1752 0.1969, -0.0557 -0.1969 0.2008, -0.0557 -0.1969 0.1969, -0.0557 0.0 0.2008, -0.0557 0.0 0.1969, 0.0452 -0.1969 0.2008, 0.0452 -0.1969 0.1969, 0.0452 -0.1752 0.2008, 0.0452 -0.1752 0.1969, -0.0293 -0.1752 0.2008, -0.0293 -0.1752 0.1969, -0.0293 -0.1104 0.2008, -0.0293 -0.1104 0.1969, 0.0404 -0.1104 0.2008, 0.0404 -0.1104 0.1969, 0.0404 -0.0888 0.2008, 0.0404 -0.0888 0.1969, -0.0293 -0.0888 0.2008, -0.0293 -0.0888 0.1969, -0.0293 -0.0216 0.2008, -0.0293 -0.0216 0.1969, 0.05 -0.0216 0.2008, 0.05 -0.0216 0.1969, 0.05 0.0 0.2008, 0.05 0.0 0.1969, -0.1482 0.0024 0.1969, -0.1482 0.0024 0.2008, -0.1725 -0.0001 0.2008, -0.1725 -0.0001 0.1969, -0.1916 -0.0067 0.2008, -0.1916 -0.0067 0.1969, -0.2076 -0.0169 0.2008, -0.2076 -0.0169 0.1969, -0.222 -0.0321 0.2008, -0.222 -0.0321 0.1969, -0.2325 -0.0506 0.2008, -0.2325 -0.0506 0.1969, -0.2386 -0.0717 0.2008, -0.2386 -0.0717 0.1969, -0.2405 -0.0947 0.2008, -0.2405 -0.0947 0.1969, -0.2377 -0.1227 0.2008, -0.2377 -0.1227 0.1969, -0.2301 -0.1451 0.2008, -0.2301 -0.1451 0.1969, -0.2184 -0.1637 0.2008, -0.2184 -0.1637 0.1969, -0.2012 -0.1802 0.2008, -0.2012 -0.1802 0.1969, -0.1828 -0.191 0.2008, -0.1828 -0.191 0.1969, -0.1612 -0.1975 0.2008, -0.1612 -0.1975 0.1969, -0.1404 -0.1993 0.2008, -0.1404 -0.1993 0.1969, -0.1543 -0.1981 0.1969, -0.123 -0.1981 0.1969, -0.1168 -0.1976 0.2008, -0.1168 -0.1976 0.1969, -0.0941 -0.1914 0.2008, -0.0941 -0.1914 0.1969, -0.0941 -0.165 0.2008, -0.0941 -0.165 0.1969, -0.1163 -0.1745 0.2008, -0.1163 -0.1745 0.1969, -0.1402 -0.1776 0.2008, -0.1402 -0.1776 0.1969, -0.1596 -0.1755 0.2008, -0.1596 -0.1755 0.1969, -0.1742 -0.1702 0.2008, -0.1742 -0.1702 0.1969, -0.1882 -0.1608 0.2008, -0.1882 -0.1608 0.1969, -0.2 -0.1476 0.2008, -0.2 -0.1476 0.1969, -0.208 -0.1324 0.2008, -0.208 -0.1324 0.1969, -0.2132 -0.1111 0.2008, -0.2132 -0.1111 0.1969, -0.2141 -0.0963 0.2008, -0.2141 -0.0963 0.1969, -0.2121 -0.075 0.2008, -0.2121 -0.075 0.1969, -0.2068 -0.0581 0.2008, -0.2068 -0.0581 0.1969, -0.1986 -0.0444 0.2008, -0.1986 -0.0444 0.1969, -0.1894 -0.0348 0.2008, -0.1894 -0.0348 0.1969, -0.1773 -0.0266 0.2008, -0.1773 -0.0266 0.1969, -0.1629 -0.0212 0.2008, -0.1629 -0.0212 0.1969, -0.1446 -0.0192 0.2008, -0.1446 -0.0192 0.1969, -0.1185 -0.0221 0.2008, -0.1185 -0.0221 0.1969, -0.0976 -0.0299 0.2008, -0.0976 -0.0299 0.1969, -0.0941 -0.0318 0.2008, -0.0941 -0.0318 0.1969, -0.0941 -0.0102 0.2008, -0.0941 -0.0102 0.1969, -0.1151 -0.0016 0.2008, -0.1151 -0.0016 0.1969, -0.1429 0.0023 0.2008, -0.1429 0.0023 0.1969, -0.3581 -0.1969 0.2008, -0.3581 -0.1969 0.1969, -0.3581 0.0 0.2008, -0.3581 0.0 0.1969, -0.3317 -0.1969 0.2008, -0.3317 -0.1969 0.1969, -0.3317 -0.0216 0.2008, -0.3317 -0.0216 0.1969, -0.2573 -0.0216 0.2008, -0.2573 -0.0216 0.1969, -0.2573 0.0 0.2008, -0.2573 0.0 0.1969
            ]
        }
        coordIndex [
            0,1,2,-1,2,1,3,-1,4,5,0,-1,0,5,6,-1,0,6,1,-1,1,6,7,-1,4,8,5,-1,5,8,9,-1,5,9,10,-1,10,9,11,-1,10,11,12,-1,12,13,10,-1,10,13,2,-1,10,2,14,-1,14,2,3,-1,14,3,15,-1,3,16,15,-1,15,16,17,-1,1,18,3,-1,3,18,16,-1,7,19,1,-1,1,19,18,-1,6,20,7,-1,7,20,19,-1,5,21,6,-1,6,21,20,-1,10,22,5,-1,5,22,21,-1,14,23,10,-1,10,23,22,-1,14,15,23,-1,23,15,17,-1,24,13,12,-1,24,12,25,-1,25,12,11,-1,25,11,26,-1,9,27,11,-1,11,27,26,-1,27,9,8,-1,27,8,28,-1,28,8,4,-1,28,4,29,-1,0,30,4,-1,4,30,29,-1,2,31,0,-1,0,31,30,-1,24,31,13,-1,13,31,2,-1,32,33,34,-1,34,33,35,-1,33,32,36,-1,33,36,37,-1,37,36,38,-1,37,38,39,-1,39,38,40,-1,39,40,41,-1,41,40,42,-1,41,42,43,-1,43,42,44,-1,43,44,45,-1,45,44,46,-1,45,46,47,-1,47,46,48,-1,47,48,49,-1,49,48,50,-1,49,50,51,-1,51,50,52,-1,51,52,53,-1,53,52,54,-1,53,54,55,-1,55,54,56,-1,55,56,57,-1,57,56,58,-1,57,58,59,-1,59,58,60,-1,59,60,61,-1,61,60,62,-1,61,62,63,-1,63,62,64,-1,63,64,65,-1,66,67,64,-1,64,67,65,-1,66,34,67,-1,67,34,35,-1,52,50,68,-1,68,50,48,-1,68,48,69,-1,69,48,46,-1,69,46,70,-1,70,46,44,-1,70,44,71,-1,71,44,42,-1,71,42,72,-1,72,42,40,-1,72,40,73,-1,73,40,38,-1,73,38,74,-1,74,38,36,-1,74,36,75,-1,75,36,32,-1,75,32,76,-1,76,32,34,-1,76,34,77,-1,77,34,66,-1,77,66,78,-1,78,66,64,-1,78,64,79,-1,79,64,62,-1,79,62,80,-1,80,62,60,-1,80,60,81,-1,81,60,58,-1,81,58,82,-1,82,58,56,-1,82,56,83,-1,83,56,54,-1,83,54,84,-1,84,54,52,-1,84,52,68,-1,78,85,77,-1,77,85,86,-1,85,78,79,-1,85,79,87,-1,87,79,80,-1,87,80,88,-1,88,80,81,-1,88,81,89,-1,89,81,82,-1,89,82,90,-1,90,82,83,-1,90,83,91,-1,91,83,84,-1,91,84,92,-1,92,84,68,-1,92,68,93,-1,93,68,69,-1,93,69,94,-1,94,69,70,-1,94,70,95,-1,95,70,71,-1,95,71,96,-1,96,71,72,-1,96,72,97,-1,97,72,73,-1,97,73,98,-1,98,73,74,-1,98,74,99,-1,99,74,75,-1,99,75,100,-1,76,101,75,-1,75,101,100,-1,86,101,77,-1,77,101,76,-1,102,103,104,-1,104,103,105,-1,106,107,102,-1,102,107,103,-1,108,109,106,-1,106,109,107,-1,110,111,108,-1,108,111,109,-1,112,113,110,-1,110,113,111,-1,114,115,112,-1,112,115,113,-1,116,117,114,-1,114,117,115,-1,118,119,116,-1,116,119,117,-1,120,121,118,-1,118,121,119,-1,122,123,120,-1,120,123,121,-1,124,125,122,-1,122,125,123,-1,124,104,125,-1,125,104,105,-1,104,124,122,-1,122,120,104,-1,104,120,118,-1,104,118,102,-1,108,106,110,-1,110,106,102,-1,110,102,112,-1,112,102,118,-1,112,118,114,-1,114,118,116,-1,126,127,128,-1,126,128,129,-1,129,128,130,-1,129,130,131,-1,131,130,132,-1,131,132,133,-1,133,132,134,-1,133,134,135,-1,135,134,136,-1,135,136,137,-1,137,136,138,-1,137,138,139,-1,139,138,140,-1,139,140,141,-1,141,140,142,-1,141,142,143,-1,143,142,144,-1,143,144,145,-1,145,144,146,-1,145,146,147,-1,147,146,148,-1,147,148,149,-1,149,148,150,-1,149,150,151,-1,151,150,152,-1,151,152,153,-1,154,155,152,-1,152,155,156,-1,152,156,153,-1,155,154,157,-1,157,154,158,-1,157,158,159,-1,159,158,160,-1,159,160,161,-1,162,163,160,-1,160,163,161,-1,163,162,164,-1,163,164,165,-1,165,164,166,-1,165,166,167,-1,167,166,168,-1,167,168,169,-1,169,168,170,-1,169,170,171,-1,171,170,172,-1,171,172,173,-1,173,172,174,-1,173,174,175,-1,175,174,176,-1,175,176,177,-1,177,176,178,-1,177,178,179,-1,179,178,180,-1,179,180,181,-1,181,180,182,-1,181,182,183,-1,183,182,184,-1,183,184,185,-1,185,184,186,-1,185,186,187,-1,187,186,188,-1,187,188,189,-1,189,188,190,-1,189,190,191,-1,191,190,192,-1,191,192,193,-1,193,192,194,-1,193,194,195,-1,195,194,196,-1,195,196,197,-1,197,196,198,-1,197,198,199,-1,199,198,200,-1,199,200,201,-1,202,203,200,-1,200,203,201,-1,203,202,204,-1,203,204,205,-1,205,204,206,-1,205,206,207,-1,207,206,127,-1,207,127,126,-1,192,127,194,-1,194,127,206,-1,194,206,196,-1,196,206,204,-1,196,204,198,-1,198,204,202,-1,198,202,200,-1,162,160,164,-1,164,160,158,-1,164,158,166,-1,166,158,154,-1,166,154,168,-1,168,154,152,-1,168,152,170,-1,170,152,150,-1,170,150,172,-1,172,150,148,-1,172,148,174,-1,174,148,146,-1,174,146,176,-1,176,146,144,-1,176,144,178,-1,178,144,142,-1,178,142,180,-1,180,142,140,-1,180,140,182,-1,182,140,138,-1,182,138,184,-1,184,138,136,-1,184,136,186,-1,186,136,134,-1,186,134,188,-1,188,134,132,-1,188,132,190,-1,190,132,130,-1,190,130,192,-1,192,130,128,-1,192,128,127,-1,208,209,210,-1,210,209,211,-1,212,213,208,-1,208,213,209,-1,214,215,212,-1,212,215,213,-1,216,217,214,-1,214,217,215,-1,218,219,216,-1,216,219,217,-1,218,210,219,-1,219,210,211,-1,212,208,214,-1,214,208,210,-1,214,210,216,-1,216,210,218,-1,
        ]
    }
}
Shape{
    appearance Appearance {
        material  Material 	{
            diffuseColor 0.10980392156862745 0.10980392156862745 0.10980392156862745
            specularColor 0.0784313725490196 0.0784313725490196 0.0784313725490196
            ambientIntensity 0.1098
            transparency 0.0
            shininess 0.5
        }
    }
    geometry IndexedFaceSet {
        ccw TRUE
        solid FALSE
        coord DEF co Coordinate {
            point [
                0.3155 -0.0768 0.1969, 0.3813 -0.0768 0.1969, 0.3448 -0.159 0.1969, 0.3516 -0.159 0.1969, 0.3467 -0.1659 0.1969, 0.3499 -0.1659 0.1969, 0.348 -0.1728 0.1969, 0.3486 -0.1728 0.1969, 0.1148 -0.1752 0.1969, 0.1148 -0.0216 0.1969, 0.1438 -0.1752 0.1969, 0.1427 -0.0216 0.1969, 0.218 -0.0767 0.1969, 0.2204 -0.1003 0.1969, 0.2187 -0.1199 0.1969, 0.2141 -0.1355 0.1969, 0.1672 -0.1727 0.1969, 0.1635 -0.0235 0.1969, 0.1801 -0.0287 0.1969, 0.1934 -0.0366 0.1969, 0.2074 -0.1476 0.1969, 0.1978 -0.1577 0.1969, 0.1835 -0.167 0.1969, 0.2045 -0.0476 0.1969, 0.2128 -0.061 0.1969
            ]
        }
        coordIndex [
            0,1,2,-1,2,1,3,-1,2,3,4,-1,4,3,5,-1,4,5,6,-1,6,5,7,-1,8,9,10,-1,10,9,11,-1,12,13,10,-1,13,14,10,-1,10,14,15,-1,10,15,16,-1,11,17,10,-1,10,17,18,-1,10,18,19,-1,20,21,15,-1,15,21,22,-1,15,22,16,-1,19,23,10,-1,10,23,24,-1,10,24,12,-1,
        ]
    }
}
Shape{
    appearance Appearance {
        material  Material 	{
            diffuseColor 0.7764705882352941 0.7568627450980392 0.7372549019607844
            specularColor 0.38823529411764707 0.3764705882352941 0.3686274509803922
            ambientIntensity 0.7605
            transparency 0.0
            shininess 0.5
        }
    }
    geometry IndexedFaceSet {
        ccw TRUE
        solid FALSE
        coord DEF co Coordinate {
            point [
                -0.4409 -1.5394 -1.1811, -0.5591 -1.5394 -1.1811, -0.4409 -1.4606 -1.1811, -0.5591 -1.4606 -1.1811, -0.6969 -1.4606 0.1181, -0.6969 -1.4606 0.7677, -0.4016 -1.4606 0.0, -0.3031 -1.4606 0.7677, -0.3622 -1.4606 0.0, -0.3031 -1.4606 0.1181, -0.4016 -1.4606 -0.9842, -0.5984 -1.4606 -0.9842, -0.5984 -1.4606 0.0, -0.6378 -1.4606 0.0, -0.3031 -1.5394 0.1181, -0.3031 -1.5394 0.7677, -0.5984 -1.5394 0.0, -0.6969 -1.5394 0.7677, -0.6378 -1.5394 0.0, -0.6969 -1.5394 0.1181, -0.3622 -1.5394 0.0, -0.4016 -1.5394 0.0, -0.4016 -1.5394 -0.9842, -0.5984 -1.5394 -0.9842, -0.6969 -1.25 0.8071, -0.6969 -1.25 0.8858, -0.3031 -1.25 0.8071, -0.3031 -1.25 0.8858, -0.6969 -1.4213 0.8858, -0.6969 -1.4213 0.8071, -0.3031 -1.4213 0.8071, -0.3031 -1.4213 0.8858, -0.6969 -1.4593 0.7779, -0.6969 -1.5353 0.7983, -0.6969 -1.4554 0.7874, -0.6969 -1.5235 0.8268, -0.6969 -1.4491 0.7956, -0.6969 -1.5048 0.8512, -0.6969 -1.4409 0.8018, -0.6969 -1.4803 0.87, -0.6969 -1.4314 0.8057, -0.6969 -1.4518 0.8818, -0.3031 -1.4314 0.8057, -0.3031 -1.4409 0.8018, -0.3031 -1.4491 0.7956, -0.3031 -1.4554 0.7874, -0.3031 -1.4593 0.7779, -0.3031 -1.4518 0.8818, -0.3031 -1.4803 0.87, -0.3031 -1.5048 0.8512, -0.3031 -1.5235 0.8268, -0.3031 -1.5353 0.7983, -0.5591 1.5394 -1.1811, -0.4409 1.5394 -1.1811, -0.5591 1.4606 -1.1811, -0.4409 1.4606 -1.1811, -0.3031 1.4606 0.1181, -0.3031 1.4606 0.7677, -0.5984 1.4606 0.0, -0.6969 1.4606 0.7677, -0.6378 1.4606 0.0, -0.6969 1.4606 0.1181, -0.3622 1.4606 0.0, -0.4016 1.4606 0.0, -0.4016 1.4606 -0.9842, -0.5984 1.4606 -0.9842, -0.6969 1.5394 0.1181, -0.6969 1.5394 0.7677, -0.4016 1.5394 0.0, -0.3031 1.5394 0.7677, -0.3622 1.5394 0.0, -0.3031 1.5394 0.1181, -0.4016 1.5394 -0.9842, -0.5984 1.5394 -0.9842, -0.5984 1.5394 0.0, -0.6378 1.5394 0.0, -0.6969 1.25 0.8858, -0.6969 1.25 0.8071, -0.3031 1.25 0.8858, -0.3031 1.25 0.8071, -0.6969 1.4213 0.8858, -0.6969 1.4213 0.8071, -0.3031 1.4213 0.8071, -0.3031 1.4213 0.8858, -0.6969 1.4314 0.8057, -0.6969 1.4518 0.8818, -0.6969 1.4409 0.8018, -0.6969 1.4803 0.87, -0.6969 1.4491 0.7956, -0.6969 1.5048 0.8512, -0.6969 1.4554 0.7874, -0.6969 1.5235 0.8268, -0.6969 1.4593 0.7779, -0.6969 1.5353 0.7983, -0.3031 1.4593 0.7779, -0.3031 1.4554 0.7874, -0.3031 1.4491 0.7956, -0.3031 1.4409 0.8018, -0.3031 1.4314 0.8057, -0.3031 1.5353 0.7983, -0.3031 1.5235 0.8268, -0.3031 1.5048 0.8512, -0.3031 1.4803 0.87, -0.3031 1.4518 0.8818, 0.5591 -1.5394 -1.1811, 0.4409 -1.5394 -1.1811, 0.5591 -1.4606 -1.1811, 0.4409 -1.4606 -1.1811, 0.3031 -1.4606 0.1181, 0.3031 -1.4606 0.7677, 0.5984 -1.4606 0.0, 0.6969 -1.4606 0.7677, 0.6378 -1.4606 0.0, 0.6969 -1.4606 0.1181, 0.3622 -1.4606 0.0, 0.4016 -1.4606 0.0, 0.4016 -1.4606 -0.9842, 0.5984 -1.4606 -0.9842, 0.6969 -1.5394 0.1181, 0.6969 -1.5394 0.7677, 0.4016 -1.5394 0.0, 0.3031 -1.5394 0.7677, 0.3622 -1.5394 0.0, 0.3031 -1.5394 0.1181, 0.4016 -1.5394 -0.9842, 0.5984 -1.5394 -0.9842, 0.5984 -1.5394 0.0, 0.6378 -1.5394 0.0, 0.6969 -1.25 0.8858, 0.6969 -1.25 0.8071, 0.3031 -1.25 0.8858, 0.3031 -1.25 0.8071, 0.6969 -1.4213 0.8858, 0.6969 -1.4213 0.8071, 0.3031 -1.4213 0.8071, 0.3031 -1.4213 0.8858, 0.6969 -1.4314 0.8057, 0.6969 -1.4518 0.8818, 0.6969 -1.4409 0.8018, 0.6969 -1.4803 0.87, 0.6969 -1.4491 0.7956, 0.6969 -1.5048 0.8512, 0.6969 -1.4554 0.7874, 0.6969 -1.5235 0.8268, 0.6969 -1.4593 0.7779, 0.6969 -1.5353 0.7983, 0.3031 -1.4593 0.7779, 0.3031 -1.4554 0.7874, 0.3031 -1.4491 0.7956, 0.3031 -1.4409 0.8018, 0.3031 -1.4314 0.8057, 0.3031 -1.5353 0.7983, 0.3031 -1.5235 0.8268, 0.3031 -1.5048 0.8512, 0.3031 -1.4803 0.87, 0.3031 -1.4518 0.8818, -1.5984 -1.25 0.8858, -1.3031 -1.25 0.8858, -1.5984 -1.25 0.8071, -1.3031 -1.25 0.8071, -1.4409 -1.5394 -1.1811, -1.5591 -1.5394 -1.1811, -1.4409 -1.4606 -1.1811, -1.5591 -1.4606 -1.1811, -1.3031 -1.4213 0.8071, -1.5984 -1.4213 0.8071, -1.3031 -1.4213 0.8858, -1.5984 -1.4213 0.8858, -1.5984 -1.4314 0.8057, -1.3031 -1.4314 0.8057, -1.5984 -1.4409 0.8018, -1.3031 -1.4409 0.8018, -1.5984 -1.4491 0.7956, -1.3031 -1.4491 0.7956, -1.5984 -1.4554 0.7874, -1.3031 -1.4554 0.7874, -1.5984 -1.4593 0.7779, -1.3031 -1.4593 0.7779, -1.5984 -1.4606 0.7677, -1.3031 -1.4606 0.7677, -1.3031 -1.4518 0.8818, -1.3031 -1.4803 0.87, -1.3031 -1.5048 0.8512, -1.3031 -1.5235 0.8268, -1.3031 -1.5353 0.7983, -1.3031 -1.5394 0.7677, -1.5984 -1.5394 0.7677, -1.5984 -1.5353 0.7983, -1.5984 -1.5235 0.8268, -1.5984 -1.5048 0.8512, -1.5984 -1.4803 0.87, -1.5984 -1.4518 0.8818, -1.3031 -1.4606 0.1181, -1.3622 -1.4606 0.0, -1.4016 -1.4606 0.0, -1.4016 -1.4606 -0.9842, -1.5984 -1.4606 -0.9842, -1.3031 -1.5394 0.1181, -1.5984 -1.5394 -0.9842, -1.4016 -1.5394 -0.9842, -1.4016 -1.5394 0.0, -1.3622 -1.5394 0.0, -1.5984 1.25 0.8071, -1.3031 1.25 0.8071, -1.5984 1.25 0.8858, -1.3031 1.25 0.8858, -1.5591 1.5394 -1.1811, -1.4409 1.5394 -1.1811, -1.5591 1.4606 -1.1811, -1.4409 1.4606 -1.1811, -1.3031 1.4213 0.8071, -1.5984 1.4213 0.8071, -1.3031 1.4213 0.8858, -1.5984 1.4213 0.8858, -1.5984 1.4606 0.7677, -1.3031 1.4606 0.7677, -1.5984 1.4593 0.7779, -1.3031 1.4593 0.7779, -1.5984 1.4554 0.7874, -1.3031 1.4554 0.7874, -1.5984 1.4491 0.7956, -1.3031 1.4491 0.7956, -1.5984 1.4409 0.8018, -1.3031 1.4409 0.8018, -1.5984 1.4314 0.8057, -1.3031 1.4314 0.8057, -1.3031 1.5394 0.7677, -1.3031 1.5353 0.7983, -1.3031 1.5235 0.8268, -1.3031 1.5048 0.8512, -1.3031 1.4803 0.87, -1.3031 1.4518 0.8818, -1.5984 1.4518 0.8818, -1.5984 1.4803 0.87, -1.5984 1.5048 0.8512, -1.5984 1.5235 0.8268, -1.5984 1.5353 0.7983, -1.5984 1.5394 0.7677, -1.3031 1.4606 0.1181, -1.5984 1.4606 -0.9842, -1.4016 1.4606 -0.9842, -1.4016 1.4606 0.0, -1.3622 1.4606 0.0, -1.3031 1.5394 0.1181, -1.3622 1.5394 0.0, -1.4016 1.5394 0.0, -1.4016 1.5394 -0.9842, -1.5984 1.5394 -0.9842, 1.5984 -1.25 0.8071, 1.3031 -1.25 0.8071, 1.5984 -1.25 0.8858, 1.3031 -1.25 0.8858, 1.5591 -1.5394 -1.1811, 1.4409 -1.5394 -1.1811, 1.5591 -1.4606 -1.1811, 1.4409 -1.4606 -1.1811, 1.3031 -1.4213 0.8071, 1.5984 -1.4213 0.8071, 1.3031 -1.4213 0.8858, 1.5984 -1.4213 0.8858, 1.5984 -1.4606 0.7677, 1.3031 -1.4606 0.7677, 1.5984 -1.4593 0.7779, 1.3031 -1.4593 0.7779, 1.5984 -1.4554 0.7874, 1.3031 -1.4554 0.7874, 1.5984 -1.4491 0.7956, 1.3031 -1.4491 0.7956, 1.5984 -1.4409 0.8018, 1.3031 -1.4409 0.8018, 1.5984 -1.4314 0.8057, 1.3031 -1.4314 0.8057, 1.3031 -1.5394 0.7677, 1.3031 -1.5353 0.7983, 1.3031 -1.5235 0.8268, 1.3031 -1.5048 0.8512, 1.3031 -1.4803 0.87, 1.3031 -1.4518 0.8818, 1.5984 -1.4518 0.8818, 1.5984 -1.4803 0.87, 1.5984 -1.5048 0.8512, 1.5984 -1.5235 0.8268, 1.5984 -1.5353 0.7983, 1.5984 -1.5394 0.7677, 1.3031 -1.4606 0.1181, 1.5984 -1.4606 -0.9842, 1.4016 -1.4606 -0.9842, 1.4016 -1.4606 0.0, 1.3622 -1.4606 0.0, 1.3031 -1.5394 0.1181, 1.3622 -1.5394 0.0, 1.4016 -1.5394 0.0, 1.4016 -1.5394 -0.9842, 1.5984 -1.5394 -0.9842, 1.5984 1.25 0.8858, 1.3031 1.25 0.8858, 1.5984 1.25 0.8071, 1.3031 1.25 0.8071, 1.4409 1.5394 -1.1811, 1.5591 1.5394 -1.1811, 1.4409 1.4606 -1.1811, 1.5591 1.4606 -1.1811, 1.3031 1.4213 0.8071, 1.5984 1.4213 0.8071, 1.3031 1.4213 0.8858, 1.5984 1.4213 0.8858, 1.5984 1.4314 0.8057, 1.3031 1.4314 0.8057, 1.5984 1.4409 0.8018, 1.3031 1.4409 0.8018, 1.5984 1.4491 0.7956, 1.3031 1.4491 0.7956, 1.5984 1.4554 0.7874, 1.3031 1.4554 0.7874, 1.5984 1.4593 0.7779, 1.3031 1.4593 0.7779, 1.5984 1.4606 0.7677, 1.3031 1.4606 0.7677, 1.3031 1.4518 0.8818, 1.3031 1.4803 0.87, 1.3031 1.5048 0.8512, 1.3031 1.5235 0.8268, 1.3031 1.5353 0.7983, 1.3031 1.5394 0.7677, 1.5984 1.5394 0.7677, 1.5984 1.5353 0.7983, 1.5984 1.5235 0.8268, 1.5984 1.5048 0.8512, 1.5984 1.4803 0.87, 1.5984 1.4518 0.8818, 1.3031 1.4606 0.1181, 1.3622 1.4606 0.0, 1.4016 1.4606 0.0, 1.4016 1.4606 -0.9842, 1.5984 1.4606 -0.9842, 1.3031 1.5394 0.1181, 1.5984 1.5394 -0.9842, 1.4016 1.5394 -0.9842, 1.4016 1.5394 0.0, 1.3622 1.5394 0.0
            ]
        }
        coordIndex [
            0,1,2,-1,2,1,3,-1,4,5,6,-1,6,5,7,-1,6,7,8,-1,8,7,9,-1,2,3,10,-1,10,3,11,-1,10,11,6,-1,6,11,12,-1,6,12,4,-1,4,12,13,-1,14,15,16,-1,16,15,17,-1,16,17,18,-1,18,17,19,-1,20,14,21,-1,21,14,16,-1,21,16,22,-1,22,16,23,-1,22,23,0,-1,0,23,1,-1,9,7,14,-1,14,7,15,-1,19,17,4,-1,4,17,5,-1,24,25,26,-1,26,25,27,-1,28,25,29,-1,29,25,24,-1,29,24,30,-1,30,24,26,-1,30,26,31,-1,31,26,27,-1,27,25,31,-1,31,25,28,-1,5,17,32,-1,32,17,33,-1,32,33,34,-1,34,33,35,-1,34,35,36,-1,36,35,37,-1,36,37,38,-1,38,37,39,-1,38,39,40,-1,40,39,41,-1,40,41,29,-1,29,41,28,-1,29,30,40,-1,40,30,42,-1,40,42,38,-1,38,42,43,-1,38,43,36,-1,36,43,44,-1,36,44,34,-1,34,44,45,-1,34,45,32,-1,32,45,46,-1,32,46,5,-1,5,46,7,-1,30,31,42,-1,42,31,47,-1,42,47,43,-1,43,47,48,-1,43,48,44,-1,44,48,49,-1,44,49,45,-1,45,49,50,-1,45,50,46,-1,46,50,51,-1,46,51,7,-1,7,51,15,-1,17,15,51,-1,17,51,33,-1,33,51,50,-1,33,50,35,-1,35,50,49,-1,35,49,37,-1,37,49,48,-1,37,48,39,-1,39,48,47,-1,39,47,41,-1,41,47,31,-1,41,31,28,-1,18,19,13,-1,13,19,4,-1,13,12,18,-1,18,12,16,-1,23,16,11,-1,11,16,12,-1,1,23,3,-1,3,23,11,-1,14,20,9,-1,9,20,8,-1,20,21,8,-1,8,21,6,-1,10,6,22,-1,22,6,21,-1,22,0,10,-1,10,0,2,-1,52,53,54,-1,54,53,55,-1,56,57,58,-1,58,57,59,-1,58,59,60,-1,60,59,61,-1,62,56,63,-1,63,56,58,-1,63,58,64,-1,64,58,65,-1,64,65,55,-1,55,65,54,-1,66,67,68,-1,68,67,69,-1,68,69,70,-1,70,69,71,-1,53,52,72,-1,72,52,73,-1,72,73,68,-1,68,73,74,-1,68,74,66,-1,66,74,75,-1,57,56,69,-1,69,56,71,-1,67,66,59,-1,59,66,61,-1,76,77,78,-1,78,77,79,-1,76,80,77,-1,77,80,81,-1,77,81,79,-1,79,81,82,-1,79,82,78,-1,78,82,83,-1,76,78,80,-1,80,78,83,-1,81,80,84,-1,84,80,85,-1,84,85,86,-1,86,85,87,-1,86,87,88,-1,88,87,89,-1,88,89,90,-1,90,89,91,-1,90,91,92,-1,92,91,93,-1,92,93,59,-1,59,93,67,-1,59,57,92,-1,92,57,94,-1,92,94,90,-1,90,94,95,-1,90,95,88,-1,88,95,96,-1,88,96,86,-1,86,96,97,-1,86,97,84,-1,84,97,98,-1,84,98,81,-1,81,98,82,-1,57,69,94,-1,94,69,99,-1,94,99,95,-1,95,99,100,-1,95,100,96,-1,96,100,101,-1,96,101,97,-1,97,101,102,-1,97,102,98,-1,98,102,103,-1,98,103,82,-1,82,103,83,-1,80,83,103,-1,80,103,85,-1,85,103,102,-1,85,102,87,-1,87,102,101,-1,87,101,89,-1,89,101,100,-1,89,100,91,-1,91,100,99,-1,91,99,93,-1,93,99,69,-1,93,69,67,-1,66,75,61,-1,61,75,60,-1,58,60,74,-1,74,60,75,-1,74,73,58,-1,58,73,65,-1,73,52,65,-1,65,52,54,-1,70,71,62,-1,62,71,56,-1,68,70,63,-1,63,70,62,-1,63,64,68,-1,68,64,72,-1,53,72,55,-1,55,72,64,-1,104,105,106,-1,106,105,107,-1,108,109,110,-1,110,109,111,-1,110,111,112,-1,112,111,113,-1,114,108,115,-1,115,108,110,-1,115,110,116,-1,116,110,117,-1,116,117,107,-1,107,117,106,-1,118,119,120,-1,120,119,121,-1,120,121,122,-1,122,121,123,-1,105,104,124,-1,124,104,125,-1,124,125,120,-1,120,125,126,-1,120,126,118,-1,118,126,127,-1,109,108,121,-1,121,108,123,-1,119,118,111,-1,111,118,113,-1,128,129,130,-1,130,129,131,-1,128,132,129,-1,129,132,133,-1,129,133,131,-1,131,133,134,-1,131,134,130,-1,130,134,135,-1,128,130,132,-1,132,130,135,-1,133,132,136,-1,136,132,137,-1,136,137,138,-1,138,137,139,-1,138,139,140,-1,140,139,141,-1,140,141,142,-1,142,141,143,-1,142,143,144,-1,144,143,145,-1,144,145,111,-1,111,145,119,-1,111,109,144,-1,144,109,146,-1,144,146,142,-1,142,146,147,-1,142,147,140,-1,140,147,148,-1,140,148,138,-1,138,148,149,-1,138,149,136,-1,136,149,150,-1,136,150,133,-1,133,150,134,-1,109,121,146,-1,146,121,151,-1,146,151,147,-1,147,151,152,-1,147,152,148,-1,148,152,153,-1,148,153,149,-1,149,153,154,-1,149,154,150,-1,150,154,155,-1,150,155,134,-1,134,155,135,-1,132,135,155,-1,132,155,137,-1,137,155,154,-1,137,154,139,-1,139,154,153,-1,139,153,141,-1,141,153,152,-1,141,152,143,-1,143,152,151,-1,143,151,145,-1,145,151,121,-1,145,121,119,-1,118,127,113,-1,113,127,112,-1,110,112,126,-1,126,112,127,-1,126,125,110,-1,110,125,117,-1,125,104,117,-1,117,104,106,-1,122,123,114,-1,114,123,108,-1,120,122,115,-1,115,122,114,-1,115,116,120,-1,120,116,124,-1,105,124,107,-1,107,124,116,-1,156,157,158,-1,158,157,159,-1,160,161,162,-1,162,161,163,-1,159,164,158,-1,158,164,165,-1,164,159,166,-1,166,159,157,-1,166,157,167,-1,167,157,156,-1,165,164,168,-1,168,164,169,-1,168,169,170,-1,170,169,171,-1,170,171,172,-1,172,171,173,-1,172,173,174,-1,174,173,175,-1,174,175,176,-1,176,175,177,-1,176,177,178,-1,178,177,179,-1,164,166,169,-1,169,166,180,-1,169,180,171,-1,171,180,181,-1,171,181,173,-1,173,181,182,-1,173,182,175,-1,175,182,183,-1,175,183,177,-1,177,183,184,-1,177,184,179,-1,179,184,185,-1,186,185,184,-1,186,184,187,-1,187,184,183,-1,187,183,188,-1,188,183,182,-1,188,182,189,-1,189,182,181,-1,189,181,190,-1,190,181,180,-1,190,180,191,-1,191,180,166,-1,191,166,167,-1,192,193,194,-1,162,163,195,-1,195,163,196,-1,195,196,194,-1,194,196,178,-1,194,178,192,-1,192,178,179,-1,192,179,197,-1,197,179,185,-1,197,185,186,-1,198,161,160,-1,160,199,198,-1,198,199,200,-1,198,200,186,-1,186,200,201,-1,186,201,197,-1,195,194,199,-1,199,194,200,-1,201,200,193,-1,193,200,194,-1,196,198,178,-1,178,198,186,-1,178,186,176,-1,176,186,187,-1,176,187,174,-1,174,187,188,-1,174,188,172,-1,172,188,189,-1,172,189,170,-1,170,189,190,-1,170,190,168,-1,168,190,191,-1,168,191,165,-1,165,191,167,-1,165,167,158,-1,158,167,156,-1,199,160,195,-1,195,160,162,-1,161,198,163,-1,163,198,196,-1,197,201,192,-1,192,201,193,-1,202,203,204,-1,204,203,205,-1,206,207,208,-1,208,207,209,-1,210,203,211,-1,211,203,202,-1,203,210,205,-1,205,210,212,-1,205,212,204,-1,204,212,213,-1,214,215,216,-1,216,215,217,-1,216,217,218,-1,218,217,219,-1,218,219,220,-1,220,219,221,-1,220,221,222,-1,222,221,223,-1,222,223,224,-1,224,223,225,-1,224,225,211,-1,211,225,210,-1,215,226,217,-1,217,226,227,-1,217,227,219,-1,219,227,228,-1,219,228,221,-1,221,228,229,-1,221,229,223,-1,223,229,230,-1,223,230,225,-1,225,230,231,-1,225,231,210,-1,210,231,212,-1,213,212,231,-1,213,231,232,-1,232,231,230,-1,232,230,233,-1,233,230,229,-1,233,229,234,-1,234,229,228,-1,234,228,235,-1,235,228,227,-1,235,227,236,-1,236,227,226,-1,236,226,237,-1,238,215,214,-1,239,208,209,-1,209,240,239,-1,239,240,241,-1,239,241,214,-1,214,241,242,-1,214,242,238,-1,215,238,226,-1,226,238,243,-1,243,244,245,-1,207,206,246,-1,246,206,247,-1,246,247,245,-1,245,247,237,-1,245,237,243,-1,243,237,226,-1,241,240,245,-1,245,240,246,-1,245,244,241,-1,241,244,242,-1,202,204,211,-1,211,204,213,-1,211,213,224,-1,224,213,232,-1,224,232,222,-1,222,232,233,-1,222,233,220,-1,220,233,234,-1,220,234,218,-1,218,234,235,-1,218,235,216,-1,216,235,236,-1,216,236,214,-1,214,236,237,-1,214,237,239,-1,239,237,247,-1,207,246,209,-1,209,246,240,-1,247,206,239,-1,239,206,208,-1,244,243,242,-1,242,243,238,-1,248,249,250,-1,250,249,251,-1,252,253,254,-1,254,253,255,-1,256,249,257,-1,257,249,248,-1,249,256,251,-1,251,256,258,-1,251,258,250,-1,250,258,259,-1,260,261,262,-1,262,261,263,-1,262,263,264,-1,264,263,265,-1,264,265,266,-1,266,265,267,-1,266,267,268,-1,268,267,269,-1,268,269,270,-1,270,269,271,-1,270,271,257,-1,257,271,256,-1,261,272,263,-1,263,272,273,-1,263,273,265,-1,265,273,274,-1,265,274,267,-1,267,274,275,-1,267,275,269,-1,269,275,276,-1,269,276,271,-1,271,276,277,-1,271,277,256,-1,256,277,258,-1,259,258,277,-1,259,277,278,-1,278,277,276,-1,278,276,279,-1,279,276,275,-1,279,275,280,-1,280,275,274,-1,280,274,281,-1,281,274,273,-1,281,273,282,-1,282,273,272,-1,282,272,283,-1,284,261,260,-1,285,254,255,-1,255,286,285,-1,285,286,287,-1,285,287,260,-1,260,287,288,-1,260,288,284,-1,261,284,272,-1,272,284,289,-1,289,290,291,-1,253,252,292,-1,292,252,293,-1,292,293,291,-1,291,293,283,-1,291,283,289,-1,289,283,272,-1,287,286,291,-1,291,286,292,-1,291,290,287,-1,287,290,288,-1,248,250,257,-1,257,250,259,-1,257,259,270,-1,270,259,278,-1,270,278,268,-1,268,278,279,-1,268,279,266,-1,266,279,280,-1,266,280,264,-1,264,280,281,-1,264,281,262,-1,262,281,282,-1,262,282,260,-1,260,282,283,-1,260,283,285,-1,285,283,293,-1,253,292,255,-1,255,292,286,-1,293,252,285,-1,285,252,254,-1,290,289,288,-1,288,289,284,-1,294,295,296,-1,296,295,297,-1,298,299,300,-1,300,299,301,-1,297,302,296,-1,296,302,303,-1,302,297,304,-1,304,297,295,-1,304,295,305,-1,305,295,294,-1,303,302,306,-1,306,302,307,-1,306,307,308,-1,308,307,309,-1,308,309,310,-1,310,309,311,-1,310,311,312,-1,312,311,313,-1,312,313,314,-1,314,313,315,-1,314,315,316,-1,316,315,317,-1,302,304,307,-1,307,304,318,-1,307,318,309,-1,309,318,319,-1,309,319,311,-1,311,319,320,-1,311,320,313,-1,313,320,321,-1,313,321,315,-1,315,321,322,-1,315,322,317,-1,317,322,323,-1,324,323,322,-1,324,322,325,-1,325,322,321,-1,325,321,326,-1,326,321,320,-1,326,320,327,-1,327,320,319,-1,327,319,328,-1,328,319,318,-1,328,318,329,-1,329,318,304,-1,329,304,305,-1,330,331,332,-1,300,301,333,-1,333,301,334,-1,333,334,332,-1,332,334,316,-1,332,316,330,-1,330,316,317,-1,330,317,335,-1,335,317,323,-1,335,323,324,-1,336,299,298,-1,298,337,336,-1,336,337,338,-1,336,338,324,-1,324,338,339,-1,324,339,335,-1,333,332,337,-1,337,332,338,-1,339,338,331,-1,331,338,332,-1,334,336,316,-1,316,336,324,-1,316,324,314,-1,314,324,325,-1,314,325,312,-1,312,325,326,-1,312,326,310,-1,310,326,327,-1,310,327,308,-1,308,327,328,-1,308,328,306,-1,306,328,329,-1,306,329,303,-1,303,329,305,-1,303,305,296,-1,296,305,294,-1,337,298,333,-1,333,298,300,-1,299,336,301,-1,301,336,334,-1,335,339,330,-1,330,339,331,-1,
        ]
    }
}