#VRML V2.0 utf8
# 3D model generated by easyeda2kicad.py (https://github.com/uPesy/easyeda2kicad.py)

Shape{
    appearance Appearance {
        material  Material 	{
            diffuseColor 0.7686274509803922 0.7686274509803922 0.7686274509803922
            specularColor 0.615686274509804 0.615686274509804 0.615686274509804
            ambientIntensity 0.7686
            transparency 0.0
            shininess 0.5
        }
    }
    geometry IndexedFaceSet {
        ccw TRUE
        solid FALSE
        coord DEF co Coordinate {
            point [
                -0.1561 -1.2782 0.5709, -0.1561 -1.2782 0.374, -0.1561 -0.9632 0.5709, -0.1561 -0.9632 0.374, -0.4317 -1.2782 0.5709, -0.4317 -0.9632 0.5709, -0.4317 -1.2782 0.374, -0.4317 -0.9632 0.374
            ]
        }
        coordIndex [
            0,1,2,-1,2,1,3,-1,4,0,5,-1,5,0,2,-1,6,4,7,-1,7,4,5,-1,1,6,3,-1,3,6,7,-1,4,6,0,-1,0,6,1,-1,7,5,3,-1,3,5,2,-1,
        ]
    }
}
Shape{
    appearance Appearance {
        material  Material 	{
            diffuseColor 0.25098039215686274 0.25098039215686274 0.25098039215686274
            specularColor 0.07450980392156863 0.07450980392156863 0.07450980392156863
            ambientIntensity 0.251
            transparency 0.0
            shininess 0.5
        }
    }
    geometry IndexedFaceSet {
        ccw TRUE
        solid FALSE
        coord DEF co Coordinate {
            point [
                -0.3668 0.2849 0.9055, -0.3668 1.3411 0.9055, -0.6107 1.3411 0.9055, 0.9659 0.2849 0.9055, 0.9659 1.3411 0.9055, 0.3822 1.3411 0.9055, -0.2099 -0.035 0.9055, -0.2266 -0.0369 0.9055, -0.1212 -0.0369 0.9055, -0.734 -0.0345 0.9055, -0.7554 -0.0369 0.9055, -0.6107 -0.0369 0.9055, -0.9543 0.2806 0.9055, -0.9543 0.272 0.9055, -0.9439 0.272 0.9055, -0.9543 0.2445 0.9055, -0.9439 -0.0369 0.9055, -1.061 0.2445 0.9055, -1.061 -0.0343 0.9055, -1.1023 0.2445 0.9055, -1.209 0.2445 0.9055, -1.1023 -0.0343 0.9055, -1.3814 -0.0369 0.9055, -1.3814 0.272 0.9055, -1.209 0.272 0.9055, -1.3814 0.2849 0.9055, -1.209 0.2806 0.9055, -0.9439 0.2849 0.9055, -0.6667 0.2445 0.9055, -0.6107 0.272 0.9055, -0.6928 0.2664 0.9055, -0.7043 0.272 0.9055, -0.6254 0.1223 0.9055, -0.6292 0.0847 0.9055, -0.6425 0.0418 0.9055, -0.665 0.0053 0.9055, -0.678 -0.0071 0.9055, -0.7026 -0.0232 0.9055, -0.6493 0.2175 0.9055, -0.6326 0.1747 0.9055, -0.7213 0.2803 0.9055, -0.6107 0.2849 0.9055, -0.7435 0.2849 0.9055, -0.8562 0.272 0.9055, -0.8548 0.2729 0.9055, -0.7603 0.2885 0.9055, -0.7786 0.2892 0.9055, -0.9439 1.3411 0.9055, -0.817 0.2849 0.9055, -0.824 0.2842 0.9055, -0.9245 0.1829 0.9055, -0.9082 0.2207 0.9055, -0.8819 0.2548 0.9055, -0.8507 -0.0259 0.9055, -0.8743 -0.0126 0.9055, -0.8974 0.0087 0.9055, -0.9085 0.0261 0.9055, -0.9264 0.0707 0.9055, -0.9335 0.1223 0.9055, -0.933 0.132 0.9055, -0.7786 -0.0395 0.9055, -0.6107 -0.9435 0.9055, -0.9439 -0.9435 0.9055, -0.7888 -0.0393 0.9055, -0.8118 -0.0369 0.9055, -0.8139 -0.0367 0.9055, -0.5857 0.1971 0.9055, -0.5766 0.2238 0.9055, -0.3843 0.0018 0.9055, -0.3843 -0.0343 0.9055, -0.3668 -0.0369 0.9055, -0.5891 0.1636 0.9055, -0.3928 0.1416 0.9055, -0.4043 0.1242 0.9055, -0.4294 0.1013 0.9055, -0.5423 0.2045 0.9055, -0.5472 0.1874 0.9055, -0.4908 0.2392 0.9055, -0.5495 0.1636 0.9055, -0.4876 0.2393 0.9055, -0.5616 0.2462 0.9055, -0.5535 0.2538 0.9055, -0.5373 0.2642 0.9055, -0.4354 0.2653 0.9055, -0.4188 0.2558 0.9055, -0.3668 0.272 0.9055, -0.4053 0.2432 0.9055, -0.3953 0.2278 0.9055, -0.596 -0.0343 0.9055, -0.5937 -0.0087 0.9055, -0.5857 0.0207 0.9055, -0.5717 0.0466 0.9055, -0.5517 0.0687 0.9055, -0.5237 0.0879 0.9055, -0.4824 0.112 0.9055, -0.459 0.1269 0.9055, -0.3881 0.208 0.9055, -0.3843 0.1825 0.9055, -0.3863 0.1591 0.9055, -0.4376 0.1447 0.9055, -0.4346 0.1495 0.9055, -0.4285 0.1635 0.9055, -0.4686 0.0793 0.9055, -0.5013 0.0603 0.9055, -0.5246 0.0449 0.9055, -0.4256 0.1843 0.9055, -0.4256 0.1845 0.9055, -0.4286 0.2017 0.9055, -0.4451 0.2266 0.9055, -0.4554 0.2328 0.9055, -0.4694 0.2373 0.9055, -0.5076 0.2368 0.9055, -0.5186 0.2324 0.9055, -0.5359 0.2168 0.9055, -0.5279 0.2259 0.9055, -0.4333 0.2129 0.9055, -0.4405 0.2225 0.9055, -0.5408 0.0288 0.9055, -0.5488 0.0158 0.9055, -0.553 0.0018 0.9055, -0.4824 0.2755 0.9055, -0.5138 0.272 0.9055, -0.5157 0.2718 0.9055, -0.4582 0.272 0.9055, -0.4625 0.2733 0.9055, -0.2928 -0.0328 0.9055, -0.3124 -0.0237 0.9055, -0.3266 -0.012 0.9055, -0.3367 0.0015 0.9055, -0.3448 0.0198 0.9055, -0.3099 0.0431 0.9055, -0.3047 0.0999 0.9055, -0.3495 0.0431 0.9055, -0.3374 0.1016 0.9055, -0.3151 0.2686 0.9055, -0.155 0.2686 0.9055, -0.1212 0.272 0.9055, -0.155 0.2307 0.9055, -0.262 0.1276 0.9055, -0.2781 0.1223 0.9055, -0.2916 0.1136 0.9055, -0.2617 -0.0087 0.9055, -0.2428 -0.0102 0.9055, -0.2462 0.1292 0.9055, -0.2354 -0.0093 0.9055, -0.2276 0.1265 0.9055, -0.1887 0.0229 0.9055, -0.1826 0.0391 0.9055, -0.1791 0.0603 0.9055, -0.1515 0.0069 0.9055, -0.167 -0.012 0.9055, -0.3034 0.0202 0.9055, -0.2967 0.01 0.9055, -0.169 -0.0138 0.9055, -0.1869 -0.0264 0.9055, -0.3086 0.0354 0.9055, -0.2882 0.002 0.9055, -0.2761 -0.0047 0.9055, -0.2179 -0.0043 0.9055, -0.2059 0.0025 0.9055, -0.1963 0.0115 0.9055, -0.1808 0.0754 0.9055, -0.1863 0.0932 0.9055, -0.193 0.1049 0.9055, -0.2858 0.2307 0.9055, -0.2979 0.1464 0.9055, -0.2852 0.1543 0.9055, -0.2021 0.1144 0.9055, -0.2133 0.1215 0.9055, -0.1965 0.1558 0.9055, -0.177 0.1456 0.9055, -0.1607 0.1312 0.9055, -0.1492 0.1145 0.9055, -0.1407 0.093 0.9055, -0.1361 0.0655 0.9055, -0.1368 0.0508 0.9055, -0.1418 0.0275 0.9055, -0.2648 0.1622 0.9055, -0.2393 0.1653 0.9055, -0.2285 0.164 0.9055, -0.2497 -0.0395 0.9055, -0.1212 -0.9435 0.9055, -0.3668 -0.9435 0.9055, -0.2619 -0.0389 0.9055, -0.272 -0.0369 0.9055, -0.0962 0.1971 0.9055, -0.087 0.2238 0.9055, 0.1032 0.1591 0.9055, 0.1053 0.0018 0.9055, 0.1244 0.272 0.9055, -0.0995 0.1636 0.9055, 0.1244 -0.0369 0.9055, 0.1053 -0.0343 0.9055, 0.0314 0.272 0.9055, 0.0542 0.2653 0.9055, 0.0968 0.1416 0.9055, 0.0853 0.1242 0.9055, 0.0601 0.1013 0.9055, -0.0527 0.2045 0.9055, -0.0577 0.1874 0.9055, -0.0013 0.2392 0.9055, -0.06 0.1636 0.9055, 0.002 0.2393 0.9055, -0.072 0.2462 0.9055, -0.0639 0.2538 0.9055, -0.0477 0.2642 0.9055, 0.0708 0.2558 0.9055, 0.0843 0.2432 0.9055, 0.0942 0.2278 0.9055, -0.1064 -0.0343 0.9055, -0.1041 -0.0087 0.9055, -0.0962 0.0207 0.9055, -0.0822 0.0466 0.9055, -0.0622 0.0687 0.9055, -0.0341 0.0879 0.9055, 0.0072 0.112 0.9055, 0.0306 0.1269 0.9055, 0.1015 0.208 0.9055, 0.1053 0.1825 0.9055, 0.0519 0.1447 0.9055, 0.0549 0.1495 0.9055, 0.0611 0.1635 0.9055, 0.0209 0.0793 0.9055, -0.0118 0.0603 0.9055, -0.0351 0.0449 0.9055, 0.064 0.1843 0.9055, 0.0639 0.1845 0.9055, 0.0609 0.2017 0.9055, 0.0445 0.2266 0.9055, 0.0341 0.2328 0.9055, 0.0202 0.2373 0.9055, -0.0181 0.2368 0.9055, -0.0291 0.2324 0.9055, -0.0463 0.2168 0.9055, -0.0384 0.2259 0.9055, 0.0563 0.2129 0.9055, 0.049 0.2225 0.9055, -0.0512 0.0288 0.9055, -0.0592 0.0158 0.9055, -0.0634 0.0018 0.9055, -0.0262 0.2718 0.9055, -0.0242 0.272 0.9055, -0.1212 0.2849 0.9055, 0.0072 0.2755 0.9055, 0.1244 0.2849 0.9055, 0.0271 0.2733 0.9055, 0.4186 0.2325 0.9055, 0.4315 0.2497 0.9055, 0.3822 0.272 0.9055, 0.4453 -0.0292 0.9055, 0.3822 -0.0369 0.9055, 0.4687 -0.0367 0.9055, 0.4712 -0.0369 0.9055, 0.4353 -0.0236 0.9055, 0.4215 -0.0116 0.9055, 0.4117 0.0028 0.9055, 0.522 0.1069 0.9055, 0.5004 0.1085 0.9055, 0.5038 -0.0085 0.9055, 0.4104 0.2123 0.9055, 0.4027 0.0273 0.9055, 0.3988 0.0603 0.9055, 0.4521 0.2641 0.9055, 0.4735 0.2719 0.9055, 0.4749 0.272 0.9055, 0.5379 0.1029 0.9055, 0.4497 0.2073 0.9055, 0.4455 0.1931 0.9055, 0.5021 0.1412 0.9055, 0.4626 0.0026 0.9055, 0.4732 -0.0032 0.9055, 0.4868 -0.0071 0.9055, 0.4384 0.0603 0.9055, 0.4436 0.1739 0.9055, 0.4057 0.1739 0.9055, 0.4058 0.1808 0.9055, 0.5474 0.0043 0.9055, 0.557 0.013 0.9055, 0.5638 0.0232 0.9055, 0.5685 0.0356 0.9055, 0.5709 0.0517 0.9055, 0.5167 -0.0071 0.9055, 0.5708 0.0549 0.9055, 0.5687 0.0701 0.9055, 0.5647 0.0804 0.9055, 0.4814 0.1412 0.9055, 0.4814 0.1085 0.9055, 0.4384 0.0591 0.9055, 0.4417 0.035 0.9055, 0.5205 0.2374 0.9055, 0.5038 0.2393 0.9055, 0.4862 0.2376 0.9055, 0.4731 0.2331 0.9055, 0.517 0.1426 0.9055, 0.5326 0.147 0.9055, 0.5432 0.153 0.9055, 0.5498 0.1593 0.9055, 0.5553 0.1677 0.9055, 0.5589 0.178 0.9055, 0.5606 0.1911 0.9055, 0.5594 0.2 0.9055, 0.5554 0.2124 0.9055, 0.5502 0.2208 0.9055, 0.5432 0.2277 0.9055, 0.5331 0.2336 0.9055, 0.5361 -0.0019 0.9055, 0.5582 0.0897 0.9055, 0.55 0.0967 0.9055, 0.4477 0.0197 0.9055, 0.4546 0.0098 0.9055, 0.4637 0.2271 0.9055, 0.4559 0.2185 0.9055, 0.5248 -0.0369 0.9055, 0.5021 -0.0395 0.9055, 0.3822 -0.9435 0.9055, 0.4977 -0.0394 0.9055, 0.5882 0.1149 0.9055, 0.599 0.1047 0.9055, 0.5762 0.1375 0.9055, 0.5987 0.1764 0.9055, 0.5933 0.1592 0.9055, 0.9659 0.272 0.9055, 0.9659 -0.9435 0.9055, 0.9659 -0.0369 0.9055, 0.5461 -0.0345 0.9055, 0.5665 -0.0268 0.9055, 0.6085 0.0228 0.9055, 0.5995 0.004 0.9055, 0.5677 0.2583 0.9055, 0.5805 0.2471 0.9055, 0.5899 0.2336 0.9055, 0.586 0.1472 0.9055, 0.5967 0.2164 0.9055, 0.6002 0.1946 0.9055, 0.5623 0.1292 0.9055, 0.5623 0.1275 0.9055, 0.5746 0.1229 0.9055, 0.6133 0.0439 0.9055, 0.5847 -0.0137 0.9055, 0.5828 -0.0154 0.9055, 0.6072 0.0916 0.9055, 0.6122 0.0761 0.9055, 0.6139 0.0569 0.9055, 0.3822 0.2849 0.9055, 0.5055 0.2755 0.9055, 0.5263 0.2735 0.9055, 0.5316 0.272 0.9055, 0.5525 0.2664 0.9055, 0.1244 1.3411 0.9055, -0.1212 1.3411 0.9055, -1.3814 1.3411 0.9055, 0.1435 0.0603 0.9055, 0.1435 0.093 0.9055, 0.3655 0.0603 0.9055, 0.3655 0.093 0.9055, 0.1244 -0.9435 0.9055, -1.3814 -0.9435 0.9055, -1.5537 1.3411 0.9055, -1.5537 0.2849 0.9055, -1.5537 0.272 0.9055, -1.5537 -0.0369 0.9055, -1.5537 -0.9435 0.9055, -1.3333 -0.9612 0.5709, -1.5537 -0.9632 0.5906, -1.3333 -0.9405 0.374, -1.5537 -0.9012 0.0, -1.0577 -0.9405 0.374, 0.9659 -0.9012 0.0, 0.4699 -0.9405 0.374, -1.0577 -0.9612 0.5709, 0.4699 -0.9612 0.5709, 0.9659 -0.9632 0.5906, 0.7455 -0.9612 0.5709, 0.7455 -0.9405 0.374, 0.9856 -0.8814 0.0, 0.9856 1.4186 0.0, 0.9856 -0.9435 0.5916, 0.9856 1.3411 0.8858, 0.9856 -0.9435 0.8858, -1.2782 1.4384 0.0, -1.5537 1.4384 0.0, -1.2782 1.4211 0.1969, -1.5537 1.3607 0.8875, 0.6904 1.4211 0.1969, 0.9659 1.3607 0.8875, 0.6904 1.4384 0.0, 0.9659 1.4384 0.0, -1.5734 -0.9435 0.8858, -1.5734 1.3411 0.8858, -1.5734 -0.9435 0.5916, -1.5734 1.4186 0.0, -1.5734 -0.8814 0.0, 0.9659 -0.9632 0.8858, -1.5537 -0.9632 0.8858, -1.2782 1.3596 0.0, -1.0813 1.3596 0.0, -1.0813 1.2415 0.0, 0.4935 1.2415 0.0, 0.4935 1.3596 0.0, 0.6904 1.2415 0.0, 0.6904 1.3596 0.0, 0.9813 1.4309 0.0, 0.9837 1.4272 0.0, 0.9851 1.423 0.0, -1.5657 1.4343 0.0, -1.5677 1.4326 0.0, -1.5728 1.4237 0.0, -1.5708 1.4285 0.0, -1.2518 -0.2742 0.0, -1.2205 -0.315 0.0, -1.5636 1.4357 0.0, -1.5613 1.4368 0.0, -1.5588 1.4377 0.0, 0.6327 -0.315 0.0, 0.664 -0.2742 0.0, 0.6836 -0.2268 0.0, 0.6904 -0.1758 0.0, 0.9703 1.4379 0.0, 0.9745 1.4364 0.0, 0.9782 1.434 0.0, -1.5729 -0.8858 0.0, -1.1797 -0.3463 0.0, -1.5715 -0.8899 0.0, 0.5919 -0.3463 0.0, 0.9851 -0.8858 0.0, 0.9837 -0.8899 0.0, -1.2782 1.2415 0.0, -1.2782 -0.1758 0.0, -1.2714 -0.2268 0.0, -1.5563 1.4382 0.0, -1.5623 -0.8992 0.0, -1.566 -0.8968 0.0, -1.5691 -0.8937 0.0, 0.4935 -0.3727 0.0, -1.0813 -0.3727 0.0, -1.1323 -0.366 0.0, 0.9813 -0.8937 0.0, 0.9782 -0.8968 0.0, 0.9745 -0.8992 0.0, -1.5581 -0.9007 0.0, 0.5445 -0.366 0.0, 0.9703 -0.9007 0.0, -1.5708 1.3509 0.8867, -1.5677 1.355 0.887, -1.5728 1.3462 0.8863, -1.5727 1.3462 0.8863, -1.5588 1.36 0.8875, -1.5636 1.3581 0.8873, -1.5676 1.355 0.887, -1.5588 1.36 0.8875, 0.9659 1.3603 0.8901, -1.5537 1.3603 0.8901, 0.9659 1.3596 0.8922, -1.5537 1.3596 0.8922, 0.9659 1.3589 0.8942, -1.5537 1.3589 0.8942, 0.9659 1.3574 0.8966, -1.5537 1.3574 0.8966, 0.9659 1.3565 0.898, -1.5537 1.3565 0.898, 0.9659 1.3543 0.9003, -1.5537 1.3543 0.9003, 0.9659 1.3534 0.9012, -1.5537 1.3534 0.9012, 0.9659 1.3504 0.9031, -1.5537 1.3504 0.9031, 0.9659 1.3497 0.9035, -1.5537 1.3497 0.9035, 0.9659 1.3459 0.9049, -1.5537 1.3459 0.9049, -1.5537 1.3455 0.905, 0.9659 1.3455 0.905, 0.9703 1.3602 0.8875, 0.971 1.36 0.8875, 0.9745 1.3588 0.8874, 0.9757 1.358 0.8873, 0.9782 1.3564 0.8872, 0.9797 1.3549 0.887, 0.9813 1.3533 0.8869, 0.9829 1.3509 0.8867, 0.9837 1.3496 0.8866, 0.9849 1.3462 0.8863, 0.9851 1.3455 0.8862, -1.5729 -0.9479 0.5914, -1.5728 -0.9486 0.5913, -1.5714 -0.952 0.5911, -1.5708 -0.9534 0.5911, -1.569 -0.9557 0.5909, -1.5677 -0.9575 0.5909, -1.566 -0.9589 0.5908, -1.5581 -0.9627 0.5906, -1.5588 -0.9625 0.5906, -1.5623 -0.9613 0.5907, -1.5635 -0.9605 0.5907, -1.562 1.3433 0.9035, -1.558 1.3422 0.905, -1.5576 1.3433 0.905, -1.5581 1.3411 0.905, -1.5723 1.3461 0.8901, -1.5704 1.3507 0.8901, -1.5673 1.3547 0.8901, -1.5634 1.3577 0.8901, -1.5587 1.3597 0.8901, -1.5549 1.3453 0.905, -1.5559 1.3449 0.905, -1.5612 1.3454 0.9035, -1.5569 1.3442 0.905, -1.5598 1.3472 0.9035, -1.558 1.3485 0.9035, -1.556 1.3494 0.9035, -1.5661 1.3411 0.9012, -1.5635 1.3411 0.9028, -1.5623 1.3411 0.9035, -1.5588 1.3411 0.9048, -1.5657 1.3443 0.9012, -1.5644 1.3473 0.9012, -1.5625 1.3498 0.9012, -1.5599 1.3518 0.9012, -1.5569 1.353 0.9012, -1.5707 1.3411 0.8956, -1.5692 1.3411 0.898, -1.5687 1.3451 0.898, -1.5676 1.3411 0.8997, -1.5671 1.3488 0.898, -1.5647 1.352 0.898, -1.5615 1.3545 0.898, -1.5577 1.356 0.898, -1.5727 1.3411 0.8909, -1.5715 1.3411 0.8942, -1.5709 1.3457 0.8942, -1.5692 1.35 0.8942, -1.5663 1.3537 0.8942, -1.5626 1.3565 0.8942, -1.5583 1.3583 0.8942, -1.573 1.3411 0.8901, 0.9682 1.3494 0.9035, 0.9671 1.3453 0.905, 0.9681 1.3449 0.905, 0.9709 1.3597 0.8901, 0.9756 1.3577 0.8901, 0.9795 1.3547 0.8901, 0.9826 1.3507 0.8901, 0.9845 1.3461 0.8901, 0.9852 1.3411 0.8901, 0.9703 1.3411 0.905, 0.9702 1.3422 0.905, 0.971 1.3411 0.9048, 0.9698 1.3433 0.905, 0.9702 1.3485 0.9035, 0.9691 1.3442 0.905, 0.972 1.3472 0.9035, 0.9734 1.3454 0.9035, 0.9742 1.3433 0.9035, 0.9691 1.353 0.9012, 0.9721 1.3518 0.9012, 0.9747 1.3498 0.9012, 0.9766 1.3473 0.9012, 0.9779 1.3443 0.9012, 0.9699 1.356 0.898, 0.9745 1.3411 0.9035, 0.9757 1.3411 0.9028, 0.9783 1.3411 0.9012, 0.9798 1.3411 0.8997, 0.9809 1.3451 0.898, 0.9793 1.3488 0.898, 0.9769 1.352 0.898, 0.9737 1.3545 0.898, 0.9705 1.3583 0.8942, 0.9748 1.3565 0.8942, 0.9785 1.3537 0.8942, 0.9814 1.35 0.8942, 0.9831 1.3457 0.8942, 0.9814 1.3411 0.898, 0.9829 1.3411 0.8956, 0.9837 1.3411 0.8942, 0.9849 1.3411 0.8909, 0.9703 -0.9627 0.5906, 0.971 -0.9625 0.5906, 0.9745 -0.9613 0.5907, 0.9757 -0.9605 0.5907, 0.9782 -0.9589 0.5908, 0.9798 -0.9574 0.5909, 0.9813 -0.9558 0.5909, 0.9829 -0.9533 0.5911, 0.9837 -0.9521 0.5911, 0.9849 -0.9486 0.5913, 0.9851 -0.9479 0.5914, -1.5588 -0.9626 0.8858, -1.5636 -0.9606 0.8858, -1.5677 -0.9575 0.8858, -1.5708 -0.9534 0.8858, -1.5728 -0.9486 0.8858, -1.5588 -0.9435 0.9048, -1.5636 -0.9435 0.9029, -1.5677 -0.9435 0.8997, -1.5708 -0.9435 0.8957, -1.5728 -0.9435 0.8909, 0.971 -0.9435 0.9048, 0.9758 -0.9435 0.9029, 0.9799 -0.9435 0.8997, 0.983 -0.9435 0.8957, 0.985 -0.9435 0.8909, 0.985 -0.9486 0.8858, 0.983 -0.9534 0.8858, 0.9799 -0.9575 0.8858, 0.9758 -0.9606 0.8858, 0.971 -0.9626 0.8858, -1.5537 -0.9626 0.8909, -1.5587 -0.9619 0.8909, -1.5587 -0.9521 0.9029, -1.5563 -0.948 0.9048, -1.5573 -0.9471 0.9048, -1.5587 -0.9449 0.9048, -1.5551 -0.9485 0.9048, -1.5563 -0.953 0.9029, -1.5573 -0.957 0.8997, -1.5537 -0.9486 0.9048, -1.5607 -0.9505 0.9029, -1.5582 -0.9461 0.9048, -1.5623 -0.9485 0.9029, -1.5632 -0.9461 0.9029, -1.5537 -0.9534 0.9029, -1.5537 -0.9575 0.8997, -1.5537 -0.9606 0.8957, -1.5607 -0.9556 0.8997, -1.5636 -0.9534 0.8997, -1.5658 -0.9505 0.8997, -1.5672 -0.9471 0.8997, -1.5582 -0.96 0.8957, -1.5623 -0.9583 0.8957, -1.5658 -0.9556 0.8957, -1.5685 -0.9521 0.8957, -1.5702 -0.948 0.8957, -1.5632 -0.96 0.8909, -1.5672 -0.957 0.8909, -1.5702 -0.953 0.8909, -1.5721 -0.9485 0.8909, 0.9843 -0.9485 0.8909, 0.9745 -0.9485 0.9029, 0.9704 -0.9461 0.9048, 0.9695 -0.9471 0.9048, 0.9659 -0.9486 0.9048, 0.9673 -0.9485 0.9048, 0.9709 -0.9449 0.9048, 0.9754 -0.9461 0.9029, 0.9794 -0.9471 0.8997, 0.9729 -0.9505 0.9029, 0.9685 -0.948 0.9048, 0.9709 -0.9521 0.9029, 0.9685 -0.953 0.9029, 0.9659 -0.9534 0.9029, 0.978 -0.9505 0.8997, 0.9758 -0.9534 0.8997, 0.9729 -0.9556 0.8997, 0.9695 -0.957 0.8997, 0.9659 -0.9575 0.8997, 0.9824 -0.948 0.8957, 0.9807 -0.9521 0.8957, 0.978 -0.9556 0.8957, 0.9745 -0.9583 0.8957, 0.9704 -0.96 0.8957, 0.9659 -0.9606 0.8957, 0.9824 -0.953 0.8909, 0.9794 -0.957 0.8909, 0.9754 -0.96 0.8909, 0.9709 -0.9619 0.8909, 0.9659 -0.9626 0.8909, 0.4935 1.3596 0.1969, 0.6904 1.3596 0.1969, -1.2782 1.3596 0.1969, -1.0813 1.3596 0.1969, -1.0813 1.2415 0.1969, 0.4935 1.2415 0.1969, -1.1323 -0.366 0.1969, -1.0813 -0.3727 0.1969, 0.6904 1.2415 0.1969, 0.6904 -0.1758 0.1969, 0.4935 -0.3727 0.1969, 0.6836 -0.2268 0.1969, -1.2205 -0.315 0.1969, -1.2518 -0.2742 0.1969, -1.1797 -0.3463 0.1969, -1.2782 1.2415 0.1969, -1.2782 -0.1758 0.1969, -1.2714 -0.2268 0.1969, 0.664 -0.2742 0.1969, 0.6327 -0.315 0.1969, 0.5919 -0.3463 0.1969, 0.5445 -0.366 0.1969
            ]
        }
        coordIndex [
            0,1,2,-1,3,4,5,-1,6,7,8,-1,9,10,11,-1,12,13,14,-1,14,13,15,-1,14,15,16,-1,16,15,17,-1,16,17,18,-1,19,20,21,-1,21,20,22,-1,22,20,23,-1,23,20,24,-1,23,24,25,-1,26,12,27,-1,28,29,30,-1,30,29,31,-1,32,33,11,-1,11,33,34,-1,11,34,35,-1,35,36,11,-1,11,36,37,-1,11,37,9,-1,28,38,29,-1,29,38,39,-1,29,39,32,-1,31,29,40,-1,40,29,41,-1,40,41,42,-1,12,14,27,-1,27,14,43,-1,27,43,44,-1,45,2,46,-1,46,2,47,-1,46,47,48,-1,48,47,27,-1,48,27,49,-1,49,27,44,-1,50,51,14,-1,14,51,52,-1,14,52,43,-1,53,54,16,-1,16,54,55,-1,16,55,56,-1,56,57,16,-1,16,57,58,-1,16,58,14,-1,14,58,59,-1,14,59,50,-1,10,60,61,-1,61,60,62,-1,60,63,62,-1,62,63,64,-1,62,64,16,-1,16,64,65,-1,16,65,53,-1,66,67,29,-1,68,69,70,-1,32,11,29,-1,29,11,71,-1,29,71,66,-1,70,69,11,-1,72,73,68,-1,68,73,74,-1,75,76,77,-1,77,76,78,-1,77,78,79,-1,67,80,29,-1,29,80,81,-1,29,81,82,-1,83,84,85,-1,85,84,86,-1,85,86,87,-1,69,88,11,-1,11,88,89,-1,11,89,71,-1,71,89,90,-1,71,90,91,-1,91,92,71,-1,71,92,93,-1,71,93,78,-1,78,93,94,-1,78,94,95,-1,87,96,85,-1,85,96,97,-1,85,97,98,-1,95,99,78,-1,78,99,100,-1,78,100,101,-1,74,102,68,-1,68,102,103,-1,68,103,104,-1,101,105,78,-1,78,105,106,-1,78,106,107,-1,108,109,78,-1,78,109,110,-1,78,110,79,-1,77,111,75,-1,75,111,112,-1,75,112,113,-1,113,112,114,-1,107,115,78,-1,78,115,116,-1,78,116,108,-1,104,117,68,-1,68,117,118,-1,68,118,119,-1,120,41,121,-1,121,41,29,-1,121,29,122,-1,122,29,82,-1,83,85,123,-1,123,85,0,-1,123,0,124,-1,125,126,70,-1,126,127,70,-1,70,127,128,-1,70,128,129,-1,130,131,132,-1,132,131,133,-1,132,133,85,-1,134,135,136,-1,136,135,137,-1,129,132,70,-1,70,132,85,-1,70,85,68,-1,68,85,98,-1,68,98,72,-1,138,139,130,-1,130,139,140,-1,130,140,131,-1,141,142,143,-1,143,142,144,-1,143,144,145,-1,146,147,144,-1,144,147,148,-1,8,149,150,-1,151,152,143,-1,150,153,8,-1,8,153,154,-1,8,154,6,-1,138,130,143,-1,143,130,155,-1,143,155,151,-1,152,156,143,-1,143,156,157,-1,143,157,141,-1,158,159,144,-1,144,159,160,-1,144,160,146,-1,148,161,144,-1,144,161,162,-1,144,162,163,-1,164,165,166,-1,163,167,144,-1,144,167,168,-1,144,168,145,-1,169,170,137,-1,170,171,137,-1,137,171,172,-1,137,172,173,-1,174,175,8,-1,8,175,176,-1,8,176,149,-1,166,177,164,-1,164,177,178,-1,164,178,137,-1,137,178,179,-1,137,179,169,-1,7,180,181,-1,181,180,182,-1,182,180,183,-1,182,183,184,-1,185,186,136,-1,187,188,189,-1,173,174,137,-1,137,174,8,-1,137,8,136,-1,136,8,190,-1,136,190,185,-1,8,191,192,-1,189,193,194,-1,187,195,188,-1,188,195,196,-1,188,196,197,-1,198,199,200,-1,200,199,201,-1,200,201,202,-1,186,203,136,-1,136,203,204,-1,136,204,205,-1,194,206,189,-1,189,206,207,-1,189,207,208,-1,192,209,8,-1,8,209,210,-1,8,210,190,-1,190,210,211,-1,190,211,212,-1,212,213,190,-1,190,213,214,-1,190,214,201,-1,201,214,215,-1,201,215,216,-1,208,217,189,-1,189,217,218,-1,189,218,187,-1,216,219,201,-1,201,219,220,-1,201,220,221,-1,197,222,188,-1,188,222,223,-1,188,223,224,-1,221,225,201,-1,201,225,226,-1,201,226,227,-1,228,229,201,-1,201,229,230,-1,201,230,202,-1,200,231,198,-1,198,231,232,-1,198,232,233,-1,233,232,234,-1,227,235,201,-1,201,235,236,-1,201,236,228,-1,224,237,188,-1,188,237,238,-1,188,238,239,-1,205,240,136,-1,136,240,241,-1,136,241,242,-1,242,241,243,-1,242,243,244,-1,244,243,245,-1,244,245,193,-1,246,247,248,-1,249,250,251,-1,251,250,252,-1,249,253,250,-1,250,253,254,-1,250,254,255,-1,256,257,258,-1,246,248,259,-1,255,260,250,-1,250,260,261,-1,250,261,248,-1,247,262,248,-1,248,262,263,-1,248,263,264,-1,256,258,265,-1,266,267,268,-1,269,270,257,-1,257,270,271,-1,257,271,258,-1,272,273,261,-1,261,273,274,-1,261,274,248,-1,248,274,275,-1,248,275,259,-1,276,277,278,-1,279,280,281,-1,281,280,282,-1,281,282,258,-1,258,282,283,-1,258,283,284,-1,268,267,285,-1,285,267,273,-1,285,273,286,-1,286,273,272,-1,286,272,257,-1,257,272,287,-1,257,287,288,-1,289,290,268,-1,268,290,291,-1,268,291,292,-1,293,294,295,-1,295,296,293,-1,293,296,297,-1,293,297,298,-1,298,299,293,-1,293,299,300,-1,293,300,268,-1,268,300,301,-1,268,301,302,-1,302,303,268,-1,268,303,304,-1,268,304,289,-1,279,281,278,-1,278,281,305,-1,278,305,276,-1,284,306,258,-1,258,306,307,-1,258,307,265,-1,288,308,257,-1,257,308,309,-1,257,309,269,-1,292,310,268,-1,268,310,311,-1,268,311,266,-1,312,313,314,-1,314,313,315,-1,316,317,318,-1,319,320,321,-1,314,322,312,-1,312,322,323,-1,312,323,324,-1,324,323,325,-1,326,327,323,-1,328,329,321,-1,321,329,330,-1,321,320,317,-1,317,320,331,-1,317,331,318,-1,330,332,321,-1,321,332,333,-1,321,333,319,-1,334,335,318,-1,318,335,336,-1,318,336,316,-1,326,323,337,-1,327,338,323,-1,323,338,339,-1,323,339,325,-1,317,340,321,-1,321,340,341,-1,321,341,323,-1,323,341,342,-1,323,342,337,-1,3,343,344,-1,344,345,3,-1,3,345,346,-1,3,346,321,-1,321,346,347,-1,321,347,328,-1,3,5,343,-1,343,5,348,-1,343,348,244,-1,244,348,349,-1,244,349,242,-1,45,42,2,-1,2,42,41,-1,2,41,0,-1,0,41,120,-1,0,120,124,-1,47,350,27,-1,27,350,25,-1,27,25,26,-1,26,25,24,-1,193,189,244,-1,244,189,248,-1,244,248,343,-1,343,248,264,-1,343,264,344,-1,349,1,242,-1,242,1,0,-1,242,0,136,-1,136,0,85,-1,136,85,134,-1,134,85,133,-1,191,351,352,-1,351,191,353,-1,353,191,250,-1,353,250,354,-1,354,250,248,-1,354,248,352,-1,352,248,189,-1,352,189,191,-1,191,189,188,-1,191,188,192,-1,7,181,8,-1,8,181,355,-1,8,355,191,-1,191,355,314,-1,191,314,250,-1,250,314,315,-1,250,315,252,-1,10,61,11,-1,11,61,182,-1,11,182,70,-1,70,182,184,-1,70,184,125,-1,18,21,16,-1,16,21,22,-1,16,22,62,-1,62,22,356,-1,350,357,25,-1,25,357,358,-1,25,358,23,-1,23,358,359,-1,23,359,22,-1,22,359,360,-1,22,360,356,-1,356,360,361,-1,362,363,364,-1,364,363,365,-1,364,365,366,-1,365,367,366,-1,366,367,368,-1,366,368,369,-1,369,368,370,-1,362,369,363,-1,363,369,370,-1,363,370,371,-1,371,370,372,-1,371,372,367,-1,367,372,373,-1,367,373,368,-1,374,375,376,-1,376,375,377,-1,376,377,378,-1,379,380,381,-1,381,380,382,-1,381,382,383,-1,383,382,384,-1,383,384,385,-1,385,384,386,-1,387,388,389,-1,389,388,390,-1,389,390,391,-1,392,393,371,-1,371,393,363,-1,394,395,396,-1,380,379,394,-1,397,398,399,-1,399,398,400,-1,401,402,386,-1,386,402,403,-1,386,403,375,-1,404,390,405,-1,405,390,406,-1,405,406,407,-1,408,409,391,-1,404,410,390,-1,390,410,411,-1,390,411,412,-1,413,414,374,-1,374,414,415,-1,374,415,416,-1,417,418,386,-1,386,418,419,-1,386,419,401,-1,391,409,420,-1,420,409,421,-1,420,421,422,-1,413,374,423,-1,423,374,424,-1,423,424,425,-1,416,399,374,-1,374,399,400,-1,374,400,375,-1,375,400,385,-1,375,385,386,-1,426,427,391,-1,391,427,428,-1,391,428,408,-1,396,426,394,-1,394,426,391,-1,394,391,380,-1,380,391,390,-1,380,390,429,-1,429,390,412,-1,430,431,421,-1,421,431,432,-1,421,432,422,-1,433,367,434,-1,434,367,365,-1,434,365,435,-1,425,436,423,-1,423,436,437,-1,423,437,438,-1,435,365,421,-1,421,365,439,-1,421,439,430,-1,433,440,367,-1,367,440,423,-1,367,423,441,-1,441,423,438,-1,407,442,443,-1,388,444,390,-1,390,444,406,-1,406,444,407,-1,407,444,445,-1,407,445,442,-1,446,411,447,-1,447,411,410,-1,447,410,448,-1,448,410,404,-1,448,404,443,-1,443,404,405,-1,443,405,407,-1,382,380,449,-1,449,380,429,-1,449,429,446,-1,446,429,412,-1,446,412,411,-1,384,382,450,-1,450,382,451,-1,450,451,452,-1,452,451,453,-1,452,453,454,-1,454,453,455,-1,454,455,456,-1,456,455,457,-1,456,457,458,-1,458,457,459,-1,458,459,460,-1,460,459,461,-1,460,461,462,-1,462,461,463,-1,462,463,464,-1,464,463,465,-1,464,465,466,-1,466,465,467,-1,466,467,468,-1,468,467,469,-1,357,350,470,-1,470,350,469,-1,350,47,469,-1,469,47,2,-1,469,2,1,-1,1,349,469,-1,469,349,348,-1,469,348,468,-1,468,348,5,-1,468,5,471,-1,471,5,4,-1,418,417,472,-1,472,417,386,-1,472,386,384,-1,472,473,418,-1,418,473,474,-1,418,474,419,-1,474,475,419,-1,419,475,476,-1,419,476,401,-1,401,476,477,-1,477,478,401,-1,401,478,479,-1,401,479,402,-1,479,480,402,-1,402,480,481,-1,402,481,403,-1,481,482,403,-1,403,482,377,-1,403,377,375,-1,391,420,389,-1,389,420,483,-1,483,420,484,-1,484,420,422,-1,484,422,485,-1,485,422,486,-1,486,422,432,-1,486,432,487,-1,487,432,488,-1,488,432,431,-1,488,431,489,-1,490,491,430,-1,430,491,492,-1,430,492,431,-1,431,492,493,-1,431,493,489,-1,430,439,490,-1,490,439,365,-1,490,365,363,-1,494,495,496,-1,496,495,357,-1,497,357,495,-1,444,498,445,-1,445,498,499,-1,445,499,442,-1,442,499,443,-1,443,499,500,-1,443,500,448,-1,448,500,501,-1,448,501,447,-1,447,501,446,-1,446,501,502,-1,446,502,449,-1,449,502,451,-1,449,451,382,-1,357,470,503,-1,503,470,469,-1,504,357,503,-1,505,506,507,-1,507,506,504,-1,507,504,508,-1,508,504,503,-1,508,503,509,-1,509,503,469,-1,510,511,494,-1,494,511,512,-1,494,512,495,-1,495,512,513,-1,495,513,497,-1,514,505,515,-1,515,505,507,-1,515,507,516,-1,516,507,508,-1,516,508,517,-1,517,508,509,-1,517,509,518,-1,519,520,521,-1,521,520,522,-1,469,467,509,-1,509,467,465,-1,509,465,518,-1,518,465,463,-1,518,463,461,-1,522,514,521,-1,521,514,515,-1,521,515,523,-1,523,515,516,-1,523,516,524,-1,524,516,517,-1,524,517,525,-1,525,517,518,-1,525,518,526,-1,526,518,461,-1,527,528,529,-1,529,528,519,-1,519,521,529,-1,529,521,523,-1,529,523,530,-1,530,523,524,-1,530,524,531,-1,531,524,525,-1,531,525,532,-1,532,525,526,-1,532,526,533,-1,506,357,504,-1,522,510,514,-1,514,510,494,-1,514,494,505,-1,505,494,496,-1,505,496,506,-1,506,496,357,-1,527,498,534,-1,534,498,444,-1,534,444,388,-1,461,459,526,-1,526,459,457,-1,526,457,533,-1,533,457,455,-1,533,455,453,-1,527,529,498,-1,498,529,530,-1,498,530,499,-1,499,530,531,-1,499,531,500,-1,500,531,532,-1,500,532,501,-1,501,532,533,-1,501,533,502,-1,502,533,453,-1,502,453,451,-1,535,536,537,-1,537,536,4,-1,538,473,472,-1,473,538,474,-1,474,538,539,-1,474,539,475,-1,475,539,476,-1,476,539,540,-1,476,540,477,-1,477,540,478,-1,478,540,541,-1,478,541,479,-1,479,541,480,-1,480,541,542,-1,480,542,481,-1,481,542,482,-1,482,542,543,-1,482,543,377,-1,464,466,535,-1,535,466,468,-1,535,468,536,-1,536,468,471,-1,536,471,4,-1,4,544,545,-1,545,544,546,-1,547,4,545,-1,548,549,550,-1,550,549,547,-1,550,547,551,-1,551,547,545,-1,551,545,552,-1,552,545,546,-1,553,548,554,-1,554,548,550,-1,554,550,555,-1,555,550,551,-1,555,551,556,-1,556,551,552,-1,556,552,557,-1,456,458,558,-1,558,458,460,-1,546,559,552,-1,552,559,560,-1,552,560,557,-1,557,560,561,-1,557,561,562,-1,562,563,557,-1,557,563,564,-1,557,564,556,-1,556,564,565,-1,556,565,555,-1,555,565,566,-1,555,566,554,-1,554,566,558,-1,554,558,553,-1,553,558,460,-1,553,460,462,-1,452,454,567,-1,567,454,456,-1,456,558,567,-1,567,558,566,-1,567,566,568,-1,568,566,565,-1,568,565,569,-1,569,565,564,-1,569,564,570,-1,570,564,563,-1,570,563,571,-1,549,4,547,-1,462,464,553,-1,553,464,535,-1,553,535,548,-1,548,535,537,-1,548,537,549,-1,549,537,4,-1,452,538,450,-1,450,538,472,-1,450,472,384,-1,562,572,563,-1,563,572,573,-1,563,573,571,-1,571,573,574,-1,571,574,575,-1,452,567,538,-1,538,567,568,-1,538,568,539,-1,539,568,569,-1,539,569,540,-1,540,569,570,-1,540,570,541,-1,541,570,571,-1,541,571,542,-1,542,571,575,-1,542,575,543,-1,367,441,371,-1,371,441,576,-1,576,441,577,-1,577,441,438,-1,577,438,578,-1,578,438,579,-1,579,438,437,-1,579,437,580,-1,580,437,581,-1,581,437,436,-1,581,436,582,-1,582,436,583,-1,583,436,425,-1,583,425,584,-1,584,425,585,-1,585,425,424,-1,585,424,586,-1,586,424,374,-1,586,374,376,-1,363,393,490,-1,490,393,587,-1,490,587,491,-1,491,587,492,-1,492,587,588,-1,492,588,493,-1,493,588,489,-1,489,588,589,-1,489,589,488,-1,488,589,487,-1,487,589,590,-1,487,590,486,-1,486,590,485,-1,485,590,591,-1,485,591,484,-1,484,591,483,-1,483,591,387,-1,483,387,389,-1,592,361,360,-1,360,359,592,-1,592,359,358,-1,592,358,497,-1,497,358,357,-1,497,513,592,-1,592,513,512,-1,592,512,593,-1,512,511,593,-1,593,511,510,-1,593,510,594,-1,594,510,522,-1,594,522,595,-1,522,520,595,-1,595,520,519,-1,595,519,596,-1,519,528,596,-1,596,528,527,-1,596,527,387,-1,387,527,534,-1,387,534,388,-1,323,322,597,-1,544,4,3,-1,323,597,321,-1,544,3,546,-1,3,321,546,-1,546,321,597,-1,546,597,559,-1,559,597,560,-1,560,597,598,-1,560,598,561,-1,561,598,562,-1,562,598,599,-1,562,599,572,-1,572,599,600,-1,572,600,573,-1,573,600,574,-1,574,600,601,-1,574,601,575,-1,575,601,543,-1,543,601,378,-1,543,378,377,-1,376,378,586,-1,586,378,602,-1,586,602,585,-1,585,602,584,-1,584,602,603,-1,584,603,583,-1,583,603,582,-1,582,603,604,-1,582,604,581,-1,581,604,580,-1,580,604,605,-1,580,605,579,-1,579,605,578,-1,578,605,606,-1,578,606,577,-1,577,606,576,-1,576,606,392,-1,576,392,371,-1,393,607,608,-1,609,610,611,-1,361,592,612,-1,611,610,361,-1,613,361,610,-1,613,610,614,-1,614,610,609,-1,614,609,615,-1,616,361,613,-1,617,618,619,-1,619,618,612,-1,619,612,620,-1,620,612,592,-1,620,592,593,-1,616,613,621,-1,621,613,614,-1,621,614,622,-1,622,614,615,-1,622,615,623,-1,624,617,625,-1,625,617,619,-1,625,619,626,-1,626,619,620,-1,626,620,627,-1,627,620,593,-1,627,593,594,-1,628,624,629,-1,629,624,625,-1,629,625,630,-1,630,625,626,-1,630,626,631,-1,631,626,627,-1,631,627,632,-1,632,627,594,-1,632,594,595,-1,607,628,608,-1,608,628,629,-1,608,629,633,-1,633,629,630,-1,633,630,634,-1,634,630,631,-1,634,631,635,-1,635,631,632,-1,635,632,636,-1,636,632,595,-1,636,595,596,-1,393,608,587,-1,587,608,633,-1,587,633,588,-1,588,633,634,-1,588,634,589,-1,589,634,635,-1,589,635,590,-1,590,635,636,-1,590,636,591,-1,591,636,596,-1,591,596,387,-1,618,361,612,-1,607,623,628,-1,628,623,615,-1,628,615,624,-1,624,615,609,-1,624,609,617,-1,617,609,611,-1,617,611,618,-1,618,611,361,-1,378,601,637,-1,638,639,640,-1,322,641,642,-1,640,639,322,-1,643,322,639,-1,643,639,644,-1,644,639,638,-1,644,638,645,-1,597,322,643,-1,646,647,648,-1,648,647,642,-1,648,642,649,-1,649,642,641,-1,649,641,650,-1,597,643,598,-1,598,643,644,-1,598,644,599,-1,599,644,645,-1,599,645,600,-1,651,646,652,-1,652,646,648,-1,652,648,653,-1,653,648,649,-1,653,649,654,-1,654,649,650,-1,654,650,655,-1,656,651,657,-1,657,651,652,-1,657,652,658,-1,658,652,653,-1,658,653,659,-1,659,653,654,-1,659,654,660,-1,660,654,655,-1,660,655,661,-1,601,656,637,-1,637,656,657,-1,637,657,662,-1,662,657,658,-1,662,658,663,-1,663,658,659,-1,663,659,664,-1,664,659,660,-1,664,660,665,-1,665,660,661,-1,665,661,666,-1,378,637,602,-1,602,637,662,-1,602,662,603,-1,603,662,663,-1,603,663,604,-1,604,663,664,-1,604,664,605,-1,605,664,665,-1,605,665,606,-1,606,665,666,-1,606,666,392,-1,647,322,642,-1,601,600,656,-1,656,600,645,-1,656,645,651,-1,651,645,638,-1,651,638,646,-1,646,638,640,-1,646,640,647,-1,647,640,322,-1,322,314,641,-1,641,314,355,-1,355,181,641,-1,641,181,182,-1,641,182,61,-1,61,62,616,-1,616,62,356,-1,616,356,361,-1,61,616,641,-1,641,616,621,-1,641,621,650,-1,650,621,622,-1,650,622,655,-1,655,622,623,-1,655,623,661,-1,661,623,607,-1,661,607,666,-1,666,607,393,-1,666,393,392,-1,381,383,667,-1,667,383,668,-1,669,381,670,-1,670,381,667,-1,670,667,671,-1,671,667,672,-1,671,672,673,-1,673,672,674,-1,672,675,674,-1,674,675,676,-1,674,676,677,-1,677,676,678,-1,679,680,681,-1,681,680,673,-1,682,671,683,-1,683,671,673,-1,683,673,684,-1,684,673,680,-1,678,685,686,-1,686,687,678,-1,678,687,688,-1,678,688,677,-1,668,383,400,-1,400,383,385,-1,394,379,669,-1,669,379,381,-1,669,670,394,-1,394,670,395,-1,670,671,395,-1,395,671,396,-1,671,682,396,-1,396,682,426,-1,682,683,426,-1,426,683,427,-1,674,434,673,-1,673,434,435,-1,673,435,681,-1,681,435,421,-1,681,421,679,-1,679,421,409,-1,679,409,680,-1,680,409,408,-1,680,408,684,-1,684,408,428,-1,684,428,683,-1,683,428,427,-1,674,677,434,-1,434,677,433,-1,676,416,678,-1,678,416,415,-1,678,415,685,-1,685,415,414,-1,685,414,686,-1,686,414,413,-1,686,413,687,-1,687,413,423,-1,687,423,688,-1,688,423,440,-1,688,440,677,-1,677,440,433,-1,676,675,416,-1,416,675,399,-1,675,672,399,-1,399,672,397,-1,672,667,397,-1,397,667,398,-1,667,668,398,-1,398,668,400,-1,
        ]
    }
}
Shape{
    appearance Appearance {
        material  Material 	{
            diffuseColor 0.7686274509803922 0.7686274509803922 0.7686274509803922
            specularColor 0.615686274509804 0.615686274509804 0.615686274509804
            ambientIntensity 0.7686
            transparency 0.0
            shininess 0.5
        }
    }
    geometry IndexedFaceSet {
        ccw TRUE
        solid FALSE
        coord DEF co Coordinate {
            point [
                0.4699 -1.9526 0.1967, 0.7455 -1.9526 0.1967, 0.4699 -1.6548 0.2123, 0.7455 -1.6548 0.2123, 0.4699 -1.9423 0.0001, 0.4699 -1.6445 0.0157, 0.7455 -1.9423 0.0001, 0.7455 -1.6445 0.0157, 0.7455 -1.5793 0.2542, 0.4699 -1.5793 0.2542, 0.7455 -1.5941 0.2375, 0.4699 -1.5941 0.2375, 0.7455 -1.6122 0.2245, 0.4699 -1.6122 0.2245, 0.7455 -1.6328 0.216, 0.4699 -1.6328 0.216, 0.4699 -1.4181 0.1413, 0.4699 -1.4624 0.0912, 0.4699 -1.5168 0.0524, 0.4699 -1.5786 0.0268, 0.7455 -1.5786 0.0268, 0.7455 -1.5168 0.0524, 0.7455 -1.4624 0.0912, 0.7455 -1.4181 0.1413, 0.4699 -1.4457 0.445, 0.7455 -1.4457 0.445, 0.4699 -1.2845 0.332, 0.7455 -1.2845 0.332, 0.7455 -1.3985 0.4976, 0.4699 -1.3985 0.4976, 0.7455 -1.3402 0.5375, 0.4699 -1.3402 0.5375, 0.7455 -1.274 0.5624, 0.4699 -1.274 0.5624, 0.7455 -1.2039 0.5709, 0.4699 -1.2039 0.5709, 0.4699 -1.2688 0.3496, 0.4699 -1.2493 0.3629, 0.4699 -1.2273 0.3712, 0.4699 -1.2039 0.374, 0.7455 -1.2039 0.374, 0.7455 -1.2273 0.3712, 0.7455 -1.2493 0.3629, 0.7455 -1.2688 0.3496, 0.7455 -0.9612 0.5709, 0.7455 -0.9405 0.374, 0.4699 -0.9612 0.5709, 0.4699 -0.9405 0.374, -1.3333 -1.9526 0.1967, -1.0577 -1.9526 0.1967, -1.3333 -1.6548 0.2123, -1.0577 -1.6548 0.2123, -1.3333 -1.9423 0.0001, -1.3333 -1.6445 0.0157, -1.0577 -1.9423 0.0001, -1.0577 -1.6445 0.0157, -1.0577 -1.5793 0.2542, -1.3333 -1.5793 0.2542, -1.0577 -1.5941 0.2375, -1.3333 -1.5941 0.2375, -1.0577 -1.6122 0.2245, -1.3333 -1.6122 0.2245, -1.0577 -1.6328 0.216, -1.3333 -1.6328 0.216, -1.3333 -1.4181 0.1413, -1.3333 -1.4624 0.0912, -1.3333 -1.5168 0.0524, -1.3333 -1.5786 0.0268, -1.0577 -1.5786 0.0268, -1.0577 -1.5168 0.0524, -1.0577 -1.4624 0.0912, -1.0577 -1.4181 0.1413, -1.3333 -1.4457 0.445, -1.0577 -1.4457 0.445, -1.3333 -1.2845 0.332, -1.0577 -1.2845 0.332, -1.0577 -1.3985 0.4976, -1.3333 -1.3985 0.4976, -1.0577 -1.3402 0.5375, -1.3333 -1.3402 0.5375, -1.0577 -1.274 0.5624, -1.3333 -1.274 0.5624, -1.0577 -1.2039 0.5709, -1.3333 -1.2039 0.5709, -1.3333 -1.2688 0.3496, -1.3333 -1.2493 0.3629, -1.3333 -1.2273 0.3712, -1.3333 -1.2039 0.374, -1.0577 -1.2039 0.374, -1.0577 -1.2273 0.3712, -1.0577 -1.2493 0.3629, -1.0577 -1.2688 0.3496, -1.0577 -0.9612 0.5709, -1.0577 -0.9405 0.374, -1.3333 -0.9612 0.5709, -1.3333 -0.9405 0.374
            ]
        }
        coordIndex [
            0,1,2,-1,2,1,3,-1,4,0,5,-1,5,0,2,-1,6,4,7,-1,7,4,5,-1,1,6,3,-1,3,6,7,-1,8,9,10,-1,10,9,11,-1,10,11,12,-1,12,11,13,-1,12,13,14,-1,14,13,15,-1,14,15,3,-1,3,15,2,-1,9,16,11,-1,11,16,17,-1,11,17,13,-1,13,17,18,-1,13,18,15,-1,15,18,19,-1,15,19,2,-1,2,19,5,-1,7,5,19,-1,7,19,20,-1,20,19,18,-1,20,18,21,-1,21,18,17,-1,21,17,22,-1,22,17,16,-1,22,16,23,-1,3,7,14,-1,14,7,20,-1,14,20,12,-1,12,20,21,-1,12,21,10,-1,10,21,22,-1,10,22,8,-1,8,22,23,-1,9,8,24,-1,24,8,25,-1,16,9,26,-1,26,9,24,-1,23,16,27,-1,27,16,26,-1,8,23,25,-1,25,23,27,-1,24,25,28,-1,24,28,29,-1,29,28,30,-1,29,30,31,-1,31,30,32,-1,31,32,33,-1,33,32,34,-1,33,34,35,-1,26,24,36,-1,36,24,29,-1,36,29,37,-1,37,29,31,-1,37,31,38,-1,38,31,33,-1,38,33,39,-1,39,33,35,-1,39,40,38,-1,38,40,41,-1,38,41,37,-1,37,41,42,-1,37,42,36,-1,36,42,43,-1,36,43,26,-1,26,43,27,-1,40,34,41,-1,41,34,32,-1,41,32,42,-1,42,32,30,-1,42,30,43,-1,43,30,28,-1,43,28,27,-1,27,28,25,-1,34,40,44,-1,44,40,45,-1,35,34,46,-1,46,34,44,-1,39,35,47,-1,47,35,46,-1,40,39,45,-1,45,39,47,-1,0,4,1,-1,1,4,6,-1,48,49,50,-1,50,49,51,-1,52,48,53,-1,53,48,50,-1,54,52,55,-1,55,52,53,-1,49,54,51,-1,51,54,55,-1,56,57,58,-1,58,57,59,-1,58,59,60,-1,60,59,61,-1,60,61,62,-1,62,61,63,-1,62,63,51,-1,51,63,50,-1,57,64,59,-1,59,64,65,-1,59,65,61,-1,61,65,66,-1,61,66,63,-1,63,66,67,-1,63,67,50,-1,50,67,53,-1,55,53,67,-1,55,67,68,-1,68,67,66,-1,68,66,69,-1,69,66,65,-1,69,65,70,-1,70,65,64,-1,70,64,71,-1,51,55,62,-1,62,55,68,-1,62,68,60,-1,60,68,69,-1,60,69,58,-1,58,69,70,-1,58,70,56,-1,56,70,71,-1,57,56,72,-1,72,56,73,-1,64,57,74,-1,74,57,72,-1,71,64,75,-1,75,64,74,-1,56,71,73,-1,73,71,75,-1,72,73,76,-1,72,76,77,-1,77,76,78,-1,77,78,79,-1,79,78,80,-1,79,80,81,-1,81,80,82,-1,81,82,83,-1,74,72,84,-1,84,72,77,-1,84,77,85,-1,85,77,79,-1,85,79,86,-1,86,79,81,-1,86,81,87,-1,87,81,83,-1,87,88,86,-1,86,88,89,-1,86,89,85,-1,85,89,90,-1,85,90,84,-1,84,90,91,-1,84,91,74,-1,74,91,75,-1,88,82,89,-1,89,82,80,-1,89,80,90,-1,90,80,78,-1,90,78,91,-1,91,78,76,-1,91,76,75,-1,75,76,73,-1,82,88,92,-1,92,88,93,-1,83,82,94,-1,94,82,92,-1,87,83,95,-1,95,83,94,-1,88,87,93,-1,93,87,95,-1,48,52,49,-1,49,52,54,-1,
        ]
    }
}
Shape{
    appearance Appearance {
        material  Material 	{
            diffuseColor 0.45098039215686275 0.43137254901960786 0.4196078431372549
            specularColor 0.03137254901960784 0.03137254901960784 0.03137254901960784
            ambientIntensity 0.6221
            transparency 0.0
            shininess 0.5
        }
    }
    geometry IndexedFaceSet {
        ccw TRUE
        solid FALSE
        coord DEF co Coordinate {
            point [
                -1.209 0.2445 0.9055, -1.209 0.2445 0.9016, -1.209 0.272 0.9055, -1.209 0.2806 0.9016, -1.209 0.2806 0.9055, -0.9543 0.2806 0.9016, -0.9543 0.2806 0.9055, -0.9543 0.2445 0.9016, -0.9543 0.2445 0.9055, -0.9543 0.272 0.9055, -1.061 0.2445 0.9016, -1.061 0.2445 0.9055, -1.061 -0.0343 0.9016, -1.061 -0.0343 0.9055, -1.1023 -0.0343 0.9016, -1.1023 -0.0343 0.9055, -1.1023 0.2445 0.9016, -1.1023 0.2445 0.9055, -0.6927 0.208 0.9016, -0.6793 0.1811 0.9016, -0.6326 0.1747 0.9016, -0.6254 0.1223 0.9016, -0.6493 0.2175 0.9016, -0.6667 0.2445 0.9016, -0.7084 0.2263 0.9016, -0.6928 0.2664 0.9016, -0.7266 0.2392 0.9016, -0.7213 0.2803 0.9016, -0.7492 0.2482 0.9016, -0.7786 0.2531 0.9016, -0.8078 -0.0009 0.9016, -0.7888 -0.0393 0.9016, -0.7786 -0.0051 0.9016, -0.7786 -0.0395 0.9016, -0.7604 -0.0029 0.9016, -0.734 -0.0345 0.9016, -0.7323 0.0057 0.9016, -0.7026 -0.0232 0.9016, -0.7121 0.0181 0.9016, -0.678 -0.0071 0.9016, -0.6963 0.034 0.9016, -0.665 0.0053 0.9016, -0.6835 0.0552 0.9016, -0.6425 0.0418 0.9016, -0.6738 0.0838 0.9016, -0.6292 0.0847 0.9016, -0.6685 0.1223 0.9016, -0.6697 0.1375 0.9016, -0.7603 0.2885 0.9016, -0.7786 0.2892 0.9016, -0.8064 0.2492 0.9016, -0.824 0.2842 0.9016, -0.8279 0.2416 0.9016, -0.8548 0.2729 0.9016, -0.8473 0.2291 0.9016, -0.8819 0.2548 0.9016, -0.8623 0.2131 0.9016, -0.9082 0.2207 0.9016, -0.8744 0.1921 0.9016, -0.8839 0.1625 0.9016, -0.9245 0.1829 0.9016, -0.933 0.132 0.9016, -0.8888 0.1223 0.9016, -0.9335 0.1223 0.9016, -0.8855 0.0913 0.9016, -0.9264 0.0707 0.9016, -0.8756 0.057 0.9016, -0.9085 0.0261 0.9016, -0.8643 0.0366 0.9016, -0.8974 0.0087 0.9016, -0.849 0.0198 0.9016, -0.8743 -0.0126 0.9016, -0.8308 0.0076 0.9016, -0.8507 -0.0259 0.9016, -0.8139 -0.0367 0.9016, -0.665 0.0053 0.9055, -0.6425 0.0418 0.9055, -0.6292 0.0847 0.9055, -0.6254 0.1223 0.9055, -0.7554 -0.0369 0.9055, -0.7786 -0.0395 0.9055, -0.734 -0.0345 0.9055, -0.7026 -0.0232 0.9055, -0.678 -0.0071 0.9055, -0.8974 0.0087 0.9055, -0.8743 -0.0126 0.9055, -0.8507 -0.0259 0.9055, -0.8139 -0.0367 0.9055, -0.8118 -0.0369 0.9055, -0.7888 -0.0393 0.9055, -0.9335 0.1223 0.9055, -0.9264 0.0707 0.9055, -0.9085 0.0261 0.9055, -0.8819 0.2548 0.9055, -0.9082 0.2207 0.9055, -0.9245 0.1829 0.9055, -0.933 0.132 0.9055, -0.7786 0.2892 0.9055, -0.817 0.2849 0.9055, -0.8562 0.272 0.9055, -0.8548 0.2729 0.9055, -0.824 0.2842 0.9055, -0.6667 0.2445 0.9055, -0.6928 0.2664 0.9055, -0.7043 0.272 0.9055, -0.7213 0.2803 0.9055, -0.7435 0.2849 0.9055, -0.7603 0.2885 0.9055, -0.6326 0.1747 0.9055, -0.6493 0.2175 0.9055, -0.7786 0.2531 0.9055, -0.7492 0.2482 0.9055, -0.7266 0.2392 0.9055, -0.7084 0.2263 0.9055, -0.6927 0.208 0.9055, -0.6793 0.1811 0.9055, -0.6697 0.1375 0.9055, -0.6685 0.1223 0.9055, -0.6738 0.0838 0.9055, -0.6835 0.0552 0.9055, -0.6963 0.034 0.9055, -0.7121 0.0181 0.9055, -0.7323 0.0057 0.9055, -0.7604 -0.0029 0.9055, -0.7786 -0.0051 0.9055, -0.8078 -0.0009 0.9055, -0.8308 0.0076 0.9055, -0.849 0.0198 0.9055, -0.8643 0.0366 0.9055, -0.8756 0.057 0.9055, -0.8855 0.0913 0.9055, -0.8888 0.1223 0.9055, -0.8839 0.1625 0.9055, -0.8744 0.1921 0.9055, -0.8623 0.2131 0.9055, -0.8473 0.2291 0.9055, -0.8279 0.2416 0.9055, -0.8064 0.2492 0.9055
            ]
        }
        coordIndex [
            0,1,2,-1,2,1,3,-1,2,3,4,-1,3,5,4,-1,4,5,6,-1,7,8,5,-1,5,8,9,-1,5,9,6,-1,7,10,8,-1,8,10,11,-1,10,12,11,-1,11,12,13,-1,12,14,13,-1,13,14,15,-1,14,16,15,-1,15,16,17,-1,16,1,17,-1,17,1,0,-1,5,3,16,-1,16,3,1,-1,7,5,10,-1,10,5,16,-1,10,16,12,-1,12,16,14,-1,18,19,20,-1,20,19,21,-1,20,22,18,-1,18,22,23,-1,18,23,24,-1,24,23,25,-1,24,25,26,-1,26,25,27,-1,26,27,28,-1,28,27,29,-1,30,31,32,-1,32,31,33,-1,32,33,34,-1,34,33,35,-1,34,35,36,-1,36,35,37,-1,36,37,38,-1,38,37,39,-1,38,39,40,-1,40,39,41,-1,40,41,42,-1,42,41,43,-1,42,43,44,-1,44,43,45,-1,44,45,46,-1,46,45,21,-1,46,21,47,-1,47,21,19,-1,27,48,29,-1,29,48,49,-1,29,49,50,-1,50,49,51,-1,50,51,52,-1,52,51,53,-1,52,53,54,-1,54,53,55,-1,54,55,56,-1,56,55,57,-1,56,57,58,-1,58,57,59,-1,57,60,59,-1,59,60,61,-1,59,61,62,-1,62,61,63,-1,62,63,64,-1,64,63,65,-1,64,65,66,-1,66,65,67,-1,66,67,68,-1,68,67,69,-1,68,69,70,-1,70,69,71,-1,70,71,72,-1,72,71,73,-1,72,73,30,-1,30,73,74,-1,30,74,31,-1,41,75,76,-1,41,76,43,-1,43,76,77,-1,43,77,45,-1,45,77,78,-1,45,78,21,-1,35,33,79,-1,79,33,80,-1,79,81,35,-1,35,81,82,-1,35,82,37,-1,37,82,83,-1,37,83,39,-1,39,83,75,-1,39,75,41,-1,80,33,31,-1,69,84,85,-1,69,85,71,-1,71,85,86,-1,71,86,73,-1,73,86,87,-1,73,87,74,-1,74,87,88,-1,74,88,31,-1,31,88,89,-1,31,89,80,-1,63,90,91,-1,63,91,65,-1,65,91,92,-1,65,92,67,-1,67,92,84,-1,67,84,69,-1,55,93,94,-1,55,94,57,-1,57,94,95,-1,57,95,60,-1,60,95,96,-1,60,96,61,-1,61,96,90,-1,61,90,63,-1,49,97,51,-1,51,97,98,-1,93,55,99,-1,99,55,53,-1,99,53,100,-1,100,53,51,-1,100,51,101,-1,101,51,98,-1,97,49,48,-1,23,102,103,-1,23,103,25,-1,25,103,104,-1,25,104,27,-1,104,105,27,-1,27,105,106,-1,27,106,48,-1,48,106,107,-1,48,107,97,-1,21,78,108,-1,21,108,20,-1,20,108,109,-1,20,109,22,-1,22,109,102,-1,22,102,23,-1,29,110,111,-1,29,111,28,-1,28,111,112,-1,28,112,26,-1,26,112,113,-1,26,113,24,-1,24,113,114,-1,24,114,18,-1,18,114,115,-1,18,115,19,-1,19,115,116,-1,19,116,47,-1,47,116,117,-1,47,117,46,-1,46,117,118,-1,46,118,44,-1,44,118,119,-1,44,119,42,-1,42,119,120,-1,42,120,40,-1,40,120,121,-1,40,121,38,-1,38,121,122,-1,38,122,36,-1,36,122,123,-1,36,123,34,-1,34,123,124,-1,34,124,32,-1,32,124,125,-1,32,125,30,-1,30,125,126,-1,30,126,72,-1,72,126,127,-1,72,127,70,-1,70,127,128,-1,70,128,68,-1,68,128,129,-1,68,129,66,-1,66,129,130,-1,66,130,64,-1,64,130,131,-1,64,131,62,-1,62,131,132,-1,62,132,59,-1,59,132,133,-1,59,133,58,-1,58,133,134,-1,58,134,56,-1,56,134,135,-1,56,135,54,-1,54,135,136,-1,54,136,52,-1,52,136,137,-1,52,137,50,-1,50,137,110,-1,50,110,29,-1,
        ]
    }
}
Shape{
    appearance Appearance {
        material  Material 	{
            diffuseColor 0.25098039215686274 0.25098039215686274 0.25098039215686274
            specularColor 0.07450980392156863 0.07450980392156863 0.07450980392156863
            ambientIntensity 0.251
            transparency 0.0
            shininess 0.5
        }
    }
    geometry IndexedFaceSet {
        ccw TRUE
        solid FALSE
        coord DEF co Coordinate {
            point [
                -0.8744 0.1921 0.9055, -0.8839 0.1625 0.9055, -0.6697 0.1375 0.9055, -0.6835 0.0552 0.9055, -0.6738 0.0838 0.9055, -0.8855 0.0913 0.9055, -0.7604 -0.0029 0.9055, -0.7786 -0.0051 0.9055, -0.8078 -0.0009 0.9055, -0.6963 0.034 0.9055, -0.8888 0.1223 0.9055, -0.6685 0.1223 0.9055, -0.7266 0.2392 0.9055, -0.7492 0.2482 0.9055, -0.7786 0.2531 0.9055, -0.8064 0.2492 0.9055, -0.8279 0.2416 0.9055, -0.8756 0.057 0.9055, -0.8643 0.0366 0.9055, -0.8308 0.0076 0.9055, -0.849 0.0198 0.9055, -0.7323 0.0057 0.9055, -0.7121 0.0181 0.9055, -0.7084 0.2263 0.9055, -0.6793 0.1811 0.9055, -0.6927 0.208 0.9055, -0.8473 0.2291 0.9055, -0.8623 0.2131 0.9055
            ]
        }
        coordIndex [
            0,1,2,-1,3,4,5,-1,6,5,7,-1,7,5,8,-1,3,5,9,-1,1,10,2,-1,2,10,5,-1,2,5,11,-1,11,5,4,-1,12,13,2,-1,13,14,2,-1,2,14,15,-1,2,15,16,-1,5,17,8,-1,8,17,18,-1,8,18,19,-1,19,18,20,-1,6,21,5,-1,5,21,22,-1,5,22,9,-1,12,2,23,-1,23,2,24,-1,23,24,25,-1,16,26,2,-1,2,26,27,-1,2,27,0,-1,
        ]
    }
}
Shape{
    appearance Appearance {
        material  Material 	{
            diffuseColor 0.45098039215686275 0.43137254901960786 0.4196078431372549
            specularColor 0.03137254901960784 0.03137254901960784 0.03137254901960784
            ambientIntensity 0.6221
            transparency 0.0
            shininess 0.5
        }
    }
    geometry IndexedFaceSet {
        ccw TRUE
        solid FALSE
        coord DEF co Coordinate {
            point [
                -0.5495 0.1636 0.9016, -0.5891 0.1636 0.9016, -0.5495 0.1636 0.9055, -0.5891 0.1636 0.9055, -0.5616 0.2462 0.9016, -0.5616 0.2462 0.9055, -0.5766 0.2238 0.9055, -0.5766 0.2238 0.9016, -0.5857 0.1971 0.9055, -0.5857 0.1971 0.9016, -0.4824 0.2755 0.9055, -0.5138 0.272 0.9055, -0.4824 0.2755 0.9016, -0.5157 0.2718 0.9016, -0.5157 0.2718 0.9055, -0.5373 0.2642 0.9055, -0.5373 0.2642 0.9016, -0.5535 0.2538 0.9055, -0.5535 0.2538 0.9016, -0.4354 0.2653 0.9055, -0.4188 0.2558 0.9016, -0.4188 0.2558 0.9055, -0.4053 0.2432 0.9016, -0.4053 0.2432 0.9055, -0.3953 0.2278 0.9016, -0.3953 0.2278 0.9055, -0.3881 0.208 0.9016, -0.3881 0.208 0.9055, -0.3843 0.1825 0.9016, -0.3843 0.1825 0.9055, -0.4582 0.272 0.9055, -0.4625 0.2733 0.9016, -0.4354 0.2653 0.9016, -0.4625 0.2733 0.9055, -0.4686 0.0793 0.9016, -0.4686 0.0793 0.9055, -0.4294 0.1013 0.9055, -0.4294 0.1013 0.9016, -0.4043 0.1242 0.9055, -0.4043 0.1242 0.9016, -0.3928 0.1416 0.9055, -0.3928 0.1416 0.9016, -0.3863 0.1591 0.9055, -0.3863 0.1591 0.9016, -0.5013 0.0603 0.9016, -0.5013 0.0603 0.9055, -0.553 0.0018 0.9016, -0.553 0.0018 0.9055, -0.5488 0.0158 0.9055, -0.5488 0.0158 0.9016, -0.5408 0.0288 0.9055, -0.5408 0.0288 0.9016, -0.5246 0.0449 0.9055, -0.5246 0.0449 0.9016, -0.3843 0.0018 0.9016, -0.3843 0.0018 0.9055, -0.3843 -0.0343 0.9016, -0.3843 -0.0343 0.9055, -0.596 -0.0343 0.9016, -0.596 -0.0343 0.9055, -0.5237 0.0879 0.9016, -0.5237 0.0879 0.9055, -0.5517 0.0687 0.9055, -0.5517 0.0687 0.9016, -0.5717 0.0466 0.9055, -0.5717 0.0466 0.9016, -0.5857 0.0207 0.9055, -0.5857 0.0207 0.9016, -0.5937 -0.0087 0.9055, -0.5937 -0.0087 0.9016, -0.4824 0.112 0.9016, -0.4824 0.112 0.9055, -0.4376 0.1447 0.9016, -0.4376 0.1447 0.9055, -0.459 0.1269 0.9055, -0.459 0.1269 0.9016, -0.4256 0.1843 0.9016, -0.4256 0.1843 0.9055, -0.4285 0.1635 0.9055, -0.4285 0.1635 0.9016, -0.4346 0.1495 0.9055, -0.4346 0.1495 0.9016, -0.4876 0.2393 0.9016, -0.4876 0.2393 0.9055, -0.4694 0.2373 0.9055, -0.4694 0.2373 0.9016, -0.4554 0.2328 0.9055, -0.4554 0.2328 0.9016, -0.4451 0.2266 0.9055, -0.4451 0.2266 0.9016, -0.4405 0.2225 0.9055, -0.4405 0.2225 0.9016, -0.4333 0.2129 0.9055, -0.4333 0.2129 0.9016, -0.4286 0.2017 0.9055, -0.4286 0.2017 0.9016, -0.4256 0.1845 0.9055, -0.4256 0.1845 0.9016, -0.5472 0.1874 0.9055, -0.5472 0.1874 0.9016, -0.5423 0.2045 0.9055, -0.5423 0.2045 0.9016, -0.5359 0.2168 0.9055, -0.5359 0.2168 0.9016, -0.5279 0.2259 0.9055, -0.5279 0.2259 0.9016, -0.5186 0.2324 0.9055, -0.5186 0.2324 0.9016, -0.5076 0.2368 0.9055, -0.5076 0.2368 0.9016, -0.4908 0.2392 0.9055, -0.4908 0.2392 0.9016, -0.2858 0.2307 0.9016, -0.2979 0.1464 0.9016, -0.2858 0.2307 0.9055, -0.2979 0.1464 0.9055, -0.2393 0.1653 0.9016, -0.2393 0.1653 0.9055, -0.2648 0.1622 0.9055, -0.2648 0.1622 0.9016, -0.2852 0.1543 0.9055, -0.2852 0.1543 0.9016, -0.1361 0.0655 0.9016, -0.1361 0.0655 0.9055, -0.1407 0.093 0.9055, -0.1407 0.093 0.9016, -0.1492 0.1145 0.9055, -0.1492 0.1145 0.9016, -0.1607 0.1312 0.9055, -0.1607 0.1312 0.9016, -0.177 0.1456 0.9055, -0.177 0.1456 0.9016, -0.1965 0.1558 0.9055, -0.1965 0.1558 0.9016, -0.2285 0.164 0.9055, -0.2285 0.164 0.9016, -0.167 -0.012 0.9016, -0.167 -0.012 0.9055, -0.1515 0.0069 0.9055, -0.1515 0.0069 0.9016, -0.1418 0.0275 0.9055, -0.1418 0.0275 0.9016, -0.1368 0.0508 0.9055, -0.1368 0.0508 0.9016, -0.2099 -0.035 0.9016, -0.2497 -0.0395 0.9016, -0.2266 -0.0369 0.9055, -0.2497 -0.0395 0.9055, -0.2099 -0.035 0.9055, -0.1869 -0.0264 0.9055, -0.1869 -0.0264 0.9016, -0.169 -0.0138 0.9055, -0.169 -0.0138 0.9016, -0.2928 -0.0328 0.9055, -0.3124 -0.0237 0.9016, -0.3124 -0.0237 0.9055, -0.3266 -0.012 0.9016, -0.3266 -0.012 0.9055, -0.3367 0.0015 0.9016, -0.3367 0.0015 0.9055, -0.3448 0.0198 0.9016, -0.3448 0.0198 0.9055, -0.3495 0.0431 0.9016, -0.3495 0.0431 0.9055, -0.272 -0.0369 0.9055, -0.2619 -0.0389 0.9016, -0.2928 -0.0328 0.9016, -0.2619 -0.0389 0.9055, -0.3099 0.0431 0.9016, -0.3099 0.0431 0.9055, -0.2428 -0.0102 0.9016, -0.2428 -0.0102 0.9055, -0.2617 -0.0087 0.9055, -0.2617 -0.0087 0.9016, -0.2761 -0.0047 0.9055, -0.2761 -0.0047 0.9016, -0.2882 0.002 0.9055, -0.2882 0.002 0.9016, -0.2967 0.01 0.9055, -0.2967 0.01 0.9016, -0.3034 0.0202 0.9055, -0.3034 0.0202 0.9016, -0.3086 0.0354 0.9055, -0.3086 0.0354 0.9016, -0.1791 0.0603 0.9016, -0.1791 0.0603 0.9055, -0.1826 0.0391 0.9055, -0.1826 0.0391 0.9016, -0.1887 0.0229 0.9055, -0.1887 0.0229 0.9016, -0.1963 0.0115 0.9055, -0.1963 0.0115 0.9016, -0.2059 0.0025 0.9055, -0.2059 0.0025 0.9016, -0.2179 -0.0043 0.9055, -0.2179 -0.0043 0.9016, -0.2354 -0.0093 0.9055, -0.2354 -0.0093 0.9016, -0.2462 0.1292 0.9016, -0.2462 0.1292 0.9055, -0.2276 0.1265 0.9055, -0.2276 0.1265 0.9016, -0.2133 0.1215 0.9055, -0.2133 0.1215 0.9016, -0.2021 0.1144 0.9055, -0.2021 0.1144 0.9016, -0.193 0.1049 0.9055, -0.193 0.1049 0.9016, -0.1863 0.0932 0.9055, -0.1863 0.0932 0.9016, -0.1808 0.0754 0.9055, -0.1808 0.0754 0.9016, -0.3047 0.0999 0.9016, -0.3047 0.0999 0.9055, -0.2916 0.1136 0.9055, -0.2916 0.1136 0.9016, -0.2781 0.1223 0.9055, -0.2781 0.1223 0.9016, -0.262 0.1276 0.9055, -0.262 0.1276 0.9016, -0.3374 0.1016 0.9016, -0.3374 0.1016 0.9055, -0.3151 0.2686 0.9016, -0.3151 0.2686 0.9055, -0.155 0.2686 0.9016, -0.155 0.2686 0.9055, -0.155 0.2307 0.9016, -0.155 0.2307 0.9055, -0.06 0.1636 0.9016, -0.0995 0.1636 0.9016, -0.06 0.1636 0.9055, -0.0995 0.1636 0.9055, -0.072 0.2462 0.9016, -0.072 0.2462 0.9055, -0.087 0.2238 0.9055, -0.087 0.2238 0.9016, -0.0962 0.1971 0.9055, -0.0962 0.1971 0.9016, 0.0072 0.2755 0.9055, -0.0242 0.272 0.9055, 0.0072 0.2755 0.9016, -0.0262 0.2718 0.9016, -0.0262 0.2718 0.9055, -0.0477 0.2642 0.9055, -0.0477 0.2642 0.9016, -0.0639 0.2538 0.9055, -0.0639 0.2538 0.9016, 0.0542 0.2653 0.9055, 0.0708 0.2558 0.9016, 0.0708 0.2558 0.9055, 0.0843 0.2432 0.9016, 0.0843 0.2432 0.9055, 0.0942 0.2278 0.9016, 0.0942 0.2278 0.9055, 0.1015 0.208 0.9016, 0.1015 0.208 0.9055, 0.1053 0.1825 0.9016, 0.1053 0.1825 0.9055, 0.0314 0.272 0.9055, 0.0271 0.2733 0.9016, 0.0542 0.2653 0.9016, 0.0271 0.2733 0.9055, 0.0209 0.0793 0.9016, 0.0209 0.0793 0.9055, 0.0601 0.1013 0.9055, 0.0601 0.1013 0.9016, 0.0853 0.1242 0.9055, 0.0853 0.1242 0.9016, 0.0968 0.1416 0.9055, 0.0968 0.1416 0.9016, 0.1032 0.1591 0.9055, 0.1032 0.1591 0.9016, -0.0118 0.0603 0.9016, -0.0118 0.0603 0.9055, -0.0634 0.0018 0.9016, -0.0634 0.0018 0.9055, -0.0592 0.0158 0.9055, -0.0592 0.0158 0.9016, -0.0512 0.0288 0.9055, -0.0512 0.0288 0.9016, -0.0351 0.0449 0.9055, -0.0351 0.0449 0.9016, 0.1053 0.0018 0.9016, 0.1053 0.0018 0.9055, 0.1053 -0.0343 0.9016, 0.1053 -0.0343 0.9055, -0.1064 -0.0343 0.9016, -0.1064 -0.0343 0.9055, -0.0341 0.0879 0.9016, -0.0341 0.0879 0.9055, -0.0622 0.0687 0.9055, -0.0622 0.0687 0.9016, -0.0822 0.0466 0.9055, -0.0822 0.0466 0.9016, -0.0962 0.0207 0.9055, -0.0962 0.0207 0.9016, -0.1041 -0.0087 0.9055, -0.1041 -0.0087 0.9016, 0.0072 0.112 0.9016, 0.0072 0.112 0.9055, 0.0519 0.1447 0.9016, 0.0519 0.1447 0.9055, 0.0306 0.1269 0.9055, 0.0306 0.1269 0.9016, 0.064 0.1843 0.9016, 0.064 0.1843 0.9055, 0.0611 0.1635 0.9055, 0.0611 0.1635 0.9016, 0.0549 0.1495 0.9055, 0.0549 0.1495 0.9016, 0.002 0.2393 0.9016, 0.002 0.2393 0.9055, 0.0202 0.2373 0.9055, 0.0202 0.2373 0.9016, 0.0341 0.2328 0.9055, 0.0341 0.2328 0.9016, 0.0445 0.2266 0.9055, 0.0445 0.2266 0.9016, 0.049 0.2225 0.9055, 0.049 0.2225 0.9016, 0.0563 0.2129 0.9055, 0.0563 0.2129 0.9016, 0.0609 0.2017 0.9055, 0.0609 0.2017 0.9016, 0.0639 0.1845 0.9055, 0.0639 0.1845 0.9016, -0.0577 0.1874 0.9055, -0.0577 0.1874 0.9016, -0.0527 0.2045 0.9055, -0.0527 0.2045 0.9016, -0.0463 0.2168 0.9055, -0.0463 0.2168 0.9016, -0.0384 0.2259 0.9055, -0.0384 0.2259 0.9016, -0.0291 0.2324 0.9055, -0.0291 0.2324 0.9016, -0.0181 0.2368 0.9055, -0.0181 0.2368 0.9016, -0.0013 0.2392 0.9055, -0.0013 0.2392 0.9016, 0.3655 0.0603 0.9016, 0.1435 0.0603 0.9016, 0.3655 0.0603 0.9055, 0.1435 0.0603 0.9055, 0.1435 0.093 0.9016, 0.1435 0.093 0.9055, 0.3655 0.093 0.9016, 0.3655 0.093 0.9055, 0.4814 0.1085 0.9016, 0.4814 0.1412 0.9016, 0.4814 0.1085 0.9055, 0.4814 0.1412 0.9055, 0.5021 0.1412 0.9016, 0.5021 0.1412 0.9055, 0.5606 0.1911 0.9016, 0.5606 0.1911 0.9055, 0.5589 0.178 0.9055, 0.5589 0.178 0.9016, 0.5553 0.1677 0.9055, 0.5553 0.1677 0.9016, 0.5498 0.1593 0.9055, 0.5498 0.1593 0.9016, 0.5432 0.153 0.9055, 0.5432 0.153 0.9016, 0.5326 0.147 0.9055, 0.5326 0.147 0.9016, 0.517 0.1426 0.9055, 0.517 0.1426 0.9016, 0.5038 0.2393 0.9016, 0.5038 0.2393 0.9055, 0.5205 0.2374 0.9055, 0.5205 0.2374 0.9016, 0.5331 0.2336 0.9055, 0.5331 0.2336 0.9016, 0.5432 0.2277 0.9055, 0.5432 0.2277 0.9016, 0.5502 0.2208 0.9055, 0.5502 0.2208 0.9016, 0.5554 0.2124 0.9055, 0.5554 0.2124 0.9016, 0.5594 0.2 0.9055, 0.5594 0.2 0.9016, 0.4436 0.1739 0.9016, 0.4436 0.1739 0.9055, 0.4455 0.1931 0.9055, 0.4455 0.1931 0.9016, 0.4497 0.2073 0.9055, 0.4497 0.2073 0.9016, 0.4559 0.2185 0.9055, 0.4559 0.2185 0.9016, 0.4637 0.2271 0.9055, 0.4637 0.2271 0.9016, 0.4731 0.2331 0.9055, 0.4731 0.2331 0.9016, 0.4862 0.2376 0.9055, 0.4862 0.2376 0.9016, 0.4057 0.1739 0.9016, 0.4057 0.1739 0.9055, 0.4315 0.2497 0.9016, 0.4315 0.2497 0.9055, 0.4186 0.2325 0.9055, 0.4186 0.2325 0.9016, 0.4104 0.2123 0.9055, 0.4104 0.2123 0.9016, 0.4058 0.1808 0.9055, 0.4058 0.1808 0.9016, 0.5055 0.2755 0.9055, 0.4749 0.272 0.9055, 0.5055 0.2755 0.9016, 0.4735 0.2719 0.9016, 0.4735 0.2719 0.9055, 0.4521 0.2641 0.9055, 0.4521 0.2641 0.9016, 0.5525 0.2664 0.9055, 0.5677 0.2583 0.9016, 0.5677 0.2583 0.9055, 0.5805 0.2471 0.9016, 0.5805 0.2471 0.9055, 0.5899 0.2336 0.9016, 0.5899 0.2336 0.9055, 0.5967 0.2164 0.9016, 0.5967 0.2164 0.9055, 0.6002 0.1946 0.9016, 0.6002 0.1946 0.9055, 0.5316 0.272 0.9055, 0.5263 0.2735 0.9016, 0.5525 0.2664 0.9016, 0.5263 0.2735 0.9055, 0.5623 0.1292 0.9016, 0.5623 0.1292 0.9055, 0.5762 0.1375 0.9055, 0.5762 0.1375 0.9016, 0.586 0.1472 0.9055, 0.586 0.1472 0.9016, 0.5933 0.1592 0.9055, 0.5933 0.1592 0.9016, 0.5987 0.1764 0.9055, 0.5987 0.1764 0.9016, 0.5623 0.1275 0.9016, 0.5623 0.1275 0.9055, 0.6139 0.0569 0.9016, 0.6139 0.0569 0.9055, 0.6122 0.0761 0.9055, 0.6122 0.0761 0.9016, 0.6072 0.0916 0.9055, 0.6072 0.0916 0.9016, 0.599 0.1047 0.9055, 0.599 0.1047 0.9016, 0.5882 0.1149 0.9055, 0.5882 0.1149 0.9016, 0.5746 0.1229 0.9055, 0.5746 0.1229 0.9016, 0.5847 -0.0137 0.9016, 0.5847 -0.0137 0.9055, 0.5995 0.004 0.9055, 0.5995 0.004 0.9016, 0.6085 0.0228 0.9055, 0.6085 0.0228 0.9016, 0.6133 0.0439 0.9055, 0.6133 0.0439 0.9016, 0.5461 -0.0345 0.9016, 0.5021 -0.0395 0.9016, 0.5248 -0.0369 0.9055, 0.5021 -0.0395 0.9055, 0.5461 -0.0345 0.9055, 0.5665 -0.0268 0.9055, 0.5665 -0.0268 0.9016, 0.5828 -0.0154 0.9055, 0.5828 -0.0154 0.9016, 0.4977 -0.0394 0.9016, 0.4453 -0.0292 0.9016, 0.4453 -0.0292 0.9055, 0.4687 -0.0367 0.9055, 0.4687 -0.0367 0.9016, 0.4712 -0.0369 0.9055, 0.4977 -0.0394 0.9055, 0.3988 0.0603 0.9016, 0.3988 0.0603 0.9055, 0.4027 0.0273 0.9055, 0.4027 0.0273 0.9016, 0.4117 0.0028 0.9055, 0.4117 0.0028 0.9016, 0.4215 -0.0116 0.9055, 0.4215 -0.0116 0.9016, 0.4353 -0.0236 0.9055, 0.4353 -0.0236 0.9016, 0.4384 0.0603 0.9016, 0.4384 0.0603 0.9055, 0.5038 -0.0085 0.9016, 0.5038 -0.0085 0.9055, 0.4868 -0.0071 0.9055, 0.4868 -0.0071 0.9016, 0.4732 -0.0032 0.9055, 0.4732 -0.0032 0.9016, 0.4626 0.0026 0.9055, 0.4626 0.0026 0.9016, 0.4546 0.0098 0.9055, 0.4546 0.0098 0.9016, 0.4477 0.0197 0.9055, 0.4477 0.0197 0.9016, 0.4417 0.035 0.9055, 0.4417 0.035 0.9016, 0.4384 0.0591 0.9055, 0.4384 0.0591 0.9016, 0.5709 0.0517 0.9016, 0.5709 0.0517 0.9055, 0.5685 0.0356 0.9055, 0.5685 0.0356 0.9016, 0.5638 0.0232 0.9055, 0.5638 0.0232 0.9016, 0.557 0.013 0.9055, 0.557 0.013 0.9016, 0.5474 0.0043 0.9055, 0.5474 0.0043 0.9016, 0.5361 -0.0019 0.9055, 0.5361 -0.0019 0.9016, 0.5167 -0.0071 0.9055, 0.5167 -0.0071 0.9016, 0.5004 0.1085 0.9016, 0.5004 0.1085 0.9055, 0.522 0.1069 0.9055, 0.522 0.1069 0.9016, 0.5379 0.1029 0.9055, 0.5379 0.1029 0.9016, 0.55 0.0967 0.9055, 0.55 0.0967 0.9016, 0.5582 0.0897 0.9055, 0.5582 0.0897 0.9016, 0.5647 0.0804 0.9055, 0.5647 0.0804 0.9016, 0.5687 0.0701 0.9055, 0.5687 0.0701 0.9016, 0.5708 0.0549 0.9055, 0.5708 0.0549 0.9016
            ]
        }
        coordIndex [
            0,1,2,-1,2,1,3,-1,4,5,6,-1,4,6,7,-1,7,6,8,-1,7,8,9,-1,9,8,3,-1,9,3,1,-1,10,11,12,-1,12,11,13,-1,11,14,13,-1,13,14,15,-1,13,15,16,-1,16,15,17,-1,16,17,18,-1,18,17,5,-1,18,5,4,-1,19,20,21,-1,21,20,22,-1,21,22,23,-1,23,22,24,-1,23,24,25,-1,25,24,26,-1,25,26,27,-1,27,26,28,-1,27,28,29,-1,30,31,19,-1,19,31,32,-1,19,32,20,-1,30,33,31,-1,31,33,10,-1,31,10,12,-1,34,35,36,-1,34,36,37,-1,37,36,38,-1,37,38,39,-1,39,38,40,-1,39,40,41,-1,41,40,42,-1,41,42,43,-1,43,42,29,-1,43,29,28,-1,34,44,35,-1,35,44,45,-1,46,47,48,-1,46,48,49,-1,49,48,50,-1,49,50,51,-1,51,50,52,-1,51,52,53,-1,53,52,45,-1,53,45,44,-1,46,54,47,-1,47,54,55,-1,54,56,55,-1,55,56,57,-1,56,58,57,-1,57,58,59,-1,60,61,62,-1,60,62,63,-1,63,62,64,-1,63,64,65,-1,65,64,66,-1,65,66,67,-1,67,66,68,-1,67,68,69,-1,69,68,59,-1,69,59,58,-1,60,70,61,-1,61,70,71,-1,72,73,74,-1,72,74,75,-1,75,74,71,-1,75,71,70,-1,76,77,78,-1,76,78,79,-1,79,78,80,-1,79,80,81,-1,81,80,73,-1,81,73,72,-1,82,83,84,-1,82,84,85,-1,85,84,86,-1,85,86,87,-1,87,86,88,-1,87,88,89,-1,89,88,90,-1,89,90,91,-1,91,90,92,-1,91,92,93,-1,93,92,94,-1,93,94,95,-1,95,94,96,-1,95,96,97,-1,97,96,77,-1,97,77,76,-1,0,2,98,-1,0,98,99,-1,99,98,100,-1,99,100,101,-1,101,100,102,-1,101,102,103,-1,103,102,104,-1,103,104,105,-1,105,104,106,-1,105,106,107,-1,107,106,108,-1,107,108,109,-1,109,108,110,-1,109,110,111,-1,111,110,83,-1,111,83,82,-1,56,54,58,-1,58,54,46,-1,28,76,43,-1,43,76,79,-1,43,79,41,-1,41,79,81,-1,41,81,39,-1,39,81,72,-1,39,72,37,-1,37,72,75,-1,37,75,34,-1,34,75,70,-1,34,70,44,-1,44,70,60,-1,44,60,53,-1,53,60,63,-1,53,63,51,-1,51,63,65,-1,51,65,49,-1,49,65,67,-1,49,67,46,-1,46,67,69,-1,46,69,58,-1,1,0,9,-1,9,0,99,-1,9,99,7,-1,7,99,101,-1,7,101,4,-1,4,101,103,-1,4,103,18,-1,18,103,105,-1,18,105,16,-1,16,105,107,-1,16,107,13,-1,13,107,109,-1,13,109,12,-1,109,111,12,-1,12,111,82,-1,12,82,31,-1,31,82,85,-1,31,85,32,-1,32,85,87,-1,32,87,20,-1,20,87,89,-1,20,89,22,-1,22,89,91,-1,22,91,24,-1,24,91,93,-1,24,93,26,-1,26,93,95,-1,26,95,28,-1,28,95,97,-1,28,97,76,-1,112,113,114,-1,114,113,115,-1,116,117,118,-1,116,118,119,-1,119,118,120,-1,119,120,121,-1,121,120,115,-1,121,115,113,-1,122,123,124,-1,122,124,125,-1,125,124,126,-1,125,126,127,-1,127,126,128,-1,127,128,129,-1,129,128,130,-1,129,130,131,-1,131,130,132,-1,131,132,133,-1,133,132,134,-1,133,134,135,-1,135,134,117,-1,135,117,116,-1,136,137,138,-1,136,138,139,-1,139,138,140,-1,139,140,141,-1,141,140,142,-1,141,142,143,-1,143,142,123,-1,143,123,122,-1,144,145,146,-1,146,145,147,-1,146,148,144,-1,144,148,149,-1,144,149,150,-1,150,149,151,-1,150,151,152,-1,152,151,137,-1,152,137,136,-1,153,154,155,-1,155,154,156,-1,155,156,157,-1,157,156,158,-1,157,158,159,-1,159,158,160,-1,159,160,161,-1,161,160,162,-1,161,162,163,-1,164,165,153,-1,153,165,166,-1,153,166,154,-1,164,167,165,-1,165,167,147,-1,165,147,145,-1,162,168,163,-1,163,168,169,-1,170,171,172,-1,170,172,173,-1,173,172,174,-1,173,174,175,-1,175,174,176,-1,175,176,177,-1,177,176,178,-1,177,178,179,-1,179,178,180,-1,179,180,181,-1,181,180,182,-1,181,182,183,-1,183,182,169,-1,183,169,168,-1,184,185,186,-1,184,186,187,-1,187,186,188,-1,187,188,189,-1,189,188,190,-1,189,190,191,-1,191,190,192,-1,191,192,193,-1,193,192,194,-1,193,194,195,-1,195,194,196,-1,195,196,197,-1,197,196,171,-1,197,171,170,-1,198,199,200,-1,198,200,201,-1,201,200,202,-1,201,202,203,-1,203,202,204,-1,203,204,205,-1,205,204,206,-1,205,206,207,-1,207,206,208,-1,207,208,209,-1,209,208,210,-1,209,210,211,-1,211,210,185,-1,211,185,184,-1,212,213,214,-1,212,214,215,-1,215,214,216,-1,215,216,217,-1,217,216,218,-1,217,218,219,-1,219,218,199,-1,219,199,198,-1,212,220,213,-1,213,220,221,-1,220,222,221,-1,221,222,223,-1,222,224,223,-1,223,224,225,-1,224,226,225,-1,225,226,227,-1,226,112,227,-1,227,112,114,-1,226,224,112,-1,112,224,222,-1,112,222,113,-1,113,222,220,-1,144,150,193,-1,193,150,152,-1,193,152,191,-1,191,152,136,-1,191,136,189,-1,189,136,139,-1,189,139,187,-1,168,162,183,-1,183,162,160,-1,183,160,181,-1,181,160,158,-1,181,158,179,-1,179,158,156,-1,179,156,177,-1,177,156,154,-1,177,154,175,-1,175,154,166,-1,175,166,173,-1,173,166,165,-1,173,165,170,-1,170,165,145,-1,170,145,197,-1,197,145,144,-1,197,144,195,-1,195,144,193,-1,220,212,113,-1,113,212,215,-1,113,215,121,-1,121,215,217,-1,121,217,119,-1,119,217,219,-1,119,219,116,-1,116,219,198,-1,116,198,135,-1,135,198,201,-1,135,201,133,-1,133,201,203,-1,133,203,131,-1,131,203,205,-1,131,205,129,-1,129,205,207,-1,129,207,127,-1,127,207,209,-1,127,209,125,-1,125,209,211,-1,125,211,122,-1,122,211,184,-1,122,184,143,-1,143,184,187,-1,143,187,141,-1,141,187,139,-1,228,229,230,-1,230,229,231,-1,232,233,234,-1,232,234,235,-1,235,234,236,-1,235,236,237,-1,237,236,231,-1,237,231,229,-1,238,239,240,-1,240,239,241,-1,239,242,241,-1,241,242,243,-1,241,243,244,-1,244,243,245,-1,244,245,246,-1,246,245,233,-1,246,233,232,-1,247,248,249,-1,249,248,250,-1,249,250,251,-1,251,250,252,-1,251,252,253,-1,253,252,254,-1,253,254,255,-1,255,254,256,-1,255,256,257,-1,258,259,247,-1,247,259,260,-1,247,260,248,-1,258,261,259,-1,259,261,238,-1,259,238,240,-1,262,263,264,-1,262,264,265,-1,265,264,266,-1,265,266,267,-1,267,266,268,-1,267,268,269,-1,269,268,270,-1,269,270,271,-1,271,270,257,-1,271,257,256,-1,262,272,263,-1,263,272,273,-1,274,275,276,-1,274,276,277,-1,277,276,278,-1,277,278,279,-1,279,278,280,-1,279,280,281,-1,281,280,273,-1,281,273,272,-1,274,282,275,-1,275,282,283,-1,282,284,283,-1,283,284,285,-1,284,286,285,-1,285,286,287,-1,288,289,290,-1,288,290,291,-1,291,290,292,-1,291,292,293,-1,293,292,294,-1,293,294,295,-1,295,294,296,-1,295,296,297,-1,297,296,287,-1,297,287,286,-1,288,298,289,-1,289,298,299,-1,300,301,302,-1,300,302,303,-1,303,302,299,-1,303,299,298,-1,304,305,306,-1,304,306,307,-1,307,306,308,-1,307,308,309,-1,309,308,301,-1,309,301,300,-1,310,311,312,-1,310,312,313,-1,313,312,314,-1,313,314,315,-1,315,314,316,-1,315,316,317,-1,317,316,318,-1,317,318,319,-1,319,318,320,-1,319,320,321,-1,321,320,322,-1,321,322,323,-1,323,322,324,-1,323,324,325,-1,325,324,305,-1,325,305,304,-1,228,230,326,-1,228,326,327,-1,327,326,328,-1,327,328,329,-1,329,328,330,-1,329,330,331,-1,331,330,332,-1,331,332,333,-1,333,332,334,-1,333,334,335,-1,335,334,336,-1,335,336,337,-1,337,336,338,-1,337,338,339,-1,339,338,311,-1,339,311,310,-1,284,282,286,-1,286,282,274,-1,256,304,271,-1,271,304,307,-1,271,307,269,-1,269,307,309,-1,269,309,267,-1,267,309,300,-1,267,300,265,-1,265,300,303,-1,265,303,262,-1,262,303,298,-1,262,298,272,-1,272,298,288,-1,272,288,281,-1,281,288,291,-1,281,291,279,-1,279,291,293,-1,279,293,277,-1,277,293,295,-1,277,295,274,-1,274,295,297,-1,274,297,286,-1,229,228,237,-1,237,228,327,-1,237,327,235,-1,235,327,329,-1,235,329,232,-1,232,329,331,-1,232,331,246,-1,246,331,333,-1,246,333,244,-1,244,333,335,-1,244,335,241,-1,241,335,337,-1,241,337,240,-1,337,339,240,-1,240,339,310,-1,240,310,259,-1,259,310,313,-1,259,313,260,-1,260,313,315,-1,260,315,248,-1,248,315,317,-1,248,317,250,-1,250,317,319,-1,250,319,252,-1,252,319,321,-1,252,321,254,-1,254,321,323,-1,254,323,256,-1,256,323,325,-1,256,325,304,-1,340,341,342,-1,342,341,343,-1,341,344,343,-1,343,344,345,-1,344,346,345,-1,345,346,347,-1,346,340,347,-1,347,340,342,-1,346,344,340,-1,340,344,341,-1,348,349,350,-1,350,349,351,-1,349,352,351,-1,351,352,353,-1,354,355,356,-1,354,356,357,-1,357,356,358,-1,357,358,359,-1,359,358,360,-1,359,360,361,-1,361,360,362,-1,361,362,363,-1,363,362,364,-1,363,364,365,-1,365,364,366,-1,365,366,367,-1,367,366,353,-1,367,353,352,-1,368,369,370,-1,368,370,371,-1,371,370,372,-1,371,372,373,-1,373,372,374,-1,373,374,375,-1,375,374,376,-1,375,376,377,-1,377,376,378,-1,377,378,379,-1,379,378,380,-1,379,380,381,-1,381,380,355,-1,381,355,354,-1,382,383,384,-1,382,384,385,-1,385,384,386,-1,385,386,387,-1,387,386,388,-1,387,388,389,-1,389,388,390,-1,389,390,391,-1,391,390,392,-1,391,392,393,-1,393,392,394,-1,393,394,395,-1,395,394,369,-1,395,369,368,-1,382,396,383,-1,383,396,397,-1,398,399,400,-1,398,400,401,-1,401,400,402,-1,401,402,403,-1,403,402,404,-1,403,404,405,-1,405,404,397,-1,405,397,396,-1,406,407,408,-1,408,407,409,-1,407,410,409,-1,409,410,411,-1,409,411,412,-1,412,411,399,-1,412,399,398,-1,413,414,415,-1,415,414,416,-1,415,416,417,-1,417,416,418,-1,417,418,419,-1,419,418,420,-1,419,420,421,-1,421,420,422,-1,421,422,423,-1,424,425,413,-1,413,425,426,-1,413,426,414,-1,424,427,425,-1,425,427,406,-1,425,406,408,-1,428,429,430,-1,428,430,431,-1,431,430,432,-1,431,432,433,-1,433,432,434,-1,433,434,435,-1,435,434,436,-1,435,436,437,-1,437,436,423,-1,437,423,422,-1,428,438,429,-1,429,438,439,-1,440,441,442,-1,440,442,443,-1,443,442,444,-1,443,444,445,-1,445,444,446,-1,445,446,447,-1,447,446,448,-1,447,448,449,-1,449,448,450,-1,449,450,451,-1,451,450,439,-1,451,439,438,-1,452,453,454,-1,452,454,455,-1,455,454,456,-1,455,456,457,-1,457,456,458,-1,457,458,459,-1,459,458,441,-1,459,441,440,-1,460,461,462,-1,462,461,463,-1,462,464,460,-1,460,464,465,-1,460,465,466,-1,466,465,467,-1,466,467,468,-1,468,467,453,-1,468,453,452,-1,463,461,469,-1,470,471,472,-1,470,472,473,-1,473,472,474,-1,473,474,469,-1,469,474,475,-1,469,475,463,-1,476,477,478,-1,476,478,479,-1,479,478,480,-1,479,480,481,-1,481,480,482,-1,481,482,483,-1,483,482,484,-1,483,484,485,-1,485,484,471,-1,485,471,470,-1,476,486,477,-1,477,486,487,-1,488,489,490,-1,488,490,491,-1,491,490,492,-1,491,492,493,-1,493,492,494,-1,493,494,495,-1,495,494,496,-1,495,496,497,-1,497,496,498,-1,497,498,499,-1,499,498,500,-1,499,500,501,-1,501,500,502,-1,501,502,503,-1,503,502,487,-1,503,487,486,-1,504,505,506,-1,504,506,507,-1,507,506,508,-1,507,508,509,-1,509,508,510,-1,509,510,511,-1,511,510,512,-1,511,512,513,-1,513,512,514,-1,513,514,515,-1,515,514,516,-1,515,516,517,-1,517,516,489,-1,517,489,488,-1,518,519,520,-1,518,520,521,-1,521,520,522,-1,521,522,523,-1,523,522,524,-1,523,524,525,-1,525,524,526,-1,525,526,527,-1,527,526,528,-1,527,528,529,-1,529,528,530,-1,529,530,531,-1,531,530,532,-1,531,532,533,-1,533,532,505,-1,533,505,504,-1,518,348,519,-1,519,348,350,-1,497,499,481,-1,513,466,468,-1,481,499,479,-1,479,499,501,-1,479,501,476,-1,476,501,503,-1,476,503,486,-1,357,359,428,-1,428,359,361,-1,428,361,438,-1,349,348,352,-1,352,348,518,-1,352,518,367,-1,367,518,521,-1,367,521,365,-1,365,521,523,-1,365,523,363,-1,361,363,438,-1,438,363,523,-1,438,523,451,-1,451,523,525,-1,451,525,449,-1,449,525,527,-1,449,527,447,-1,447,527,529,-1,447,529,445,-1,445,529,531,-1,513,468,511,-1,511,468,452,-1,511,452,509,-1,509,452,455,-1,509,455,507,-1,507,455,457,-1,507,457,504,-1,504,457,459,-1,504,459,533,-1,533,459,440,-1,533,440,531,-1,531,440,443,-1,531,443,445,-1,354,422,381,-1,381,422,420,-1,381,420,379,-1,379,420,418,-1,379,418,377,-1,377,418,416,-1,377,416,375,-1,375,416,414,-1,375,414,373,-1,373,414,426,-1,373,426,371,-1,371,426,425,-1,371,425,368,-1,368,425,408,-1,368,408,395,-1,395,408,409,-1,395,409,393,-1,393,409,412,-1,393,412,391,-1,391,412,398,-1,391,398,389,-1,389,398,401,-1,389,401,387,-1,387,401,403,-1,387,403,385,-1,385,403,405,-1,385,405,382,-1,382,405,396,-1,357,428,354,-1,354,428,431,-1,354,431,433,-1,433,435,354,-1,354,435,437,-1,354,437,422,-1,466,513,460,-1,460,513,515,-1,460,515,461,-1,481,483,497,-1,497,483,485,-1,497,485,495,-1,495,485,470,-1,495,470,493,-1,493,470,473,-1,493,473,491,-1,491,473,469,-1,491,469,488,-1,488,469,461,-1,488,461,517,-1,517,461,515,-1,
        ]
    }
}
Shape{
    appearance Appearance {
        material  Material 	{
            diffuseColor 0.7686274509803922 0.7686274509803922 0.7686274509803922
            specularColor 0.615686274509804 0.615686274509804 0.615686274509804
            ambientIntensity 0.7686
            transparency 0.0
            shininess 0.5
        }
    }
    geometry IndexedFaceSet {
        ccw TRUE
        solid FALSE
        coord DEF co Coordinate {
            point [
                -1.2782 -0.1758 0.0, -1.2782 0.1215 0.0, -0.3296 0.1215 0.0, -0.5505 0.1227 0.0, -0.5217 0.1227 0.0, -0.6705 0.1227 0.0, -0.6506 0.1779 0.0, -0.5693 0.1779 0.0, -0.4974 0.1767 0.0, -0.4861 0.1591 0.0, -0.4699 0.1436 0.0, -0.4494 0.1316 0.0, -1.2782 1.7558 0.0, -1.0813 1.9526 0.0, -0.3296 1.9526 0.0, -1.2782 1.3596 0.0, -1.0813 1.3596 0.0, -1.0813 1.2415 0.0, -0.3488 0.3196 0.0, -0.4044 0.3196 0.0, -0.4328 0.3165 0.0, -0.5961 0.3196 0.0, -0.4558 0.3084 0.0, -0.4773 0.2941 0.0, -0.3488 0.1227 0.0, -0.4023 0.1227 0.0, -0.4267 0.1249 0.0, -0.4775 0.2939 0.0, -0.4914 0.2785 0.0, -0.5005 0.2615 0.0, -0.6993 0.1227 0.0, -0.6225 0.3196 0.0, -1.2782 1.2415 0.0, -0.5058 0.2421 0.0, -0.5073 0.2236 0.0, -0.5045 0.1973 0.0, -1.1323 -0.366 0.0, -1.1797 -0.3463 0.0, -1.2205 -0.315 0.0, -1.2518 -0.2742 0.0, -1.2714 -0.2268 0.0, -0.1255 0.1215 0.0, -0.1176 0.1204 0.0, -0.3296 -0.3727 0.0, -0.1122 0.1203 0.0, -0.1006 0.1215 0.0, 0.6904 0.1215 0.0, 0.6904 -0.1758 0.0, 0.4935 -0.3727 0.0, 0.6836 -0.2268 0.0, 0.664 -0.2742 0.0, 0.6327 -0.315 0.0, 0.5919 -0.3463 0.0, 0.5445 -0.366 0.0, -0.3104 0.1443 0.0, -0.3104 0.1227 0.0, -0.2048 0.1227 0.0, -0.3056 0.3196 0.0, -0.3056 0.298 0.0, -0.1664 0.1329 0.0, -0.1664 0.1545 0.0, -0.2048 0.3196 0.0, -0.1454 0.1243 0.0, -1.0813 -0.3727 0.0, 0.4935 1.9526 0.0, 0.4935 1.3596 0.0, 0.6904 1.7558 0.0, 0.6904 1.3596 0.0, -0.2312 0.2115 0.0, -0.2312 0.1443 0.0, -0.3008 0.2115 0.0, -0.3008 0.2332 0.0, -0.2312 0.2332 0.0, -0.2312 0.298 0.0, -0.1009 0.2982 0.0, -0.0862 0.2929 0.0, -0.1628 0.1526 0.0, -0.0725 0.2838 0.0, -0.0606 0.2706 0.0, -0.0463 0.219 0.0, -0.0483 0.1977 0.0, -0.0537 0.1808 0.0, -0.0975 0.144 0.0, -0.1158 0.1419 0.0, -0.0831 0.1493 0.0, -0.0711 0.1574 0.0, -0.0618 0.1672 0.0, -0.142 0.1448 0.0, 0.0977 0.1227 0.0, -0.0031 0.1227 0.0, -0.0879 0.1228 0.0, -0.0689 0.1294 0.0, 0.4935 1.2415 0.0, -0.0303 0.2678 0.0, -0.0419 0.2862 0.0, 0.0713 0.3196 0.0, -0.0525 0.2554 0.0, -0.0473 0.2344 0.0, -0.12 0.322 0.0, -0.1436 0.3203 0.0, -0.1664 0.3142 0.0, -0.1664 0.2878 0.0, -0.1442 0.2973 0.0, -0.1203 0.3004 0.0, -0.053 0.1395 0.0, -0.0382 0.1551 0.0, -0.0031 0.1443 0.0, -0.0278 0.1738 0.0, 0.0713 0.1443 0.0, -0.0597 0.3032 0.0, -0.0784 0.314 0.0, -0.1003 0.3204 0.0, 0.0977 0.3196 0.0, 0.6904 1.2415 0.0, -0.0218 0.1946 0.0, -0.0199 0.2174 0.0, -0.0228 0.2454 0.0, 0.4935 1.2415 0.1969, 0.4935 1.3596 0.1969, -1.0813 1.3596 0.1969, 0.6904 1.3596 0.1969, 0.6904 1.7558 0.1969, 0.4935 1.9526 0.1969, -1.0813 1.9526 0.1969, -1.2782 1.3596 0.1969, -1.2782 1.7558 0.1969, 0.6904 -0.1758 0.1969, 0.6904 1.2415 0.1969, -1.2782 1.2415 0.1969, -1.0813 -0.3727 0.1969, -1.0813 1.2415 0.1969, 0.4935 -0.3727 0.1969, 0.5445 -0.366 0.1969, -1.2782 -0.1758 0.1969, -1.2714 -0.2268 0.1969, -1.2518 -0.2742 0.1969, 0.5919 -0.3463 0.1969, 0.6327 -0.315 0.1969, 0.664 -0.2742 0.1969, -1.2205 -0.315 0.1969, -1.1797 -0.3463 0.1969, -1.1323 -0.366 0.1969, 0.6836 -0.2268 0.1969
            ]
        }
        coordIndex [
            0,1,2,-1,3,4,2,-1,5,6,7,-1,8,9,4,-1,4,9,10,-1,4,10,11,-1,12,13,14,-1,15,12,16,-1,16,12,14,-1,16,14,17,-1,17,14,18,-1,19,20,21,-1,21,20,22,-1,21,22,23,-1,24,2,25,-1,25,2,4,-1,25,4,26,-1,26,4,11,-1,23,27,21,-1,21,27,28,-1,21,28,29,-1,7,3,5,-1,5,3,2,-1,5,2,30,-1,30,2,1,-1,30,1,31,-1,31,1,32,-1,31,32,21,-1,21,32,17,-1,21,17,19,-1,19,17,18,-1,29,33,21,-1,21,33,34,-1,21,34,4,-1,4,34,35,-1,4,35,8,-1,36,37,0,-1,37,38,0,-1,0,38,39,-1,0,39,40,-1,41,42,43,-1,43,42,44,-1,43,44,45,-1,46,47,48,-1,48,47,49,-1,48,49,50,-1,50,51,48,-1,48,51,52,-1,48,52,53,-1,54,55,2,-1,2,55,56,-1,24,18,2,-1,2,18,14,-1,2,14,54,-1,54,14,57,-1,54,57,58,-1,59,56,60,-1,60,56,61,-1,59,62,56,-1,56,62,41,-1,56,41,2,-1,2,41,43,-1,2,43,0,-1,0,43,63,-1,0,63,36,-1,14,64,65,-1,65,64,66,-1,65,66,67,-1,68,69,70,-1,70,69,54,-1,70,54,71,-1,71,54,58,-1,71,58,72,-1,72,58,73,-1,74,75,76,-1,76,75,77,-1,76,77,78,-1,79,80,76,-1,76,80,81,-1,82,83,84,-1,84,83,85,-1,81,86,76,-1,76,86,85,-1,76,85,87,-1,87,85,83,-1,88,45,89,-1,89,45,90,-1,89,90,91,-1,14,65,57,-1,57,65,92,-1,57,92,61,-1,93,94,95,-1,78,96,76,-1,76,96,97,-1,76,97,79,-1,98,99,92,-1,92,99,100,-1,92,100,61,-1,61,100,101,-1,61,101,60,-1,60,101,102,-1,60,102,76,-1,76,102,103,-1,76,103,74,-1,91,104,89,-1,89,104,105,-1,89,105,106,-1,106,105,107,-1,106,107,108,-1,94,109,95,-1,95,109,110,-1,95,110,111,-1,111,98,95,-1,95,98,92,-1,95,92,112,-1,112,92,113,-1,112,113,88,-1,88,113,46,-1,88,46,45,-1,45,46,48,-1,45,48,43,-1,107,114,108,-1,108,114,115,-1,108,115,95,-1,95,115,116,-1,95,116,93,-1,117,118,119,-1,120,121,118,-1,118,121,122,-1,118,122,119,-1,119,122,123,-1,119,123,124,-1,124,123,125,-1,126,127,117,-1,128,129,130,-1,130,129,131,-1,130,131,132,-1,128,133,129,-1,129,133,134,-1,129,134,135,-1,136,137,138,-1,135,139,129,-1,129,139,140,-1,129,140,141,-1,119,130,117,-1,117,130,132,-1,117,132,126,-1,126,132,136,-1,126,136,142,-1,142,136,138,-1,16,119,15,-1,15,119,124,-1,17,130,16,-1,16,130,119,-1,32,128,17,-1,17,128,130,-1,128,32,133,-1,133,32,1,-1,133,1,0,-1,63,129,141,-1,63,141,36,-1,36,141,140,-1,36,140,37,-1,37,140,139,-1,37,139,38,-1,38,139,135,-1,38,135,39,-1,39,135,134,-1,39,134,40,-1,40,134,133,-1,40,133,0,-1,48,131,43,-1,43,131,129,-1,43,129,63,-1,47,126,142,-1,47,142,49,-1,49,142,138,-1,49,138,50,-1,50,138,137,-1,50,137,51,-1,51,137,136,-1,51,136,52,-1,52,136,132,-1,52,132,53,-1,53,132,131,-1,53,131,48,-1,113,127,46,-1,46,127,126,-1,46,126,47,-1,92,117,113,-1,113,117,127,-1,65,118,92,-1,92,118,117,-1,67,120,65,-1,65,120,118,-1,66,121,67,-1,67,121,120,-1,64,122,66,-1,66,122,121,-1,13,123,14,-1,14,123,122,-1,14,122,64,-1,12,125,13,-1,13,125,123,-1,15,124,12,-1,12,124,125,-1,
        ]
    }
}
Shape{
    appearance Appearance {
        material  Material 	{
            diffuseColor 1.0 1.0 1.0
            specularColor 0.8784313725490196 0.8784313725490196 0.8784313725490196
            ambientIntensity 1.0
            transparency 0.0
            shininess 0.5
        }
    }
    geometry IndexedFaceSet {
        ccw TRUE
        solid FALSE
        coord DEF co Coordinate {
            point [
                -0.6225 0.3196 0.0039, -0.6993 0.1227 0.0039, -0.6225 0.3196 0.0, -0.6993 0.1227 0.0, -0.6705 0.1227 0.0039, -0.6705 0.1227 0.0, -0.6506 0.1779 0.0039, -0.6506 0.1779 0.0, -0.5693 0.1779 0.0039, -0.5693 0.1779 0.0, -0.5505 0.1227 0.0039, -0.5505 0.1227 0.0, -0.5217 0.1227 0.0039, -0.5217 0.1227 0.0, -0.5961 0.3196 0.0039, -0.5961 0.3196 0.0, -0.5759 0.1995 0.0039, -0.6417 0.1995 0.0039, -0.6053 0.2818 0.0039, -0.6072 0.2886 0.0039, -0.6084 0.2956 0.0039, -0.6091 0.2956 0.0039, -0.6103 0.2886 0.0039, -0.6121 0.2818 0.0039, -0.5759 0.1995 0.0, -0.6417 0.1995 0.0, -0.6053 0.2818 0.0, -0.6072 0.2886 0.0, -0.6084 0.2956 0.0, -0.6091 0.2956 0.0, -0.6103 0.2886 0.0, -0.6121 0.2818 0.0, -0.4023 0.1227 0.0039, -0.3488 0.1227 0.0039, -0.4023 0.1227 0.0, -0.3488 0.1227 0.0, -0.3488 0.3196 0.0039, -0.3488 0.3196 0.0, -0.4044 0.3196 0.0039, -0.4044 0.3196 0.0, -0.5073 0.2236 0.0039, -0.5073 0.2236 0.0, -0.5058 0.2421 0.0, -0.5058 0.2421 0.0039, -0.5005 0.2615 0.0, -0.5005 0.2615 0.0039, -0.4914 0.2785 0.0, -0.4914 0.2785 0.0039, -0.4775 0.2939 0.0, -0.4775 0.2939 0.0039, -0.4773 0.2941 0.0, -0.4773 0.2941 0.0039, -0.4558 0.3084 0.0, -0.4558 0.3084 0.0039, -0.4328 0.3165 0.0, -0.4328 0.3165 0.0039, -0.4267 0.1249 0.0, -0.4267 0.1249 0.0039, -0.4494 0.1316 0.0, -0.4494 0.1316 0.0039, -0.4699 0.1436 0.0, -0.4699 0.1436 0.0039, -0.4861 0.1591 0.0, -0.4861 0.1591 0.0039, -0.4974 0.1767 0.0, -0.4974 0.1767 0.0039, -0.5045 0.1973 0.0, -0.5045 0.1973 0.0039, -0.4677 0.2704 0.0039, -0.4582 0.2805 0.0039, -0.4438 0.2898 0.0039, -0.4276 0.2955 0.0039, -0.4043 0.298 0.0039, -0.3752 0.298 0.0039, -0.3752 0.1443 0.0039, -0.4032 0.1443 0.0039, -0.4239 0.1463 0.0039, -0.4405 0.1514 0.0039, -0.4539 0.1594 0.0039, -0.465 0.1703 0.0039, -0.4733 0.1839 0.0039, -0.479 0.2024 0.0039, -0.4808 0.2231 0.0039, -0.4792 0.2427 0.0039, -0.4746 0.2582 0.0039, -0.4043 0.298 0.0, -0.3752 0.298 0.0, -0.4276 0.2955 0.0, -0.4438 0.2898 0.0, -0.4582 0.2805 0.0, -0.4677 0.2704 0.0, -0.4746 0.2582 0.0, -0.4792 0.2427 0.0, -0.4808 0.2231 0.0, -0.479 0.2024 0.0, -0.4733 0.1839 0.0, -0.465 0.1703 0.0, -0.4539 0.1594 0.0, -0.4405 0.1514 0.0, -0.4239 0.1463 0.0, -0.4032 0.1443 0.0, -0.3752 0.1443 0.0, -0.3104 0.1443 0.0039, -0.3104 0.1227 0.0039, -0.3104 0.1443 0.0, -0.3104 0.1227 0.0, -0.2048 0.1227 0.0039, -0.2048 0.1227 0.0, -0.2048 0.3196 0.0039, -0.2048 0.3196 0.0, -0.3056 0.3196 0.0039, -0.3056 0.3196 0.0, -0.3056 0.298 0.0039, -0.3056 0.298 0.0, -0.2312 0.298 0.0039, -0.2312 0.298 0.0, -0.2312 0.2332 0.0039, -0.2312 0.2332 0.0, -0.3008 0.2332 0.0039, -0.3008 0.2332 0.0, -0.3008 0.2115 0.0039, -0.3008 0.2115 0.0, -0.2312 0.2115 0.0039, -0.2312 0.2115 0.0, -0.2312 0.1443 0.0039, -0.2312 0.1443 0.0, -0.1664 0.1545 0.0039, -0.1664 0.1329 0.0039, -0.1664 0.1545 0.0, -0.1664 0.1329 0.0, -0.1454 0.1243 0.0039, -0.1122 0.1203 0.0039, -0.1122 0.1203 0.0, -0.1176 0.1204 0.0, -0.1176 0.1204 0.0039, -0.1255 0.1215 0.0, -0.1454 0.1243 0.0, -0.0199 0.2174 0.0039, -0.0199 0.2174 0.0, -0.0218 0.1946 0.0, -0.0218 0.1946 0.0039, -0.0278 0.1738 0.0, -0.0278 0.1738 0.0039, -0.0382 0.1551 0.0, -0.0382 0.1551 0.0039, -0.053 0.1395 0.0, -0.053 0.1395 0.0039, -0.0689 0.1294 0.0, -0.0689 0.1294 0.0039, -0.0879 0.1228 0.0, -0.0879 0.1228 0.0039, -0.1006 0.1215 0.0, -0.12 0.322 0.0039, -0.12 0.322 0.0, -0.1003 0.3204 0.0, -0.1003 0.3204 0.0039, -0.0784 0.314 0.0, -0.0784 0.314 0.0039, -0.0597 0.3032 0.0, -0.0597 0.3032 0.0039, -0.0419 0.2862 0.0, -0.0419 0.2862 0.0039, -0.0303 0.2678 0.0, -0.0303 0.2678 0.0039, -0.0228 0.2454 0.0, -0.0228 0.2454 0.0039, -0.1664 0.3142 0.0039, -0.1664 0.3142 0.0, -0.1436 0.3203 0.0, -0.1436 0.3203 0.0039, -0.1664 0.2878 0.0039, -0.1664 0.2878 0.0, -0.1203 0.3004 0.0039, -0.1203 0.3004 0.0, -0.1442 0.2973 0.0, -0.1442 0.2973 0.0039, -0.0463 0.219 0.0039, -0.0463 0.219 0.0, -0.0473 0.2344 0.0, -0.0473 0.2344 0.0039, -0.0525 0.2554 0.0, -0.0525 0.2554 0.0039, -0.0606 0.2706 0.0, -0.0606 0.2706 0.0039, -0.0725 0.2838 0.0, -0.0725 0.2838 0.0039, -0.0862 0.2929 0.0, -0.0862 0.2929 0.0039, -0.1009 0.2982 0.0, -0.1009 0.2982 0.0039, -0.1158 0.1419 0.0039, -0.1158 0.1419 0.0, -0.0975 0.144 0.0, -0.0975 0.144 0.0039, -0.0831 0.1493 0.0, -0.0831 0.1493 0.0039, -0.0711 0.1574 0.0, -0.0711 0.1574 0.0039, -0.0618 0.1672 0.0, -0.0618 0.1672 0.0039, -0.0537 0.1808 0.0, -0.0537 0.1808 0.0039, -0.0483 0.1977 0.0, -0.0483 0.1977 0.0039, -0.1628 0.1526 0.0, -0.1628 0.1526 0.0039, -0.142 0.1448 0.0, -0.142 0.1448 0.0039, -0.0031 0.1443 0.0039, -0.0031 0.1227 0.0039, -0.0031 0.1443 0.0, -0.0031 0.1227 0.0, 0.0977 0.1227 0.0039, 0.0977 0.1227 0.0, 0.0977 0.3196 0.0039, 0.0977 0.3196 0.0, 0.0713 0.3196 0.0039, 0.0713 0.3196 0.0, 0.0713 0.1443 0.0039, 0.0713 0.1443 0.0
            ]
        }
        coordIndex [
            0,1,2,-1,2,1,3,-1,1,4,3,-1,3,4,5,-1,4,6,5,-1,5,6,7,-1,6,8,7,-1,7,8,9,-1,8,10,9,-1,9,10,11,-1,10,12,11,-1,11,12,13,-1,12,14,13,-1,13,14,15,-1,14,0,15,-1,15,0,2,-1,16,8,17,-1,17,8,6,-1,18,14,16,-1,16,14,12,-1,16,12,8,-1,8,12,10,-1,18,19,14,-1,14,19,20,-1,14,20,0,-1,0,20,21,-1,0,21,22,-1,22,23,0,-1,0,23,17,-1,0,17,1,-1,1,17,6,-1,1,6,4,-1,16,17,24,-1,24,17,25,-1,18,16,26,-1,26,16,24,-1,18,26,27,-1,18,27,19,-1,19,27,28,-1,19,28,20,-1,21,20,29,-1,29,20,28,-1,21,29,30,-1,21,30,22,-1,22,30,31,-1,22,31,23,-1,17,23,25,-1,25,23,31,-1,32,33,34,-1,34,33,35,-1,33,36,35,-1,35,36,37,-1,36,38,37,-1,37,38,39,-1,40,41,42,-1,40,42,43,-1,43,42,44,-1,43,44,45,-1,45,44,46,-1,45,46,47,-1,47,46,48,-1,47,48,49,-1,49,48,50,-1,49,50,51,-1,51,50,52,-1,51,52,53,-1,53,52,54,-1,53,54,55,-1,55,54,39,-1,55,39,38,-1,32,34,56,-1,32,56,57,-1,57,56,58,-1,57,58,59,-1,59,58,60,-1,59,60,61,-1,61,60,62,-1,61,62,63,-1,63,62,64,-1,63,64,65,-1,65,64,66,-1,65,66,67,-1,67,66,41,-1,67,41,40,-1,45,47,68,-1,68,47,49,-1,68,49,69,-1,69,49,51,-1,69,51,70,-1,70,51,53,-1,70,53,71,-1,71,53,55,-1,71,55,72,-1,72,55,38,-1,72,38,73,-1,73,38,36,-1,73,36,74,-1,74,36,33,-1,74,33,75,-1,75,33,32,-1,75,32,76,-1,76,32,57,-1,76,57,77,-1,77,57,59,-1,77,59,78,-1,78,59,61,-1,78,61,79,-1,79,61,63,-1,79,63,80,-1,80,63,65,-1,80,65,81,-1,81,65,67,-1,81,67,82,-1,82,67,40,-1,82,40,83,-1,83,40,43,-1,83,43,84,-1,84,43,45,-1,84,45,68,-1,72,73,85,-1,85,73,86,-1,72,85,87,-1,72,87,71,-1,71,87,88,-1,71,88,70,-1,70,88,89,-1,70,89,69,-1,69,89,90,-1,69,90,68,-1,68,90,91,-1,68,91,84,-1,84,91,92,-1,84,92,83,-1,83,92,93,-1,83,93,82,-1,82,93,94,-1,82,94,81,-1,81,94,95,-1,81,95,80,-1,80,95,96,-1,80,96,79,-1,79,96,97,-1,79,97,78,-1,78,97,98,-1,78,98,77,-1,77,98,99,-1,77,99,76,-1,76,99,100,-1,76,100,75,-1,74,75,101,-1,101,75,100,-1,73,74,86,-1,86,74,101,-1,102,103,104,-1,104,103,105,-1,103,106,105,-1,105,106,107,-1,106,108,107,-1,107,108,109,-1,108,110,109,-1,109,110,111,-1,110,112,111,-1,111,112,113,-1,112,114,113,-1,113,114,115,-1,114,116,115,-1,115,116,117,-1,116,118,117,-1,117,118,119,-1,118,120,119,-1,119,120,121,-1,120,122,121,-1,121,122,123,-1,122,124,123,-1,123,124,125,-1,124,102,125,-1,125,102,104,-1,106,103,102,-1,102,124,106,-1,106,124,122,-1,106,122,108,-1,112,110,114,-1,114,110,108,-1,114,108,116,-1,116,108,122,-1,116,122,118,-1,118,122,120,-1,126,127,128,-1,128,127,129,-1,129,127,130,-1,131,132,133,-1,131,133,134,-1,134,133,135,-1,134,135,130,-1,130,135,136,-1,130,136,129,-1,137,138,139,-1,137,139,140,-1,140,139,141,-1,140,141,142,-1,142,141,143,-1,142,143,144,-1,144,143,145,-1,144,145,146,-1,146,145,147,-1,146,147,148,-1,148,147,149,-1,148,149,150,-1,150,149,131,-1,131,149,151,-1,131,151,132,-1,152,153,154,-1,152,154,155,-1,155,154,156,-1,155,156,157,-1,157,156,158,-1,157,158,159,-1,159,158,160,-1,159,160,161,-1,161,160,162,-1,161,162,163,-1,163,162,164,-1,163,164,165,-1,165,164,138,-1,165,138,137,-1,166,167,168,-1,166,168,169,-1,169,168,153,-1,169,153,152,-1,166,170,167,-1,167,170,171,-1,172,173,174,-1,172,174,175,-1,175,174,171,-1,175,171,170,-1,176,177,178,-1,176,178,179,-1,179,178,180,-1,179,180,181,-1,181,180,182,-1,181,182,183,-1,183,182,184,-1,183,184,185,-1,185,184,186,-1,185,186,187,-1,187,186,188,-1,187,188,189,-1,189,188,173,-1,189,173,172,-1,190,191,192,-1,190,192,193,-1,193,192,194,-1,193,194,195,-1,195,194,196,-1,195,196,197,-1,197,196,198,-1,197,198,199,-1,199,198,200,-1,199,200,201,-1,201,200,202,-1,201,202,203,-1,203,202,177,-1,203,177,176,-1,126,128,204,-1,126,204,205,-1,205,204,206,-1,205,206,207,-1,207,206,191,-1,207,191,190,-1,193,131,190,-1,190,131,134,-1,190,134,207,-1,207,134,130,-1,207,130,205,-1,205,130,127,-1,205,127,126,-1,170,166,175,-1,175,166,169,-1,175,169,172,-1,172,169,152,-1,172,152,189,-1,189,152,155,-1,189,155,187,-1,187,155,157,-1,187,157,185,-1,185,157,159,-1,185,159,183,-1,183,159,161,-1,183,161,181,-1,181,161,163,-1,181,163,179,-1,179,163,165,-1,179,165,176,-1,176,165,137,-1,176,137,203,-1,203,137,140,-1,203,140,201,-1,201,140,142,-1,201,142,199,-1,199,142,144,-1,199,144,197,-1,197,144,146,-1,197,146,195,-1,195,146,148,-1,195,148,193,-1,193,148,150,-1,193,150,131,-1,208,209,210,-1,210,209,211,-1,209,212,211,-1,211,212,213,-1,212,214,213,-1,213,214,215,-1,214,216,215,-1,215,216,217,-1,216,218,217,-1,217,218,219,-1,218,208,219,-1,219,208,210,-1,216,214,218,-1,218,214,212,-1,218,212,208,-1,208,212,209,-1,
        ]
    }
}
Shape{
    appearance Appearance {
        material  Material 	{
            diffuseColor 0.7686274509803922 0.7686274509803922 0.7686274509803922
            specularColor 0.615686274509804 0.615686274509804 0.615686274509804
            ambientIntensity 0.7686
            transparency 0.0
            shininess 0.5
        }
    }
    geometry IndexedFaceSet {
        ccw TRUE
        solid FALSE
        coord DEF co Coordinate {
            point [
                -0.5759 0.1995 0.0, -0.6417 0.1995 0.0, -0.6053 0.2818 0.0, -0.6121 0.2818 0.0, -0.6072 0.2886 0.0, -0.6103 0.2886 0.0, -0.6084 0.2956 0.0, -0.6091 0.2956 0.0, -0.3752 0.298 0.0, -0.3752 0.1443 0.0, -0.4043 0.298 0.0, -0.4032 0.1443 0.0, -0.4239 0.1463 0.0, -0.4808 0.2231 0.0, -0.4792 0.2427 0.0, -0.4746 0.2582 0.0, -0.4276 0.2955 0.0, -0.4405 0.1514 0.0, -0.4539 0.1594 0.0, -0.465 0.1703 0.0, -0.4733 0.1839 0.0, -0.479 0.2024 0.0, -0.4677 0.2704 0.0, -0.4582 0.2805 0.0, -0.4438 0.2898 0.0
            ]
        }
        coordIndex [
            0,1,2,-1,2,1,3,-1,2,3,4,-1,4,3,5,-1,4,5,6,-1,6,5,7,-1,8,9,10,-1,10,9,11,-1,10,11,12,-1,13,14,10,-1,10,14,15,-1,10,15,16,-1,12,17,10,-1,10,17,18,-1,10,18,19,-1,19,20,10,-1,10,20,21,-1,10,21,13,-1,22,23,15,-1,15,23,24,-1,15,24,16,-1,
        ]
    }
}