#VRML V2.0 utf8
# 3D model generated by easyeda2kicad.py (https://github.com/uPesy/easyeda2kicad.py)

Shape{
    appearance Appearance {
        material  Material 	{
            diffuseColor 0.6470588235294118 0.6196078431372549 0.5882352941176471
            specularColor 0.45098039215686275 0.43529411764705883 0.4117647058823529
            ambientIntensity 0.6242
            transparency 0.0
            shininess 0.5
        }
    }
    geometry IndexedFaceSet {
        ccw TRUE
        solid FALSE
        coord DEF co Coordinate {
            point [
                -1.1575 0.0945 1.4596, -1.1575 0.0945 1.0748, -1.1575 -0.1024 1.4596, -1.1575 -0.1024 1.0748, -0.8425 0.0945 1.4596, -0.8425 -0.1024 1.4596, -0.8425 0.0945 1.0748, -0.8425 -0.1024 1.0748, -0.7106 0.0945 1.0748, -0.7106 -0.1024 1.0748, -0.7106 0.0945 0.1319, -0.7106 -0.1024 0.1319, -0.8425 0.0945 0.0, -0.8425 -0.1024 0.0, -0.8425 0.0945 -1.6012, -0.8425 -0.1024 -1.6012, -0.9409 -0.1024 -1.9685, -1.0591 -0.1024 -1.9685, -0.9409 0.0945 -1.9685, -1.0591 0.0945 -1.9685, -1.1575 -0.1024 -1.6012, -1.1575 -0.1024 0.0, -1.1575 0.0945 -1.6012, -1.1575 0.0945 0.0, -1.2894 0.0945 0.1319, -1.2894 -0.1024 0.1319, -1.2894 0.0945 1.0748, -1.2894 -0.1024 1.0748
            ]
        }
        coordIndex [
            0,1,2,-1,2,1,3,-1,4,0,5,-1,5,0,2,-1,6,4,7,-1,7,4,5,-1,8,6,9,-1,9,6,7,-1,10,8,11,-1,11,8,9,-1,12,10,13,-1,13,10,11,-1,14,12,15,-1,15,12,13,-1,16,17,18,-1,18,17,19,-1,20,21,22,-1,22,21,23,-1,24,23,25,-1,25,23,21,-1,26,24,27,-1,27,24,25,-1,1,26,3,-1,3,26,27,-1,0,4,1,-1,1,4,6,-1,24,26,12,-1,12,26,1,-1,12,1,10,-1,10,1,6,-1,10,6,8,-1,18,19,14,-1,14,19,22,-1,14,22,12,-1,12,22,23,-1,12,23,24,-1,5,2,7,-1,7,2,3,-1,9,7,11,-1,11,7,3,-1,11,3,13,-1,13,3,27,-1,27,25,13,-1,13,25,21,-1,13,21,15,-1,15,21,20,-1,15,20,16,-1,16,20,17,-1,15,16,14,-1,14,16,18,-1,17,20,19,-1,19,20,22,-1,
        ]
    }
}
Shape{
    appearance Appearance {
        material  Material 	{
            diffuseColor 0.2235294117647059 0.2235294117647059 0.2235294117647059
            specularColor 0.11372549019607843 0.11372549019607843 0.11372549019607843
            ambientIntensity 0.2235
            transparency 0.0
            shininess 0.5
        }
    }
    geometry IndexedFaceSet {
        ccw TRUE
        solid FALSE
        coord DEF co Coordinate {
            point [
                0.181 0.6297 1.2717, 0.2004 0.6276 1.2717, 0.1384 0.4819 1.2717, 0.0965 0.6489 1.2717, 0.1639 0.6501 1.2717, 0.1577 0.6497 1.2717, 0.1349 0.6435 1.2717, 0.1349 0.6171 1.2717, 0.0965 0.4521 1.2717, 0.1571 0.6266 1.2717, 0.1349 0.4839 1.2717, 0.2483 0.4689 1.2717, 0.2982 0.4737 1.2717, 0.2324 0.4588 1.2717, 0.2133 0.4522 1.2717, -0.0043 0.6273 1.2717, -0.0283 0.1811 1.2717, -0.0283 0.6501 1.2717, 0.2982 0.4521 1.2717, 0.399 0.4521 1.2717, 0.399 0.6489 1.2717, 1.8952 0.6501 1.2717, 1.8541 0.1811 1.2717, 0.263 0.4844 1.2717, 0.2735 0.5032 1.2717, 0.3726 0.4737 1.2717, 0.271 0.5971 1.2717, 0.2594 0.6155 1.2717, 0.3726 0.6489 1.2717, 0.2417 0.6326 1.2717, 0.223 0.6433 1.2717, -0.0043 0.6489 1.2717, 0.0701 0.6273 1.2717, 0.0701 0.5625 1.2717, 0.201 0.6497 1.2717, 0.1959 0.6501 1.2717, 0.2151 0.6222 1.2717, 0.2288 0.6131 1.2717, 0.2407 0.6 1.2717, 0.255 0.5484 1.2717, 0.253 0.5271 1.2717, 0.2476 0.5102 1.2717, 0.2038 0.4733 1.2717, 0.1854 0.4713 1.2717, 0.2182 0.4786 1.2717, 0.2302 0.4868 1.2717, 0.2395 0.4965 1.2717, 0.1593 0.4742 1.2717, 0.2488 0.5848 1.2717, 0.254 0.5637 1.2717, 0.0701 0.5409 1.2717, 0.0701 0.4737 1.2717, 0.0005 0.5409 1.2717, -0.0091 0.4737 1.2717, 0.0005 0.5625 1.2717, 0.2795 0.524 1.2717, 0.2814 0.5468 1.2717, 0.2785 0.5748 1.2717, -0.0091 0.4521 1.2717, 0.1349 0.4623 1.2717, 0.1559 0.4537 1.2717, 0.1837 0.4498 1.2717, 0.1891 0.4497 1.2717, 0.1812 0.6513 1.2717, -0.0283 0.9449 1.2717, 1.921 0.9449 1.2717, -1.921 0.9449 1.2717, -1.8952 0.6501 1.2717, -0.2492 0.4521 1.2717, -0.2204 0.4521 1.2717, -0.3212 0.6489 1.2717, -0.398 0.4521 1.2717, -1.8541 0.1811 1.2717, -0.3692 0.4521 1.2717, -0.3493 0.5073 1.2717, -0.268 0.5073 1.2717, -0.2948 0.6489 1.2717, -0.1031 0.6489 1.2717, -0.1315 0.6459 1.2717, -0.1545 0.6378 1.2717, -0.176 0.6234 1.2717, -0.1762 0.6233 1.2717, -0.1901 0.6078 1.2717, -0.1992 0.5909 1.2717, -0.1961 0.506 1.2717, -0.1848 0.4884 1.2717, -0.1686 0.4729 1.2717, -0.1481 0.461 1.2717, -0.1254 0.4542 1.2717, -0.1011 0.4521 1.2717, -0.0475 0.4521 1.2717, -0.0475 0.6489 1.2717, -0.2045 0.5715 1.2717, -0.206 0.553 1.2717, -0.2032 0.5266 1.2717, -0.1575 0.0945 1.2838, -0.1575 -0.1024 1.3115, 0.1575 -0.1024 1.3115, 0.1575 0.0945 1.2838, 0.8425 0.0945 1.2838, 0.8425 -0.1024 1.3115, 1.7866 -0.6015 1.3816, -1.7866 -0.6015 1.3816, -1.8551 0.1811 1.2717, 1.8551 0.1811 1.2717, 1.1575 -0.1024 1.3115, 1.1575 0.0945 1.2838, -1.861 0.1811 4.9502, -0.1985 0.1811 5.5443, -0.3229 0.1811 5.5941, -0.5741 0.1811 6.6293, -1.861 0.1811 7.3439, -0.641 0.1811 6.5132, -0.6849 0.1811 6.3866, -0.4863 0.1811 6.7305, -0.381 0.1811 6.8133, -0.2619 0.1811 6.8747, 1.861 0.1811 7.3439, 0.2619 0.1811 6.8747, 0.381 0.1811 6.8133, -0.4356 0.1811 5.6665, -0.5326 0.1811 5.759, -0.6103 0.1811 5.8681, 0.4863 0.1811 6.7305, 0.5741 0.1811 6.6293, 0.641 0.1811 6.5132, -0.1334 0.1811 6.9125, 0.0 0.1811 6.9252, 0.1334 0.1811 6.9125, 0.666 0.1811 5.99, 0.6103 0.1811 5.8681, 1.861 0.1811 4.9502, 0.3229 0.1811 5.5941, 0.1985 0.1811 5.5443, 0.067 0.1811 5.5189, -0.067 0.1811 5.5189, -0.666 0.1811 5.99, -0.6976 0.1811 6.1202, -0.7039 0.1811 6.254, 0.6849 0.1811 6.3866, 0.7039 0.1811 6.254, 0.6976 0.1811 6.1202, 0.5326 0.1811 5.759, 0.4356 0.1811 5.6665, -1.0843 -0.6693 1.7373, -1.1209 -0.6693 1.7653, -1.7866 -0.6693 1.4596, -1.1489 -0.6693 1.8019, -0.8195 -0.6693 1.8902, 0.0 -0.6693 3.5666, -0.8255 -0.6693 1.9359, -0.8431 -0.6693 1.9784, -1.7866 -0.6693 4.6015, -0.26 -0.6693 3.8266, -0.2512 -0.6693 3.8939, -1.1665 -0.6693 1.8445, -1.1726 -0.6693 1.8902, -1.1665 -0.6693 1.9359, -1.1489 -0.6693 1.9784, -0.2252 -0.6693 3.9566, -0.1839 -0.6693 4.0105, -0.13 -0.6693 4.0518, 0.13 -0.6693 4.0518, 0.1839 -0.6693 4.0105, 1.7866 -0.6693 4.6015, 0.2252 -0.6693 3.9566, 0.2252 -0.6693 3.6966, 0.1839 -0.6693 3.6427, 1.7866 -0.6693 1.4596, -1.1209 -0.6693 2.015, -1.0843 -0.6693 2.043, -1.0417 -0.6693 2.0607, -0.996 -0.6693 2.0667, -0.13 -0.6693 3.6014, -0.9503 -0.6693 2.0607, -0.0673 -0.6693 3.5755, -0.9078 -0.6693 2.043, -0.8712 -0.6693 2.015, 0.2512 -0.6693 3.8939, 0.26 -0.6693 3.8266, 0.2512 -0.6693 3.7593, 0.13 -0.6693 3.6014, 0.0673 -0.6693 3.5755, -0.1839 -0.6693 3.6427, -0.2252 -0.6693 3.6966, -0.2512 -0.6693 3.7593, -0.0673 -0.6693 4.0778, 0.0 -0.6693 4.0866, 0.0673 -0.6693 4.0778, -0.8255 -0.6693 1.8445, -0.8431 -0.6693 1.8019, -0.8712 -0.6693 1.7653, -0.9078 -0.6693 1.7373, -0.9503 -0.6693 1.7196, -0.996 -0.6693 1.7136, -1.0417 -0.6693 1.7196, 0.1334 1.1811 5.5285, 0.2619 1.1811 5.5662, 1.8923 1.1811 1.3794, -0.4356 1.1811 6.7744, -1.8923 1.1811 7.412, -0.3229 1.1811 6.8469, -0.1985 1.1811 6.8967, -0.641 1.1811 5.9277, -0.5741 1.1811 5.8117, -1.8923 1.1811 1.3794, -0.4863 1.1811 5.7104, -0.381 1.1811 5.6276, -0.5326 1.1811 6.682, -0.6103 1.1811 6.5728, -0.666 1.1811 6.451, 0.381 1.1811 5.6276, 0.4863 1.1811 5.7104, 0.5741 1.1811 5.8117, -0.2619 1.1811 5.5662, -0.1334 1.1811 5.5285, 0.0 1.1811 5.5158, -0.6976 1.1811 6.3208, -0.7039 1.1811 6.1869, -0.6849 1.1811 6.0543, 0.641 1.1811 5.9277, 0.6849 1.1811 6.0543, 1.8923 1.1811 7.412, 0.7039 1.1811 6.1869, 0.3229 1.1811 6.8469, 0.1985 1.1811 6.8967, 0.067 1.1811 6.922, -0.067 1.1811 6.922, 0.6976 1.1811 6.3208, 0.666 1.1811 6.451, 0.6103 1.1811 6.5728, 0.5326 1.1811 6.682, 0.4356 1.1811 6.7744, 1.9225 0.9449 7.5197, 1.8923 1.116 7.4895, 1.9219 0.9449 7.5197, -1.8923 1.116 7.4895, -1.9219 0.9449 7.5197, -1.9225 0.9449 7.5197, 2.0 0.9449 1.3492, 1.9698 1.116 1.3794, 2.0 0.9449 1.3504, 1.9698 1.116 7.412, 2.0 0.9449 7.4411, 2.0 0.9449 7.4421, -2.0 0.9449 7.4411, -2.0 0.9449 7.4421, -1.9698 1.116 7.412, -2.0 0.9449 1.3504, -1.9698 1.116 1.3794, -2.0 0.9449 1.3492, 1.9224 0.945 1.2717, 1.8923 1.116 1.3018, -1.8923 1.116 1.3018, -1.9224 0.945 1.2717, -1.861 0.2489 7.4219, 1.861 0.2489 7.4219, 1.8508 0.1227 4.8741, -1.8508 0.1227 4.8741, 1.7866 -0.6109 4.6775, -1.7866 -0.6109 4.6775, 1.9395 0.253 4.9502, 1.9395 0.253 7.3439, 1.939 0.2477 4.9096, 1.9376 0.232 4.8717, 1.9354 0.2071 4.839, 1.9326 0.1745 4.8139, 1.9293 0.1364 4.7981, 1.9331 0.1798 1.3504, 1.9293 0.1363 4.7981, 1.8651 -0.5974 1.4596, 1.8651 -0.5974 4.6015, -1.9354 0.207 4.8389, -1.9376 0.2319 4.8715, -1.939 0.2476 4.9094, -1.9395 0.253 4.95, -1.9395 0.253 4.9502, -1.9395 0.253 7.3439, -1.8651 -0.5974 1.4596, -1.8651 -0.5974 4.6015, -1.9331 0.1798 1.3504, -1.9293 0.1363 4.7981, -1.9326 0.1743 4.8139, 0.2327 1.1024 5.6393, 0.1613 1.1024 5.6184, 0.1618 0.2598 5.617, 0.1185 1.1024 5.6058, 0.0595 0.2598 5.5973, 0.0 1.1024 5.5945, 0.0 0.2598 5.5973, 0.1764 0.2598 5.6198, 0.2868 0.2598 5.6641, 0.312 1.1024 5.6802, 0.3118 0.2598 5.6801, 0.3384 1.1024 5.6939, 0.387 0.2598 5.7284, 0.432 1.1024 5.7674, 0.4408 0.2598 5.7798, 0.4417 1.1024 5.7787, 0.4731 0.2598 5.8105, 0.5099 1.1024 5.8574, 0.5421 0.2598 5.9075, 0.5397 1.1024 5.9089, 0.5694 1.1024 5.9604, 0.5916 0.2598 6.0157, 0.6035 1.1024 6.0589, 0.6021 0.2598 6.0591, 0.6083 1.1024 6.0729, 0.6196 0.2598 6.1314, 0.6253 1.1024 6.1907, 0.6239 0.2598 6.2206, 0.6239 1.1024 6.2204, 0.6253 0.2598 6.2503, 0.6196 1.1024 6.3096, 0.6083 0.2598 6.3681, 0.6021 1.1024 6.3819, 0.6035 0.2598 6.3821, 0.5916 1.1024 6.4252, 0.5694 0.2598 6.4805, 0.5421 1.1024 6.5335, 0.5397 0.2598 6.5321, 0.5099 0.2598 6.5836, 0.4731 1.1024 6.6304, 0.4417 0.2598 6.6623, 0.4408 1.1024 6.6612, 0.432 0.2598 6.6735, 0.387 1.1024 6.7125, 0.3384 0.2598 6.7471, 0.3118 1.1024 6.7608, 0.312 0.2598 6.7607, 0.2868 1.1024 6.7769, 0.2327 0.2598 6.8016, 0.1764 1.1024 6.8211, 0.1613 0.2598 6.8226, 0.1618 1.1024 6.8239, 0.1185 0.2598 6.8351, 0.0595 1.1024 6.8436, 0.0 0.2598 6.8465, 0.0 1.1024 6.8436, -0.0595 1.1024 6.8436, -0.1185 0.2598 6.8351, -0.1618 1.1024 6.8239, -0.1613 0.2598 6.8226, -0.1764 1.1024 6.8211, -0.2327 0.2598 6.8016, -0.2868 1.1024 6.7769, -0.312 0.2598 6.7607, -0.3118 1.1024 6.7608, -0.3384 0.2598 6.7471, -0.387 1.1024 6.7125, -0.432 0.2598 6.6735, -0.4408 1.1024 6.6612, -0.4417 0.2598 6.6623, -0.4731 1.1024 6.6304, -0.5099 0.2598 6.5836, -0.5421 1.1024 6.5335, -0.6196 1.1024 6.3096, -0.6021 1.1024 6.3819, -0.6035 0.2598 6.3821, -0.5916 1.1024 6.4252, -0.5694 0.2598 6.4805, -0.5397 0.2598 6.5321, -0.6083 0.2598 6.3681, -0.6253 0.2598 6.2503, -0.6239 1.1024 6.2204, -0.6239 0.2598 6.2206, -0.6253 1.1024 6.1907, -0.6196 0.2598 6.1314, -0.6083 1.1024 6.0729, -0.6021 0.2598 6.0591, -0.6035 1.1024 6.0589, -0.5916 0.2598 6.0157, -0.5694 1.1024 5.9604, -0.5421 0.2598 5.9075, -0.0595 0.2598 5.5973, -0.1185 1.1024 5.6058, -0.1618 0.2598 5.617, -0.1613 1.1024 5.6184, -0.1764 0.2598 5.6198, -0.2327 1.1024 5.6393, -0.2868 0.2598 5.6641, -0.312 1.1024 5.6802, -0.3118 0.2598 5.6801, -0.3384 1.1024 5.6939, -0.387 0.2598 5.7284, -0.432 1.1024 5.7674, -0.4408 0.2598 5.7798, -0.4417 1.1024 5.7787, -0.4731 0.2598 5.8105, -0.5099 1.1024 5.8574, -0.5397 1.1024 5.9089, 0.0 -0.6653 3.5666, 0.0673 -0.6653 3.5755, 0.13 -0.6653 3.6014, 0.1839 -0.6653 3.6427, 0.2252 -0.6653 3.6966, 0.2512 -0.6653 3.7593, 0.26 -0.6653 3.8266, 0.2512 -0.6653 3.8939, 0.2252 -0.6653 3.9566, 0.1839 -0.6653 4.0105, 0.13 -0.6653 4.0518, 0.0673 -0.6653 4.0778, 0.0 -0.6653 4.0866, -0.0673 -0.6653 4.0778, -0.13 -0.6653 4.0518, -0.1839 -0.6653 4.0105, -0.2252 -0.6653 3.9566, -0.2512 -0.6653 3.8939, -0.26 -0.6653 3.8266, -0.2512 -0.6653 3.7593, -0.2252 -0.6653 3.6966, -0.1839 -0.6653 3.6427, -0.13 -0.6653 3.6014, -0.0673 -0.6653 3.5755, 0.0 -0.6653 3.8266, 1.7866 -0.6674 4.6185, 1.7866 -0.6264 4.6716, -1.7866 -0.6264 4.6716, 1.7866 -0.6269 4.6713, -1.7866 -0.6269 4.6713, 1.7866 -0.6408 4.6621, -1.7866 -0.6408 4.6621, 1.7866 -0.6411 4.6618, -1.7866 -0.6411 4.6618, 1.7866 -0.6528 4.6497, -1.7866 -0.6528 4.6497, 1.7866 -0.653 4.6494, -1.7866 -0.653 4.6494, 1.7866 -0.6618 4.6349, -1.7866 -0.6618 4.6349, 1.7866 -0.6619 4.6348, -1.7866 -0.6619 4.6348, 1.7866 -0.6674 4.6186, -1.7866 -0.6674 4.6186, -1.7866 -0.6674 4.6185, -1.8609 -0.6164 4.6015, -1.8527 -0.6334 4.6015, -1.8511 -0.6324 4.6186, -1.8524 -0.6338 4.6015, -1.8401 -0.6484 4.6015, -1.8388 -0.647 4.6186, -1.8398 -0.6486 4.6015, -1.8242 -0.6597 4.6015, -1.8233 -0.6581 4.6186, -1.8415 -0.6096 4.6547, -1.8423 -0.6094 4.6536, -1.8456 -0.6106 4.6497, -1.8612 -0.6158 4.6015, -1.8594 -0.6152 4.6186, -1.8541 -0.6134 4.6349, -1.862 -0.6023 4.6209, -1.8624 -0.6018 4.6186, -1.8457 -0.6086 4.6494, -1.854 -0.6065 4.639, -1.8558 -0.6055 4.6348, -1.8204 -0.6116 4.6688, -1.8253 -0.6114 4.6668, -1.8288 -0.6179 4.6621, -1.8321 -0.6107 4.6617, -1.8389 -0.6245 4.6497, -1.8064 -0.6119 4.6746, -1.8066 -0.6119 4.6746, -1.811 -0.6169 4.6716, -1.8145 -0.6117 4.6713, -1.8208 -0.6275 4.6621, -1.7925 -0.6112 4.6767, -1.7955 -0.6253 4.6716, -1.799 -0.6393 4.6621, -1.802 -0.6509 4.6497, -1.8042 -0.6596 4.6349, -1.8055 -0.665 4.6186, -1.8059 -0.6669 4.6015, -1.806 -0.6669 4.6015, -1.824 -0.6598 4.6015, -1.8206 -0.6532 4.6349, -1.8163 -0.6453 4.6497, -1.8106 -0.6347 4.6621, -1.8038 -0.6221 4.6716, -1.7993 -0.6115 4.6757, -1.835 -0.6429 4.6349, -1.8289 -0.6363 4.6497, -1.8464 -0.6294 4.6349, -1.8612 -0.6158 1.4596, -1.8609 -0.6164 1.4596, -1.8527 -0.6334 1.4596, -1.8524 -0.6338 1.4596, -1.8401 -0.6484 1.4596, -1.8398 -0.6486 1.4596, -1.8242 -0.6597 1.4596, -1.824 -0.6598 1.4596, -1.806 -0.6669 1.4596, -1.8059 -0.6669 1.4596, -1.7866 -0.6191 1.3862, 1.7866 -0.6191 1.3862, -1.7866 -0.6196 1.3865, 1.7866 -0.6196 1.3865, -1.7866 -0.6357 1.3951, 1.7866 -0.6357 1.3951, -1.7866 -0.636 1.3954, 1.7866 -0.636 1.3954, -1.7866 -0.6498 1.4077, 1.7866 -0.6498 1.4077, -1.7866 -0.6499 1.408, 1.7866 -0.6499 1.408, -1.7866 -0.6604 1.4233, 1.7866 -0.6604 1.4233, -1.7866 -0.6605 1.4235, 1.7866 -0.6605 1.4235, -1.7866 -0.667 1.4409, 1.7866 -0.667 1.4409, -1.7866 -0.667 1.441, 1.7866 -0.667 1.441, 1.8612 -0.6158 1.4596, 1.8612 -0.6158 4.6015, 1.8609 -0.6164 1.4596, 1.8609 -0.6164 4.6015, 1.8527 -0.6334 1.4596, 1.8527 -0.6334 4.6015, 1.8524 -0.6338 1.4596, 1.8524 -0.6338 4.6015, 1.8401 -0.6484 1.4596, 1.8401 -0.6484 4.6015, 1.8398 -0.6486 1.4596, 1.8398 -0.6486 4.6015, 1.8242 -0.6597 1.4596, 1.8242 -0.6597 4.6015, 1.824 -0.6598 1.4596, 1.824 -0.6598 4.6015, 1.806 -0.6669 1.4596, 1.806 -0.6669 4.6015, 1.8059 -0.6669 1.4596, 1.8059 -0.6669 4.6015, 1.8055 -0.665 4.6186, 1.8233 -0.6581 4.6186, 1.8388 -0.647 4.6186, 1.8511 -0.6324 4.6186, 1.8594 -0.6152 4.6186, 1.8066 -0.6119 4.6746, 1.8064 -0.6119 4.6746, 1.811 -0.6169 4.6716, 1.7955 -0.6253 4.6716, 1.7925 -0.6112 4.6767, 1.8208 -0.6275 4.6621, 1.8204 -0.6116 4.6688, 1.8145 -0.6117 4.6713, 1.8288 -0.6179 4.6621, 1.8321 -0.6107 4.6617, 1.8253 -0.6114 4.6668, 1.8415 -0.6096 4.6547, 1.8389 -0.6245 4.6497, 1.8423 -0.6094 4.6536, 1.8457 -0.6086 4.6494, 1.8456 -0.6106 4.6497, 1.854 -0.6065 4.639, 1.8541 -0.6134 4.6349, 1.8558 -0.6055 4.6348, 1.862 -0.6023 4.6209, 1.8624 -0.6018 4.6186, 1.799 -0.6393 4.6621, 1.802 -0.6509 4.6497, 1.8042 -0.6596 4.6349, 1.8464 -0.6294 4.6349, 1.835 -0.6429 4.6349, 1.8289 -0.6363 4.6497, 1.8206 -0.6532 4.6349, 1.8163 -0.6453 4.6497, 1.8106 -0.6347 4.6621, 1.8038 -0.6221 4.6716, 1.7993 -0.6115 4.6757, -1.9262 0.1313 4.8175, -1.9182 0.1272 4.8356, -1.9057 0.1241 4.8513, -1.8895 0.1222 4.8634, -1.8708 0.1218 4.8712, -1.8591 -0.6151 1.4409, -1.8508 -0.6322 1.4409, -1.8385 -0.6467 1.4409, -1.8231 -0.6578 1.4409, -1.8068 -0.6029 1.3845, -1.8062 -0.6028 1.3844, -1.8106 -0.6061 1.3862, -1.7937 -0.6182 1.3862, -1.7903 -0.6018 1.3822, -1.8245 -0.6151 1.3951, -1.8249 -0.6034 1.3921, -1.8117 -0.603 1.3866, -1.8294 -0.6051 1.3951, -1.8296 -0.6033 1.3955, -1.8256 -0.6034 1.3924, -1.8418 -0.6031 1.4048, -1.8427 -0.6096 1.4077, -1.8442 -0.6028 1.4079, -1.8528 -0.613 1.4233, -1.8542 -0.6019 1.4209, -1.8622 -0.6 1.4396, -1.8624 -0.5998 1.4409, -1.8055 -0.6647 1.4409, -1.8038 -0.6582 1.4233, -1.8012 -0.6479 1.4077, -1.7977 -0.6343 1.3951, -1.8452 -0.6286 1.4233, -1.8363 -0.6228 1.4077, -1.82 -0.6519 1.4233, -1.8149 -0.6426 1.4077, -1.8082 -0.6302 1.3951, -1.8002 -0.6156 1.3862, -1.7951 -0.6021 1.3828, -1.834 -0.6418 1.4233, -1.8268 -0.634 1.4077, -1.8173 -0.6237 1.3951, -1.806 -0.6115 1.3862, -1.8006 -0.6024 1.3836, 1.8622 -0.6 1.4396, 1.8624 -0.5998 1.4409, 1.8591 -0.6151 1.4409, 1.8418 -0.6031 1.4048, 1.8442 -0.6028 1.4079, 1.8427 -0.6096 1.4077, 1.8542 -0.6019 1.4209, 1.8294 -0.6051 1.3951, 1.8296 -0.6033 1.3955, 1.8256 -0.6034 1.3924, 1.8068 -0.6029 1.3845, 1.8117 -0.603 1.3866, 1.8106 -0.6061 1.3862, 1.8249 -0.6034 1.3921, 1.8062 -0.6028 1.3844, 1.806 -0.6115 1.3862, 1.8006 -0.6024 1.3836, 1.8002 -0.6156 1.3862, 1.7951 -0.6021 1.3828, 1.7937 -0.6182 1.3862, 1.7903 -0.6018 1.3822, 1.8508 -0.6322 1.4409, 1.8385 -0.6467 1.4409, 1.8231 -0.6578 1.4409, 1.8055 -0.6647 1.4409, 1.8528 -0.613 1.4233, 1.8452 -0.6286 1.4233, 1.834 -0.6418 1.4233, 1.82 -0.6519 1.4233, 1.8038 -0.6582 1.4233, 1.8012 -0.6479 1.4077, 1.8149 -0.6426 1.4077, 1.8268 -0.634 1.4077, 1.8363 -0.6228 1.4077, 1.8245 -0.6151 1.3951, 1.8173 -0.6237 1.3951, 1.8082 -0.6302 1.3951, 1.7977 -0.6343 1.3951, 1.9182 0.1272 4.8356, 1.9262 0.1313 4.8175, 1.9057 0.1241 4.8513, 1.8895 0.1222 4.8634, 1.8708 0.1218 4.8712, -1.861 0.1811 4.9501, 1.8606 0.1789 4.9332, -1.8606 0.1789 4.9332, -1.8606 0.1784 4.9298, 1.8606 0.1784 4.9299, -1.8596 0.1732 4.9171, 1.8596 0.1732 4.9171, -1.8592 0.1706 4.9109, 1.8592 0.1706 4.9109, -1.8581 0.1643 4.9027, 1.8581 0.1643 4.9027, 1.857 0.1582 4.8946, -1.857 0.1581 4.8946, 1.856 0.1526 4.8903, -1.856 0.1526 4.8903, 1.8542 0.1418 4.8821, -1.8541 0.1418 4.882, 1.8536 0.1386 4.8807, -1.8536 0.1386 4.8807, 1.8508 0.1228 4.8741, -1.8739 0.1418 4.8791, -1.8766 0.159 4.892, -1.8786 0.1723 4.9089, -1.8799 0.1806 4.9288, -1.8803 0.1835 4.9501, -1.8803 0.1835 4.9502, -1.8984 0.1905 4.9501, -1.8984 0.1905 4.9502, -1.9142 0.2018 4.9501, -1.9142 0.2018 4.9502, -1.9268 0.2166 4.9501, -1.9268 0.2166 4.9502, -1.9354 0.234 4.9501, -1.9354 0.234 4.9502, -1.898 0.1874 4.9265, -1.9138 0.1982 4.9233, -1.9264 0.2124 4.9192, -1.935 0.2293 4.9144, -1.8968 0.1781 4.9047, -1.9127 0.1876 4.8984, -1.9252 0.2003 4.8904, -1.9337 0.2154 4.8813, -1.8949 0.1633 4.886, -1.9108 0.1709 4.8771, -1.9234 0.1811 4.8658, -1.9318 0.1934 4.8528, -1.8924 0.1443 4.8719, -1.9084 0.1492 4.861, -1.921 0.1561 4.8471, -1.9292 0.1647 4.831, -1.8752 0.1795 1.2746, -1.8744 0.1796 1.2744, -1.8934 0.1785 1.2823, -1.894 0.1784 1.2825, -1.9097 0.1779 1.2948, -1.9101 0.1779 1.2951, -1.9223 0.1779 1.3111, -1.9225 0.1779 1.3113, -1.9302 0.1786 1.33, -1.9303 0.1786 1.3302, 1.9303 0.1786 1.33, 1.9303 0.1786 1.3302, 1.8752 0.1795 1.2746, 1.8934 0.1785 1.2823, 1.894 0.1784 1.2825, 1.9097 0.1779 1.2947, 1.91 0.1779 1.2951, 1.9223 0.1779 1.311, 1.9224 0.1779 1.3113, 1.8744 0.1796 1.2744, 1.8799 0.1807 4.9288, 1.8786 0.1723 4.909, 1.8766 0.1591 4.892, 1.8739 0.1418 4.8791, 1.8708 0.1219 4.8712, 1.8895 0.1223 4.8634, 1.9057 0.1242 4.8513, 1.9182 0.1273 4.8356, 1.9262 0.1315 4.8175, 1.8924 0.1443 4.872, 1.9084 0.1493 4.8611, 1.921 0.1562 4.8472, 1.9292 0.1648 4.8311, 1.8949 0.1634 4.8861, 1.9108 0.1709 4.8772, 1.9234 0.1812 4.8659, 1.9318 0.1935 4.8529, 1.8968 0.1781 4.9047, 1.9127 0.1877 4.8984, 1.9252 0.2004 4.8905, 1.9337 0.2155 4.8814, 1.898 0.1874 4.9266, 1.9138 0.1982 4.9234, 1.9264 0.2125 4.9193, 1.935 0.2293 4.9146, 1.8803 0.1835 4.9502, 1.8984 0.1905 4.9502, 1.9142 0.2018 4.9502, 1.9268 0.2166 4.9502, 1.9354 0.234 4.9502, -1.9353 0.234 7.3439, -1.9356 0.2345 7.3439, -1.9142 0.2018 7.3439, -1.9145 0.202 7.3439, -1.9268 0.2166 7.3439, -1.9271 0.217 7.3439, -1.8803 0.1835 7.3439, -1.8804 0.1835 7.3439, -1.8984 0.1906 7.3439, -1.8986 0.1907 7.3439, -1.9771 0.9473 1.2947, -1.9893 0.9469 1.3106, -1.9895 0.9469 1.3111, -1.9972 0.946 1.3292, -1.9973 0.946 1.33, -1.961 0.9472 1.2824, -1.977 0.9473 1.2947, -1.9415 0.9464 1.2744, -1.9424 0.9465 1.2746, -1.9607 0.9472 1.2822, 1.9415 0.9464 1.2744, 1.9424 0.9465 1.2746, 1.9607 0.9472 1.2822, 1.961 0.9472 1.2824, 1.977 0.9473 1.2947, 1.9771 0.9473 1.2947, 1.9893 0.9469 1.3106, 1.9895 0.9469 1.3111, 1.9972 0.946 1.3292, 1.9973 0.946 1.33, 1.9356 0.2345 7.3439, 1.9353 0.234 7.3439, 1.9271 0.217 7.3439, 1.9268 0.2166 7.3439, 1.9145 0.202 7.3439, 1.9142 0.2018 7.3439, 1.8986 0.1907 7.3439, 1.8984 0.1906 7.3439, 1.8804 0.1835 7.3439, 1.8803 0.1835 7.3439, 1.861 0.1833 7.3625, 1.861 0.2313 7.4173, -1.861 0.2313 7.4173, 1.861 0.2308 7.417, -1.861 0.2308 7.417, 1.861 0.2147 7.4084, -1.861 0.2147 7.4084, 1.861 0.2143 7.4081, -1.861 0.2143 7.4081, 1.861 0.2006 7.3958, -1.861 0.2006 7.3958, 1.861 0.2005 7.3955, -1.861 0.2005 7.3955, 1.861 0.19 7.3803, -1.861 0.19 7.3803, 1.861 0.1899 7.38, -1.861 0.1899 7.38, 1.861 0.1834 7.3626, -1.861 0.1834 7.3626, -1.861 0.1833 7.3625, -1.9252 0.2182 7.3626, -1.9129 0.2037 7.3626, -1.8975 0.1926 7.3626, -1.9335 0.2353 7.3626, -1.9171 0.2408 7.3958, -1.9286 0.2485 7.3826, -1.9272 0.2374 7.3803, -1.9366 0.2504 7.3639, -1.9368 0.2506 7.3626, -1.9038 0.2453 7.4084, -1.9162 0.2473 7.3987, -1.9186 0.2475 7.3956, -1.8993 0.247 7.4114, -1.9 0.247 7.4111, -1.904 0.2471 7.408, -1.885 0.2443 7.4173, -1.8806 0.2476 7.4191, -1.8812 0.2475 7.419, -1.8647 0.2486 7.4214, -1.8681 0.2322 7.4173, -1.8721 0.2161 7.4084, -1.8756 0.2025 7.3958, -1.8782 0.1922 7.3803, -1.8799 0.1857 7.3626, -1.8944 0.1985 7.3803, -1.8893 0.2078 7.3958, -1.8826 0.2202 7.4084, -1.8746 0.2348 7.4173, -1.8695 0.2483 7.4207, -1.9084 0.2086 7.3803, -1.9012 0.2164 7.3958, -1.8917 0.2267 7.4084, -1.8804 0.2389 7.4173, -1.875 0.2479 7.4199, -1.9196 0.2218 7.3803, -1.9107 0.2276 7.3958, -1.8989 0.2353 7.4084, -1.8861 0.2474 7.4169, -1.912 1.119 1.305, -1.9669 1.1187 1.3611, -1.9667 1.119 1.3597, -1.9587 1.1208 1.3413, -1.9489 1.1213 1.3287, -1.9463 1.1214 1.3254, -1.9375 1.1211 1.3185, -1.9346 1.121 1.3163, -1.9304 1.1208 1.313, -1.917 1.1195 1.3072, -1.9166 1.1194 1.307, -1.9077 1.1183 1.3043, -1.9018 1.1175 1.3034, -1.8965 1.1167 1.3025, 1.8923 1.133 1.3069, -1.8923 1.133 1.3069, 1.8923 1.1335 1.3071, -1.8923 1.1335 1.3071, 1.8923 1.149 1.316, -1.8923 1.149 1.316, 1.8923 1.1494 1.3163, -1.8923 1.1494 1.3163, 1.8923 1.1625 1.3285, -1.8923 1.1625 1.3285, 1.8923 1.1627 1.3288, -1.8923 1.1627 1.3288, 1.8923 1.1726 1.3438, -1.8923 1.1726 1.3438, 1.8923 1.1727 1.3441, -1.8923 1.1727 1.3441, 1.8923 1.179 1.3611, -1.8923 1.179 1.3611, 1.8923 1.179 1.3612, -1.8923 1.179 1.3612, 1.8965 1.1167 1.3025, 1.912 1.119 1.305, 1.9077 1.1183 1.3043, 1.9018 1.1175 1.3034, 1.917 1.1195 1.3072, 1.9304 1.1208 1.313, 1.9166 1.1194 1.307, 1.9346 1.121 1.3163, 1.9375 1.1211 1.3185, 1.9463 1.1214 1.3254, 1.9489 1.1213 1.3287, 1.9587 1.1208 1.3413, 1.9667 1.119 1.3597, 1.9669 1.1187 1.3611, 1.8799 0.1857 7.3626, 1.8975 0.1926 7.3626, 1.9129 0.2037 7.3626, 1.9252 0.2182 7.3626, 1.9335 0.2353 7.3626, 1.8812 0.2475 7.419, 1.8806 0.2476 7.4191, 1.885 0.2443 7.4173, 1.8681 0.2322 7.4173, 1.8647 0.2486 7.4214, 1.8989 0.2353 7.4084, 1.8993 0.247 7.4114, 1.8861 0.2474 7.4169, 1.9038 0.2453 7.4084, 1.904 0.2471 7.408, 1.9 0.247 7.4111, 1.9162 0.2473 7.3987, 1.9171 0.2408 7.3958, 1.9186 0.2475 7.3956, 1.9272 0.2374 7.3803, 1.9286 0.2485 7.3826, 1.9366 0.2504 7.3639, 1.9368 0.2506 7.3626, 1.8721 0.2161 7.4084, 1.8756 0.2025 7.3958, 1.8782 0.1922 7.3803, 1.9196 0.2218 7.3803, 1.9107 0.2276 7.3958, 1.9084 0.2086 7.3803, 1.9012 0.2164 7.3958, 1.8917 0.2267 7.4084, 1.8804 0.2389 7.4173, 1.875 0.2479 7.4199, 1.8944 0.1985 7.3803, 1.8893 0.2078 7.3958, 1.8826 0.2202 7.4084, 1.8746 0.2348 7.4173, 1.8695 0.2483 7.4207, -1.9973 0.9456 7.4616, -1.9972 0.9456 7.4622, -1.9613 0.9457 7.5092, -1.9696 0.9459 7.5036, -1.9772 0.9459 7.4969, -1.9773 0.9459 7.4969, -1.9895 0.9459 7.4809, -1.9896 0.9459 7.4806, -1.9611 0.9457 7.5093, -1.9426 0.9453 7.517, -1.9422 0.9453 7.517, -1.9628 1.1322 1.3611, -1.9476 1.1258 1.3285, -1.9299 1.13 1.316, -1.917 1.1206 1.3069, -1.9121 1.1258 1.3069, -1.9061 1.1297 1.3069, -1.8994 1.1322 1.3069, -1.9648 1.133 1.3794, -1.9645 1.1335 1.3794, -1.954 1.1478 1.3611, -1.9557 1.149 1.3794, -1.9554 1.1494 1.3794, -1.9418 1.1608 1.3611, -1.9431 1.1625 1.3794, -1.9429 1.1627 1.3794, -1.9268 1.1707 1.3611, -1.9278 1.1726 1.3794, -1.9276 1.1727 1.3794, -1.91 1.1769 1.3611, -1.9104 1.179 1.3794, -1.9105 1.179 1.3794, -1.957 1.1297 1.3438, -1.9489 1.144 1.3438, -1.9377 1.156 1.3438, -1.924 1.1651 1.3438, -1.9086 1.1707 1.3438, -1.9062 1.1608 1.3285, -1.9194 1.156 1.3285, -1.9311 1.1482 1.3285, -1.9407 1.138 1.3285, -1.9224 1.138 1.316, -1.9133 1.144 1.316, -1.9031 1.1478 1.316, 1.9645 1.1335 1.3794, 1.9648 1.133 1.3794, 1.9628 1.1322 1.3611, 1.9554 1.1494 1.3794, 1.9557 1.149 1.3794, 1.954 1.1478 1.3611, 1.9429 1.1627 1.3794, 1.9431 1.1625 1.3794, 1.9418 1.1608 1.3611, 1.9276 1.1727 1.3794, 1.9278 1.1726 1.3794, 1.9268 1.1707 1.3611, 1.9121 1.1258 1.3069, 1.8994 1.1322 1.3069, 1.9299 1.13 1.316, 1.917 1.1206 1.3069, 1.9407 1.138 1.3285, 1.9476 1.1258 1.3285, 1.957 1.1297 1.3438, 1.9105 1.179 1.3794, 1.91 1.1769 1.3611, 1.9104 1.179 1.3794, 1.9086 1.1707 1.3438, 1.9062 1.1608 1.3285, 1.9489 1.144 1.3438, 1.9031 1.1478 1.316, 1.924 1.1651 1.3438, 1.9194 1.156 1.3285, 1.9133 1.144 1.316, 1.9061 1.1297 1.3069, 1.9377 1.156 1.3438, 1.9311 1.1482 1.3285, 1.9224 1.138 1.316, 1.9422 0.9453 7.517, 1.9426 0.9453 7.517, 1.9773 0.9459 7.4969, 1.9772 0.9459 7.4969, 1.9611 0.9457 7.5093, 1.9613 0.9457 7.5092, 1.9697 0.9459 7.5036, 1.9895 0.9459 7.4809, 1.9972 0.9456 7.4622, 1.9896 0.9459 7.4806, 1.9973 0.9456 7.4616, -1.8965 1.1167 7.4888, -1.9018 1.1175 7.488, -1.9077 1.1183 7.4871, -1.912 1.119 7.4864, -1.9166 1.1194 7.4843, -1.917 1.1195 7.4842, -1.9304 1.1208 7.4784, -1.9346 1.121 7.4751, -1.9375 1.1211 7.4728, -1.9463 1.1214 7.466, -1.9489 1.1213 7.4626, -1.9587 1.1208 7.4501, -1.9667 1.119 7.4317, -1.9669 1.1187 7.4302, -1.9648 1.133 7.412, -1.9645 1.1335 7.412, -1.9557 1.149 7.412, -1.9554 1.1494 7.412, -1.9431 1.1625 7.412, -1.9429 1.1627 7.412, -1.9278 1.1726 7.412, -1.9276 1.1727 7.412, -1.9105 1.179 7.412, -1.9104 1.179 7.412, 1.9648 1.133 7.412, 1.9645 1.1335 7.412, 1.9557 1.149 7.412, 1.9554 1.1494 7.412, 1.9431 1.1625 7.412, 1.9429 1.1627 7.412, 1.9278 1.1726 7.412, 1.9276 1.1727 7.412, 1.9105 1.179 7.412, 1.9104 1.179 7.412, 1.9669 1.1187 7.4302, 1.9667 1.119 7.4317, 1.9587 1.1208 7.4501, 1.9489 1.1213 7.4626, 1.9463 1.1214 7.466, 1.9375 1.1211 7.4728, 1.9346 1.121 7.4751, 1.9304 1.1208 7.4784, 1.917 1.1195 7.4842, 1.8965 1.1167 7.4888, 1.9166 1.1194 7.4843, 1.912 1.119 7.4864, 1.9077 1.1183 7.4871, 1.9018 1.1175 7.488, -1.91 1.1769 7.4302, -1.9268 1.1707 7.4302, -1.9418 1.1608 7.4302, -1.954 1.1478 7.4302, -1.9628 1.1322 7.4302, -1.9121 1.1258 7.4845, -1.8994 1.1322 7.4845, -1.9299 1.13 7.4754, -1.917 1.1206 7.4845, -1.9407 1.138 7.4628, -1.9476 1.1258 7.4628, -1.957 1.1297 7.4475, -1.8923 1.133 7.4845, -1.8923 1.1335 7.4842, -1.9031 1.1478 7.4754, -1.8923 1.149 7.4754, -1.8923 1.1494 7.4751, -1.9062 1.1608 7.4628, -1.8923 1.1625 7.4628, -1.8923 1.1627 7.4626, -1.9086 1.1707 7.4475, -1.8923 1.1726 7.4475, -1.8923 1.1727 7.4473, -1.9489 1.144 7.4475, -1.9377 1.156 7.4475, -1.9311 1.1482 7.4628, -1.9224 1.138 7.4754, -1.924 1.1651 7.4475, -1.9194 1.156 7.4628, -1.9133 1.144 7.4754, -1.9061 1.1297 7.4845, -1.8923 1.179 7.4301, -1.8923 1.179 7.4302, 1.954 1.1478 7.4302, 1.9418 1.1608 7.4302, 1.9268 1.1707 7.4302, 1.917 1.1206 7.4845, 1.9628 1.1322 7.4302, 1.9476 1.1258 7.4628, 1.957 1.1297 7.4475, 1.9299 1.13 7.4754, 1.8923 1.133 7.4845, 1.8994 1.1322 7.4845, 1.8923 1.1335 7.4842, 1.9031 1.1478 7.4754, 1.9062 1.1608 7.4628, 1.8923 1.1494 7.4751, 1.8923 1.149 7.4754, 1.9086 1.1707 7.4475, 1.8923 1.1627 7.4626, 1.8923 1.1625 7.4628, 1.8923 1.179 7.4301, 1.8923 1.179 7.4302, 1.91 1.1769 7.4302, 1.8923 1.1727 7.4473, 1.8923 1.1726 7.4475, 1.924 1.1651 7.4475, 1.9194 1.156 7.4628, 1.9133 1.144 7.4754, 1.9061 1.1297 7.4845, 1.9377 1.156 7.4475, 1.9311 1.1482 7.4628, 1.9224 1.138 7.4754, 1.9121 1.1258 7.4845, 1.9489 1.144 7.4475, 1.9407 1.138 7.4628, 0.2337 1.1227 5.6368, 0.5121 1.1227 5.8558, 0.5719 1.1227 5.9593, 0.6223 1.1227 6.3099, 0.3886 1.1227 6.7146, 0.0598 1.1227 6.8463, -0.0598 1.1227 6.8463, -0.3886 1.1227 6.7146, -0.6223 1.1227 6.3099, -0.2337 1.1227 5.6368, -0.1295 1.1784 5.5485, -0.2543 1.1784 5.5852, -0.1259 1.1706 5.5671, -0.2473 1.1706 5.6028, -0.1228 1.158 5.5832, -0.2412 1.158 5.6179, -0.1205 1.1417 5.5954, -0.2366 1.1417 5.6295, -0.119 1.1227 5.6032, -0.4723 1.1784 5.7252, -0.5575 1.1784 5.8235, -0.4591 1.1706 5.7389, -0.542 1.1706 5.8345, -0.4479 1.158 5.7507, -0.5287 1.158 5.844, -0.4393 1.1417 5.7598, -0.5185 1.1417 5.8513, -0.4338 1.1227 5.7655, -0.5121 1.1227 5.8558, -0.6836 1.1784 6.1879, -0.6774 1.1784 6.3179, -0.6646 1.1706 6.1888, -0.6586 1.1706 6.3152, -0.6483 1.158 6.1896, -0.6424 1.158 6.3128, -0.6358 1.1417 6.1902, -0.6301 1.1417 6.3111, -0.628 1.1227 6.1906, -0.5172 1.1784 6.6686, -0.423 1.1784 6.7584, -0.5028 1.1706 6.6562, -0.4113 1.1706 6.7435, -0.4905 1.158 6.6455, -0.4012 1.158 6.7307, -0.4811 1.1417 6.6373, -0.3935 1.1417 6.7208, -0.4751 1.1227 6.6322, -0.1928 1.1784 6.8771, -0.0651 1.1784 6.9017, -0.1875 1.1706 6.8589, -0.0632 1.1706 6.8828, -0.1829 1.158 6.8432, -0.0617 1.158 6.8666, -0.1793 1.1417 6.8312, -0.0605 1.1417 6.8541, -0.1771 1.1227 6.8237, 0.3136 1.1784 6.8287, 0.423 1.1784 6.7584, 0.3049 1.1706 6.8119, 0.4113 1.1706 6.7435, 0.2974 1.158 6.7974, 0.4012 1.158 6.7307, 0.2917 1.1417 6.7862, 0.3935 1.1417 6.7208, 0.2881 1.1227 6.7793, 0.6467 1.1784 6.4443, 0.6774 1.1784 6.3179, 0.6288 1.1706 6.4381, 0.6586 1.1706 6.3152, 0.6133 1.158 6.4328, 0.6424 1.158 6.3128, 0.6015 1.1417 6.4287, 0.6301 1.1417 6.3111, 0.5941 1.1227 6.4261, 0.6651 1.1784 6.0591, 0.6225 1.1784 5.9362, 0.6466 1.1706 6.0636, 0.6052 1.1706 5.9441, 0.6308 1.158 6.0675, 0.5904 1.158 5.9509, 0.6186 1.1417 6.0704, 0.579 1.1417 5.9561, 0.6109 1.1227 6.0723, 0.37 1.1784 5.6448, 0.2543 1.1784 5.5852, 0.3597 1.1706 5.6607, 0.2473 1.1706 5.6028, 0.3509 1.158 5.6745, 0.2412 1.158 5.6179, 0.3441 1.1417 5.685, 0.2366 1.1417 5.6295, 0.3399 1.1227 5.6916, 0.0 1.1784 5.5361, 0.0 1.1706 5.5551, 0.0 1.158 5.5714, 0.0 1.1417 5.5839, 0.0 1.1227 5.5918, -0.3399 1.1227 5.6916, -0.3441 1.1417 5.685, -0.3509 1.158 5.6745, -0.3597 1.1706 5.6607, -0.37 1.1784 5.6448, -0.5719 1.1227 5.9593, -0.579 1.1417 5.9561, -0.5904 1.158 5.9509, -0.6052 1.1706 5.9441, -0.6225 1.1784 5.9362, -0.6109 1.1227 6.0723, -0.6186 1.1417 6.0704, -0.6308 1.158 6.0675, -0.6466 1.1706 6.0636, -0.6651 1.1784 6.0591, -0.5941 1.1227 6.4261, -0.6015 1.1417 6.4287, -0.6133 1.158 6.4328, -0.6288 1.1706 6.4381, -0.6467 1.1784 6.4443, -0.5927 1.1784 6.5626, -0.5762 1.1706 6.5532, -0.5621 1.158 6.545, -0.5513 1.1417 6.5387, -0.5444 1.1227 6.5348, -0.2881 1.1227 6.7793, -0.2917 1.1417 6.7862, -0.2974 1.158 6.7974, -0.3049 1.1706 6.8119, -0.3136 1.1784 6.8287, 0.0605 1.1417 6.8541, 0.0617 1.158 6.8666, 0.0632 1.1706 6.8828, 0.0651 1.1784 6.9017, 0.1771 1.1227 6.8237, 0.1793 1.1417 6.8312, 0.1829 1.158 6.8432, 0.1875 1.1706 6.8589, 0.1928 1.1784 6.8771, 0.4751 1.1227 6.6322, 0.4811 1.1417 6.6373, 0.4905 1.158 6.6455, 0.5028 1.1706 6.6562, 0.5172 1.1784 6.6686, 0.5927 1.1784 6.5626, 0.5762 1.1706 6.5532, 0.5621 1.158 6.545, 0.5513 1.1417 6.5387, 0.5444 1.1227 6.5348, 0.628 1.1227 6.1906, 0.6358 1.1417 6.1902, 0.6483 1.158 6.1896, 0.6646 1.1706 6.1888, 0.6836 1.1784 6.1879, 0.5185 1.1417 5.8513, 0.5287 1.158 5.844, 0.542 1.1706 5.8345, 0.5575 1.1784 5.8235, 0.4338 1.1227 5.7655, 0.4393 1.1417 5.7598, 0.4479 1.158 5.7507, 0.4591 1.1706 5.7389, 0.4723 1.1784 5.7252, 0.119 1.1227 5.6032, 0.1205 1.1417 5.5954, 0.1228 1.158 5.5832, 0.1259 1.1706 5.5671, 0.1295 1.1784 5.5485, 0.2337 0.2395 6.8041, 0.6223 0.2395 6.131, 0.3886 0.2395 5.7263, -0.3886 0.2395 5.7263, -0.6223 0.2395 6.131, -0.2337 0.2395 6.8041, -0.1295 0.1838 6.8925, -0.2543 0.1838 6.8558, -0.1259 0.1917 6.8738, -0.2473 0.1917 6.8382, -0.1228 0.2042 6.8578, -0.2412 0.2042 6.823, -0.1205 0.2205 6.8455, -0.2366 0.2205 6.8114, -0.119 0.2395 6.8378, -0.4723 0.1838 6.7158, -0.5575 0.1838 6.6174, -0.4591 0.1917 6.702, -0.542 0.1917 6.6064, -0.4479 0.2042 6.6902, -0.5287 0.2042 6.597, -0.4393 0.2205 6.6812, -0.5185 0.2205 6.5897, -0.4338 0.2395 6.6755, -0.5121 0.2395 6.5851, -0.6836 0.1838 6.253, -0.6774 0.1838 6.1231, -0.6646 0.1917 6.2521, -0.6586 0.1917 6.1258, -0.6483 0.2042 6.2514, -0.6424 0.2042 6.1281, -0.6358 0.2205 6.2508, -0.6301 0.2205 6.1299, -0.628 0.2395 6.2504, -0.5172 0.1838 5.7723, -0.423 0.1838 5.6825, -0.5028 0.1917 5.7848, -0.4113 0.1917 5.6975, -0.4905 0.2042 5.7954, -0.4012 0.2042 5.7103, -0.4811 0.2205 5.8036, -0.3935 0.2205 5.7201, -0.4751 0.2395 5.8088, -0.1928 0.1838 5.5639, -0.0651 0.1838 5.5392, -0.1875 0.1917 5.5821, -0.0632 0.1917 5.5581, -0.1829 0.2042 5.5977, -0.0617 0.2042 5.5744, -0.1793 0.2205 5.6097, -0.0605 0.2205 5.5868, -0.1771 0.2395 5.6173, -0.0598 0.2395 5.5947, 0.3136 0.1838 5.6122, 0.423 0.1838 5.6825, 0.3049 0.1917 5.6291, 0.4113 0.1917 5.6975, 0.2974 0.2042 5.6436, 0.4012 0.2042 5.7103, 0.2917 0.2205 5.6547, 0.3935 0.2205 5.7201, 0.2881 0.2395 5.6617, 0.6467 0.1838 5.9966, 0.6774 0.1838 6.1231, 0.6288 0.1917 6.0029, 0.6586 0.1917 6.1258, 0.6133 0.2042 6.0082, 0.6424 0.2042 6.1281, 0.6015 0.2205 6.0123, 0.6301 0.2205 6.1299, 0.5941 0.2395 6.0149, 0.6651 0.1838 6.3818, 0.6225 0.1838 6.5048, 0.6466 0.1917 6.3773, 0.6052 0.1917 6.4969, 0.6308 0.2042 6.3735, 0.5904 0.2042 6.4901, 0.6186 0.2205 6.3705, 0.579 0.2205 6.4849, 0.6109 0.2395 6.3687, 0.5719 0.2395 6.4816, 0.37 0.1838 6.7962, 0.2543 0.1838 6.8558, 0.3597 0.1917 6.7802, 0.2473 0.1917 6.8382, 0.3509 0.2042 6.7665, 0.2412 0.2042 6.823, 0.3441 0.2205 6.756, 0.2366 0.2205 6.8114, 0.3399 0.2395 6.7493, 0.0 0.1838 6.9048, 0.0 0.1917 6.8858, 0.0 0.2042 6.8695, 0.0 0.2205 6.857, 0.0 0.2395 6.8491, -0.3399 0.2395 6.7493, -0.3441 0.2205 6.756, -0.3509 0.2042 6.7665, -0.3597 0.1917 6.7802, -0.37 0.1838 6.7962, -0.5719 0.2395 6.4816, -0.579 0.2205 6.4849, -0.5904 0.2042 6.4901, -0.6052 0.1917 6.4969, -0.6225 0.1838 6.5048, -0.6109 0.2395 6.3687, -0.6186 0.2205 6.3705, -0.6308 0.2042 6.3735, -0.6466 0.1917 6.3773, -0.6651 0.1838 6.3818, -0.5941 0.2395 6.0149, -0.6015 0.2205 6.0123, -0.6133 0.2042 6.0082, -0.6288 0.1917 6.0029, -0.6467 0.1838 5.9966, -0.5927 0.1838 5.8783, -0.5762 0.1917 5.8878, -0.5621 0.2042 5.896, -0.5513 0.2205 5.9022, -0.5444 0.2395 5.9061, -0.2881 0.2395 5.6617, -0.2917 0.2205 5.6547, -0.2974 0.2042 5.6436, -0.3049 0.1917 5.6291, -0.3136 0.1838 5.6122, 0.0598 0.2395 5.5947, 0.0605 0.2205 5.5868, 0.0617 0.2042 5.5744, 0.0632 0.1917 5.5581, 0.0651 0.1838 5.5392, 0.1771 0.2395 5.6173, 0.1793 0.2205 5.6097, 0.1829 0.2042 5.5977, 0.1875 0.1917 5.5821, 0.1928 0.1838 5.5639, 0.4751 0.2395 5.8088, 0.4811 0.2205 5.8036, 0.4905 0.2042 5.7954, 0.5028 0.1917 5.7848, 0.5172 0.1838 5.7723, 0.5927 0.1838 5.8783, 0.5762 0.1917 5.8878, 0.5621 0.2042 5.896, 0.5513 0.2205 5.9022, 0.5444 0.2395 5.9061, 0.628 0.2395 6.2504, 0.6358 0.2205 6.2508, 0.6483 0.2042 6.2514, 0.6646 0.1917 6.2521, 0.6836 0.1838 6.253, 0.5121 0.2395 6.5851, 0.5185 0.2205 6.5897, 0.5287 0.2042 6.597, 0.542 0.1917 6.6064, 0.5575 0.1838 6.6174, 0.4338 0.2395 6.6755, 0.4393 0.2205 6.6812, 0.4479 0.2042 6.6902, 0.4591 0.1917 6.702, 0.4723 0.1838 6.7158, 0.119 0.2395 6.8378, 0.1205 0.2205 6.8455, 0.1228 0.2042 6.8578, 0.1259 0.1917 6.8738, 0.1295 0.1838 6.8925
            ]
        }
        coordIndex [
            0,1,2,-1,3,4,5,-1,5,6,3,-1,3,6,7,-1,3,7,8,-1,0,2,9,-1,9,2,10,-1,9,10,7,-1,11,12,13,-1,13,12,14,-1,15,16,17,-1,16,18,19,-1,20,21,19,-1,19,21,22,-1,19,22,16,-1,11,23,12,-1,12,23,24,-1,12,24,25,-1,26,27,28,-1,28,27,29,-1,28,29,30,-1,4,3,17,-1,17,3,31,-1,17,31,15,-1,15,32,33,-1,30,34,28,-1,28,34,35,-1,28,35,20,-1,1,36,2,-1,2,36,37,-1,2,37,38,-1,39,40,2,-1,2,40,41,-1,42,43,44,-1,44,43,45,-1,41,46,2,-1,2,46,45,-1,2,45,47,-1,47,45,43,-1,38,48,2,-1,2,48,49,-1,2,49,39,-1,50,51,52,-1,52,51,53,-1,52,53,54,-1,24,55,25,-1,25,55,56,-1,25,56,28,-1,28,56,57,-1,28,57,26,-1,33,54,15,-1,15,54,53,-1,15,53,16,-1,16,53,58,-1,16,58,8,-1,7,10,8,-1,8,10,59,-1,8,59,16,-1,16,59,60,-1,16,60,61,-1,12,18,14,-1,14,18,16,-1,14,16,62,-1,62,16,61,-1,35,63,64,-1,20,35,21,-1,21,35,64,-1,21,64,65,-1,63,4,64,-1,64,4,17,-1,64,17,66,-1,66,17,67,-1,68,69,16,-1,70,71,72,-1,72,71,73,-1,74,75,73,-1,73,75,68,-1,73,68,72,-1,72,68,16,-1,72,67,70,-1,70,67,17,-1,70,17,76,-1,76,17,77,-1,77,78,76,-1,76,78,79,-1,76,79,80,-1,80,81,76,-1,76,81,82,-1,76,82,83,-1,84,85,69,-1,69,85,86,-1,69,86,16,-1,16,86,87,-1,16,87,88,-1,88,89,16,-1,16,89,90,-1,16,90,17,-1,17,90,91,-1,17,91,77,-1,83,92,76,-1,76,92,93,-1,76,93,69,-1,69,93,94,-1,69,94,84,-1,16,95,72,-1,72,95,96,-1,97,98,99,-1,99,100,97,-1,97,100,101,-1,97,101,96,-1,96,101,102,-1,96,102,72,-1,72,102,103,-1,22,104,101,-1,100,105,101,-1,101,105,106,-1,101,106,22,-1,22,106,99,-1,22,99,16,-1,16,99,98,-1,16,98,95,-1,107,108,109,-1,110,111,112,-1,112,111,113,-1,110,114,111,-1,111,114,115,-1,111,115,116,-1,117,118,119,-1,109,120,107,-1,107,120,121,-1,107,121,122,-1,119,123,117,-1,117,123,124,-1,117,124,125,-1,116,126,111,-1,111,126,127,-1,111,127,117,-1,117,127,128,-1,117,128,118,-1,129,130,131,-1,132,133,131,-1,131,133,134,-1,131,134,107,-1,107,134,135,-1,107,135,108,-1,122,136,107,-1,107,136,137,-1,107,137,111,-1,111,137,138,-1,111,138,113,-1,125,139,117,-1,117,139,140,-1,117,140,131,-1,131,140,141,-1,131,141,129,-1,130,142,131,-1,131,142,143,-1,131,143,132,-1,144,145,146,-1,146,145,147,-1,148,149,150,-1,150,149,151,-1,152,153,154,-1,147,155,146,-1,146,155,156,-1,146,156,152,-1,152,156,157,-1,152,157,158,-1,154,159,152,-1,152,159,160,-1,152,160,161,-1,162,163,164,-1,164,163,165,-1,166,167,168,-1,158,169,152,-1,152,169,170,-1,152,170,171,-1,171,172,173,-1,173,172,174,-1,173,174,175,-1,175,174,176,-1,175,176,149,-1,149,176,177,-1,149,177,151,-1,165,178,164,-1,164,178,179,-1,164,179,168,-1,168,179,180,-1,168,180,166,-1,167,181,168,-1,168,181,182,-1,168,182,149,-1,173,183,171,-1,171,183,184,-1,171,184,152,-1,152,184,185,-1,152,185,153,-1,161,186,152,-1,152,186,187,-1,152,187,164,-1,164,187,188,-1,164,188,162,-1,148,189,149,-1,149,189,190,-1,149,190,168,-1,168,190,191,-1,168,191,192,-1,192,193,168,-1,168,193,194,-1,168,194,146,-1,146,194,195,-1,146,195,144,-1,196,197,198,-1,199,200,201,-1,201,200,202,-1,203,204,205,-1,205,204,206,-1,205,206,207,-1,199,208,200,-1,200,208,209,-1,200,209,210,-1,197,211,198,-1,198,211,212,-1,198,212,213,-1,207,214,205,-1,205,214,215,-1,205,215,198,-1,198,215,216,-1,198,216,196,-1,210,217,200,-1,200,217,218,-1,200,218,205,-1,205,218,219,-1,205,219,203,-1,213,220,198,-1,198,220,221,-1,198,221,222,-1,222,221,223,-1,224,225,222,-1,222,225,226,-1,222,226,200,-1,200,226,227,-1,200,227,202,-1,223,228,222,-1,222,228,229,-1,222,229,230,-1,230,231,222,-1,222,231,232,-1,222,232,224,-1,233,234,235,-1,235,234,236,-1,235,236,237,-1,237,236,238,-1,239,240,241,-1,241,240,242,-1,241,242,243,-1,243,242,244,-1,245,246,247,-1,245,247,248,-1,248,247,249,-1,248,249,250,-1,251,65,252,-1,252,65,64,-1,252,64,253,-1,253,64,66,-1,253,66,254,-1,255,256,237,-1,237,256,235,-1,257,258,259,-1,259,258,260,-1,241,243,261,-1,261,243,262,-1,261,263,241,-1,241,263,264,-1,241,264,265,-1,265,266,241,-1,241,266,267,-1,241,267,268,-1,268,267,269,-1,268,269,270,-1,270,269,271,-1,272,273,248,-1,273,274,248,-1,248,274,275,-1,248,275,245,-1,245,275,276,-1,245,276,277,-1,278,279,280,-1,280,279,281,-1,280,281,248,-1,248,281,282,-1,248,282,272,-1,283,284,285,-1,285,284,286,-1,285,286,287,-1,287,286,288,-1,287,288,289,-1,285,290,283,-1,283,290,291,-1,283,291,292,-1,292,291,293,-1,292,293,294,-1,294,293,295,-1,294,295,296,-1,296,295,297,-1,296,297,298,-1,298,297,299,-1,298,299,300,-1,300,299,301,-1,300,301,302,-1,302,301,303,-1,303,301,304,-1,303,304,305,-1,305,304,306,-1,305,306,307,-1,307,306,308,-1,307,308,309,-1,309,308,310,-1,309,310,311,-1,311,310,312,-1,311,312,313,-1,313,312,314,-1,313,314,315,-1,315,314,316,-1,315,316,317,-1,317,316,318,-1,317,318,319,-1,318,320,319,-1,319,320,321,-1,319,321,322,-1,322,321,323,-1,322,323,324,-1,324,323,325,-1,324,325,326,-1,326,325,327,-1,326,327,328,-1,328,327,329,-1,328,329,330,-1,330,329,331,-1,330,331,332,-1,332,331,333,-1,332,333,334,-1,334,333,335,-1,334,335,336,-1,336,335,337,-1,336,337,338,-1,338,337,339,-1,339,337,340,-1,339,340,341,-1,341,340,342,-1,341,342,343,-1,343,342,344,-1,343,344,345,-1,345,344,346,-1,345,346,347,-1,347,346,348,-1,347,348,349,-1,349,348,350,-1,349,350,351,-1,351,350,352,-1,351,352,353,-1,353,352,354,-1,353,354,355,-1,356,357,358,-1,358,357,359,-1,358,359,360,-1,360,359,355,-1,360,355,361,-1,361,355,354,-1,358,362,356,-1,356,362,363,-1,356,363,364,-1,364,363,365,-1,364,365,366,-1,366,365,367,-1,366,367,368,-1,368,367,369,-1,368,369,370,-1,370,369,371,-1,370,371,372,-1,372,371,373,-1,289,288,374,-1,374,288,375,-1,374,375,376,-1,376,375,377,-1,376,377,378,-1,378,377,379,-1,378,379,380,-1,380,379,381,-1,380,381,382,-1,382,381,383,-1,382,383,384,-1,384,383,385,-1,384,385,386,-1,386,385,387,-1,386,387,388,-1,388,387,389,-1,388,389,373,-1,373,389,390,-1,373,390,372,-1,391,149,392,-1,392,149,182,-1,392,182,393,-1,393,182,181,-1,393,181,394,-1,394,181,167,-1,394,167,395,-1,395,167,166,-1,395,166,396,-1,396,166,180,-1,396,180,397,-1,397,180,179,-1,397,179,398,-1,398,179,178,-1,398,178,399,-1,399,178,165,-1,399,165,400,-1,400,165,163,-1,400,163,401,-1,401,163,162,-1,401,162,402,-1,402,162,188,-1,402,188,403,-1,403,188,187,-1,403,187,404,-1,404,187,186,-1,404,186,405,-1,405,186,161,-1,405,161,406,-1,406,161,160,-1,406,160,407,-1,407,160,159,-1,407,159,408,-1,408,159,154,-1,408,154,409,-1,409,154,153,-1,409,153,410,-1,410,153,185,-1,410,185,411,-1,411,185,184,-1,411,184,412,-1,412,184,183,-1,412,183,413,-1,413,183,173,-1,413,173,414,-1,414,173,175,-1,414,175,391,-1,391,175,149,-1,413,414,415,-1,415,414,391,-1,415,391,392,-1,410,411,415,-1,415,411,412,-1,415,412,413,-1,407,408,415,-1,415,408,409,-1,415,409,410,-1,404,405,415,-1,415,405,406,-1,415,406,407,-1,401,402,415,-1,415,402,403,-1,415,403,404,-1,398,399,415,-1,415,399,400,-1,415,400,401,-1,395,396,415,-1,415,396,397,-1,415,397,398,-1,392,393,415,-1,415,393,394,-1,415,394,395,-1,152,164,416,-1,259,260,417,-1,417,260,418,-1,417,418,419,-1,419,418,420,-1,419,420,421,-1,421,420,422,-1,421,422,423,-1,423,422,424,-1,423,424,425,-1,425,424,426,-1,425,426,427,-1,427,426,428,-1,427,428,429,-1,429,428,430,-1,429,430,431,-1,431,430,432,-1,431,432,433,-1,433,432,434,-1,433,434,416,-1,416,434,435,-1,416,435,152,-1,436,437,438,-1,439,440,441,-1,442,443,444,-1,445,446,447,-1,279,448,449,-1,450,451,449,-1,449,451,452,-1,449,452,279,-1,446,453,447,-1,447,453,454,-1,447,454,450,-1,450,454,455,-1,450,455,451,-1,456,457,458,-1,458,457,459,-1,458,459,460,-1,461,462,463,-1,463,462,464,-1,463,464,465,-1,260,466,418,-1,418,466,467,-1,418,467,420,-1,420,467,468,-1,469,424,468,-1,468,424,422,-1,468,422,420,-1,470,428,469,-1,469,428,426,-1,469,426,424,-1,435,434,471,-1,471,434,432,-1,471,432,470,-1,470,432,430,-1,470,430,428,-1,152,435,472,-1,472,435,471,-1,472,471,473,-1,473,471,474,-1,443,474,444,-1,444,474,471,-1,444,471,475,-1,475,471,470,-1,475,470,476,-1,476,470,469,-1,476,469,477,-1,477,469,468,-1,477,468,478,-1,478,468,467,-1,478,467,479,-1,479,467,466,-1,440,442,441,-1,441,442,444,-1,441,444,480,-1,480,444,475,-1,480,475,481,-1,481,475,476,-1,481,476,465,-1,465,476,477,-1,465,477,463,-1,463,477,478,-1,463,478,461,-1,461,478,479,-1,437,439,438,-1,438,439,441,-1,438,441,482,-1,482,441,480,-1,482,480,460,-1,460,480,481,-1,460,481,458,-1,458,481,465,-1,458,465,456,-1,456,465,464,-1,448,436,449,-1,449,436,438,-1,449,438,450,-1,450,438,482,-1,450,482,447,-1,447,482,460,-1,447,460,445,-1,445,460,459,-1,146,152,472,-1,279,278,448,-1,448,278,483,-1,448,483,436,-1,436,483,484,-1,436,484,437,-1,437,484,485,-1,437,485,439,-1,439,485,486,-1,439,486,440,-1,440,486,487,-1,440,487,442,-1,442,487,488,-1,442,488,443,-1,443,488,489,-1,443,489,474,-1,474,489,490,-1,474,490,473,-1,473,490,491,-1,473,491,472,-1,472,491,492,-1,472,492,146,-1,102,101,493,-1,493,101,494,-1,493,494,495,-1,495,494,496,-1,495,496,497,-1,497,496,498,-1,497,498,499,-1,499,498,500,-1,499,500,501,-1,501,500,502,-1,501,502,503,-1,503,502,504,-1,503,504,505,-1,505,504,506,-1,505,506,507,-1,507,506,508,-1,507,508,509,-1,509,508,510,-1,509,510,511,-1,510,512,511,-1,511,512,168,-1,511,168,146,-1,270,271,513,-1,513,271,514,-1,513,514,515,-1,515,514,516,-1,515,516,517,-1,517,516,518,-1,517,518,519,-1,519,518,520,-1,519,520,521,-1,521,520,522,-1,521,522,523,-1,523,522,524,-1,523,524,525,-1,525,524,526,-1,525,526,527,-1,527,526,528,-1,527,528,529,-1,529,528,530,-1,529,530,531,-1,530,532,531,-1,531,532,164,-1,531,164,168,-1,532,530,533,-1,528,526,534,-1,524,522,535,-1,520,518,536,-1,516,514,537,-1,538,539,540,-1,541,542,259,-1,543,544,540,-1,540,544,545,-1,540,545,538,-1,546,547,548,-1,547,546,549,-1,549,546,550,-1,549,550,551,-1,552,553,554,-1,554,553,555,-1,554,555,556,-1,556,555,557,-1,557,555,537,-1,557,537,558,-1,558,537,514,-1,558,514,271,-1,259,417,541,-1,541,417,419,-1,541,419,559,-1,419,421,559,-1,559,421,423,-1,559,423,560,-1,423,425,560,-1,560,425,427,-1,560,427,561,-1,427,429,561,-1,561,429,431,-1,561,431,533,-1,518,516,536,-1,536,516,537,-1,536,537,562,-1,562,537,555,-1,562,555,550,-1,550,555,553,-1,550,553,551,-1,551,553,552,-1,522,520,535,-1,535,520,536,-1,535,536,563,-1,563,536,562,-1,563,562,564,-1,564,562,550,-1,564,550,543,-1,543,550,546,-1,543,546,544,-1,544,546,548,-1,526,524,534,-1,534,524,535,-1,534,535,565,-1,565,535,563,-1,565,563,566,-1,566,563,564,-1,566,564,567,-1,567,564,543,-1,567,543,568,-1,568,543,540,-1,568,540,569,-1,569,540,539,-1,530,528,533,-1,533,528,534,-1,533,534,561,-1,561,534,565,-1,561,565,560,-1,560,565,566,-1,560,566,559,-1,559,566,567,-1,559,567,541,-1,541,567,568,-1,541,568,542,-1,542,568,569,-1,164,532,416,-1,416,532,533,-1,416,533,433,-1,433,533,431,-1,279,452,281,-1,281,452,570,-1,452,451,570,-1,570,451,455,-1,570,455,571,-1,446,572,453,-1,453,572,571,-1,453,571,454,-1,454,571,455,-1,446,445,572,-1,572,445,459,-1,572,459,573,-1,459,457,573,-1,573,457,456,-1,573,456,574,-1,456,464,574,-1,574,464,462,-1,574,462,461,-1,260,258,466,-1,466,258,574,-1,466,574,479,-1,479,574,461,-1,484,483,575,-1,486,485,576,-1,488,487,577,-1,490,489,578,-1,579,580,581,-1,582,583,102,-1,584,585,581,-1,581,585,586,-1,581,586,579,-1,587,588,589,-1,588,587,590,-1,590,587,591,-1,590,591,592,-1,592,591,593,-1,592,593,594,-1,594,593,595,-1,595,593,575,-1,595,575,596,-1,596,575,483,-1,596,483,278,-1,491,597,492,-1,492,597,511,-1,492,511,146,-1,598,507,597,-1,597,507,509,-1,597,509,511,-1,599,503,598,-1,598,503,505,-1,598,505,507,-1,600,499,599,-1,599,499,501,-1,599,501,503,-1,485,484,576,-1,576,484,575,-1,576,575,601,-1,601,575,593,-1,601,593,602,-1,602,593,591,-1,602,591,584,-1,584,591,587,-1,584,587,585,-1,585,587,589,-1,102,493,582,-1,582,493,495,-1,582,495,600,-1,600,495,497,-1,600,497,499,-1,491,490,597,-1,597,490,578,-1,597,578,598,-1,598,578,603,-1,598,603,599,-1,599,603,604,-1,599,604,600,-1,600,604,605,-1,600,605,582,-1,582,605,606,-1,582,606,583,-1,583,606,607,-1,489,488,578,-1,578,488,577,-1,578,577,603,-1,603,577,608,-1,603,608,604,-1,604,608,609,-1,604,609,605,-1,605,609,610,-1,605,610,606,-1,606,610,611,-1,606,611,607,-1,607,611,612,-1,487,486,577,-1,577,486,576,-1,577,576,608,-1,608,576,601,-1,608,601,609,-1,609,601,602,-1,609,602,610,-1,610,602,584,-1,610,584,611,-1,611,584,581,-1,611,581,612,-1,612,581,580,-1,613,614,615,-1,615,614,270,-1,616,617,618,-1,618,617,619,-1,620,621,616,-1,621,620,622,-1,623,624,625,-1,625,624,626,-1,623,625,627,-1,627,625,628,-1,627,628,629,-1,629,628,630,-1,629,630,631,-1,631,630,632,-1,631,632,633,-1,633,632,494,-1,633,494,101,-1,270,513,615,-1,615,513,515,-1,615,515,634,-1,515,517,634,-1,634,517,519,-1,634,519,635,-1,519,521,635,-1,635,521,523,-1,635,523,636,-1,523,525,636,-1,636,525,527,-1,636,527,637,-1,168,512,531,-1,531,512,637,-1,531,637,529,-1,529,637,527,-1,613,615,638,-1,638,615,634,-1,638,634,639,-1,639,634,635,-1,639,635,640,-1,640,635,636,-1,640,636,641,-1,641,636,637,-1,641,637,642,-1,512,510,637,-1,637,510,508,-1,637,508,642,-1,642,508,506,-1,642,506,504,-1,504,643,642,-1,642,643,644,-1,642,644,641,-1,641,644,645,-1,641,645,640,-1,640,645,646,-1,640,646,639,-1,639,646,618,-1,639,618,638,-1,638,618,619,-1,638,619,613,-1,616,618,620,-1,620,618,646,-1,620,646,647,-1,647,646,645,-1,647,645,648,-1,648,645,644,-1,648,644,649,-1,649,644,643,-1,649,643,650,-1,504,502,643,-1,643,502,500,-1,643,500,650,-1,650,500,498,-1,650,498,496,-1,622,620,626,-1,626,620,647,-1,626,647,625,-1,625,647,648,-1,625,648,628,-1,628,648,649,-1,628,649,630,-1,630,649,650,-1,630,650,632,-1,632,650,496,-1,632,496,494,-1,651,556,652,-1,652,556,557,-1,652,557,269,-1,269,557,558,-1,269,558,271,-1,549,551,653,-1,653,551,552,-1,653,552,651,-1,651,552,554,-1,651,554,556,-1,549,653,547,-1,547,653,654,-1,547,654,548,-1,539,538,655,-1,655,538,545,-1,655,545,654,-1,654,545,544,-1,654,544,548,-1,257,259,542,-1,257,542,655,-1,655,542,569,-1,655,569,539,-1,131,107,656,-1,131,656,657,-1,656,658,657,-1,657,658,659,-1,657,659,660,-1,660,659,661,-1,660,661,662,-1,662,661,663,-1,662,663,664,-1,664,663,665,-1,664,665,666,-1,666,665,667,-1,667,665,668,-1,667,668,669,-1,669,668,670,-1,669,670,671,-1,671,670,672,-1,671,672,673,-1,673,672,674,-1,673,674,675,-1,675,674,258,-1,675,258,257,-1,674,672,676,-1,670,668,677,-1,665,663,678,-1,661,659,679,-1,658,656,680,-1,656,107,680,-1,680,107,681,-1,680,681,682,-1,682,681,683,-1,682,683,684,-1,684,683,685,-1,684,685,686,-1,686,685,687,-1,686,687,688,-1,688,687,689,-1,688,689,275,-1,275,689,276,-1,659,658,679,-1,679,658,680,-1,679,680,690,-1,690,680,682,-1,690,682,691,-1,691,682,684,-1,691,684,692,-1,692,684,686,-1,692,686,693,-1,693,686,688,-1,693,688,274,-1,274,688,275,-1,663,661,678,-1,678,661,679,-1,678,679,694,-1,694,679,690,-1,694,690,695,-1,695,690,691,-1,695,691,696,-1,696,691,692,-1,696,692,697,-1,697,692,693,-1,697,693,273,-1,273,693,274,-1,668,665,677,-1,677,665,678,-1,677,678,698,-1,698,678,694,-1,698,694,699,-1,699,694,695,-1,699,695,700,-1,700,695,696,-1,700,696,701,-1,701,696,697,-1,701,697,272,-1,272,697,273,-1,672,670,676,-1,676,670,677,-1,676,677,702,-1,702,677,698,-1,702,698,703,-1,703,698,699,-1,703,699,704,-1,704,699,700,-1,704,700,705,-1,705,700,701,-1,705,701,282,-1,282,701,272,-1,258,674,574,-1,574,674,676,-1,574,676,573,-1,573,676,702,-1,573,702,572,-1,572,702,703,-1,572,703,571,-1,571,703,704,-1,571,704,570,-1,570,704,705,-1,570,705,281,-1,281,705,282,-1,706,707,580,-1,103,102,707,-1,707,102,583,-1,583,607,707,-1,707,607,612,-1,707,612,580,-1,580,579,706,-1,706,579,586,-1,706,586,708,-1,708,586,585,-1,708,585,709,-1,709,585,589,-1,709,589,710,-1,710,589,588,-1,710,588,711,-1,711,588,590,-1,711,590,712,-1,712,590,592,-1,712,592,713,-1,713,592,594,-1,713,594,714,-1,714,594,595,-1,714,595,715,-1,715,595,280,-1,280,595,596,-1,280,596,278,-1,633,101,104,-1,619,716,613,-1,613,716,717,-1,613,717,614,-1,614,717,268,-1,614,268,270,-1,624,718,626,-1,626,718,719,-1,626,719,622,-1,622,719,720,-1,622,720,621,-1,621,720,721,-1,621,721,616,-1,616,721,722,-1,616,722,617,-1,617,722,723,-1,617,723,619,-1,619,723,724,-1,619,724,716,-1,624,623,718,-1,718,623,627,-1,718,627,725,-1,725,627,629,-1,725,629,104,-1,104,629,631,-1,104,631,633,-1,657,660,726,-1,662,664,727,-1,666,667,728,-1,669,671,729,-1,673,675,730,-1,675,257,730,-1,730,257,655,-1,730,655,731,-1,731,655,654,-1,731,654,732,-1,732,654,653,-1,732,653,733,-1,733,653,651,-1,733,651,734,-1,734,651,652,-1,734,652,267,-1,267,652,269,-1,671,673,729,-1,729,673,730,-1,729,730,735,-1,735,730,731,-1,735,731,736,-1,736,731,732,-1,736,732,737,-1,737,732,733,-1,737,733,738,-1,738,733,734,-1,738,734,266,-1,266,734,267,-1,667,669,728,-1,728,669,729,-1,728,729,739,-1,739,729,735,-1,739,735,740,-1,740,735,736,-1,740,736,741,-1,741,736,737,-1,741,737,742,-1,742,737,738,-1,742,738,265,-1,265,738,266,-1,664,666,727,-1,727,666,728,-1,727,728,743,-1,743,728,739,-1,743,739,744,-1,744,739,740,-1,744,740,745,-1,745,740,741,-1,745,741,746,-1,746,741,742,-1,746,742,264,-1,264,742,265,-1,660,662,726,-1,726,662,727,-1,726,727,747,-1,747,727,743,-1,747,743,748,-1,748,743,744,-1,748,744,749,-1,749,744,745,-1,749,745,750,-1,750,745,746,-1,750,746,263,-1,263,746,264,-1,131,657,751,-1,751,657,726,-1,751,726,752,-1,752,726,747,-1,752,747,753,-1,753,747,748,-1,753,748,754,-1,754,748,749,-1,754,749,755,-1,755,749,750,-1,755,750,261,-1,261,750,263,-1,689,756,276,-1,276,756,757,-1,276,757,277,-1,687,685,758,-1,758,759,687,-1,687,759,760,-1,687,760,689,-1,689,760,761,-1,689,761,756,-1,762,763,683,-1,683,763,764,-1,683,764,685,-1,685,764,765,-1,685,765,758,-1,683,681,762,-1,762,681,107,-1,762,107,111,-1,280,248,715,-1,715,248,250,-1,715,250,714,-1,766,711,767,-1,767,711,712,-1,767,712,768,-1,768,712,713,-1,768,713,769,-1,769,713,714,-1,769,714,770,-1,770,714,250,-1,771,708,772,-1,772,708,709,-1,772,709,766,-1,766,709,710,-1,766,710,711,-1,773,706,774,-1,774,706,708,-1,774,708,775,-1,775,708,771,-1,67,72,103,-1,66,67,254,-1,254,67,103,-1,254,103,773,-1,773,103,707,-1,773,707,706,-1,104,22,21,-1,21,65,251,-1,104,21,725,-1,21,251,725,-1,725,251,776,-1,725,776,718,-1,718,776,777,-1,718,777,719,-1,719,777,778,-1,719,778,720,-1,720,778,779,-1,720,779,721,-1,779,780,721,-1,721,780,781,-1,721,781,722,-1,722,781,782,-1,722,782,723,-1,723,782,783,-1,723,783,724,-1,724,783,784,-1,724,784,716,-1,784,785,716,-1,716,785,239,-1,716,239,717,-1,717,239,241,-1,717,241,268,-1,262,786,261,-1,261,786,755,-1,786,787,755,-1,755,787,788,-1,755,788,754,-1,788,789,754,-1,754,789,790,-1,754,790,753,-1,790,791,753,-1,753,791,792,-1,753,792,752,-1,792,793,752,-1,752,793,794,-1,752,794,751,-1,794,795,751,-1,751,795,117,-1,751,117,131,-1,111,117,796,-1,256,255,797,-1,797,255,798,-1,797,798,799,-1,799,798,800,-1,799,800,801,-1,801,800,802,-1,801,802,803,-1,803,802,804,-1,803,804,805,-1,805,804,806,-1,805,806,807,-1,807,806,808,-1,807,808,809,-1,809,808,810,-1,809,810,811,-1,811,810,812,-1,811,812,813,-1,813,812,814,-1,813,814,796,-1,796,814,815,-1,796,815,111,-1,756,761,816,-1,760,759,817,-1,758,765,818,-1,277,757,819,-1,820,821,822,-1,822,821,823,-1,822,823,819,-1,819,823,824,-1,819,824,277,-1,825,826,820,-1,820,826,827,-1,820,827,821,-1,828,829,825,-1,825,829,830,-1,825,830,826,-1,831,832,833,-1,255,834,798,-1,798,834,835,-1,798,835,800,-1,800,835,836,-1,837,804,836,-1,836,804,802,-1,836,802,800,-1,838,808,837,-1,837,808,806,-1,837,806,804,-1,815,814,839,-1,839,814,812,-1,839,812,838,-1,838,812,810,-1,838,810,808,-1,111,815,762,-1,762,815,839,-1,762,839,763,-1,763,839,764,-1,765,764,818,-1,818,764,839,-1,818,839,840,-1,840,839,838,-1,840,838,841,-1,841,838,837,-1,841,837,842,-1,842,837,836,-1,842,836,843,-1,843,836,835,-1,843,835,844,-1,844,835,834,-1,759,758,817,-1,817,758,818,-1,817,818,845,-1,845,818,840,-1,845,840,846,-1,846,840,841,-1,846,841,847,-1,847,841,842,-1,847,842,848,-1,848,842,843,-1,848,843,849,-1,849,843,844,-1,761,760,816,-1,816,760,817,-1,816,817,850,-1,850,817,845,-1,850,845,851,-1,851,845,846,-1,851,846,852,-1,852,846,847,-1,852,847,831,-1,831,847,848,-1,831,848,832,-1,832,848,849,-1,757,756,819,-1,819,756,816,-1,819,816,822,-1,822,816,850,-1,822,850,820,-1,820,850,851,-1,820,851,825,-1,825,851,852,-1,825,852,828,-1,828,852,831,-1,828,831,853,-1,853,831,833,-1,773,774,854,-1,250,249,770,-1,770,249,855,-1,770,855,769,-1,769,855,856,-1,769,856,768,-1,768,856,767,-1,767,856,857,-1,767,857,766,-1,766,857,858,-1,766,858,772,-1,858,859,772,-1,772,859,860,-1,772,860,771,-1,860,861,771,-1,771,861,862,-1,771,862,775,-1,775,862,863,-1,775,863,774,-1,774,863,864,-1,774,864,854,-1,854,865,773,-1,773,865,866,-1,773,866,254,-1,254,866,867,-1,254,867,253,-1,252,253,868,-1,868,253,869,-1,868,869,870,-1,870,869,871,-1,870,871,872,-1,872,871,873,-1,872,873,874,-1,874,873,875,-1,874,875,876,-1,876,875,877,-1,876,877,878,-1,878,877,879,-1,878,879,880,-1,880,879,881,-1,880,881,882,-1,882,881,883,-1,882,883,884,-1,884,883,885,-1,884,885,886,-1,885,887,886,-1,886,887,205,-1,886,205,198,-1,251,252,776,-1,776,252,888,-1,889,777,890,-1,890,777,776,-1,890,776,891,-1,891,776,888,-1,892,893,779,-1,889,894,777,-1,777,894,892,-1,777,892,778,-1,778,892,779,-1,893,895,779,-1,779,895,896,-1,779,896,780,-1,780,896,897,-1,780,897,781,-1,781,897,898,-1,781,898,782,-1,782,898,899,-1,782,899,783,-1,783,899,900,-1,240,239,901,-1,901,239,785,-1,901,785,900,-1,900,785,784,-1,900,784,783,-1,795,794,902,-1,793,792,903,-1,791,790,904,-1,789,788,905,-1,787,786,906,-1,907,908,909,-1,910,911,256,-1,912,913,909,-1,909,913,914,-1,909,914,907,-1,915,916,917,-1,916,915,918,-1,918,915,919,-1,918,919,920,-1,920,919,921,-1,920,921,922,-1,922,921,923,-1,923,921,906,-1,923,906,924,-1,924,906,786,-1,924,786,262,-1,256,797,910,-1,910,797,799,-1,910,799,925,-1,799,801,925,-1,925,801,803,-1,925,803,926,-1,803,805,926,-1,926,805,807,-1,926,807,927,-1,807,809,927,-1,927,809,811,-1,927,811,902,-1,788,787,905,-1,905,787,906,-1,905,906,928,-1,928,906,921,-1,928,921,929,-1,929,921,919,-1,929,919,912,-1,912,919,915,-1,912,915,913,-1,913,915,917,-1,790,789,904,-1,904,789,905,-1,904,905,930,-1,930,905,928,-1,930,928,931,-1,931,928,929,-1,931,929,932,-1,932,929,912,-1,932,912,933,-1,933,912,909,-1,933,909,934,-1,934,909,908,-1,792,791,903,-1,903,791,904,-1,903,904,935,-1,935,904,930,-1,935,930,936,-1,936,930,931,-1,936,931,937,-1,937,931,932,-1,937,932,938,-1,938,932,933,-1,938,933,939,-1,939,933,934,-1,794,793,902,-1,902,793,903,-1,902,903,927,-1,927,903,935,-1,927,935,926,-1,926,935,936,-1,926,936,925,-1,925,936,937,-1,925,937,910,-1,910,937,938,-1,910,938,911,-1,911,938,939,-1,117,795,796,-1,796,795,902,-1,796,902,813,-1,813,902,811,-1,245,277,246,-1,246,277,824,-1,246,824,940,-1,940,824,823,-1,940,823,941,-1,941,823,821,-1,942,943,830,-1,830,943,944,-1,830,944,826,-1,826,944,945,-1,826,945,827,-1,827,945,946,-1,827,946,821,-1,821,946,947,-1,821,947,941,-1,942,830,948,-1,948,830,829,-1,948,829,949,-1,833,950,853,-1,853,950,949,-1,853,949,828,-1,828,949,829,-1,833,832,950,-1,950,832,849,-1,950,849,238,-1,255,237,834,-1,834,237,238,-1,834,238,844,-1,844,238,849,-1,856,855,951,-1,951,855,249,-1,859,858,952,-1,952,858,857,-1,862,861,953,-1,953,861,860,-1,864,863,954,-1,954,863,862,-1,864,954,854,-1,854,954,955,-1,854,955,865,-1,865,955,956,-1,865,956,866,-1,866,956,957,-1,866,957,867,-1,867,957,869,-1,867,869,253,-1,249,958,951,-1,951,958,959,-1,951,959,960,-1,959,961,960,-1,960,961,962,-1,960,962,963,-1,962,964,963,-1,963,964,965,-1,963,965,966,-1,965,967,966,-1,966,967,968,-1,966,968,969,-1,205,887,970,-1,970,887,969,-1,970,969,971,-1,971,969,968,-1,856,951,972,-1,972,951,960,-1,972,960,973,-1,973,960,963,-1,973,963,974,-1,974,963,966,-1,974,966,975,-1,975,966,969,-1,975,969,976,-1,887,885,969,-1,969,885,883,-1,969,883,976,-1,976,883,881,-1,976,881,879,-1,879,977,976,-1,976,977,978,-1,976,978,975,-1,975,978,979,-1,975,979,974,-1,974,979,980,-1,974,980,973,-1,973,980,952,-1,973,952,972,-1,972,952,857,-1,972,857,856,-1,859,952,860,-1,860,952,980,-1,860,980,953,-1,953,980,979,-1,953,979,981,-1,981,979,978,-1,981,978,982,-1,982,978,977,-1,982,977,983,-1,879,877,977,-1,977,877,875,-1,977,875,983,-1,983,875,873,-1,983,873,871,-1,862,953,954,-1,954,953,981,-1,954,981,955,-1,955,981,982,-1,955,982,956,-1,956,982,983,-1,956,983,957,-1,957,983,871,-1,957,871,869,-1,984,985,986,-1,987,988,989,-1,990,991,992,-1,993,994,995,-1,889,890,996,-1,997,888,252,-1,998,893,999,-1,999,893,892,-1,999,892,894,-1,1000,896,998,-1,998,896,895,-1,998,895,893,-1,897,1001,898,-1,898,1001,1002,-1,898,1002,899,-1,899,1002,900,-1,900,1002,986,-1,900,986,901,-1,901,986,985,-1,901,985,240,-1,1003,1004,1005,-1,1005,1004,886,-1,1005,886,198,-1,1006,882,1004,-1,1004,882,884,-1,1004,884,886,-1,1007,878,1006,-1,1006,878,880,-1,1006,880,882,-1,988,984,989,-1,989,984,986,-1,989,986,1008,-1,1008,986,1002,-1,1008,1002,1000,-1,1000,1002,1001,-1,1000,1001,896,-1,896,1001,897,-1,1009,874,1007,-1,1007,874,876,-1,1007,876,878,-1,252,868,997,-1,997,868,870,-1,997,870,1009,-1,1009,870,872,-1,1009,872,874,-1,1003,993,1004,-1,1004,993,995,-1,1004,995,1006,-1,1006,995,1010,-1,1006,1010,1007,-1,1007,1010,1011,-1,1007,1011,1009,-1,1009,1011,1012,-1,1009,1012,997,-1,997,1012,1013,-1,997,1013,888,-1,888,1013,891,-1,994,990,995,-1,995,990,992,-1,995,992,1010,-1,1010,992,1014,-1,1010,1014,1011,-1,1011,1014,1015,-1,1011,1015,1012,-1,1012,1015,1016,-1,1012,1016,1013,-1,1013,1016,996,-1,1013,996,891,-1,891,996,890,-1,991,987,992,-1,992,987,989,-1,992,989,1014,-1,1014,989,1008,-1,1014,1008,1015,-1,1015,1008,1000,-1,1015,1000,1016,-1,1016,1000,998,-1,1016,998,996,-1,996,998,999,-1,996,999,889,-1,889,999,894,-1,256,911,235,-1,235,911,233,-1,911,939,233,-1,233,939,934,-1,233,934,1017,-1,934,908,1017,-1,1017,908,907,-1,1017,907,1018,-1,1019,1020,916,-1,907,914,1018,-1,1018,914,913,-1,1018,913,1021,-1,1021,913,917,-1,1021,917,1022,-1,1022,917,916,-1,1022,916,1023,-1,1023,916,1020,-1,916,918,1019,-1,1019,918,920,-1,1019,920,1024,-1,1024,920,922,-1,923,1025,922,-1,922,1025,1026,-1,922,1026,1024,-1,262,243,924,-1,924,243,244,-1,924,244,923,-1,923,244,1027,-1,923,1027,1025,-1,236,1028,238,-1,238,1028,1029,-1,238,1029,950,-1,950,1029,1030,-1,950,1030,949,-1,1030,1031,949,-1,949,1031,1032,-1,949,1032,948,-1,948,1032,1033,-1,948,1033,942,-1,942,1033,1034,-1,942,1034,943,-1,1034,1035,943,-1,943,1035,1036,-1,943,1036,944,-1,944,1036,1037,-1,944,1037,945,-1,945,1037,1038,-1,945,1038,946,-1,946,1038,1039,-1,946,1039,947,-1,947,1039,1040,-1,247,246,1041,-1,1041,246,940,-1,1041,940,1040,-1,1040,940,941,-1,1040,941,947,-1,200,205,970,-1,249,247,958,-1,958,247,1042,-1,958,1042,959,-1,959,1042,1043,-1,959,1043,961,-1,961,1043,1044,-1,961,1044,962,-1,962,1044,1045,-1,962,1045,964,-1,964,1045,1046,-1,964,1046,965,-1,965,1046,1047,-1,965,1047,967,-1,967,1047,1048,-1,967,1048,968,-1,968,1048,1049,-1,968,1049,971,-1,971,1049,1050,-1,971,1050,970,-1,970,1050,1051,-1,970,1051,200,-1,242,240,1052,-1,1052,240,985,-1,1052,985,1053,-1,1053,985,984,-1,1053,984,1054,-1,1054,984,988,-1,1054,988,1055,-1,1055,988,987,-1,1055,987,1056,-1,1056,987,991,-1,1056,991,1057,-1,1057,991,990,-1,1057,990,1058,-1,1058,990,994,-1,1058,994,1059,-1,1059,994,993,-1,1059,993,1060,-1,1060,993,1003,-1,1060,1003,1061,-1,1003,1005,1061,-1,1061,1005,198,-1,1061,198,222,-1,244,242,1027,-1,1027,242,1062,-1,1027,1062,1025,-1,1025,1062,1063,-1,1025,1063,1026,-1,1026,1063,1024,-1,1024,1063,1064,-1,1024,1064,1019,-1,1019,1064,1065,-1,1019,1065,1020,-1,1065,1066,1020,-1,1020,1066,1067,-1,1020,1067,1023,-1,1023,1067,1068,-1,1023,1068,1022,-1,1022,1068,1069,-1,1022,1069,1021,-1,1021,1069,1070,-1,1021,1070,1018,-1,1071,234,233,-1,1070,1072,1018,-1,1018,1072,1073,-1,1018,1073,1017,-1,1017,1073,1074,-1,1017,1074,233,-1,233,1074,1075,-1,233,1075,1071,-1,1051,1050,1076,-1,1049,1048,1077,-1,1047,1046,1078,-1,1045,1044,1079,-1,1043,1042,1080,-1,1031,1030,1081,-1,1082,1028,236,-1,1083,1034,1084,-1,1084,1034,1033,-1,1084,1033,1032,-1,1085,1036,1083,-1,1083,1036,1035,-1,1083,1035,1034,-1,1037,1086,1038,-1,1038,1086,1087,-1,1038,1087,1039,-1,1039,1087,1040,-1,1040,1087,1080,-1,1040,1080,1041,-1,1041,1080,1042,-1,1041,1042,247,-1,236,1088,1082,-1,1082,1088,1089,-1,1082,1089,1090,-1,1089,1091,1090,-1,1090,1091,1092,-1,1090,1092,1093,-1,1092,1094,1093,-1,1093,1094,1095,-1,1093,1095,1096,-1,1095,1097,1096,-1,1096,1097,1098,-1,1096,1098,1076,-1,1044,1043,1079,-1,1079,1043,1080,-1,1079,1080,1099,-1,1099,1080,1087,-1,1099,1087,1085,-1,1085,1087,1086,-1,1085,1086,1036,-1,1036,1086,1037,-1,1046,1045,1078,-1,1078,1045,1079,-1,1078,1079,1100,-1,1100,1079,1099,-1,1100,1099,1101,-1,1101,1099,1085,-1,1101,1085,1102,-1,1102,1085,1083,-1,1102,1083,1081,-1,1081,1083,1084,-1,1081,1084,1031,-1,1031,1084,1032,-1,1048,1047,1077,-1,1077,1047,1078,-1,1077,1078,1103,-1,1103,1078,1100,-1,1103,1100,1104,-1,1104,1100,1101,-1,1104,1101,1105,-1,1105,1101,1102,-1,1105,1102,1106,-1,1106,1102,1081,-1,1106,1081,1029,-1,1029,1081,1030,-1,1050,1049,1076,-1,1076,1049,1077,-1,1076,1077,1096,-1,1096,1077,1103,-1,1096,1103,1093,-1,1093,1103,1104,-1,1093,1104,1090,-1,1090,1104,1105,-1,1090,1105,1082,-1,1082,1105,1106,-1,1082,1106,1028,-1,1028,1106,1029,-1,200,1051,1107,-1,1107,1051,1076,-1,1107,1076,1108,-1,1108,1076,1098,-1,1053,1054,1109,-1,1055,1056,1110,-1,1057,1058,1111,-1,1073,1072,1112,-1,242,1052,1113,-1,1114,1064,1115,-1,1115,1064,1063,-1,1115,1063,1113,-1,1113,1063,1062,-1,1113,1062,242,-1,1067,1066,1114,-1,1114,1066,1065,-1,1114,1065,1064,-1,1072,1070,1112,-1,1112,1070,1069,-1,1112,1069,1116,-1,234,1071,1117,-1,1117,1071,1118,-1,1117,1118,1119,-1,1119,1118,1120,-1,1121,1122,1120,-1,1120,1122,1123,-1,1120,1123,1119,-1,1124,1125,1121,-1,1121,1125,1126,-1,1121,1126,1122,-1,1127,1128,1129,-1,1129,1128,1130,-1,1129,1130,1124,-1,1124,1130,1131,-1,1124,1131,1125,-1,222,1127,1061,-1,1061,1127,1129,-1,1061,1129,1060,-1,1060,1129,1059,-1,1058,1059,1111,-1,1111,1059,1129,-1,1111,1129,1132,-1,1132,1129,1124,-1,1132,1124,1133,-1,1133,1124,1121,-1,1133,1121,1134,-1,1134,1121,1120,-1,1134,1120,1135,-1,1135,1120,1118,-1,1135,1118,1075,-1,1075,1118,1071,-1,1056,1057,1110,-1,1110,1057,1111,-1,1110,1111,1136,-1,1136,1111,1132,-1,1136,1132,1137,-1,1137,1132,1133,-1,1137,1133,1138,-1,1138,1133,1134,-1,1138,1134,1139,-1,1139,1134,1135,-1,1139,1135,1074,-1,1074,1135,1075,-1,1054,1055,1109,-1,1109,1055,1110,-1,1109,1110,1140,-1,1140,1110,1136,-1,1140,1136,1141,-1,1141,1136,1137,-1,1141,1137,1116,-1,1116,1137,1138,-1,1116,1138,1112,-1,1112,1138,1139,-1,1112,1139,1073,-1,1073,1139,1074,-1,1052,1053,1113,-1,1113,1053,1109,-1,1113,1109,1115,-1,1115,1109,1140,-1,1115,1140,1114,-1,1114,1140,1141,-1,1114,1141,1067,-1,1067,1141,1116,-1,1067,1116,1068,-1,1068,1116,1069,-1,236,234,1088,-1,1088,234,1117,-1,1088,1117,1089,-1,1089,1117,1119,-1,1089,1119,1091,-1,1091,1119,1123,-1,1091,1123,1092,-1,1092,1123,1122,-1,1092,1122,1094,-1,1094,1122,1126,-1,1094,1126,1095,-1,1095,1126,1125,-1,1095,1125,1097,-1,1097,1125,1131,-1,1097,1131,1098,-1,1098,1131,1130,-1,1098,1130,1108,-1,1108,1130,1128,-1,1108,1128,1107,-1,1128,1127,1107,-1,1107,1127,222,-1,1107,222,200,-1,284,283,1142,-1,298,300,1143,-1,302,303,1144,-1,311,313,1145,-1,324,326,1146,-1,334,336,1147,-1,338,339,1148,-1,347,349,1149,-1,357,356,1150,-1,381,379,1151,-1,215,214,1152,-1,1152,214,1153,-1,1152,1153,1154,-1,1154,1153,1155,-1,1154,1155,1156,-1,1156,1155,1157,-1,1156,1157,1158,-1,1158,1157,1159,-1,1158,1159,1160,-1,1160,1159,1151,-1,206,204,1161,-1,1161,204,1162,-1,1161,1162,1163,-1,1163,1162,1164,-1,1163,1164,1165,-1,1165,1164,1166,-1,1165,1166,1167,-1,1167,1166,1168,-1,1167,1168,1169,-1,1169,1168,1170,-1,218,217,1171,-1,1171,217,1172,-1,1171,1172,1173,-1,1173,1172,1174,-1,1173,1174,1175,-1,1175,1174,1176,-1,1175,1176,1177,-1,1177,1176,1178,-1,1177,1178,1179,-1,1179,1178,1150,-1,208,199,1180,-1,1180,199,1181,-1,1180,1181,1182,-1,1182,1181,1183,-1,1182,1183,1184,-1,1184,1183,1185,-1,1184,1185,1186,-1,1186,1185,1187,-1,1186,1187,1188,-1,1188,1187,1149,-1,202,227,1189,-1,1189,227,1190,-1,1189,1190,1191,-1,1191,1190,1192,-1,1191,1192,1193,-1,1193,1192,1194,-1,1193,1194,1195,-1,1195,1194,1196,-1,1195,1196,1197,-1,1197,1196,1148,-1,224,232,1198,-1,1198,232,1199,-1,1198,1199,1200,-1,1200,1199,1201,-1,1200,1201,1202,-1,1202,1201,1203,-1,1202,1203,1204,-1,1204,1203,1205,-1,1204,1205,1206,-1,1206,1205,1146,-1,229,228,1207,-1,1207,228,1208,-1,1207,1208,1209,-1,1209,1208,1210,-1,1209,1210,1211,-1,1211,1210,1212,-1,1211,1212,1213,-1,1213,1212,1214,-1,1213,1214,1215,-1,1215,1214,1145,-1,221,220,1216,-1,1216,220,1217,-1,1216,1217,1218,-1,1218,1217,1219,-1,1218,1219,1220,-1,1220,1219,1221,-1,1220,1221,1222,-1,1222,1221,1223,-1,1222,1223,1224,-1,1224,1223,1144,-1,211,197,1225,-1,1225,197,1226,-1,1225,1226,1227,-1,1227,1226,1228,-1,1227,1228,1229,-1,1229,1228,1230,-1,1229,1230,1231,-1,1231,1230,1232,-1,1231,1232,1233,-1,1233,1232,1142,-1,216,215,1234,-1,1234,215,1152,-1,1234,1152,1235,-1,1235,1152,1154,-1,1235,1154,1236,-1,1236,1154,1156,-1,1236,1156,1237,-1,1237,1156,1158,-1,1237,1158,1238,-1,1238,1158,1160,-1,1238,1160,288,-1,288,1160,375,-1,1151,379,1160,-1,1160,379,377,-1,1160,377,375,-1,383,381,1239,-1,1239,381,1151,-1,1239,1151,1240,-1,1240,1151,1159,-1,1240,1159,1241,-1,1241,1159,1157,-1,1241,1157,1242,-1,1242,1157,1155,-1,1242,1155,1243,-1,1243,1155,1153,-1,1243,1153,207,-1,207,1153,214,-1,207,206,1243,-1,1243,206,1161,-1,1243,1161,1242,-1,1242,1161,1163,-1,1242,1163,1241,-1,1241,1163,1165,-1,1241,1165,1240,-1,1240,1165,1167,-1,1240,1167,1239,-1,1239,1167,1169,-1,1239,1169,383,-1,383,1169,385,-1,370,372,1244,-1,1244,372,1170,-1,1244,1170,1245,-1,1245,1170,1168,-1,1245,1168,1246,-1,1246,1168,1166,-1,1246,1166,1247,-1,1247,1166,1164,-1,1247,1164,1248,-1,1248,1164,1162,-1,1248,1162,203,-1,203,1162,204,-1,372,390,1170,-1,1170,390,389,-1,1170,389,1169,-1,1169,389,387,-1,1169,387,385,-1,368,370,1249,-1,1249,370,1244,-1,1249,1244,1250,-1,1250,1244,1245,-1,1250,1245,1251,-1,1251,1245,1246,-1,1251,1246,1252,-1,1252,1246,1247,-1,1252,1247,1253,-1,1253,1247,1248,-1,1253,1248,219,-1,219,1248,203,-1,219,218,1253,-1,1253,218,1171,-1,1253,1171,1252,-1,1252,1171,1173,-1,1252,1173,1251,-1,1251,1173,1175,-1,1251,1175,1250,-1,1250,1175,1177,-1,1250,1177,1249,-1,1249,1177,1179,-1,1249,1179,368,-1,368,1179,366,-1,1150,356,1179,-1,1179,356,364,-1,1179,364,366,-1,359,357,1254,-1,1254,357,1150,-1,1254,1150,1255,-1,1255,1150,1178,-1,1255,1178,1256,-1,1256,1178,1176,-1,1256,1176,1257,-1,1257,1176,1174,-1,1257,1174,1258,-1,1258,1174,1172,-1,1258,1172,210,-1,210,1172,217,-1,210,209,1258,-1,1258,209,1259,-1,1258,1259,1257,-1,1257,1259,1260,-1,1257,1260,1256,-1,1256,1260,1261,-1,1256,1261,1255,-1,1255,1261,1262,-1,1255,1262,1254,-1,1254,1262,1263,-1,1254,1263,359,-1,359,1263,355,-1,209,208,1259,-1,1259,208,1180,-1,1259,1180,1260,-1,1260,1180,1182,-1,1260,1182,1261,-1,1261,1182,1184,-1,1261,1184,1262,-1,1262,1184,1186,-1,1262,1186,1263,-1,1263,1186,1188,-1,1263,1188,355,-1,355,1188,353,-1,1149,349,1188,-1,1188,349,351,-1,1188,351,353,-1,345,347,1264,-1,1264,347,1149,-1,1264,1149,1265,-1,1265,1149,1187,-1,1265,1187,1266,-1,1266,1187,1185,-1,1266,1185,1267,-1,1267,1185,1183,-1,1267,1183,1268,-1,1268,1183,1181,-1,1268,1181,201,-1,201,1181,199,-1,201,202,1268,-1,1268,202,1189,-1,1268,1189,1267,-1,1267,1189,1191,-1,1267,1191,1266,-1,1266,1191,1193,-1,1266,1193,1265,-1,1265,1193,1195,-1,1265,1195,1264,-1,1264,1195,1197,-1,1264,1197,345,-1,345,1197,343,-1,1148,339,1197,-1,1197,339,341,-1,1197,341,343,-1,336,338,1147,-1,1147,338,1148,-1,1147,1148,1269,-1,1269,1148,1196,-1,1269,1196,1270,-1,1270,1196,1194,-1,1270,1194,1271,-1,1271,1194,1192,-1,1271,1192,1272,-1,1272,1192,1190,-1,1272,1190,226,-1,226,1190,227,-1,332,334,1273,-1,1273,334,1147,-1,1273,1147,1274,-1,1274,1147,1269,-1,1274,1269,1275,-1,1275,1269,1270,-1,1275,1270,1276,-1,1276,1270,1271,-1,1276,1271,1277,-1,1277,1271,1272,-1,1277,1272,225,-1,225,1272,226,-1,225,224,1277,-1,1277,224,1198,-1,1277,1198,1276,-1,1276,1198,1200,-1,1276,1200,1275,-1,1275,1200,1202,-1,1275,1202,1274,-1,1274,1202,1204,-1,1274,1204,1273,-1,1273,1204,1206,-1,1273,1206,332,-1,332,1206,330,-1,1146,326,1206,-1,1206,326,328,-1,1206,328,330,-1,322,324,1278,-1,1278,324,1146,-1,1278,1146,1279,-1,1279,1146,1205,-1,1279,1205,1280,-1,1280,1205,1203,-1,1280,1203,1281,-1,1281,1203,1201,-1,1281,1201,1282,-1,1282,1201,1199,-1,1282,1199,231,-1,231,1199,232,-1,231,230,1282,-1,1282,230,1283,-1,1282,1283,1281,-1,1281,1283,1284,-1,1281,1284,1280,-1,1280,1284,1285,-1,1280,1285,1279,-1,1279,1285,1286,-1,1279,1286,1278,-1,1278,1286,1287,-1,1278,1287,322,-1,322,1287,319,-1,230,229,1283,-1,1283,229,1207,-1,1283,1207,1284,-1,1284,1207,1209,-1,1284,1209,1285,-1,1285,1209,1211,-1,1285,1211,1286,-1,1286,1211,1213,-1,1286,1213,1287,-1,1287,1213,1215,-1,1287,1215,319,-1,319,1215,317,-1,1145,313,1215,-1,1215,313,315,-1,1215,315,317,-1,309,311,1288,-1,1288,311,1145,-1,1288,1145,1289,-1,1289,1145,1214,-1,1289,1214,1290,-1,1290,1214,1212,-1,1290,1212,1291,-1,1291,1212,1210,-1,1291,1210,1292,-1,1292,1210,1208,-1,1292,1208,223,-1,223,1208,228,-1,223,221,1292,-1,1292,221,1216,-1,1292,1216,1291,-1,1291,1216,1218,-1,1291,1218,1290,-1,1290,1218,1220,-1,1290,1220,1289,-1,1289,1220,1222,-1,1289,1222,1288,-1,1288,1222,1224,-1,1288,1224,309,-1,309,1224,307,-1,1144,303,1224,-1,1224,303,305,-1,1224,305,307,-1,300,302,1143,-1,1143,302,1144,-1,1143,1144,1293,-1,1293,1144,1223,-1,1293,1223,1294,-1,1294,1223,1221,-1,1294,1221,1295,-1,1295,1221,1219,-1,1295,1219,1296,-1,1296,1219,1217,-1,1296,1217,213,-1,213,1217,220,-1,296,298,1297,-1,1297,298,1143,-1,1297,1143,1298,-1,1298,1143,1293,-1,1298,1293,1299,-1,1299,1293,1294,-1,1299,1294,1300,-1,1300,1294,1295,-1,1300,1295,1301,-1,1301,1295,1296,-1,1301,1296,212,-1,212,1296,213,-1,212,211,1301,-1,1301,211,1225,-1,1301,1225,1300,-1,1300,1225,1227,-1,1300,1227,1299,-1,1299,1227,1229,-1,1299,1229,1298,-1,1298,1229,1231,-1,1298,1231,1297,-1,1297,1231,1233,-1,1297,1233,296,-1,296,1233,294,-1,1142,283,1233,-1,1233,283,292,-1,1233,292,294,-1,286,284,1302,-1,1302,284,1142,-1,1302,1142,1303,-1,1303,1142,1232,-1,1303,1232,1304,-1,1304,1232,1230,-1,1304,1230,1305,-1,1305,1230,1228,-1,1305,1228,1306,-1,1306,1228,1226,-1,1306,1226,196,-1,196,1226,197,-1,196,216,1306,-1,1306,216,1234,-1,1306,1234,1305,-1,1305,1234,1235,-1,1305,1235,1304,-1,1304,1235,1236,-1,1304,1236,1303,-1,1303,1236,1237,-1,1303,1237,1302,-1,1302,1237,1238,-1,1302,1238,286,-1,286,1238,288,-1,333,331,1307,-1,310,308,1308,-1,297,295,1309,-1,382,384,1310,-1,369,367,1311,-1,346,344,1312,-1,126,116,1313,-1,1313,116,1314,-1,1313,1314,1315,-1,1315,1314,1316,-1,1315,1316,1317,-1,1317,1316,1318,-1,1317,1318,1319,-1,1319,1318,1320,-1,1319,1320,1321,-1,1321,1320,1312,-1,114,110,1322,-1,1322,110,1323,-1,1322,1323,1324,-1,1324,1323,1325,-1,1324,1325,1326,-1,1326,1325,1327,-1,1326,1327,1328,-1,1328,1327,1329,-1,1328,1329,1330,-1,1330,1329,1331,-1,138,137,1332,-1,1332,137,1333,-1,1332,1333,1334,-1,1334,1333,1335,-1,1334,1335,1336,-1,1336,1335,1337,-1,1336,1337,1338,-1,1338,1337,1339,-1,1338,1339,1340,-1,1340,1339,1311,-1,121,120,1341,-1,1341,120,1342,-1,1341,1342,1343,-1,1343,1342,1344,-1,1343,1344,1345,-1,1345,1344,1346,-1,1345,1346,1347,-1,1347,1346,1348,-1,1347,1348,1349,-1,1349,1348,1310,-1,108,135,1350,-1,1350,135,1351,-1,1350,1351,1352,-1,1352,1351,1353,-1,1352,1353,1354,-1,1354,1353,1355,-1,1354,1355,1356,-1,1356,1355,1357,-1,1356,1357,1358,-1,1358,1357,1359,-1,132,143,1360,-1,1360,143,1361,-1,1360,1361,1362,-1,1362,1361,1363,-1,1362,1363,1364,-1,1364,1363,1365,-1,1364,1365,1366,-1,1366,1365,1367,-1,1366,1367,1368,-1,1368,1367,1309,-1,129,141,1369,-1,1369,141,1370,-1,1369,1370,1371,-1,1371,1370,1372,-1,1371,1372,1373,-1,1373,1372,1374,-1,1373,1374,1375,-1,1375,1374,1376,-1,1375,1376,1377,-1,1377,1376,1308,-1,139,125,1378,-1,1378,125,1379,-1,1378,1379,1380,-1,1380,1379,1381,-1,1380,1381,1382,-1,1382,1381,1383,-1,1382,1383,1384,-1,1384,1383,1385,-1,1384,1385,1386,-1,1386,1385,1387,-1,119,118,1388,-1,1388,118,1389,-1,1388,1389,1390,-1,1390,1389,1391,-1,1390,1391,1392,-1,1392,1391,1393,-1,1392,1393,1394,-1,1394,1393,1395,-1,1394,1395,1396,-1,1396,1395,1307,-1,127,126,1397,-1,1397,126,1313,-1,1397,1313,1398,-1,1398,1313,1315,-1,1398,1315,1399,-1,1399,1315,1317,-1,1399,1317,1400,-1,1400,1317,1319,-1,1400,1319,1401,-1,1401,1319,1321,-1,1401,1321,337,-1,337,1321,340,-1,1312,344,1321,-1,1321,344,342,-1,1321,342,340,-1,348,346,1402,-1,1402,346,1312,-1,1402,1312,1403,-1,1403,1312,1320,-1,1403,1320,1404,-1,1404,1320,1318,-1,1404,1318,1405,-1,1405,1318,1316,-1,1405,1316,1406,-1,1406,1316,1314,-1,1406,1314,115,-1,115,1314,116,-1,115,114,1406,-1,1406,114,1322,-1,1406,1322,1405,-1,1405,1322,1324,-1,1405,1324,1404,-1,1404,1324,1326,-1,1404,1326,1403,-1,1403,1326,1328,-1,1403,1328,1402,-1,1402,1328,1330,-1,1402,1330,348,-1,348,1330,350,-1,358,360,1407,-1,1407,360,1331,-1,1407,1331,1408,-1,1408,1331,1329,-1,1408,1329,1409,-1,1409,1329,1327,-1,1409,1327,1410,-1,1410,1327,1325,-1,1410,1325,1411,-1,1411,1325,1323,-1,1411,1323,112,-1,112,1323,110,-1,360,361,1331,-1,1331,361,354,-1,1331,354,1330,-1,1330,354,352,-1,1330,352,350,-1,362,358,1412,-1,1412,358,1407,-1,1412,1407,1413,-1,1413,1407,1408,-1,1413,1408,1414,-1,1414,1408,1409,-1,1414,1409,1415,-1,1415,1409,1410,-1,1415,1410,1416,-1,1416,1410,1411,-1,1416,1411,113,-1,113,1411,112,-1,113,138,1416,-1,1416,138,1332,-1,1416,1332,1415,-1,1415,1332,1334,-1,1415,1334,1414,-1,1414,1334,1336,-1,1414,1336,1413,-1,1413,1336,1338,-1,1413,1338,1412,-1,1412,1338,1340,-1,1412,1340,362,-1,362,1340,363,-1,1311,367,1340,-1,1340,367,365,-1,1340,365,363,-1,371,369,1417,-1,1417,369,1311,-1,1417,1311,1418,-1,1418,1311,1339,-1,1418,1339,1419,-1,1419,1339,1337,-1,1419,1337,1420,-1,1420,1337,1335,-1,1420,1335,1421,-1,1421,1335,1333,-1,1421,1333,136,-1,136,1333,137,-1,136,122,1421,-1,1421,122,1422,-1,1421,1422,1420,-1,1420,1422,1423,-1,1420,1423,1419,-1,1419,1423,1424,-1,1419,1424,1418,-1,1418,1424,1425,-1,1418,1425,1417,-1,1417,1425,1426,-1,1417,1426,371,-1,371,1426,373,-1,122,121,1422,-1,1422,121,1341,-1,1422,1341,1423,-1,1423,1341,1343,-1,1423,1343,1424,-1,1424,1343,1345,-1,1424,1345,1425,-1,1425,1345,1347,-1,1425,1347,1426,-1,1426,1347,1349,-1,1426,1349,373,-1,373,1349,388,-1,1310,384,1349,-1,1349,384,386,-1,1349,386,388,-1,380,382,1427,-1,1427,382,1310,-1,1427,1310,1428,-1,1428,1310,1348,-1,1428,1348,1429,-1,1429,1348,1346,-1,1429,1346,1430,-1,1430,1346,1344,-1,1430,1344,1431,-1,1431,1344,1342,-1,1431,1342,109,-1,109,1342,120,-1,109,108,1431,-1,1431,108,1350,-1,1431,1350,1430,-1,1430,1350,1352,-1,1430,1352,1429,-1,1429,1352,1354,-1,1429,1354,1428,-1,1428,1354,1356,-1,1428,1356,1427,-1,1427,1356,1358,-1,1427,1358,380,-1,380,1358,378,-1,285,287,1432,-1,1432,287,1359,-1,1432,1359,1433,-1,1433,1359,1357,-1,1433,1357,1434,-1,1434,1357,1355,-1,1434,1355,1435,-1,1435,1355,1353,-1,1435,1353,1436,-1,1436,1353,1351,-1,1436,1351,134,-1,134,1351,135,-1,287,289,1359,-1,1359,289,374,-1,1359,374,1358,-1,1358,374,376,-1,1358,376,378,-1,290,285,1437,-1,1437,285,1432,-1,1437,1432,1438,-1,1438,1432,1433,-1,1438,1433,1439,-1,1439,1433,1434,-1,1439,1434,1440,-1,1440,1434,1435,-1,1440,1435,1441,-1,1441,1435,1436,-1,1441,1436,133,-1,133,1436,134,-1,133,132,1441,-1,1441,132,1360,-1,1441,1360,1440,-1,1440,1360,1362,-1,1440,1362,1439,-1,1439,1362,1364,-1,1439,1364,1438,-1,1438,1364,1366,-1,1438,1366,1437,-1,1437,1366,1368,-1,1437,1368,290,-1,290,1368,291,-1,1309,295,1368,-1,1368,295,293,-1,1368,293,291,-1,299,297,1442,-1,1442,297,1309,-1,1442,1309,1443,-1,1443,1309,1367,-1,1443,1367,1444,-1,1444,1367,1365,-1,1444,1365,1445,-1,1445,1365,1363,-1,1445,1363,1446,-1,1446,1363,1361,-1,1446,1361,142,-1,142,1361,143,-1,142,130,1446,-1,1446,130,1447,-1,1446,1447,1445,-1,1445,1447,1448,-1,1445,1448,1444,-1,1444,1448,1449,-1,1444,1449,1443,-1,1443,1449,1450,-1,1443,1450,1442,-1,1442,1450,1451,-1,1442,1451,299,-1,299,1451,301,-1,130,129,1447,-1,1447,129,1369,-1,1447,1369,1448,-1,1448,1369,1371,-1,1448,1371,1449,-1,1449,1371,1373,-1,1449,1373,1450,-1,1450,1373,1375,-1,1450,1375,1451,-1,1451,1375,1377,-1,1451,1377,301,-1,301,1377,304,-1,1308,308,1377,-1,1377,308,306,-1,1377,306,304,-1,312,310,1452,-1,1452,310,1308,-1,1452,1308,1453,-1,1453,1308,1376,-1,1453,1376,1454,-1,1454,1376,1374,-1,1454,1374,1455,-1,1455,1374,1372,-1,1455,1372,1456,-1,1456,1372,1370,-1,1456,1370,140,-1,140,1370,141,-1,140,139,1456,-1,1456,139,1378,-1,1456,1378,1455,-1,1455,1378,1380,-1,1455,1380,1454,-1,1454,1380,1382,-1,1454,1382,1453,-1,1453,1382,1384,-1,1453,1384,1452,-1,1452,1384,1386,-1,1452,1386,312,-1,312,1386,314,-1,323,321,1457,-1,1457,321,1387,-1,1457,1387,1458,-1,1458,1387,1385,-1,1458,1385,1459,-1,1459,1385,1383,-1,1459,1383,1460,-1,1460,1383,1381,-1,1460,1381,1461,-1,1461,1381,1379,-1,1461,1379,124,-1,124,1379,125,-1,321,320,1387,-1,1387,320,318,-1,1387,318,1386,-1,1386,318,316,-1,1386,316,314,-1,325,323,1462,-1,1462,323,1457,-1,1462,1457,1463,-1,1463,1457,1458,-1,1463,1458,1464,-1,1464,1458,1459,-1,1464,1459,1465,-1,1465,1459,1460,-1,1465,1460,1466,-1,1466,1460,1461,-1,1466,1461,123,-1,123,1461,124,-1,123,119,1466,-1,1466,119,1388,-1,1466,1388,1465,-1,1465,1388,1390,-1,1465,1390,1464,-1,1464,1390,1392,-1,1464,1392,1463,-1,1463,1392,1394,-1,1463,1394,1462,-1,1462,1394,1396,-1,1462,1396,325,-1,325,1396,327,-1,1307,331,1396,-1,1396,331,329,-1,1396,329,327,-1,335,333,1467,-1,1467,333,1307,-1,1467,1307,1468,-1,1468,1307,1395,-1,1468,1395,1469,-1,1469,1395,1393,-1,1469,1393,1470,-1,1470,1393,1391,-1,1470,1391,1471,-1,1471,1391,1389,-1,1471,1389,128,-1,128,1389,118,-1,128,127,1471,-1,1471,127,1397,-1,1471,1397,1470,-1,1470,1397,1398,-1,1470,1398,1469,-1,1469,1398,1399,-1,1469,1399,1468,-1,1468,1399,1400,-1,1468,1400,1467,-1,1467,1400,1401,-1,1467,1401,335,-1,335,1401,337,-1,
        ]
    }
}
Shape{
    appearance Appearance {
        material  Material 	{
            diffuseColor 0.6470588235294118 0.6196078431372549 0.5882352941176471
            specularColor 0.45098039215686275 0.43529411764705883 0.4117647058823529
            ambientIntensity 0.6242
            transparency 0.0
            shininess 0.5
        }
    }
    geometry IndexedFaceSet {
        ccw TRUE
        solid FALSE
        coord DEF co Coordinate {
            point [
                -0.1575 0.0945 1.2838, -0.1575 0.0945 1.0748, -0.1575 -0.1024 1.3115, -0.1575 -0.1024 1.0748, 0.1575 -0.1024 1.3115, 0.1575 -0.1024 1.0748, 0.1575 0.0945 1.2838, 0.1575 0.0945 1.0748, -0.2894 0.0945 0.1319, -0.2894 0.0945 1.0748, 0.1575 0.0945 0.0, 0.2894 0.0945 0.1319, 0.2894 0.0945 1.0748, 0.0591 0.0945 -1.9685, -0.0591 0.0945 -1.9685, 0.1575 0.0945 -1.6012, -0.1575 0.0945 -1.6012, -0.1575 0.0945 0.0, 0.2894 -0.1024 1.0748, 0.2894 -0.1024 0.1319, 0.1575 -0.1024 0.0, -0.2894 -0.1024 1.0748, -0.2894 -0.1024 0.1319, -0.1575 -0.1024 0.0, 0.1575 -0.1024 -1.6012, -0.1575 -0.1024 -1.6012, 0.0591 -0.1024 -1.9685, -0.0591 -0.1024 -1.9685, 0.8425 0.0945 1.2838, 0.8425 0.0945 1.0748, 0.8425 -0.1024 1.3115, 0.8425 -0.1024 1.0748, 1.1575 -0.1024 1.3115, 1.1575 -0.1024 1.0748, 1.1575 0.0945 1.2838, 1.1575 0.0945 1.0748, 0.7106 0.0945 0.1319, 0.7106 0.0945 1.0748, 1.1575 0.0945 0.0, 1.2894 0.0945 0.1319, 1.2894 0.0945 1.0748, 1.0591 0.0945 -1.9685, 0.9409 0.0945 -1.9685, 1.1575 0.0945 -1.6012, 0.8425 0.0945 -1.6012, 0.8425 0.0945 0.0, 1.2894 -0.1024 1.0748, 1.2894 -0.1024 0.1319, 1.1575 -0.1024 0.0, 0.7106 -0.1024 1.0748, 0.7106 -0.1024 0.1319, 0.8425 -0.1024 0.0, 1.1575 -0.1024 -1.6012, 0.8425 -0.1024 -1.6012, 1.0591 -0.1024 -1.9685, 0.9409 -0.1024 -1.9685
            ]
        }
        coordIndex [
            0,1,2,-1,2,1,3,-1,4,5,6,-1,6,5,7,-1,0,6,1,-1,1,6,7,-1,8,9,10,-1,10,9,1,-1,10,1,11,-1,11,1,7,-1,11,7,12,-1,13,14,15,-1,15,14,16,-1,15,16,10,-1,10,16,17,-1,10,17,8,-1,4,2,5,-1,5,2,3,-1,18,5,19,-1,19,5,3,-1,19,3,20,-1,20,3,21,-1,21,22,20,-1,20,22,23,-1,20,23,24,-1,24,23,25,-1,24,25,26,-1,26,25,27,-1,12,7,18,-1,18,7,5,-1,11,12,19,-1,19,12,18,-1,10,11,20,-1,20,11,19,-1,15,10,24,-1,24,10,20,-1,26,27,13,-1,13,27,14,-1,25,23,16,-1,16,23,17,-1,8,17,22,-1,22,17,23,-1,9,8,21,-1,21,8,22,-1,1,9,3,-1,3,9,21,-1,24,26,15,-1,15,26,13,-1,27,25,14,-1,14,25,16,-1,28,29,30,-1,30,29,31,-1,32,33,34,-1,34,33,35,-1,28,34,29,-1,29,34,35,-1,36,37,38,-1,38,37,29,-1,38,29,39,-1,39,29,35,-1,39,35,40,-1,41,42,43,-1,43,42,44,-1,43,44,38,-1,38,44,45,-1,38,45,36,-1,32,30,33,-1,33,30,31,-1,46,33,47,-1,47,33,31,-1,47,31,48,-1,48,31,49,-1,49,50,48,-1,48,50,51,-1,48,51,52,-1,52,51,53,-1,52,53,54,-1,54,53,55,-1,40,35,46,-1,46,35,33,-1,39,40,47,-1,47,40,46,-1,38,39,48,-1,48,39,47,-1,43,38,52,-1,52,38,48,-1,54,55,41,-1,41,55,42,-1,53,51,44,-1,44,51,45,-1,36,45,50,-1,50,45,51,-1,37,36,49,-1,49,36,50,-1,29,37,31,-1,31,37,49,-1,52,54,43,-1,43,54,41,-1,55,53,42,-1,42,53,44,-1,
        ]
    }
}
Shape{
    appearance Appearance {
        material  Material 	{
            diffuseColor 1.0 1.0 1.0
            specularColor 0.8784313725490196 0.8784313725490196 0.8784313725490196
            ambientIntensity 1.0
            transparency 0.0
            shininess 0.5
        }
    }
    geometry IndexedFaceSet {
        ccw TRUE
        solid FALSE
        coord DEF co Coordinate {
            point [
                -0.3212 0.6489 1.2756, -0.398 0.4521 1.2756, -0.3212 0.6489 1.2717, -0.398 0.4521 1.2717, -0.3692 0.4521 1.2756, -0.3692 0.4521 1.2717, -0.3493 0.5073 1.2756, -0.3493 0.5073 1.2717, -0.268 0.5073 1.2756, -0.268 0.5073 1.2717, -0.2492 0.4521 1.2756, -0.2492 0.4521 1.2717, -0.2204 0.4521 1.2756, -0.2204 0.4521 1.2717, -0.2948 0.6489 1.2756, -0.2948 0.6489 1.2717, -0.2746 0.5289 1.2756, -0.304 0.6111 1.2756, -0.3059 0.618 1.2756, -0.3071 0.6249 1.2756, -0.3078 0.6249 1.2756, -0.3091 0.618 1.2756, -0.3108 0.6111 1.2756, -0.3404 0.5289 1.2756, -0.2746 0.5289 1.2717, -0.3404 0.5289 1.2717, -0.304 0.6111 1.2717, -0.3059 0.618 1.2717, -0.3071 0.6249 1.2717, -0.3078 0.6249 1.2717, -0.3091 0.618 1.2717, -0.3108 0.6111 1.2717, -0.1011 0.4521 1.2756, -0.0475 0.4521 1.2756, -0.1011 0.4521 1.2717, -0.0475 0.4521 1.2717, -0.0475 0.6489 1.2756, -0.0475 0.6489 1.2717, -0.1031 0.6489 1.2756, -0.1031 0.6489 1.2717, -0.206 0.553 1.2756, -0.206 0.553 1.2717, -0.2045 0.5715 1.2717, -0.2045 0.5715 1.2756, -0.1992 0.5909 1.2717, -0.1992 0.5909 1.2756, -0.1901 0.6078 1.2717, -0.1901 0.6078 1.2756, -0.1762 0.6233 1.2717, -0.1762 0.6233 1.2756, -0.176 0.6234 1.2717, -0.176 0.6234 1.2756, -0.1545 0.6378 1.2717, -0.1545 0.6378 1.2756, -0.1315 0.6459 1.2717, -0.1315 0.6459 1.2756, -0.1254 0.4542 1.2717, -0.1254 0.4542 1.2756, -0.1481 0.461 1.2717, -0.1481 0.461 1.2756, -0.1686 0.4729 1.2717, -0.1686 0.4729 1.2756, -0.1848 0.4884 1.2717, -0.1848 0.4884 1.2756, -0.1961 0.506 1.2717, -0.1961 0.506 1.2756, -0.2032 0.5266 1.2717, -0.2032 0.5266 1.2756, -0.1665 0.5997 1.2756, -0.1569 0.6099 1.2756, -0.1425 0.6192 1.2756, -0.1263 0.6249 1.2756, -0.103 0.6273 1.2756, -0.0739 0.6273 1.2756, -0.0739 0.4737 1.2756, -0.1019 0.4737 1.2756, -0.1226 0.4756 1.2756, -0.1392 0.4808 1.2756, -0.1526 0.4888 1.2756, -0.1637 0.4997 1.2756, -0.172 0.5132 1.2756, -0.1778 0.5317 1.2756, -0.1796 0.5524 1.2756, -0.1779 0.572 1.2756, -0.1733 0.5876 1.2756, -0.103 0.6273 1.2717, -0.0739 0.6273 1.2717, -0.1263 0.6249 1.2717, -0.1425 0.6192 1.2717, -0.1569 0.6099 1.2717, -0.1665 0.5997 1.2717, -0.1733 0.5876 1.2717, -0.1779 0.572 1.2717, -0.1796 0.5524 1.2717, -0.1778 0.5317 1.2717, -0.172 0.5132 1.2717, -0.1637 0.4997 1.2717, -0.1526 0.4888 1.2717, -0.1392 0.4808 1.2717, -0.1226 0.4756 1.2717, -0.1019 0.4737 1.2717, -0.0739 0.4737 1.2717, -0.0091 0.4737 1.2756, -0.0091 0.4521 1.2756, -0.0091 0.4737 1.2717, -0.0091 0.4521 1.2717, 0.0965 0.4521 1.2756, 0.0965 0.4521 1.2717, 0.0965 0.6489 1.2756, 0.0965 0.6489 1.2717, -0.0043 0.6489 1.2756, -0.0043 0.6489 1.2717, -0.0043 0.6273 1.2756, -0.0043 0.6273 1.2717, 0.0701 0.6273 1.2756, 0.0701 0.6273 1.2717, 0.0701 0.5625 1.2756, 0.0701 0.5625 1.2717, 0.0005 0.5625 1.2756, 0.0005 0.5625 1.2717, 0.0005 0.5409 1.2756, 0.0005 0.5409 1.2717, 0.0701 0.5409 1.2756, 0.0701 0.5409 1.2717, 0.0701 0.4737 1.2756, 0.0701 0.4737 1.2717, 0.1349 0.4839 1.2756, 0.1349 0.4623 1.2756, 0.1349 0.4839 1.2717, 0.1349 0.4623 1.2717, 0.1891 0.4497 1.2756, 0.1891 0.4497 1.2717, 0.1837 0.4498 1.2717, 0.1837 0.4498 1.2756, 0.1559 0.4537 1.2717, 0.1559 0.4537 1.2756, 0.2814 0.5468 1.2756, 0.2814 0.5468 1.2717, 0.2795 0.524 1.2717, 0.2795 0.524 1.2756, 0.2735 0.5032 1.2717, 0.2735 0.5032 1.2756, 0.263 0.4844 1.2717, 0.263 0.4844 1.2756, 0.2483 0.4689 1.2717, 0.2483 0.4689 1.2756, 0.2324 0.4588 1.2717, 0.2324 0.4588 1.2756, 0.2133 0.4522 1.2717, 0.2133 0.4522 1.2756, 0.1812 0.6513 1.2756, 0.1812 0.6513 1.2717, 0.201 0.6497 1.2756, 0.1959 0.6501 1.2717, 0.201 0.6497 1.2717, 0.223 0.6433 1.2717, 0.223 0.6433 1.2756, 0.2417 0.6326 1.2717, 0.2417 0.6326 1.2756, 0.2594 0.6155 1.2717, 0.2594 0.6155 1.2756, 0.271 0.5971 1.2717, 0.271 0.5971 1.2756, 0.2785 0.5748 1.2717, 0.2785 0.5748 1.2756, 0.1639 0.6501 1.2717, 0.1577 0.6497 1.2756, 0.1577 0.6497 1.2717, 0.1349 0.6435 1.2756, 0.1349 0.6435 1.2717, 0.1349 0.6171 1.2756, 0.1349 0.6171 1.2717, 0.181 0.6297 1.2756, 0.181 0.6297 1.2717, 0.1571 0.6266 1.2717, 0.1571 0.6266 1.2756, 0.255 0.5484 1.2756, 0.255 0.5484 1.2717, 0.254 0.5637 1.2717, 0.254 0.5637 1.2756, 0.2488 0.5848 1.2717, 0.2488 0.5848 1.2756, 0.2407 0.6 1.2717, 0.2407 0.6 1.2756, 0.2288 0.6131 1.2717, 0.2288 0.6131 1.2756, 0.2151 0.6222 1.2717, 0.2151 0.6222 1.2756, 0.2004 0.6276 1.2717, 0.2004 0.6276 1.2756, 0.1854 0.4713 1.2756, 0.1854 0.4713 1.2717, 0.2038 0.4733 1.2717, 0.2038 0.4733 1.2756, 0.2182 0.4786 1.2717, 0.2182 0.4786 1.2756, 0.2302 0.4868 1.2717, 0.2302 0.4868 1.2756, 0.2395 0.4965 1.2717, 0.2395 0.4965 1.2756, 0.2476 0.5102 1.2717, 0.2476 0.5102 1.2756, 0.253 0.5271 1.2717, 0.253 0.5271 1.2756, 0.1384 0.4819 1.2717, 0.1384 0.4819 1.2756, 0.1593 0.4742 1.2717, 0.1593 0.4742 1.2756, 0.2982 0.4737 1.2756, 0.2982 0.4521 1.2756, 0.2982 0.4737 1.2717, 0.2982 0.4521 1.2717, 0.399 0.4521 1.2756, 0.399 0.4521 1.2717, 0.399 0.6489 1.2756, 0.399 0.6489 1.2717, 0.3726 0.6489 1.2756, 0.3726 0.6489 1.2717, 0.3726 0.4737 1.2756, 0.3726 0.4737 1.2717
            ]
        }
        coordIndex [
            0,1,2,-1,2,1,3,-1,1,4,3,-1,3,4,5,-1,4,6,5,-1,5,6,7,-1,6,8,7,-1,7,8,9,-1,8,10,9,-1,9,10,11,-1,10,12,11,-1,11,12,13,-1,12,14,13,-1,13,14,15,-1,14,0,15,-1,15,0,2,-1,16,17,14,-1,12,10,8,-1,17,18,14,-1,14,18,19,-1,14,19,0,-1,0,19,20,-1,0,20,21,-1,21,22,0,-1,0,22,23,-1,0,23,1,-1,4,1,6,-1,6,1,23,-1,6,23,8,-1,8,23,16,-1,8,16,12,-1,12,16,14,-1,16,23,24,-1,24,23,25,-1,17,16,26,-1,26,16,24,-1,17,26,27,-1,17,27,18,-1,18,27,28,-1,18,28,19,-1,20,19,29,-1,29,19,28,-1,20,29,30,-1,20,30,21,-1,21,30,31,-1,21,31,22,-1,23,22,25,-1,25,22,31,-1,32,33,34,-1,34,33,35,-1,33,36,35,-1,35,36,37,-1,36,38,37,-1,37,38,39,-1,40,41,42,-1,40,42,43,-1,43,42,44,-1,43,44,45,-1,45,44,46,-1,45,46,47,-1,47,46,48,-1,47,48,49,-1,49,48,50,-1,49,50,51,-1,51,50,52,-1,51,52,53,-1,53,52,54,-1,53,54,55,-1,55,54,39,-1,55,39,38,-1,32,34,56,-1,32,56,57,-1,57,56,58,-1,57,58,59,-1,59,58,60,-1,59,60,61,-1,61,60,62,-1,61,62,63,-1,63,62,64,-1,63,64,65,-1,65,64,66,-1,65,66,67,-1,67,66,41,-1,67,41,40,-1,45,47,68,-1,68,47,49,-1,68,49,69,-1,69,49,51,-1,69,51,70,-1,70,51,53,-1,70,53,71,-1,71,53,55,-1,71,55,72,-1,72,55,38,-1,72,38,73,-1,73,38,36,-1,73,36,74,-1,74,36,33,-1,74,33,75,-1,75,33,32,-1,75,32,76,-1,76,32,57,-1,76,57,77,-1,77,57,59,-1,77,59,78,-1,78,59,61,-1,78,61,79,-1,79,61,63,-1,79,63,80,-1,80,63,65,-1,80,65,81,-1,81,65,67,-1,81,67,82,-1,82,67,40,-1,82,40,83,-1,83,40,43,-1,83,43,84,-1,84,43,45,-1,84,45,68,-1,72,73,85,-1,85,73,86,-1,72,85,87,-1,72,87,71,-1,71,87,88,-1,71,88,70,-1,70,88,89,-1,70,89,69,-1,69,89,90,-1,69,90,68,-1,68,90,91,-1,68,91,84,-1,84,91,92,-1,84,92,83,-1,83,92,93,-1,83,93,82,-1,82,93,94,-1,82,94,81,-1,81,94,95,-1,81,95,80,-1,80,95,96,-1,80,96,79,-1,79,96,97,-1,79,97,78,-1,78,97,98,-1,78,98,77,-1,77,98,99,-1,77,99,76,-1,76,99,100,-1,76,100,75,-1,74,75,101,-1,101,75,100,-1,73,74,86,-1,86,74,101,-1,102,103,104,-1,104,103,105,-1,103,106,105,-1,105,106,107,-1,106,108,107,-1,107,108,109,-1,108,110,109,-1,109,110,111,-1,110,112,111,-1,111,112,113,-1,112,114,113,-1,113,114,115,-1,114,116,115,-1,115,116,117,-1,116,118,117,-1,117,118,119,-1,118,120,119,-1,119,120,121,-1,120,122,121,-1,121,122,123,-1,122,124,123,-1,123,124,125,-1,124,102,125,-1,125,102,104,-1,106,103,102,-1,102,124,106,-1,106,124,122,-1,106,122,108,-1,112,110,114,-1,114,110,108,-1,114,108,116,-1,116,108,122,-1,116,122,118,-1,118,122,120,-1,126,127,128,-1,128,127,129,-1,130,131,132,-1,130,132,133,-1,133,132,134,-1,133,134,135,-1,135,134,129,-1,135,129,127,-1,136,137,138,-1,136,138,139,-1,139,138,140,-1,139,140,141,-1,141,140,142,-1,141,142,143,-1,143,142,144,-1,143,144,145,-1,145,144,146,-1,145,146,147,-1,147,146,148,-1,147,148,149,-1,149,148,131,-1,149,131,130,-1,150,151,152,-1,152,151,153,-1,153,154,152,-1,152,154,155,-1,152,155,156,-1,156,155,157,-1,156,157,158,-1,158,157,159,-1,158,159,160,-1,160,159,161,-1,160,161,162,-1,162,161,163,-1,162,163,164,-1,164,163,137,-1,164,137,136,-1,151,150,165,-1,165,150,166,-1,165,166,167,-1,167,166,168,-1,167,168,169,-1,168,170,169,-1,169,170,171,-1,172,173,174,-1,172,174,175,-1,175,174,171,-1,175,171,170,-1,176,177,178,-1,176,178,179,-1,179,178,180,-1,179,180,181,-1,181,180,182,-1,181,182,183,-1,183,182,184,-1,183,184,185,-1,185,184,186,-1,185,186,187,-1,187,186,188,-1,187,188,189,-1,189,188,173,-1,189,173,172,-1,190,191,192,-1,190,192,193,-1,193,192,194,-1,193,194,195,-1,195,194,196,-1,195,196,197,-1,197,196,198,-1,197,198,199,-1,199,198,200,-1,199,200,201,-1,201,200,202,-1,201,202,203,-1,203,202,177,-1,203,177,176,-1,126,128,204,-1,126,204,205,-1,205,204,206,-1,205,206,207,-1,207,206,191,-1,207,191,190,-1,193,130,190,-1,190,130,133,-1,190,133,207,-1,207,133,135,-1,207,135,205,-1,205,135,127,-1,205,127,126,-1,170,168,175,-1,175,168,166,-1,175,166,172,-1,172,166,150,-1,172,150,189,-1,189,150,152,-1,189,152,187,-1,187,152,156,-1,187,156,185,-1,185,156,158,-1,185,158,183,-1,183,158,160,-1,183,160,181,-1,181,160,162,-1,181,162,179,-1,179,162,164,-1,179,164,176,-1,176,164,136,-1,176,136,203,-1,203,136,139,-1,203,139,201,-1,201,139,141,-1,201,141,199,-1,199,141,143,-1,199,143,197,-1,197,143,145,-1,197,145,195,-1,195,145,147,-1,195,147,193,-1,193,147,149,-1,193,149,130,-1,208,209,210,-1,210,209,211,-1,209,212,211,-1,211,212,213,-1,212,214,213,-1,213,214,215,-1,214,216,215,-1,215,216,217,-1,216,218,217,-1,217,218,219,-1,218,208,219,-1,219,208,210,-1,216,214,218,-1,218,214,212,-1,218,212,208,-1,208,212,209,-1,
        ]
    }
}
Shape{
    appearance Appearance {
        material  Material 	{
            diffuseColor 0.2235294117647059 0.2235294117647059 0.2235294117647059
            specularColor 0.11372549019607843 0.11372549019607843 0.11372549019607843
            ambientIntensity 0.2235
            transparency 0.0
            shininess 0.5
        }
    }
    geometry IndexedFaceSet {
        ccw TRUE
        solid FALSE
        coord DEF co Coordinate {
            point [
                -0.2746 0.5289 1.2717, -0.3404 0.5289 1.2717, -0.304 0.6111 1.2717, -0.3108 0.6111 1.2717, -0.3059 0.618 1.2717, -0.3091 0.618 1.2717, -0.3071 0.6249 1.2717, -0.3078 0.6249 1.2717, -0.0739 0.6273 1.2717, -0.0739 0.4737 1.2717, -0.103 0.6273 1.2717, -0.1019 0.4737 1.2717, -0.1226 0.4756 1.2717, -0.1796 0.5524 1.2717, -0.1779 0.572 1.2717, -0.1733 0.5876 1.2717, -0.1263 0.6249 1.2717, -0.1392 0.4808 1.2717, -0.1526 0.4888 1.2717, -0.1637 0.4997 1.2717, -0.172 0.5132 1.2717, -0.1778 0.5317 1.2717, -0.1665 0.5997 1.2717, -0.1569 0.6099 1.2717, -0.1425 0.6192 1.2717
            ]
        }
        coordIndex [
            0,1,2,-1,2,1,3,-1,2,3,4,-1,4,3,5,-1,4,5,6,-1,6,5,7,-1,8,9,10,-1,10,9,11,-1,10,11,12,-1,13,14,10,-1,10,14,15,-1,10,15,16,-1,12,17,10,-1,10,17,18,-1,10,18,19,-1,19,20,10,-1,10,20,21,-1,10,21,13,-1,22,23,15,-1,15,23,24,-1,15,24,16,-1,
        ]
    }
}
Shape{
    appearance Appearance {
        material  Material 	{
            diffuseColor 1.0 1.0 1.0
            specularColor 0.8784313725490196 0.8784313725490196 0.8784313725490196
            ambientIntensity 1.0
            transparency 0.0
            shininess 0.5
        }
    }
    geometry IndexedFaceSet {
        ccw TRUE
        solid FALSE
        coord DEF co Coordinate {
            point [
                -0.996 -0.6653 1.7136, -0.996 -0.6693 1.7136, -0.9503 -0.6653 1.7196, -0.9503 -0.6693 1.7196, -0.9078 -0.6653 1.7373, -0.9078 -0.6693 1.7373, -0.8712 -0.6653 1.7653, -0.8712 -0.6693 1.7653, -0.8431 -0.6653 1.8019, -0.8431 -0.6693 1.8019, -0.8255 -0.6653 1.8445, -0.8255 -0.6693 1.8445, -0.8195 -0.6653 1.8902, -0.8195 -0.6693 1.8902, -0.8255 -0.6653 1.9359, -0.8255 -0.6693 1.9359, -0.8431 -0.6653 1.9784, -0.8431 -0.6693 1.9784, -0.8712 -0.6653 2.015, -0.8712 -0.6693 2.015, -0.9078 -0.6653 2.043, -0.9078 -0.6693 2.043, -0.9503 -0.6653 2.0607, -0.9503 -0.6693 2.0607, -0.996 -0.6653 2.0667, -0.996 -0.6693 2.0667, -1.0417 -0.6653 2.0607, -1.0417 -0.6693 2.0607, -1.0843 -0.6653 2.043, -1.0843 -0.6693 2.043, -1.1209 -0.6653 2.015, -1.1209 -0.6693 2.015, -1.1489 -0.6653 1.9784, -1.1489 -0.6693 1.9784, -1.1665 -0.6653 1.9359, -1.1665 -0.6693 1.9359, -1.1726 -0.6653 1.8902, -1.1726 -0.6693 1.8902, -1.1665 -0.6653 1.8445, -1.1665 -0.6693 1.8445, -1.1489 -0.6653 1.8019, -1.1489 -0.6693 1.8019, -1.1209 -0.6653 1.7653, -1.1209 -0.6693 1.7653, -1.0843 -0.6653 1.7373, -1.0843 -0.6693 1.7373, -1.0417 -0.6653 1.7196, -1.0417 -0.6693 1.7196, -0.996 -0.6653 1.8902
            ]
        }
        coordIndex [
            0,1,2,-1,2,1,3,-1,2,3,4,-1,4,3,5,-1,4,5,6,-1,6,5,7,-1,6,7,8,-1,8,7,9,-1,8,9,10,-1,10,9,11,-1,10,11,12,-1,12,11,13,-1,12,13,14,-1,14,13,15,-1,14,15,16,-1,16,15,17,-1,16,17,18,-1,18,17,19,-1,18,19,20,-1,20,19,21,-1,20,21,22,-1,22,21,23,-1,22,23,24,-1,24,23,25,-1,24,25,26,-1,26,25,27,-1,26,27,28,-1,28,27,29,-1,28,29,30,-1,30,29,31,-1,30,31,32,-1,32,31,33,-1,32,33,34,-1,34,33,35,-1,34,35,36,-1,36,35,37,-1,36,37,38,-1,38,37,39,-1,38,39,40,-1,40,39,41,-1,40,41,42,-1,42,41,43,-1,42,43,44,-1,44,43,45,-1,44,45,46,-1,46,45,47,-1,46,47,0,-1,0,47,1,-1,44,46,48,-1,48,46,0,-1,48,0,2,-1,38,40,48,-1,48,40,42,-1,48,42,44,-1,32,34,48,-1,48,34,36,-1,48,36,38,-1,26,28,48,-1,48,28,30,-1,48,30,32,-1,20,22,48,-1,48,22,24,-1,48,24,26,-1,14,16,48,-1,48,16,18,-1,48,18,20,-1,8,10,48,-1,48,10,12,-1,48,12,14,-1,2,4,48,-1,48,4,6,-1,48,6,8,-1,
        ]
    }
}