#VRML V2.0 utf8
# 3D model generated by easyeda2kicad.py (https://github.com/uPesy/easyeda2kicad.py)

Shape{
    appearance Appearance {
        material  Material 	{
            diffuseColor 0.7686274509803922 0.7686274509803922 0.7686274509803922
            specularColor 0.615686274509804 0.615686274509804 0.615686274509804
            ambientIntensity 0.7686
            transparency 0.0
            shininess 0.5
        }
    }
    geometry IndexedFaceSet {
        ccw TRUE
        solid FALSE
        coord DEF co Coordinate {
            point [
                0.139 -0.8349 0.5709, 0.139 -0.8349 0.374, 0.139 -0.52 0.5709, 0.139 -0.52 0.374, -0.1366 -0.8349 0.5709, -0.1366 -0.52 0.5709, -0.1366 -0.8349 0.374, -0.1366 -0.52 0.374
            ]
        }
        coordIndex [
            0,1,2,-1,2,1,3,-1,4,0,5,-1,5,0,2,-1,6,4,7,-1,7,4,5,-1,1,6,3,-1,3,6,7,-1,4,6,0,-1,0,6,1,-1,7,5,3,-1,3,5,2,-1,
        ]
    }
}
Shape{
    appearance Appearance {
        material  Material 	{
            diffuseColor 0.25098039215686274 0.25098039215686274 0.25098039215686274
            specularColor 0.07450980392156863 0.07450980392156863 0.07450980392156863
            ambientIntensity 0.251
            transparency 0.0
            shininess 0.5
        }
    }
    geometry IndexedFaceSet {
        ccw TRUE
        solid FALSE
        coord DEF co Coordinate {
            point [
                1.261 -0.5003 0.9055, 1.261 -0.0482 0.9055, 0.6755 -0.0482 0.9055, -0.0718 0.7282 0.9055, -0.0718 1.7844 0.9055, -0.3156 1.7844 0.9055, 1.261 0.7282 0.9055, 1.261 1.7844 0.9055, 0.6755 1.7844 0.9055, 0.7707 0.7151 0.9055, 0.7726 0.7153 0.9055, 0.6755 0.7153 0.9055, 0.0988 0.4547 0.9055, 0.0998 0.4563 0.9055, -0.0036 0.4563 0.9055, -0.6592 0.6878 0.9055, -0.7659 0.6878 0.9055, -0.7659 0.4563 0.9055, -0.6592 0.7239 0.9055, -0.6592 0.7153 0.9055, -0.6488 0.7153 0.9055, -0.6488 0.4563 0.9055, -0.7659 0.4089 0.9055, -0.8072 0.4563 0.9055, -0.8072 0.6878 0.9055, -1.0863 0.4563 0.9055, -0.9139 0.6878 0.9055, -1.0863 0.7153 0.9055, -0.9139 0.7153 0.9055, -1.0863 0.7282 0.9055, -0.9139 0.7239 0.9055, -0.6488 0.7282 0.9055, -0.3156 0.7153 0.9055, -0.4093 0.7153 0.9055, -0.3977 0.7097 0.9055, -0.3156 0.4563 0.9055, -0.3304 0.5656 0.9055, -0.3342 0.528 0.9055, -0.3717 0.6878 0.9055, -0.3543 0.6607 0.9055, -0.3375 0.618 0.9055, -0.4262 0.7235 0.9055, -0.3156 0.7282 0.9055, -0.4485 0.7282 0.9055, -0.5611 0.7153 0.9055, -0.5598 0.7162 0.9055, -0.4653 0.7317 0.9055, -0.4835 0.7325 0.9055, -0.6488 1.7844 0.9055, -0.5219 0.7282 0.9055, -0.5289 0.7274 0.9055, -0.6294 0.6262 0.9055, -0.6131 0.664 0.9055, -0.5868 0.6981 0.9055, -0.605 0.4563 0.9055, -0.6134 0.4694 0.9055, -0.6313 0.514 0.9055, -0.6384 0.5656 0.9055, -0.638 0.5753 0.9055, -0.8072 0.4089 0.9055, -1.0863 -0.0482 0.9055, -0.6488 -0.0482 0.9055, -0.6023 0.452 0.9055, -0.3829 0.4362 0.9055, -0.4075 0.4201 0.9055, -0.3156 -0.0482 0.9055, -0.3474 0.485 0.9055, -0.3652 0.4563 0.9055, -0.3699 0.4485 0.9055, -0.5189 0.4066 0.9055, -0.5556 0.4174 0.9055, -0.5792 0.4307 0.9055, -0.4389 0.4087 0.9055, -0.4835 0.4038 0.9055, -0.4937 0.404 0.9055, -0.2907 0.6403 0.9055, -0.2815 0.6671 0.9055, -0.294 0.6069 0.9055, -0.2986 0.4345 0.9055, -0.2927 0.4563 0.9055, -0.2907 0.4639 0.9055, -0.2472 0.6478 0.9055, -0.2521 0.6307 0.9055, -0.1958 0.6825 0.9055, -0.2544 0.6069 0.9055, -0.1925 0.6826 0.9055, -0.2767 0.4899 0.9055, -0.2567 0.5119 0.9055, -0.2286 0.5311 0.9055, -0.1873 0.5552 0.9055, -0.1639 0.5702 0.9055, -0.2665 0.6895 0.9055, -0.2584 0.6971 0.9055, -0.2422 0.7074 0.9055, -0.1426 0.5879 0.9055, -0.1396 0.5928 0.9055, -0.1334 0.6068 0.9055, -0.1305 0.6275 0.9055, -0.1305 0.6278 0.9055, -0.1336 0.645 0.9055, -0.15 0.6699 0.9055, -0.1604 0.6761 0.9055, -0.1743 0.6805 0.9055, -0.2125 0.6801 0.9055, -0.2235 0.6757 0.9055, -0.2408 0.66 0.9055, -0.2328 0.6692 0.9055, -0.1382 0.6561 0.9055, -0.1455 0.6658 0.9055, -0.2579 0.4451 0.9055, -0.0892 0.4451 0.9055, -0.0718 0.4563 0.9055, -0.0892 0.4089 0.9055, -0.0912 0.6023 0.9055, -0.0977 0.5848 0.9055, -0.1102 0.6864 0.9055, -0.0718 0.7153 0.9055, -0.1237 0.6991 0.9055, -0.1403 0.7086 0.9055, -0.1092 0.5674 0.9055, -0.1343 0.5446 0.9055, -0.1736 0.5225 0.9055, -0.1003 0.6711 0.9055, -0.093 0.6512 0.9055, -0.0892 0.6258 0.9055, -0.2063 0.5036 0.9055, -0.2296 0.4882 0.9055, -0.2457 0.4721 0.9055, -0.2537 0.459 0.9055, -0.2545 0.4563 0.9055, -0.1873 0.7187 0.9055, -0.2187 0.7153 0.9055, -0.2207 0.7151 0.9055, -0.1631 0.7153 0.9055, -0.1674 0.7165 0.9055, -0.0417 0.4447 0.9055, -0.0467 0.4563 0.9055, -0.0497 0.4631 0.9055, -0.0544 0.4864 0.9055, -0.02 0.7119 0.9055, 0.1401 0.7119 0.9055, 0.1738 0.7153 0.9055, -0.0148 0.4864 0.9055, -0.0097 0.5432 0.9055, -0.0424 0.5449 0.9055, 0.1181 0.5888 0.9055, 0.1344 0.5745 0.9055, 0.1401 0.674 0.9055, -0.0135 0.4787 0.9055, 0.0675 0.5698 0.9055, 0.0489 0.5724 0.9055, 0.033 0.5709 0.9055, 0.1582 0.4941 0.9055, 0.1533 0.4708 0.9055, 0.1738 0.4563 0.9055, 0.017 0.5655 0.9055, 0.0034 0.5569 0.9055, 0.0093 0.674 0.9055, -0.0028 0.5897 0.9055, 0.0099 0.5976 0.9055, 0.116 0.5036 0.9055, 0.1142 0.5187 0.9055, 0.1088 0.5365 0.9055, 0.1021 0.5482 0.9055, -0.0083 0.4635 0.9055, 0.1064 0.4662 0.9055, 0.1125 0.4824 0.9055, 0.0986 0.5991 0.9055, 0.0929 0.5577 0.9055, 0.0817 0.5647 0.9055, 0.1459 0.5578 0.9055, 0.1544 0.5362 0.9055, 0.159 0.5088 0.9055, 0.0303 0.6055 0.9055, 0.0557 0.6086 0.9055, 0.0666 0.6073 0.9055, 0.0597 0.434 0.9055, 0.0523 0.433 0.9055, 0.0333 0.4346 0.9055, 0.019 0.4386 0.9055, -0.0016 0.4532 0.9055, 0.0068 0.4452 0.9055, 0.0772 0.439 0.9055, 0.0892 0.4458 0.9055, 0.1261 0.4295 0.9055, 0.1082 0.4169 0.9055, 0.1738 -0.0482 0.9055, 0.0023 0.4104 0.9055, -0.0173 0.4196 0.9055, -0.0718 -0.0482 0.9055, -0.0316 0.4313 0.9055, 0.1464 0.4563 0.9055, 0.1436 0.4501 0.9055, 0.128 0.4313 0.9055, -0.3009 0.4089 0.9055, 0.0852 0.4082 0.9055, 0.0454 0.4038 0.9055, 0.0332 0.4044 0.9055, 0.1989 0.6403 0.9055, 0.208 0.6671 0.9055, 0.1955 0.6069 0.9055, 0.1909 0.4345 0.9055, 0.1968 0.4563 0.9055, 0.1989 0.4639 0.9055, 0.2423 0.6478 0.9055, 0.2374 0.6307 0.9055, 0.2938 0.6825 0.9055, 0.2351 0.6069 0.9055, 0.2971 0.6826 0.9055, 0.2129 0.4899 0.9055, 0.2329 0.5119 0.9055, 0.2609 0.5311 0.9055, 0.3022 0.5552 0.9055, 0.3257 0.5702 0.9055, 0.2231 0.6895 0.9055, 0.2312 0.6971 0.9055, 0.2473 0.7074 0.9055, 0.347 0.5879 0.9055, 0.35 0.5928 0.9055, 0.3561 0.6068 0.9055, 0.359 0.6275 0.9055, 0.359 0.6278 0.9055, 0.356 0.645 0.9055, 0.3395 0.6699 0.9055, 0.3292 0.6761 0.9055, 0.3153 0.6805 0.9055, 0.277 0.6801 0.9055, 0.266 0.6757 0.9055, 0.2488 0.66 0.9055, 0.2567 0.6692 0.9055, 0.3513 0.6561 0.9055, 0.3441 0.6658 0.9055, 0.2317 0.4451 0.9055, 0.4003 0.4451 0.9055, 0.4195 0.4563 0.9055, 0.4003 0.4089 0.9055, 0.3983 0.6023 0.9055, 0.3919 0.5848 0.9055, 0.3264 0.7153 0.9055, 0.3492 0.7086 0.9055, 0.4195 0.7153 0.9055, 0.3659 0.6991 0.9055, 0.3794 0.6864 0.9055, 0.3803 0.5674 0.9055, 0.3552 0.5446 0.9055, 0.316 0.5225 0.9055, 0.3893 0.6711 0.9055, 0.3966 0.6512 0.9055, 0.4003 0.6258 0.9055, 0.2833 0.5036 0.9055, 0.26 0.4882 0.9055, 0.2438 0.4721 0.9055, 0.2359 0.459 0.9055, 0.235 0.4563 0.9055, 0.2689 0.7151 0.9055, 0.2708 0.7153 0.9055, 0.1738 0.7282 0.9055, 0.3022 0.7187 0.9055, 0.4195 0.7282 0.9055, 0.3222 0.7165 0.9055, 0.6755 0.4563 0.9055, 0.6973 0.6069 0.9055, 0.7441 0.6478 0.9055, 0.7392 0.6307 0.9055, 0.7956 0.6825 0.9055, 0.7369 0.6069 0.9055, 0.7989 0.6826 0.9055, 0.7147 0.4899 0.9055, 0.7007 0.4639 0.9055, 0.6986 0.4563 0.9055, 0.6927 0.4345 0.9055, 0.7007 0.6403 0.9055, 0.7098 0.6671 0.9055, 0.7249 0.6895 0.9055, 0.7347 0.5119 0.9055, 0.7627 0.5311 0.9055, 0.804 0.5552 0.9055, 0.8275 0.5702 0.9055, 0.733 0.6971 0.9055, 0.7491 0.7074 0.9055, 0.8488 0.5879 0.9055, 0.8518 0.5928 0.9055, 0.8579 0.6068 0.9055, 0.8608 0.6275 0.9055, 0.8608 0.6278 0.9055, 0.8578 0.645 0.9055, 0.8413 0.6699 0.9055, 0.831 0.6761 0.9055, 0.8171 0.6805 0.9055, 0.7788 0.6801 0.9055, 0.7678 0.6757 0.9055, 0.7505 0.66 0.9055, 0.7585 0.6692 0.9055, 0.8531 0.6561 0.9055, 0.8459 0.6658 0.9055, 0.6904 0.4089 0.9055, 0.9021 0.4089 0.9055, 0.9021 0.4451 0.9055, 1.261 0.4563 0.9055, 0.8676 0.6991 0.9055, 0.8811 0.6864 0.9055, 1.261 0.7153 0.9055, 0.8911 0.6711 0.9055, 0.8937 0.5848 0.9055, 0.8821 0.5674 0.9055, 0.857 0.5446 0.9055, 0.8178 0.5225 0.9055, 0.8984 0.6512 0.9055, 0.9021 0.6258 0.9055, 0.9001 0.6023 0.9055, 0.7851 0.5036 0.9055, 0.7618 0.4882 0.9055, 0.7456 0.4721 0.9055, 0.7335 0.4451 0.9055, 0.7368 0.4563 0.9055, 0.7377 0.459 0.9055, 0.6755 0.7282 0.9055, 0.804 0.7187 0.9055, 0.824 0.7165 0.9055, 0.8282 0.7153 0.9055, 0.851 0.7086 0.9055, 0.4195 1.7844 0.9055, 0.1738 1.7844 0.9055, -1.0863 1.7844 0.9055, 0.4386 0.5036 0.9055, 0.4386 0.5363 0.9055, 0.6606 0.5036 0.9055, 0.6606 0.5363 0.9055, 0.1886 0.4089 0.9055, 0.4195 -0.0482 0.9055, -1.2587 1.7844 0.9055, -1.2587 0.7282 0.9055, -1.2587 0.7153 0.9055, -1.2587 0.4563 0.9055, -1.2587 -0.0482 0.9055, 0.6755 -0.5003 0.9055, 0.4195 -0.5003 0.9055, 0.1738 -0.5003 0.9055, -0.0718 -0.5003 0.9055, -0.3156 -0.5003 0.9055, -0.6488 -0.5003 0.9055, -1.0863 -0.5003 0.9055, -1.2587 -0.5003 0.9055, -0.7665 -0.5179 0.5709, 1.261 -0.52 0.5906, -1.2587 -0.52 0.5906, -0.7665 -0.4972 0.374, -1.0421 -0.4972 0.374, -1.2587 -0.4579 0.0, -1.0421 -0.5179 0.5709, 1.261 -0.4579 0.0, 0.7689 -0.4972 0.374, 0.7689 -0.5179 0.5709, 1.0445 -0.5179 0.5709, 1.0445 -0.4972 0.374, 1.2807 -0.4381 0.0, 1.2807 1.8619 0.0, 1.2807 -0.5003 0.5916, 1.2807 1.7844 0.8858, 1.2807 -0.5003 0.8858, -0.9831 1.8816 0.0, -1.2587 1.8816 0.0, -0.9831 1.8644 0.1969, -1.2587 1.804 0.8875, 0.9854 1.8644 0.1969, 1.261 1.804 0.8875, 0.9854 1.8816 0.0, 1.261 1.8816 0.0, -1.2784 -0.5003 0.8858, -1.2784 1.7844 0.8858, -1.2784 -0.5003 0.5916, -1.2784 1.8619 0.0, -1.2784 -0.4381 0.0, 1.261 -0.52 0.8858, -1.2587 -0.52 0.8858, -0.9831 1.8029 0.0, -0.7862 1.8029 0.0, -0.7862 1.6848 0.0, 0.7886 1.6848 0.0, 0.7886 1.8029 0.0, 0.9854 1.6848 0.0, 0.9854 1.8029 0.0, 1.2764 1.8742 0.0, 1.2787 1.8704 0.0, 1.2802 1.8663 0.0, -1.2707 1.8775 0.0, -1.2726 1.8758 0.0, -1.2777 1.867 0.0, -1.2757 1.8717 0.0, -0.9567 0.169 0.0, -0.9254 0.1283 0.0, -1.2685 1.879 0.0, -1.2662 1.8801 0.0, -1.2638 1.8809 0.0, 0.9278 0.1283 0.0, 0.959 0.169 0.0, 0.9787 0.2165 0.0, 0.9854 0.2674 0.0, 1.2654 1.8811 0.0, 1.2696 1.8797 0.0, 1.2733 1.8773 0.0, -1.2779 -0.4425 0.0, -0.8847 0.097 0.0, -1.2764 -0.4467 0.0, 0.887 0.097 0.0, 1.2802 -0.4425 0.0, 1.2787 -0.4467 0.0, -0.9831 1.6848 0.0, -0.9831 0.2674 0.0, -0.9764 0.2165 0.0, -1.2612 1.8815 0.0, -1.2672 -0.4559 0.0, -1.2709 -0.4536 0.0, -1.2741 -0.4504 0.0, 0.7886 0.0706 0.0, -0.7862 0.0706 0.0, -0.8372 0.0773 0.0, 1.2764 -0.4504 0.0, 1.2733 -0.4536 0.0, 1.2696 -0.4559 0.0, -1.2631 -0.4574 0.0, 0.8395 0.0773 0.0, 1.2654 -0.4574 0.0, -1.2757 1.7942 0.8867, -1.2726 1.7982 0.887, -1.2777 1.7894 0.8863, -1.2777 1.7895 0.8863, -1.2638 1.8033 0.8875, -1.2685 1.8013 0.8873, -1.2726 1.7983 0.887, -1.2637 1.8033 0.8875, 1.261 1.8036 0.8901, -1.2587 1.8036 0.8901, 1.261 1.8028 0.8922, -1.2587 1.8028 0.8922, 1.261 1.8022 0.8942, -1.2587 1.8022 0.8942, 1.261 1.8007 0.8966, -1.2587 1.8007 0.8966, 1.261 1.7998 0.898, -1.2587 1.7998 0.898, 1.261 1.7976 0.9003, -1.2587 1.7976 0.9003, 1.261 1.7967 0.9012, -1.2587 1.7967 0.9012, 1.261 1.7937 0.9031, -1.2587 1.7937 0.9031, 1.261 1.793 0.9035, -1.2587 1.793 0.9035, 1.261 1.7892 0.9049, -1.2587 1.7892 0.9049, -1.2587 1.7888 0.905, 1.261 1.7888 0.905, 1.2654 1.8035 0.8875, 1.2661 1.8032 0.8875, 1.2696 1.802 0.8874, 1.2708 1.8013 0.8873, 1.2733 1.7997 0.8872, 1.2748 1.7982 0.887, 1.2764 1.7966 0.8869, 1.278 1.7941 0.8867, 1.2787 1.7929 0.8866, 1.28 1.7894 0.8863, 1.2802 1.7887 0.8862, -1.2778 -0.5046 0.5914, -1.2777 -0.5054 0.5913, -1.2763 -0.5088 0.5911, -1.2757 -0.5101 0.5911, -1.2739 -0.5124 0.5909, -1.2726 -0.5142 0.5909, -1.2709 -0.5157 0.5908, -1.2631 -0.5195 0.5906, -1.2637 -0.5192 0.5906, -1.2672 -0.518 0.5907, -1.2685 -0.5172 0.5907, -1.267 1.7866 0.9035, -1.2629 1.7855 0.905, -1.2625 1.7866 0.905, -1.2631 1.7844 0.905, -1.2772 1.7893 0.8901, -1.2753 1.794 0.8901, -1.2723 1.798 0.8901, -1.2683 1.801 0.8901, -1.2636 1.8029 0.8901, -1.2598 1.7886 0.905, -1.2609 1.7882 0.905, -1.2661 1.7887 0.9035, -1.2618 1.7875 0.905, -1.2647 1.7904 0.9035, -1.263 1.7918 0.9035, -1.2609 1.7927 0.9035, -1.271 1.7844 0.9012, -1.2685 1.7844 0.9028, -1.2673 1.7844 0.9035, -1.2637 1.7844 0.9048, -1.2706 1.7876 0.9012, -1.2694 1.7905 0.9012, -1.2674 1.7931 0.9012, -1.2648 1.795 0.9012, -1.2619 1.7963 0.9012, -1.2756 1.7844 0.8956, -1.2741 1.7844 0.898, -1.2736 1.7884 0.898, -1.2725 1.7844 0.8997, -1.2721 1.7921 0.898, -1.2696 1.7953 0.898, -1.2664 1.7977 0.898, -1.2627 1.7993 0.898, -1.2776 1.7844 0.8909, -1.2765 1.7844 0.8942, -1.2759 1.789 0.8942, -1.2741 1.7933 0.8942, -1.2713 1.7969 0.8942, -1.2676 1.7998 0.8942, -1.2633 1.8015 0.8942, -1.2779 1.7844 0.8901, 1.2632 1.7927 0.9035, 1.2622 1.7886 0.905, 1.2632 1.7882 0.905, 1.266 1.8029 0.8901, 1.2706 1.801 0.8901, 1.2746 1.798 0.8901, 1.2777 1.794 0.8901, 1.2796 1.7893 0.8901, 1.2802 1.7844 0.8901, 1.2654 1.7844 0.905, 1.2653 1.7855 0.905, 1.2661 1.7844 0.9048, 1.2648 1.7866 0.905, 1.2653 1.7918 0.9035, 1.2641 1.7875 0.905, 1.2671 1.7904 0.9035, 1.2685 1.7887 0.9035, 1.2693 1.7866 0.9035, 1.2642 1.7963 0.9012, 1.2672 1.795 0.9012, 1.2697 1.7931 0.9012, 1.2717 1.7905 0.9012, 1.2729 1.7876 0.9012, 1.265 1.7993 0.898, 1.2696 1.7844 0.9035, 1.2708 1.7844 0.9028, 1.2733 1.7844 0.9012, 1.2748 1.7844 0.8997, 1.2759 1.7884 0.898, 1.2744 1.7921 0.898, 1.2719 1.7953 0.898, 1.2687 1.7977 0.898, 1.2656 1.8015 0.8942, 1.2699 1.7998 0.8942, 1.2736 1.7969 0.8942, 1.2764 1.7933 0.8942, 1.2782 1.789 0.8942, 1.2765 1.7844 0.898, 1.278 1.7844 0.8956, 1.2788 1.7844 0.8942, 1.28 1.7844 0.8909, 1.2654 -0.5195 0.5906, 1.2661 -0.5192 0.5906, 1.2696 -0.518 0.5907, 1.2708 -0.5172 0.5907, 1.2733 -0.5157 0.5908, 1.2748 -0.5141 0.5909, 1.2764 -0.5125 0.5909, 1.278 -0.5101 0.5911, 1.2787 -0.5088 0.5911, 1.28 -0.5053 0.5913, 1.2802 -0.5046 0.5914, -1.2638 -0.5193 0.8858, -1.2685 -0.5173 0.8858, -1.2726 -0.5142 0.8858, -1.2757 -0.5101 0.8858, -1.2777 -0.5054 0.8858, -1.2638 -0.5003 0.9048, -1.2685 -0.5003 0.9029, -1.2726 -0.5003 0.8997, -1.2757 -0.5003 0.8957, -1.2777 -0.5003 0.8909, 1.2661 -0.5003 0.9048, 1.2709 -0.5003 0.9029, 1.2749 -0.5003 0.8997, 1.2781 -0.5003 0.8957, 1.28 -0.5003 0.8909, 1.28 -0.5054 0.8858, 1.2781 -0.5101 0.8858, 1.2749 -0.5142 0.8858, 1.2709 -0.5173 0.8858, 1.2661 -0.5193 0.8858, -1.2587 -0.5193 0.8909, -1.2636 -0.5186 0.8909, -1.2636 -0.5088 0.9029, -1.2612 -0.5047 0.9048, -1.2623 -0.5039 0.9048, -1.2636 -0.5016 0.9048, -1.26 -0.5052 0.9048, -1.2612 -0.5098 0.9029, -1.2623 -0.5137 0.8997, -1.2587 -0.5054 0.9048, -1.2656 -0.5072 0.9029, -1.2631 -0.5028 0.9048, -1.2672 -0.5052 0.9029, -1.2682 -0.5028 0.9029, -1.2587 -0.5101 0.9029, -1.2587 -0.5142 0.8997, -1.2587 -0.5173 0.8957, -1.2656 -0.5123 0.8997, -1.2685 -0.5101 0.8997, -1.2707 -0.5072 0.8997, -1.2721 -0.5039 0.8997, -1.2631 -0.5167 0.8957, -1.2672 -0.515 0.8957, -1.2707 -0.5123 0.8957, -1.2734 -0.5088 0.8957, -1.2751 -0.5047 0.8957, -1.2682 -0.5167 0.8909, -1.2721 -0.5137 0.8909, -1.2751 -0.5098 0.8909, -1.277 -0.5052 0.8909, 1.2794 -0.5052 0.8909, 1.2695 -0.5052 0.9029, 1.2654 -0.5028 0.9048, 1.2646 -0.5039 0.9048, 1.261 -0.5054 0.9048, 1.2623 -0.5052 0.9048, 1.2659 -0.5016 0.9048, 1.2705 -0.5028 0.9029, 1.2745 -0.5039 0.8997, 1.268 -0.5072 0.9029, 1.2636 -0.5047 0.9048, 1.2659 -0.5088 0.9029, 1.2636 -0.5098 0.9029, 1.261 -0.5101 0.9029, 1.2731 -0.5072 0.8997, 1.2709 -0.5101 0.8997, 1.268 -0.5123 0.8997, 1.2646 -0.5137 0.8997, 1.261 -0.5142 0.8997, 1.2775 -0.5047 0.8957, 1.2758 -0.5088 0.8957, 1.2731 -0.5123 0.8957, 1.2695 -0.515 0.8957, 1.2654 -0.5167 0.8957, 1.261 -0.5173 0.8957, 1.2775 -0.5098 0.8909, 1.2745 -0.5137 0.8909, 1.2705 -0.5167 0.8909, 1.2659 -0.5186 0.8909, 1.261 -0.5193 0.8909, 0.7886 1.8029 0.1969, 0.9854 1.8029 0.1969, -0.9831 1.8029 0.1969, -0.7862 1.8029 0.1969, -0.7862 1.6848 0.1969, 0.7886 1.6848 0.1969, -0.8372 0.0773 0.1969, -0.7862 0.0706 0.1969, 0.9854 1.6848 0.1969, 0.9854 0.2674 0.1969, 0.7886 0.0706 0.1969, 0.9787 0.2165 0.1969, -0.9254 0.1283 0.1969, -0.9567 0.169 0.1969, -0.8847 0.097 0.1969, -0.9831 1.6848 0.1969, -0.9831 0.2674 0.1969, -0.9764 0.2165 0.1969, 0.959 0.169 0.1969, 0.9278 0.1283 0.1969, 0.887 0.097 0.1969, 0.8395 0.0773 0.1969
            ]
        }
        coordIndex [
            0,1,2,-1,3,4,5,-1,6,7,8,-1,9,10,11,-1,12,13,14,-1,15,16,17,-1,18,19,20,-1,20,19,15,-1,20,15,21,-1,21,15,17,-1,21,17,22,-1,23,24,25,-1,25,24,26,-1,25,26,27,-1,27,26,28,-1,27,28,29,-1,30,18,31,-1,32,33,34,-1,35,36,37,-1,34,38,32,-1,32,38,39,-1,32,39,40,-1,33,32,41,-1,41,32,42,-1,41,42,43,-1,18,20,31,-1,31,20,44,-1,31,44,45,-1,46,5,47,-1,47,5,48,-1,47,48,49,-1,49,48,31,-1,49,31,50,-1,50,31,45,-1,51,52,20,-1,20,52,53,-1,20,53,44,-1,21,54,55,-1,55,56,21,-1,21,56,57,-1,21,57,20,-1,20,57,58,-1,20,58,51,-1,23,25,59,-1,59,25,60,-1,59,60,22,-1,22,60,61,-1,22,61,21,-1,21,61,62,-1,21,62,54,-1,63,64,65,-1,37,66,35,-1,35,66,67,-1,35,67,65,-1,65,67,68,-1,65,68,63,-1,69,70,61,-1,61,70,71,-1,61,71,62,-1,64,72,65,-1,65,72,73,-1,65,73,61,-1,61,73,74,-1,61,74,69,-1,75,76,32,-1,75,32,77,-1,78,79,35,-1,35,79,80,-1,81,82,83,-1,83,82,84,-1,83,84,85,-1,40,36,32,-1,32,36,35,-1,32,35,77,-1,77,35,80,-1,77,80,86,-1,86,87,77,-1,77,87,88,-1,77,88,84,-1,84,88,89,-1,84,89,90,-1,76,91,32,-1,32,91,92,-1,32,92,93,-1,90,94,84,-1,84,94,95,-1,84,95,96,-1,96,97,84,-1,84,97,98,-1,84,98,99,-1,100,101,84,-1,84,101,102,-1,84,102,85,-1,83,103,81,-1,81,103,104,-1,81,104,105,-1,105,104,106,-1,99,107,84,-1,84,107,108,-1,84,108,100,-1,109,110,111,-1,111,110,112,-1,111,113,114,-1,115,116,117,-1,117,116,118,-1,114,119,111,-1,111,119,120,-1,111,120,121,-1,115,122,116,-1,116,122,123,-1,116,123,124,-1,121,125,111,-1,111,125,126,-1,111,126,127,-1,127,128,111,-1,111,128,129,-1,111,129,109,-1,130,42,131,-1,131,42,32,-1,131,32,132,-1,132,32,93,-1,118,116,133,-1,133,116,3,-1,133,3,134,-1,135,136,111,-1,111,136,137,-1,111,137,138,-1,139,140,141,-1,138,142,143,-1,143,144,138,-1,138,144,116,-1,138,116,111,-1,111,116,124,-1,111,124,113,-1,145,146,147,-1,148,149,142,-1,142,149,150,-1,142,150,151,-1,152,153,154,-1,151,155,142,-1,142,155,156,-1,142,156,143,-1,157,158,159,-1,160,161,148,-1,148,161,162,-1,148,162,163,-1,14,13,164,-1,164,13,165,-1,164,165,148,-1,148,165,166,-1,148,166,160,-1,145,147,167,-1,163,168,148,-1,148,168,169,-1,148,169,149,-1,146,170,147,-1,147,170,171,-1,147,171,154,-1,154,171,172,-1,154,172,152,-1,159,173,157,-1,157,173,174,-1,157,174,147,-1,147,174,175,-1,147,175,167,-1,176,14,177,-1,177,14,178,-1,178,14,179,-1,179,14,180,-1,179,180,181,-1,176,182,14,-1,14,182,183,-1,14,183,12,-1,184,185,186,-1,187,188,189,-1,189,188,190,-1,153,191,154,-1,154,191,192,-1,154,192,186,-1,186,192,193,-1,186,193,184,-1,78,35,194,-1,194,35,65,-1,194,65,112,-1,112,65,189,-1,112,189,111,-1,111,189,190,-1,111,190,135,-1,185,195,186,-1,186,195,196,-1,186,196,189,-1,189,196,197,-1,189,197,187,-1,198,199,141,-1,198,141,200,-1,201,202,154,-1,154,202,203,-1,204,205,206,-1,206,205,207,-1,206,207,208,-1,140,147,141,-1,141,147,154,-1,141,154,200,-1,200,154,203,-1,200,203,209,-1,209,210,200,-1,200,210,211,-1,200,211,207,-1,207,211,212,-1,207,212,213,-1,199,214,141,-1,141,214,215,-1,141,215,216,-1,213,217,207,-1,207,217,218,-1,207,218,219,-1,219,220,207,-1,207,220,221,-1,207,221,222,-1,223,224,207,-1,207,224,225,-1,207,225,208,-1,206,226,204,-1,204,226,227,-1,204,227,228,-1,228,227,229,-1,222,230,207,-1,207,230,231,-1,207,231,223,-1,232,233,234,-1,234,233,235,-1,234,236,237,-1,238,239,240,-1,240,239,241,-1,240,241,242,-1,237,243,234,-1,234,243,244,-1,234,244,245,-1,242,246,240,-1,240,246,247,-1,240,247,248,-1,245,249,234,-1,234,249,250,-1,234,250,251,-1,251,252,234,-1,234,252,253,-1,234,253,232,-1,216,254,141,-1,141,254,255,-1,141,255,256,-1,256,255,257,-1,256,257,258,-1,258,257,259,-1,258,259,238,-1,11,260,261,-1,262,263,264,-1,264,263,265,-1,264,265,266,-1,267,261,268,-1,268,261,260,-1,268,260,269,-1,269,260,270,-1,261,271,11,-1,11,271,272,-1,11,272,273,-1,267,274,261,-1,261,274,275,-1,261,275,265,-1,265,275,276,-1,265,276,277,-1,273,278,11,-1,11,278,279,-1,11,279,9,-1,277,280,265,-1,265,280,281,-1,265,281,282,-1,282,283,265,-1,265,283,284,-1,265,284,285,-1,286,287,265,-1,265,287,288,-1,265,288,266,-1,264,289,262,-1,262,289,290,-1,262,290,291,-1,291,290,292,-1,285,293,265,-1,265,293,294,-1,265,294,286,-1,295,2,296,-1,296,2,1,-1,296,1,297,-1,297,1,298,-1,299,300,301,-1,301,300,302,-1,303,304,298,-1,298,304,305,-1,298,305,306,-1,302,307,301,-1,301,307,308,-1,301,308,298,-1,298,308,309,-1,298,309,303,-1,306,310,298,-1,298,310,311,-1,298,311,312,-1,313,297,314,-1,314,297,298,-1,314,298,315,-1,315,298,312,-1,6,316,317,-1,317,318,6,-1,6,318,319,-1,6,319,301,-1,301,319,320,-1,301,320,299,-1,6,8,316,-1,316,8,321,-1,316,321,258,-1,258,321,322,-1,258,322,256,-1,46,43,5,-1,5,43,42,-1,5,42,3,-1,3,42,130,-1,3,130,134,-1,48,323,31,-1,31,323,29,-1,31,29,30,-1,30,29,28,-1,238,240,258,-1,258,240,11,-1,258,11,316,-1,316,11,10,-1,316,10,317,-1,322,4,256,-1,256,4,3,-1,256,3,141,-1,141,3,116,-1,141,116,139,-1,139,116,144,-1,234,324,325,-1,324,234,326,-1,326,234,260,-1,326,260,327,-1,327,260,11,-1,327,11,325,-1,325,11,240,-1,325,240,234,-1,234,240,248,-1,234,248,236,-1,201,154,328,-1,328,154,186,-1,328,186,235,-1,235,186,329,-1,235,329,234,-1,234,329,2,-1,234,2,260,-1,260,2,295,-1,260,295,270,-1,323,330,29,-1,29,330,331,-1,29,331,27,-1,27,331,332,-1,27,332,25,-1,25,332,333,-1,25,333,60,-1,60,333,334,-1,0,2,335,-1,335,2,329,-1,335,329,336,-1,336,329,186,-1,336,186,337,-1,337,186,189,-1,337,189,338,-1,338,189,65,-1,338,65,339,-1,339,65,61,-1,339,61,340,-1,340,61,60,-1,340,60,341,-1,341,60,334,-1,341,334,342,-1,343,344,345,-1,346,347,348,-1,348,347,345,-1,345,347,349,-1,345,349,343,-1,348,350,346,-1,346,350,351,-1,346,351,343,-1,343,351,352,-1,343,352,344,-1,344,352,353,-1,344,353,350,-1,350,353,354,-1,350,354,351,-1,355,356,357,-1,357,356,358,-1,357,358,359,-1,360,361,362,-1,362,361,363,-1,362,363,364,-1,364,363,365,-1,364,365,366,-1,366,365,367,-1,368,369,370,-1,370,369,371,-1,370,371,372,-1,373,374,344,-1,344,374,345,-1,375,376,377,-1,361,360,375,-1,378,379,380,-1,380,379,381,-1,382,383,367,-1,367,383,384,-1,367,384,356,-1,385,371,386,-1,386,371,387,-1,386,387,388,-1,389,390,372,-1,385,391,371,-1,371,391,392,-1,371,392,393,-1,394,395,355,-1,355,395,396,-1,355,396,397,-1,398,399,367,-1,367,399,400,-1,367,400,382,-1,372,390,401,-1,401,390,402,-1,401,402,403,-1,394,355,404,-1,404,355,405,-1,404,405,406,-1,397,380,355,-1,355,380,381,-1,355,381,356,-1,356,381,366,-1,356,366,367,-1,407,408,372,-1,372,408,409,-1,372,409,389,-1,377,407,375,-1,375,407,372,-1,375,372,361,-1,361,372,371,-1,361,371,410,-1,410,371,393,-1,411,412,402,-1,402,412,413,-1,402,413,403,-1,414,350,415,-1,415,350,348,-1,415,348,416,-1,406,417,404,-1,404,417,418,-1,404,418,419,-1,416,348,402,-1,402,348,420,-1,402,420,411,-1,414,421,350,-1,350,421,404,-1,350,404,422,-1,422,404,419,-1,388,423,424,-1,369,425,371,-1,371,425,387,-1,387,425,388,-1,388,425,426,-1,388,426,423,-1,427,392,428,-1,428,392,391,-1,428,391,429,-1,429,391,385,-1,429,385,424,-1,424,385,386,-1,424,386,388,-1,363,361,430,-1,430,361,410,-1,430,410,427,-1,427,410,393,-1,427,393,392,-1,365,363,431,-1,431,363,432,-1,431,432,433,-1,433,432,434,-1,433,434,435,-1,435,434,436,-1,435,436,437,-1,437,436,438,-1,437,438,439,-1,439,438,440,-1,439,440,441,-1,441,440,442,-1,441,442,443,-1,443,442,444,-1,443,444,445,-1,445,444,446,-1,445,446,447,-1,447,446,448,-1,447,448,449,-1,449,448,450,-1,330,323,451,-1,451,323,450,-1,323,48,450,-1,450,48,5,-1,450,5,4,-1,4,322,450,-1,450,322,321,-1,450,321,449,-1,449,321,8,-1,449,8,452,-1,452,8,7,-1,399,398,453,-1,453,398,367,-1,453,367,365,-1,453,454,399,-1,399,454,455,-1,399,455,400,-1,455,456,400,-1,400,456,457,-1,400,457,382,-1,382,457,458,-1,458,459,382,-1,382,459,460,-1,382,460,383,-1,460,461,383,-1,383,461,462,-1,383,462,384,-1,462,463,384,-1,384,463,358,-1,384,358,356,-1,372,401,370,-1,370,401,464,-1,464,401,465,-1,465,401,403,-1,465,403,466,-1,466,403,467,-1,467,403,413,-1,467,413,468,-1,468,413,469,-1,469,413,412,-1,469,412,470,-1,471,472,411,-1,411,472,473,-1,411,473,412,-1,412,473,474,-1,412,474,470,-1,411,420,471,-1,471,420,348,-1,471,348,345,-1,475,476,477,-1,477,476,330,-1,478,330,476,-1,425,479,426,-1,426,479,480,-1,426,480,423,-1,423,480,424,-1,424,480,481,-1,424,481,429,-1,429,481,482,-1,429,482,428,-1,428,482,427,-1,427,482,483,-1,427,483,430,-1,430,483,432,-1,430,432,363,-1,330,451,484,-1,484,451,450,-1,485,330,484,-1,486,487,488,-1,488,487,485,-1,488,485,489,-1,489,485,484,-1,489,484,490,-1,490,484,450,-1,491,492,475,-1,475,492,493,-1,475,493,476,-1,476,493,494,-1,476,494,478,-1,495,486,496,-1,496,486,488,-1,496,488,497,-1,497,488,489,-1,497,489,498,-1,498,489,490,-1,498,490,499,-1,500,501,502,-1,502,501,503,-1,450,448,490,-1,490,448,446,-1,490,446,499,-1,499,446,444,-1,499,444,442,-1,503,495,502,-1,502,495,496,-1,502,496,504,-1,504,496,497,-1,504,497,505,-1,505,497,498,-1,505,498,506,-1,506,498,499,-1,506,499,507,-1,507,499,442,-1,508,509,510,-1,510,509,500,-1,500,502,510,-1,510,502,504,-1,510,504,511,-1,511,504,505,-1,511,505,512,-1,512,505,506,-1,512,506,513,-1,513,506,507,-1,513,507,514,-1,487,330,485,-1,503,491,495,-1,495,491,475,-1,495,475,486,-1,486,475,477,-1,486,477,487,-1,487,477,330,-1,508,479,515,-1,515,479,425,-1,515,425,369,-1,442,440,507,-1,507,440,438,-1,507,438,514,-1,514,438,436,-1,514,436,434,-1,508,510,479,-1,479,510,511,-1,479,511,480,-1,480,511,512,-1,480,512,481,-1,481,512,513,-1,481,513,482,-1,482,513,514,-1,482,514,483,-1,483,514,434,-1,483,434,432,-1,516,517,518,-1,518,517,7,-1,519,454,453,-1,454,519,455,-1,455,519,520,-1,455,520,456,-1,456,520,457,-1,457,520,521,-1,457,521,458,-1,458,521,459,-1,459,521,522,-1,459,522,460,-1,460,522,461,-1,461,522,523,-1,461,523,462,-1,462,523,463,-1,463,523,524,-1,463,524,358,-1,445,447,516,-1,516,447,449,-1,516,449,517,-1,517,449,452,-1,517,452,7,-1,7,525,526,-1,526,525,527,-1,528,7,526,-1,529,530,531,-1,531,530,528,-1,531,528,532,-1,532,528,526,-1,532,526,533,-1,533,526,527,-1,534,529,535,-1,535,529,531,-1,535,531,536,-1,536,531,532,-1,536,532,537,-1,537,532,533,-1,537,533,538,-1,437,439,539,-1,539,439,441,-1,527,540,533,-1,533,540,541,-1,533,541,538,-1,538,541,542,-1,538,542,543,-1,543,544,538,-1,538,544,545,-1,538,545,537,-1,537,545,546,-1,537,546,536,-1,536,546,547,-1,536,547,535,-1,535,547,539,-1,535,539,534,-1,534,539,441,-1,534,441,443,-1,433,435,548,-1,548,435,437,-1,437,539,548,-1,548,539,547,-1,548,547,549,-1,549,547,546,-1,549,546,550,-1,550,546,545,-1,550,545,551,-1,551,545,544,-1,551,544,552,-1,530,7,528,-1,443,445,534,-1,534,445,516,-1,534,516,529,-1,529,516,518,-1,529,518,530,-1,530,518,7,-1,433,519,431,-1,431,519,453,-1,431,453,365,-1,543,553,544,-1,544,553,554,-1,544,554,552,-1,552,554,555,-1,552,555,556,-1,433,548,519,-1,519,548,549,-1,519,549,520,-1,520,549,550,-1,520,550,521,-1,521,550,551,-1,521,551,522,-1,522,551,552,-1,522,552,523,-1,523,552,556,-1,523,556,524,-1,350,422,344,-1,344,422,557,-1,557,422,558,-1,558,422,419,-1,558,419,559,-1,559,419,560,-1,560,419,418,-1,560,418,561,-1,561,418,562,-1,562,418,417,-1,562,417,563,-1,563,417,564,-1,564,417,406,-1,564,406,565,-1,565,406,566,-1,566,406,405,-1,566,405,567,-1,567,405,355,-1,567,355,357,-1,345,374,471,-1,471,374,568,-1,471,568,472,-1,472,568,473,-1,473,568,569,-1,473,569,474,-1,474,569,470,-1,470,569,570,-1,470,570,469,-1,469,570,468,-1,468,570,571,-1,468,571,467,-1,467,571,466,-1,466,571,572,-1,466,572,465,-1,465,572,464,-1,464,572,368,-1,464,368,370,-1,342,334,573,-1,573,334,333,-1,333,332,573,-1,573,332,331,-1,573,331,478,-1,478,331,330,-1,478,494,573,-1,573,494,493,-1,573,493,574,-1,493,492,574,-1,574,492,491,-1,574,491,575,-1,575,491,503,-1,575,503,576,-1,503,501,576,-1,576,501,500,-1,576,500,577,-1,500,509,577,-1,577,509,508,-1,577,508,368,-1,368,508,515,-1,368,515,369,-1,525,7,6,-1,525,6,527,-1,301,298,578,-1,578,298,1,-1,578,1,0,-1,6,301,527,-1,527,301,578,-1,527,578,540,-1,540,578,541,-1,541,578,579,-1,541,579,542,-1,542,579,543,-1,543,579,580,-1,543,580,553,-1,553,580,581,-1,553,581,554,-1,554,581,555,-1,555,581,582,-1,555,582,556,-1,556,582,524,-1,524,582,359,-1,524,359,358,-1,357,359,567,-1,567,359,583,-1,567,583,566,-1,566,583,565,-1,565,583,584,-1,565,584,564,-1,564,584,563,-1,563,584,585,-1,563,585,562,-1,562,585,561,-1,561,585,586,-1,561,586,560,-1,560,586,559,-1,559,586,587,-1,559,587,558,-1,558,587,557,-1,557,587,373,-1,557,373,344,-1,374,588,589,-1,590,591,592,-1,342,573,593,-1,592,591,342,-1,594,342,591,-1,594,591,595,-1,595,591,590,-1,595,590,596,-1,597,342,594,-1,598,599,600,-1,600,599,593,-1,600,593,601,-1,601,593,573,-1,601,573,574,-1,597,594,602,-1,602,594,595,-1,602,595,603,-1,603,595,596,-1,603,596,604,-1,605,598,606,-1,606,598,600,-1,606,600,607,-1,607,600,601,-1,607,601,608,-1,608,601,574,-1,608,574,575,-1,609,605,610,-1,610,605,606,-1,610,606,611,-1,611,606,607,-1,611,607,612,-1,612,607,608,-1,612,608,613,-1,613,608,575,-1,613,575,576,-1,588,609,589,-1,589,609,610,-1,589,610,614,-1,614,610,611,-1,614,611,615,-1,615,611,612,-1,615,612,616,-1,616,612,613,-1,616,613,617,-1,617,613,576,-1,617,576,577,-1,374,589,568,-1,568,589,614,-1,568,614,569,-1,569,614,615,-1,569,615,570,-1,570,615,616,-1,570,616,571,-1,571,616,617,-1,571,617,572,-1,572,617,577,-1,572,577,368,-1,599,342,593,-1,588,604,609,-1,609,604,596,-1,609,596,605,-1,605,596,590,-1,605,590,598,-1,598,590,592,-1,598,592,599,-1,599,592,342,-1,359,582,618,-1,619,620,621,-1,0,622,623,-1,621,620,0,-1,624,0,620,-1,624,620,625,-1,625,620,619,-1,625,619,626,-1,578,0,624,-1,627,628,629,-1,629,628,623,-1,629,623,630,-1,630,623,622,-1,630,622,631,-1,578,624,579,-1,579,624,625,-1,579,625,580,-1,580,625,626,-1,580,626,581,-1,632,627,633,-1,633,627,629,-1,633,629,634,-1,634,629,630,-1,634,630,635,-1,635,630,631,-1,635,631,636,-1,637,632,638,-1,638,632,633,-1,638,633,639,-1,639,633,634,-1,639,634,640,-1,640,634,635,-1,640,635,641,-1,641,635,636,-1,641,636,642,-1,582,637,618,-1,618,637,638,-1,618,638,643,-1,643,638,639,-1,643,639,644,-1,644,639,640,-1,644,640,645,-1,645,640,641,-1,645,641,646,-1,646,641,642,-1,646,642,647,-1,359,618,583,-1,583,618,643,-1,583,643,584,-1,584,643,644,-1,584,644,585,-1,585,644,645,-1,585,645,586,-1,586,645,646,-1,586,646,587,-1,587,646,647,-1,587,647,373,-1,628,0,623,-1,582,581,637,-1,637,581,626,-1,637,626,632,-1,632,626,619,-1,632,619,627,-1,627,619,621,-1,627,621,628,-1,628,621,0,-1,0,335,622,-1,622,335,336,-1,336,337,622,-1,622,337,338,-1,622,338,339,-1,339,340,597,-1,597,340,341,-1,597,341,342,-1,339,597,622,-1,622,597,602,-1,622,602,631,-1,631,602,603,-1,631,603,636,-1,636,603,604,-1,636,604,642,-1,642,604,588,-1,642,588,647,-1,647,588,374,-1,647,374,373,-1,362,364,648,-1,648,364,649,-1,650,362,651,-1,651,362,648,-1,651,648,652,-1,652,648,653,-1,652,653,654,-1,654,653,655,-1,653,656,655,-1,655,656,657,-1,655,657,658,-1,658,657,659,-1,660,661,662,-1,662,661,654,-1,663,652,664,-1,664,652,654,-1,664,654,665,-1,665,654,661,-1,659,666,667,-1,667,668,659,-1,659,668,669,-1,659,669,658,-1,649,364,381,-1,381,364,366,-1,375,360,650,-1,650,360,362,-1,650,651,375,-1,375,651,376,-1,651,652,376,-1,376,652,377,-1,652,663,377,-1,377,663,407,-1,663,664,407,-1,407,664,408,-1,655,415,654,-1,654,415,416,-1,654,416,662,-1,662,416,402,-1,662,402,660,-1,660,402,390,-1,660,390,661,-1,661,390,389,-1,661,389,665,-1,665,389,409,-1,665,409,664,-1,664,409,408,-1,655,658,415,-1,415,658,414,-1,657,397,659,-1,659,397,396,-1,659,396,666,-1,666,396,395,-1,666,395,667,-1,667,395,394,-1,667,394,668,-1,668,394,404,-1,668,404,669,-1,669,404,421,-1,669,421,658,-1,658,421,414,-1,657,656,397,-1,397,656,380,-1,656,653,380,-1,380,653,378,-1,653,648,378,-1,378,648,379,-1,648,649,379,-1,379,649,381,-1,
        ]
    }
}
Shape{
    appearance Appearance {
        material  Material 	{
            diffuseColor 0.7686274509803922 0.7686274509803922 0.7686274509803922
            specularColor 0.615686274509804 0.615686274509804 0.615686274509804
            ambientIntensity 0.7686
            transparency 0.0
            shininess 0.5
        }
    }
    geometry IndexedFaceSet {
        ccw TRUE
        solid FALSE
        coord DEF co Coordinate {
            point [
                0.7689 -1.5094 0.1967, 1.0445 -1.5094 0.1967, 0.7689 -1.2115 0.2123, 1.0445 -1.2115 0.2123, 0.7689 -1.4991 0.0001, 0.7689 -1.2012 0.0157, 1.0445 -1.4991 0.0001, 1.0445 -1.2012 0.0157, 1.0445 -1.1361 0.2542, 0.7689 -1.1361 0.2542, 1.0445 -1.1508 0.2375, 0.7689 -1.1508 0.2375, 1.0445 -1.169 0.2245, 0.7689 -1.169 0.2245, 1.0445 -1.1896 0.216, 0.7689 -1.1896 0.216, 0.7689 -0.9748 0.1413, 0.7689 -1.0191 0.0912, 0.7689 -1.0735 0.0524, 0.7689 -1.1353 0.0268, 1.0445 -1.1353 0.0268, 1.0445 -1.0735 0.0524, 1.0445 -1.0191 0.0912, 1.0445 -0.9748 0.1413, 0.7689 -1.0025 0.445, 1.0445 -1.0025 0.445, 0.7689 -0.8412 0.332, 1.0445 -0.8412 0.332, 1.0445 -0.9553 0.4976, 0.7689 -0.9553 0.4976, 1.0445 -0.8969 0.5375, 0.7689 -0.8969 0.5375, 1.0445 -0.8308 0.5624, 0.7689 -0.8308 0.5624, 1.0445 -0.7606 0.5709, 0.7689 -0.7606 0.5709, 0.7689 -0.8255 0.3496, 0.7689 -0.806 0.3629, 0.7689 -0.784 0.3712, 0.7689 -0.7606 0.374, 1.0445 -0.7606 0.374, 1.0445 -0.784 0.3712, 1.0445 -0.806 0.3629, 1.0445 -0.8255 0.3496, 1.0445 -0.5179 0.5709, 1.0445 -0.4972 0.374, 0.7689 -0.5179 0.5709, 0.7689 -0.4972 0.374, -1.0421 -1.5094 0.1967, -0.7665 -1.5094 0.1967, -1.0421 -1.2115 0.2123, -0.7665 -1.2115 0.2123, -1.0421 -1.4991 0.0001, -1.0421 -1.2012 0.0157, -0.7665 -1.4991 0.0001, -0.7665 -1.2012 0.0157, -0.7665 -1.1361 0.2542, -1.0421 -1.1361 0.2542, -0.7665 -1.1508 0.2375, -1.0421 -1.1508 0.2375, -0.7665 -1.169 0.2245, -1.0421 -1.169 0.2245, -0.7665 -1.1896 0.216, -1.0421 -1.1896 0.216, -1.0421 -0.9748 0.1413, -1.0421 -1.0191 0.0912, -1.0421 -1.0735 0.0524, -1.0421 -1.1353 0.0268, -0.7665 -1.1353 0.0268, -0.7665 -1.0735 0.0524, -0.7665 -1.0191 0.0912, -0.7665 -0.9748 0.1413, -1.0421 -1.0025 0.445, -0.7665 -1.0025 0.445, -1.0421 -0.8412 0.332, -0.7665 -0.8412 0.332, -0.7665 -0.9553 0.4976, -1.0421 -0.9553 0.4976, -0.7665 -0.8969 0.5375, -1.0421 -0.8969 0.5375, -0.7665 -0.8308 0.5624, -1.0421 -0.8308 0.5624, -0.7665 -0.7606 0.5709, -1.0421 -0.7606 0.5709, -1.0421 -0.8255 0.3496, -1.0421 -0.806 0.3629, -1.0421 -0.784 0.3712, -1.0421 -0.7606 0.374, -0.7665 -0.7606 0.374, -0.7665 -0.784 0.3712, -0.7665 -0.806 0.3629, -0.7665 -0.8255 0.3496, -0.7665 -0.5179 0.5709, -0.7665 -0.4972 0.374, -1.0421 -0.5179 0.5709, -1.0421 -0.4972 0.374
            ]
        }
        coordIndex [
            0,1,2,-1,2,1,3,-1,4,0,5,-1,5,0,2,-1,6,4,7,-1,7,4,5,-1,1,6,3,-1,3,6,7,-1,8,9,10,-1,10,9,11,-1,10,11,12,-1,12,11,13,-1,12,13,14,-1,14,13,15,-1,14,15,3,-1,3,15,2,-1,9,16,11,-1,11,16,17,-1,11,17,13,-1,13,17,18,-1,13,18,15,-1,15,18,19,-1,15,19,2,-1,2,19,5,-1,7,5,19,-1,7,19,20,-1,20,19,18,-1,20,18,21,-1,21,18,17,-1,21,17,22,-1,22,17,16,-1,22,16,23,-1,3,7,14,-1,14,7,20,-1,14,20,12,-1,12,20,21,-1,12,21,10,-1,10,21,22,-1,10,22,8,-1,8,22,23,-1,9,8,24,-1,24,8,25,-1,16,9,26,-1,26,9,24,-1,23,16,27,-1,27,16,26,-1,8,23,25,-1,25,23,27,-1,24,25,28,-1,24,28,29,-1,29,28,30,-1,29,30,31,-1,31,30,32,-1,31,32,33,-1,33,32,34,-1,33,34,35,-1,26,24,36,-1,36,24,29,-1,36,29,37,-1,37,29,31,-1,37,31,38,-1,38,31,33,-1,38,33,39,-1,39,33,35,-1,39,40,38,-1,38,40,41,-1,38,41,37,-1,37,41,42,-1,37,42,36,-1,36,42,43,-1,36,43,26,-1,26,43,27,-1,40,34,41,-1,41,34,32,-1,41,32,42,-1,42,32,30,-1,42,30,43,-1,43,30,28,-1,43,28,27,-1,27,28,25,-1,34,40,44,-1,44,40,45,-1,35,34,46,-1,46,34,44,-1,39,35,47,-1,47,35,46,-1,40,39,45,-1,45,39,47,-1,0,4,1,-1,1,4,6,-1,48,49,50,-1,50,49,51,-1,52,48,53,-1,53,48,50,-1,54,52,55,-1,55,52,53,-1,49,54,51,-1,51,54,55,-1,56,57,58,-1,58,57,59,-1,58,59,60,-1,60,59,61,-1,60,61,62,-1,62,61,63,-1,62,63,51,-1,51,63,50,-1,57,64,59,-1,59,64,65,-1,59,65,61,-1,61,65,66,-1,61,66,63,-1,63,66,67,-1,63,67,50,-1,50,67,53,-1,55,53,67,-1,55,67,68,-1,68,67,66,-1,68,66,69,-1,69,66,65,-1,69,65,70,-1,70,65,64,-1,70,64,71,-1,51,55,62,-1,62,55,68,-1,62,68,60,-1,60,68,69,-1,60,69,58,-1,58,69,70,-1,58,70,56,-1,56,70,71,-1,57,56,72,-1,72,56,73,-1,64,57,74,-1,74,57,72,-1,71,64,75,-1,75,64,74,-1,56,71,73,-1,73,71,75,-1,72,73,76,-1,72,76,77,-1,77,76,78,-1,77,78,79,-1,79,78,80,-1,79,80,81,-1,81,80,82,-1,81,82,83,-1,74,72,84,-1,84,72,77,-1,84,77,85,-1,85,77,79,-1,85,79,86,-1,86,79,81,-1,86,81,87,-1,87,81,83,-1,87,88,86,-1,86,88,89,-1,86,89,85,-1,85,89,90,-1,85,90,84,-1,84,90,91,-1,84,91,74,-1,74,91,75,-1,88,82,89,-1,89,82,80,-1,89,80,90,-1,90,80,78,-1,90,78,91,-1,91,78,76,-1,91,76,75,-1,75,76,73,-1,82,88,92,-1,92,88,93,-1,83,82,94,-1,94,82,92,-1,87,83,95,-1,95,83,94,-1,88,87,93,-1,93,87,95,-1,48,52,49,-1,49,52,54,-1,
        ]
    }
}
Shape{
    appearance Appearance {
        material  Material 	{
            diffuseColor 0.45098039215686275 0.43137254901960786 0.4196078431372549
            specularColor 0.03137254901960784 0.03137254901960784 0.03137254901960784
            ambientIntensity 0.6221
            transparency 0.0
            shininess 0.5
        }
    }
    geometry IndexedFaceSet {
        ccw TRUE
        solid FALSE
        coord DEF co Coordinate {
            point [
                -0.9139 0.6878 0.9055, -0.9139 0.6878 0.9016, -0.9139 0.7153 0.9055, -0.9139 0.7239 0.9016, -0.9139 0.7239 0.9055, -0.6592 0.7239 0.9016, -0.6592 0.7239 0.9055, -0.6592 0.6878 0.9016, -0.6592 0.6878 0.9055, -0.6592 0.7153 0.9055, -0.7659 0.6878 0.9016, -0.7659 0.6878 0.9055, -0.7659 0.4563 0.9055, -0.7659 0.4089 0.9016, -0.7659 0.4089 0.9055, -0.8072 0.4089 0.9016, -0.8072 0.4089 0.9055, -0.8072 0.4563 0.9055, -0.8072 0.6878 0.9016, -0.8072 0.6878 0.9055, -0.3977 0.6513 0.9016, -0.3843 0.6244 0.9016, -0.3375 0.618 0.9016, -0.3304 0.5656 0.9016, -0.3543 0.6607 0.9016, -0.3717 0.6878 0.9016, -0.4134 0.6695 0.9016, -0.3977 0.7097 0.9016, -0.4316 0.6824 0.9016, -0.4262 0.7235 0.9016, -0.4541 0.6915 0.9016, -0.4835 0.6964 0.9016, -0.5127 0.4424 0.9016, -0.4937 0.404 0.9016, -0.4835 0.4382 0.9016, -0.4835 0.4038 0.9016, -0.4653 0.4404 0.9016, -0.4389 0.4087 0.9016, -0.4372 0.449 0.9016, -0.4075 0.4201 0.9016, -0.4171 0.4613 0.9016, -0.3829 0.4362 0.9016, -0.4013 0.4773 0.9016, -0.3699 0.4485 0.9016, -0.3884 0.4984 0.9016, -0.3474 0.485 0.9016, -0.3787 0.5271 0.9016, -0.3342 0.528 0.9016, -0.3734 0.5656 0.9016, -0.3746 0.5808 0.9016, -0.4653 0.7317 0.9016, -0.4835 0.7325 0.9016, -0.5113 0.6925 0.9016, -0.5289 0.7274 0.9016, -0.5329 0.6848 0.9016, -0.5598 0.7162 0.9016, -0.5522 0.6724 0.9016, -0.5868 0.6981 0.9016, -0.5673 0.6564 0.9016, -0.6131 0.664 0.9016, -0.5794 0.6354 0.9016, -0.5889 0.6058 0.9016, -0.6294 0.6262 0.9016, -0.638 0.5753 0.9016, -0.5937 0.5656 0.9016, -0.6384 0.5656 0.9016, -0.5904 0.5346 0.9016, -0.6313 0.514 0.9016, -0.5806 0.5003 0.9016, -0.6134 0.4694 0.9016, -0.5693 0.4799 0.9016, -0.6023 0.452 0.9016, -0.5539 0.463 0.9016, -0.5792 0.4307 0.9016, -0.5357 0.4509 0.9016, -0.5556 0.4174 0.9016, -0.5189 0.4066 0.9016, -0.3699 0.4485 0.9055, -0.3652 0.4563 0.9055, -0.3474 0.485 0.9055, -0.3342 0.528 0.9055, -0.3304 0.5656 0.9055, -0.4835 0.4038 0.9055, -0.4389 0.4087 0.9055, -0.4075 0.4201 0.9055, -0.3829 0.4362 0.9055, -0.6023 0.452 0.9055, -0.5792 0.4307 0.9055, -0.5556 0.4174 0.9055, -0.5189 0.4066 0.9055, -0.4937 0.404 0.9055, -0.6384 0.5656 0.9055, -0.6313 0.514 0.9055, -0.6134 0.4694 0.9055, -0.605 0.4563 0.9055, -0.5868 0.6981 0.9055, -0.6131 0.664 0.9055, -0.6294 0.6262 0.9055, -0.638 0.5753 0.9055, -0.4835 0.7325 0.9055, -0.5219 0.7282 0.9055, -0.5611 0.7153 0.9055, -0.5598 0.7162 0.9055, -0.5289 0.7274 0.9055, -0.3717 0.6878 0.9055, -0.3977 0.7097 0.9055, -0.4093 0.7153 0.9055, -0.4262 0.7235 0.9055, -0.4485 0.7282 0.9055, -0.4653 0.7317 0.9055, -0.3375 0.618 0.9055, -0.3543 0.6607 0.9055, -0.4835 0.6964 0.9055, -0.4541 0.6915 0.9055, -0.4316 0.6824 0.9055, -0.4134 0.6695 0.9055, -0.3977 0.6513 0.9055, -0.3843 0.6244 0.9055, -0.3746 0.5808 0.9055, -0.3734 0.5656 0.9055, -0.3787 0.5271 0.9055, -0.3884 0.4984 0.9055, -0.4013 0.4773 0.9055, -0.4171 0.4613 0.9055, -0.4372 0.449 0.9055, -0.4653 0.4404 0.9055, -0.4835 0.4382 0.9055, -0.5127 0.4424 0.9055, -0.5357 0.4509 0.9055, -0.5539 0.463 0.9055, -0.5693 0.4799 0.9055, -0.5806 0.5003 0.9055, -0.5904 0.5346 0.9055, -0.5937 0.5656 0.9055, -0.5889 0.6058 0.9055, -0.5794 0.6354 0.9055, -0.5673 0.6564 0.9055, -0.5522 0.6724 0.9055, -0.5329 0.6848 0.9055, -0.5113 0.6925 0.9055
            ]
        }
        coordIndex [
            0,1,2,-1,2,1,3,-1,2,3,4,-1,3,5,4,-1,4,5,6,-1,7,8,5,-1,5,8,9,-1,5,9,6,-1,7,10,8,-1,8,10,11,-1,11,10,12,-1,12,10,13,-1,12,13,14,-1,13,15,14,-1,14,15,16,-1,16,15,17,-1,17,15,18,-1,17,18,19,-1,18,1,19,-1,19,1,0,-1,5,3,18,-1,18,3,1,-1,7,5,10,-1,10,5,18,-1,10,18,13,-1,13,18,15,-1,20,21,22,-1,22,21,23,-1,22,24,20,-1,20,24,25,-1,20,25,26,-1,26,25,27,-1,26,27,28,-1,28,27,29,-1,28,29,30,-1,30,29,31,-1,32,33,34,-1,34,33,35,-1,34,35,36,-1,36,35,37,-1,36,37,38,-1,38,37,39,-1,38,39,40,-1,40,39,41,-1,40,41,42,-1,42,41,43,-1,42,43,44,-1,44,43,45,-1,44,45,46,-1,46,45,47,-1,46,47,48,-1,48,47,23,-1,48,23,49,-1,49,23,21,-1,29,50,31,-1,31,50,51,-1,31,51,52,-1,52,51,53,-1,52,53,54,-1,54,53,55,-1,54,55,56,-1,56,55,57,-1,56,57,58,-1,58,57,59,-1,58,59,60,-1,60,59,61,-1,59,62,61,-1,61,62,63,-1,61,63,64,-1,64,63,65,-1,64,65,66,-1,66,65,67,-1,66,67,68,-1,68,67,69,-1,68,69,70,-1,70,69,71,-1,70,71,72,-1,72,71,73,-1,72,73,74,-1,74,73,75,-1,74,75,32,-1,32,75,76,-1,32,76,33,-1,43,77,78,-1,43,78,45,-1,78,79,45,-1,45,79,80,-1,45,80,47,-1,47,80,81,-1,47,81,23,-1,35,82,83,-1,35,83,37,-1,37,83,84,-1,37,84,39,-1,39,84,85,-1,39,85,41,-1,41,85,77,-1,41,77,43,-1,71,86,87,-1,71,87,73,-1,73,87,88,-1,73,88,75,-1,75,88,89,-1,75,89,76,-1,76,89,90,-1,76,90,33,-1,33,90,82,-1,33,82,35,-1,65,91,92,-1,65,92,67,-1,67,92,93,-1,67,93,69,-1,69,93,71,-1,71,93,94,-1,71,94,86,-1,57,95,96,-1,57,96,59,-1,59,96,97,-1,59,97,62,-1,62,97,98,-1,62,98,63,-1,63,98,91,-1,63,91,65,-1,51,99,53,-1,53,99,100,-1,95,57,101,-1,101,57,55,-1,101,55,102,-1,102,55,53,-1,102,53,103,-1,103,53,100,-1,99,51,50,-1,25,104,105,-1,25,105,27,-1,27,105,106,-1,27,106,29,-1,106,107,29,-1,29,107,108,-1,29,108,50,-1,50,108,109,-1,50,109,99,-1,23,81,110,-1,23,110,22,-1,22,110,111,-1,22,111,24,-1,24,111,104,-1,24,104,25,-1,31,112,113,-1,31,113,30,-1,30,113,114,-1,30,114,28,-1,28,114,115,-1,28,115,26,-1,26,115,116,-1,26,116,20,-1,20,116,117,-1,20,117,21,-1,21,117,118,-1,21,118,49,-1,49,118,119,-1,49,119,48,-1,48,119,120,-1,48,120,46,-1,46,120,121,-1,46,121,44,-1,44,121,122,-1,44,122,42,-1,42,122,123,-1,42,123,40,-1,40,123,124,-1,40,124,38,-1,38,124,125,-1,38,125,36,-1,36,125,126,-1,36,126,34,-1,34,126,127,-1,34,127,32,-1,32,127,128,-1,32,128,74,-1,74,128,129,-1,74,129,72,-1,72,129,130,-1,72,130,70,-1,70,130,131,-1,70,131,68,-1,68,131,132,-1,68,132,66,-1,66,132,133,-1,66,133,64,-1,64,133,134,-1,64,134,61,-1,61,134,135,-1,61,135,60,-1,60,135,136,-1,60,136,58,-1,58,136,137,-1,58,137,56,-1,56,137,138,-1,56,138,54,-1,54,138,139,-1,54,139,52,-1,52,139,112,-1,52,112,31,-1,
        ]
    }
}
Shape{
    appearance Appearance {
        material  Material 	{
            diffuseColor 0.25098039215686274 0.25098039215686274 0.25098039215686274
            specularColor 0.07450980392156863 0.07450980392156863 0.07450980392156863
            ambientIntensity 0.251
            transparency 0.0
            shininess 0.5
        }
    }
    geometry IndexedFaceSet {
        ccw TRUE
        solid FALSE
        coord DEF co Coordinate {
            point [
                -0.5794 0.6354 0.9055, -0.5889 0.6058 0.9055, -0.3746 0.5808 0.9055, -0.3884 0.4984 0.9055, -0.3787 0.5271 0.9055, -0.5904 0.5346 0.9055, -0.4653 0.4404 0.9055, -0.4835 0.4382 0.9055, -0.5127 0.4424 0.9055, -0.4013 0.4773 0.9055, -0.5937 0.5656 0.9055, -0.3734 0.5656 0.9055, -0.4316 0.6824 0.9055, -0.4541 0.6915 0.9055, -0.4835 0.6964 0.9055, -0.5113 0.6925 0.9055, -0.5329 0.6848 0.9055, -0.5806 0.5003 0.9055, -0.5693 0.4799 0.9055, -0.5357 0.4509 0.9055, -0.5539 0.463 0.9055, -0.4372 0.449 0.9055, -0.4171 0.4613 0.9055, -0.4134 0.6695 0.9055, -0.3843 0.6244 0.9055, -0.3977 0.6513 0.9055, -0.5522 0.6724 0.9055, -0.5673 0.6564 0.9055
            ]
        }
        coordIndex [
            0,1,2,-1,3,4,5,-1,6,5,7,-1,7,5,8,-1,3,5,9,-1,1,10,2,-1,2,10,5,-1,2,5,11,-1,11,5,4,-1,12,13,2,-1,13,14,2,-1,2,14,15,-1,2,15,16,-1,5,17,8,-1,8,17,18,-1,8,18,19,-1,19,18,20,-1,6,21,5,-1,5,21,22,-1,5,22,9,-1,12,2,23,-1,23,2,24,-1,23,24,25,-1,16,26,2,-1,2,26,27,-1,2,27,0,-1,
        ]
    }
}
Shape{
    appearance Appearance {
        material  Material 	{
            diffuseColor 0.45098039215686275 0.43137254901960786 0.4196078431372549
            specularColor 0.03137254901960784 0.03137254901960784 0.03137254901960784
            ambientIntensity 0.6221
            transparency 0.0
            shininess 0.5
        }
    }
    geometry IndexedFaceSet {
        ccw TRUE
        solid FALSE
        coord DEF co Coordinate {
            point [
                -0.2544 0.6069 0.9016, -0.294 0.6069 0.9016, -0.2544 0.6069 0.9055, -0.294 0.6069 0.9055, -0.2665 0.6895 0.9016, -0.2665 0.6895 0.9055, -0.2815 0.6671 0.9055, -0.2815 0.6671 0.9016, -0.2907 0.6403 0.9055, -0.2907 0.6403 0.9016, -0.1873 0.7187 0.9055, -0.2187 0.7153 0.9055, -0.1873 0.7187 0.9016, -0.2207 0.7151 0.9016, -0.2207 0.7151 0.9055, -0.2422 0.7074 0.9055, -0.2422 0.7074 0.9016, -0.2584 0.6971 0.9055, -0.2584 0.6971 0.9016, -0.1403 0.7086 0.9055, -0.1237 0.6991 0.9016, -0.1237 0.6991 0.9055, -0.1102 0.6864 0.9016, -0.1102 0.6864 0.9055, -0.1003 0.6711 0.9016, -0.1003 0.6711 0.9055, -0.093 0.6512 0.9016, -0.093 0.6512 0.9055, -0.0892 0.6258 0.9016, -0.0892 0.6258 0.9055, -0.1631 0.7153 0.9055, -0.1674 0.7165 0.9016, -0.1403 0.7086 0.9016, -0.1674 0.7165 0.9055, -0.1736 0.5225 0.9016, -0.1736 0.5225 0.9055, -0.1343 0.5446 0.9055, -0.1343 0.5446 0.9016, -0.1092 0.5674 0.9055, -0.1092 0.5674 0.9016, -0.0977 0.5848 0.9055, -0.0977 0.5848 0.9016, -0.0912 0.6023 0.9055, -0.0912 0.6023 0.9016, -0.2063 0.5036 0.9016, -0.2063 0.5036 0.9055, -0.2579 0.4451 0.9016, -0.2579 0.4451 0.9055, -0.2537 0.459 0.9016, -0.2545 0.4563 0.9055, -0.2537 0.459 0.9055, -0.2457 0.4721 0.9055, -0.2457 0.4721 0.9016, -0.2296 0.4882 0.9055, -0.2296 0.4882 0.9016, -0.0892 0.4451 0.9016, -0.0892 0.4451 0.9055, -0.0892 0.4089 0.9016, -0.0892 0.4089 0.9055, -0.3009 0.4089 0.9016, -0.3009 0.4089 0.9055, -0.2986 0.4345 0.9016, -0.2286 0.5311 0.9016, -0.2286 0.5311 0.9055, -0.2567 0.5119 0.9055, -0.2567 0.5119 0.9016, -0.2767 0.4899 0.9055, -0.2767 0.4899 0.9016, -0.2907 0.4639 0.9055, -0.2907 0.4639 0.9016, -0.2927 0.4563 0.9055, -0.2986 0.4345 0.9055, -0.1873 0.5552 0.9016, -0.1873 0.5552 0.9055, -0.1426 0.5879 0.9016, -0.1426 0.5879 0.9055, -0.1639 0.5702 0.9055, -0.1639 0.5702 0.9016, -0.1305 0.6275 0.9016, -0.1305 0.6275 0.9055, -0.1334 0.6068 0.9055, -0.1334 0.6068 0.9016, -0.1396 0.5928 0.9055, -0.1396 0.5928 0.9016, -0.1925 0.6826 0.9016, -0.1925 0.6826 0.9055, -0.1743 0.6805 0.9055, -0.1743 0.6805 0.9016, -0.1604 0.6761 0.9055, -0.1604 0.6761 0.9016, -0.15 0.6699 0.9055, -0.15 0.6699 0.9016, -0.1455 0.6658 0.9055, -0.1455 0.6658 0.9016, -0.1382 0.6561 0.9055, -0.1382 0.6561 0.9016, -0.1336 0.645 0.9055, -0.1336 0.645 0.9016, -0.1305 0.6278 0.9055, -0.1305 0.6278 0.9016, -0.2521 0.6307 0.9055, -0.2521 0.6307 0.9016, -0.2472 0.6478 0.9055, -0.2472 0.6478 0.9016, -0.2408 0.66 0.9055, -0.2408 0.66 0.9016, -0.2328 0.6692 0.9055, -0.2328 0.6692 0.9016, -0.2235 0.6757 0.9055, -0.2235 0.6757 0.9016, -0.2125 0.6801 0.9055, -0.2125 0.6801 0.9016, -0.1958 0.6825 0.9055, -0.1958 0.6825 0.9016, 0.0093 0.674 0.9016, -0.0028 0.5897 0.9016, 0.0093 0.674 0.9055, -0.0028 0.5897 0.9055, 0.0557 0.6086 0.9016, 0.0557 0.6086 0.9055, 0.0303 0.6055 0.9055, 0.0303 0.6055 0.9016, 0.0099 0.5976 0.9055, 0.0099 0.5976 0.9016, 0.159 0.5088 0.9016, 0.159 0.5088 0.9055, 0.1544 0.5362 0.9055, 0.1544 0.5362 0.9016, 0.1459 0.5578 0.9055, 0.1459 0.5578 0.9016, 0.1344 0.5745 0.9055, 0.1344 0.5745 0.9016, 0.1181 0.5888 0.9055, 0.1181 0.5888 0.9016, 0.0986 0.5991 0.9055, 0.0986 0.5991 0.9016, 0.0666 0.6073 0.9055, 0.0666 0.6073 0.9016, 0.128 0.4313 0.9016, 0.128 0.4313 0.9055, 0.1436 0.4501 0.9055, 0.1436 0.4501 0.9016, 0.1464 0.4563 0.9055, 0.1533 0.4708 0.9016, 0.1533 0.4708 0.9055, 0.1582 0.4941 0.9055, 0.1582 0.4941 0.9016, 0.0454 0.4038 0.9016, 0.0454 0.4038 0.9055, 0.0852 0.4082 0.9055, 0.0852 0.4082 0.9016, 0.1082 0.4169 0.9055, 0.1082 0.4169 0.9016, 0.1261 0.4295 0.9055, 0.1261 0.4295 0.9016, -0.0544 0.4864 0.9016, -0.0544 0.4864 0.9055, -0.0497 0.4631 0.9055, -0.0497 0.4631 0.9016, -0.0467 0.4563 0.9055, -0.0417 0.4447 0.9016, -0.0417 0.4447 0.9055, -0.0316 0.4313 0.9055, -0.0316 0.4313 0.9016, -0.0173 0.4196 0.9055, -0.0173 0.4196 0.9016, 0.0023 0.4104 0.9055, 0.0023 0.4104 0.9016, 0.0332 0.4044 0.9055, 0.0332 0.4044 0.9016, -0.0148 0.4864 0.9016, -0.0148 0.4864 0.9055, 0.0523 0.433 0.9016, 0.0523 0.433 0.9055, 0.0333 0.4346 0.9055, 0.0333 0.4346 0.9016, 0.019 0.4386 0.9055, 0.019 0.4386 0.9016, 0.0068 0.4452 0.9055, 0.0068 0.4452 0.9016, -0.0016 0.4532 0.9055, -0.0016 0.4532 0.9016, -0.0036 0.4563 0.9055, -0.0083 0.4635 0.9016, -0.0083 0.4635 0.9055, -0.0135 0.4787 0.9055, -0.0135 0.4787 0.9016, 0.116 0.5036 0.9016, 0.116 0.5036 0.9055, 0.1125 0.4824 0.9055, 0.1125 0.4824 0.9016, 0.1064 0.4662 0.9055, 0.1064 0.4662 0.9016, 0.0998 0.4563 0.9055, 0.0988 0.4547 0.9016, 0.0988 0.4547 0.9055, 0.0892 0.4458 0.9055, 0.0892 0.4458 0.9016, 0.0772 0.439 0.9055, 0.0772 0.439 0.9016, 0.0597 0.434 0.9055, 0.0597 0.434 0.9016, 0.0489 0.5724 0.9016, 0.0489 0.5724 0.9055, 0.0675 0.5698 0.9055, 0.0675 0.5698 0.9016, 0.0817 0.5647 0.9055, 0.0817 0.5647 0.9016, 0.0929 0.5577 0.9055, 0.0929 0.5577 0.9016, 0.1021 0.5482 0.9055, 0.1021 0.5482 0.9016, 0.1088 0.5365 0.9055, 0.1088 0.5365 0.9016, 0.1142 0.5187 0.9055, 0.1142 0.5187 0.9016, -0.0097 0.5432 0.9016, -0.0097 0.5432 0.9055, 0.0034 0.5569 0.9055, 0.0034 0.5569 0.9016, 0.017 0.5655 0.9055, 0.017 0.5655 0.9016, 0.033 0.5709 0.9055, 0.033 0.5709 0.9016, -0.0424 0.5449 0.9016, -0.0424 0.5449 0.9055, -0.02 0.7119 0.9016, -0.02 0.7119 0.9055, 0.1401 0.7119 0.9016, 0.1401 0.7119 0.9055, 0.1401 0.674 0.9016, 0.1401 0.674 0.9055, 0.2351 0.6069 0.9016, 0.1955 0.6069 0.9016, 0.2351 0.6069 0.9055, 0.1955 0.6069 0.9055, 0.2231 0.6895 0.9016, 0.2231 0.6895 0.9055, 0.208 0.6671 0.9055, 0.208 0.6671 0.9016, 0.1989 0.6403 0.9055, 0.1989 0.6403 0.9016, 0.3022 0.7187 0.9055, 0.2708 0.7153 0.9055, 0.3022 0.7187 0.9016, 0.2689 0.7151 0.9016, 0.2689 0.7151 0.9055, 0.2473 0.7074 0.9055, 0.2473 0.7074 0.9016, 0.2312 0.6971 0.9055, 0.2312 0.6971 0.9016, 0.3492 0.7086 0.9055, 0.3659 0.6991 0.9016, 0.3659 0.6991 0.9055, 0.3794 0.6864 0.9016, 0.3794 0.6864 0.9055, 0.3893 0.6711 0.9016, 0.3893 0.6711 0.9055, 0.3966 0.6512 0.9016, 0.3966 0.6512 0.9055, 0.4003 0.6258 0.9016, 0.4003 0.6258 0.9055, 0.3264 0.7153 0.9055, 0.3222 0.7165 0.9016, 0.3492 0.7086 0.9016, 0.3222 0.7165 0.9055, 0.316 0.5225 0.9016, 0.316 0.5225 0.9055, 0.3552 0.5446 0.9055, 0.3552 0.5446 0.9016, 0.3803 0.5674 0.9055, 0.3803 0.5674 0.9016, 0.3919 0.5848 0.9055, 0.3919 0.5848 0.9016, 0.3983 0.6023 0.9055, 0.3983 0.6023 0.9016, 0.2833 0.5036 0.9016, 0.2833 0.5036 0.9055, 0.2317 0.4451 0.9016, 0.2317 0.4451 0.9055, 0.2359 0.459 0.9016, 0.235 0.4563 0.9055, 0.2359 0.459 0.9055, 0.2438 0.4721 0.9055, 0.2438 0.4721 0.9016, 0.26 0.4882 0.9055, 0.26 0.4882 0.9016, 0.4003 0.4451 0.9016, 0.4003 0.4451 0.9055, 0.4003 0.4089 0.9016, 0.4003 0.4089 0.9055, 0.1886 0.4089 0.9016, 0.1886 0.4089 0.9055, 0.1909 0.4345 0.9016, 0.2609 0.5311 0.9016, 0.2609 0.5311 0.9055, 0.2329 0.5119 0.9055, 0.2329 0.5119 0.9016, 0.2129 0.4899 0.9055, 0.2129 0.4899 0.9016, 0.1989 0.4639 0.9055, 0.1989 0.4639 0.9016, 0.1968 0.4563 0.9055, 0.1909 0.4345 0.9055, 0.3022 0.5552 0.9016, 0.3022 0.5552 0.9055, 0.347 0.5879 0.9016, 0.347 0.5879 0.9055, 0.3257 0.5702 0.9055, 0.3257 0.5702 0.9016, 0.359 0.6275 0.9016, 0.359 0.6275 0.9055, 0.3561 0.6068 0.9055, 0.3561 0.6068 0.9016, 0.35 0.5928 0.9055, 0.35 0.5928 0.9016, 0.2971 0.6826 0.9016, 0.2971 0.6826 0.9055, 0.3153 0.6805 0.9055, 0.3153 0.6805 0.9016, 0.3292 0.6761 0.9055, 0.3292 0.6761 0.9016, 0.3395 0.6699 0.9055, 0.3395 0.6699 0.9016, 0.3441 0.6658 0.9055, 0.3441 0.6658 0.9016, 0.3513 0.6561 0.9055, 0.3513 0.6561 0.9016, 0.356 0.645 0.9055, 0.356 0.645 0.9016, 0.359 0.6278 0.9055, 0.359 0.6278 0.9016, 0.2374 0.6307 0.9055, 0.2374 0.6307 0.9016, 0.2423 0.6478 0.9055, 0.2423 0.6478 0.9016, 0.2488 0.66 0.9055, 0.2488 0.66 0.9016, 0.2567 0.6692 0.9055, 0.2567 0.6692 0.9016, 0.266 0.6757 0.9055, 0.266 0.6757 0.9016, 0.277 0.6801 0.9055, 0.277 0.6801 0.9016, 0.2938 0.6825 0.9055, 0.2938 0.6825 0.9016, 0.6606 0.5036 0.9016, 0.4386 0.5036 0.9016, 0.6606 0.5036 0.9055, 0.4386 0.5036 0.9055, 0.4386 0.5363 0.9016, 0.4386 0.5363 0.9055, 0.6606 0.5363 0.9016, 0.6606 0.5363 0.9055, 0.7369 0.6069 0.9016, 0.6973 0.6069 0.9016, 0.7369 0.6069 0.9055, 0.6973 0.6069 0.9055, 0.7249 0.6895 0.9016, 0.7249 0.6895 0.9055, 0.7098 0.6671 0.9055, 0.7098 0.6671 0.9016, 0.7007 0.6403 0.9055, 0.7007 0.6403 0.9016, 0.804 0.7187 0.9055, 0.7726 0.7153 0.9055, 0.804 0.7187 0.9016, 0.7707 0.7151 0.9016, 0.7707 0.7151 0.9055, 0.7491 0.7074 0.9055, 0.7491 0.7074 0.9016, 0.733 0.6971 0.9055, 0.733 0.6971 0.9016, 0.851 0.7086 0.9055, 0.8676 0.6991 0.9016, 0.8676 0.6991 0.9055, 0.8811 0.6864 0.9016, 0.8811 0.6864 0.9055, 0.8911 0.6711 0.9016, 0.8911 0.6711 0.9055, 0.8984 0.6512 0.9016, 0.8984 0.6512 0.9055, 0.9021 0.6258 0.9016, 0.9021 0.6258 0.9055, 0.8282 0.7153 0.9055, 0.824 0.7165 0.9016, 0.851 0.7086 0.9016, 0.824 0.7165 0.9055, 0.8178 0.5225 0.9016, 0.8178 0.5225 0.9055, 0.857 0.5446 0.9055, 0.857 0.5446 0.9016, 0.8821 0.5674 0.9055, 0.8821 0.5674 0.9016, 0.8937 0.5848 0.9055, 0.8937 0.5848 0.9016, 0.9001 0.6023 0.9055, 0.9001 0.6023 0.9016, 0.7851 0.5036 0.9016, 0.7851 0.5036 0.9055, 0.7335 0.4451 0.9016, 0.7335 0.4451 0.9055, 0.7377 0.459 0.9016, 0.7368 0.4563 0.9055, 0.7377 0.459 0.9055, 0.7456 0.4721 0.9055, 0.7456 0.4721 0.9016, 0.7618 0.4882 0.9055, 0.7618 0.4882 0.9016, 0.9021 0.4451 0.9016, 0.9021 0.4451 0.9055, 0.9021 0.4089 0.9016, 0.9021 0.4089 0.9055, 0.6904 0.4089 0.9016, 0.6904 0.4089 0.9055, 0.6927 0.4345 0.9016, 0.7627 0.5311 0.9016, 0.7627 0.5311 0.9055, 0.7347 0.5119 0.9055, 0.7347 0.5119 0.9016, 0.7147 0.4899 0.9055, 0.7147 0.4899 0.9016, 0.7007 0.4639 0.9055, 0.7007 0.4639 0.9016, 0.6986 0.4563 0.9055, 0.6927 0.4345 0.9055, 0.804 0.5552 0.9016, 0.804 0.5552 0.9055, 0.8488 0.5879 0.9016, 0.8488 0.5879 0.9055, 0.8275 0.5702 0.9055, 0.8275 0.5702 0.9016, 0.8608 0.6275 0.9016, 0.8608 0.6275 0.9055, 0.8579 0.6068 0.9055, 0.8579 0.6068 0.9016, 0.8518 0.5928 0.9055, 0.8518 0.5928 0.9016, 0.7989 0.6826 0.9016, 0.7989 0.6826 0.9055, 0.8171 0.6805 0.9055, 0.8171 0.6805 0.9016, 0.831 0.6761 0.9055, 0.831 0.6761 0.9016, 0.8413 0.6699 0.9055, 0.8413 0.6699 0.9016, 0.8459 0.6658 0.9055, 0.8459 0.6658 0.9016, 0.8531 0.6561 0.9055, 0.8531 0.6561 0.9016, 0.8578 0.645 0.9055, 0.8578 0.645 0.9016, 0.8608 0.6278 0.9055, 0.8608 0.6278 0.9016, 0.7392 0.6307 0.9055, 0.7392 0.6307 0.9016, 0.7441 0.6478 0.9055, 0.7441 0.6478 0.9016, 0.7505 0.66 0.9055, 0.7505 0.66 0.9016, 0.7585 0.6692 0.9055, 0.7585 0.6692 0.9016, 0.7678 0.6757 0.9055, 0.7678 0.6757 0.9016, 0.7788 0.6801 0.9055, 0.7788 0.6801 0.9016, 0.7956 0.6825 0.9055, 0.7956 0.6825 0.9016
            ]
        }
        coordIndex [
            0,1,2,-1,2,1,3,-1,4,5,6,-1,4,6,7,-1,7,6,8,-1,7,8,9,-1,9,8,3,-1,9,3,1,-1,10,11,12,-1,12,11,13,-1,11,14,13,-1,13,14,15,-1,13,15,16,-1,16,15,17,-1,16,17,18,-1,18,17,5,-1,18,5,4,-1,19,20,21,-1,21,20,22,-1,21,22,23,-1,23,22,24,-1,23,24,25,-1,25,24,26,-1,25,26,27,-1,27,26,28,-1,27,28,29,-1,30,31,19,-1,19,31,32,-1,19,32,20,-1,30,33,31,-1,31,33,10,-1,31,10,12,-1,34,35,36,-1,34,36,37,-1,37,36,38,-1,37,38,39,-1,39,38,40,-1,39,40,41,-1,41,40,42,-1,41,42,43,-1,43,42,29,-1,43,29,28,-1,34,44,35,-1,35,44,45,-1,46,47,48,-1,48,47,49,-1,49,50,48,-1,48,50,51,-1,48,51,52,-1,52,51,53,-1,52,53,54,-1,54,53,45,-1,54,45,44,-1,46,55,47,-1,47,55,56,-1,55,57,56,-1,56,57,58,-1,57,59,58,-1,58,59,60,-1,60,59,61,-1,62,63,64,-1,62,64,65,-1,65,64,66,-1,65,66,67,-1,67,66,68,-1,67,68,69,-1,69,68,70,-1,69,70,61,-1,61,70,71,-1,61,71,60,-1,62,72,63,-1,63,72,73,-1,74,75,76,-1,74,76,77,-1,77,76,73,-1,77,73,72,-1,78,79,80,-1,78,80,81,-1,81,80,82,-1,81,82,83,-1,83,82,75,-1,83,75,74,-1,84,85,86,-1,84,86,87,-1,87,86,88,-1,87,88,89,-1,89,88,90,-1,89,90,91,-1,91,90,92,-1,91,92,93,-1,93,92,94,-1,93,94,95,-1,95,94,96,-1,95,96,97,-1,97,96,98,-1,97,98,99,-1,99,98,79,-1,99,79,78,-1,0,2,100,-1,0,100,101,-1,101,100,102,-1,101,102,103,-1,103,102,104,-1,103,104,105,-1,105,104,106,-1,105,106,107,-1,107,106,108,-1,107,108,109,-1,109,108,110,-1,109,110,111,-1,111,110,112,-1,111,112,113,-1,113,112,85,-1,113,85,84,-1,57,55,59,-1,59,55,46,-1,28,78,43,-1,43,78,81,-1,43,81,41,-1,41,81,83,-1,41,83,39,-1,39,83,74,-1,39,74,37,-1,37,74,77,-1,37,77,34,-1,34,77,72,-1,34,72,44,-1,44,72,62,-1,44,62,54,-1,54,62,65,-1,54,65,52,-1,52,65,67,-1,52,67,48,-1,48,67,69,-1,48,69,46,-1,46,69,61,-1,46,61,59,-1,1,0,9,-1,9,0,101,-1,9,101,7,-1,7,101,103,-1,7,103,4,-1,4,103,105,-1,4,105,18,-1,18,105,107,-1,18,107,16,-1,16,107,109,-1,16,109,13,-1,13,109,111,-1,13,111,12,-1,111,113,12,-1,12,113,84,-1,12,84,31,-1,31,84,87,-1,31,87,32,-1,32,87,89,-1,32,89,20,-1,20,89,91,-1,20,91,22,-1,22,91,93,-1,22,93,24,-1,24,93,95,-1,24,95,26,-1,26,95,97,-1,26,97,28,-1,28,97,99,-1,28,99,78,-1,114,115,116,-1,116,115,117,-1,118,119,120,-1,118,120,121,-1,121,120,122,-1,121,122,123,-1,123,122,117,-1,123,117,115,-1,124,125,126,-1,124,126,127,-1,127,126,128,-1,127,128,129,-1,129,128,130,-1,129,130,131,-1,131,130,132,-1,131,132,133,-1,133,132,134,-1,133,134,135,-1,135,134,136,-1,135,136,137,-1,137,136,119,-1,137,119,118,-1,138,139,140,-1,138,140,141,-1,141,140,142,-1,141,142,143,-1,142,144,143,-1,143,144,145,-1,143,145,146,-1,146,145,125,-1,146,125,124,-1,147,148,149,-1,147,149,150,-1,150,149,151,-1,150,151,152,-1,152,151,153,-1,152,153,154,-1,154,153,139,-1,154,139,138,-1,155,156,157,-1,155,157,158,-1,158,157,159,-1,158,159,160,-1,159,161,160,-1,160,161,162,-1,160,162,163,-1,163,162,164,-1,163,164,165,-1,165,164,166,-1,165,166,167,-1,167,166,168,-1,167,168,169,-1,169,168,148,-1,169,148,147,-1,155,170,156,-1,156,170,171,-1,172,173,174,-1,172,174,175,-1,175,174,176,-1,175,176,177,-1,177,176,178,-1,177,178,179,-1,179,178,180,-1,179,180,181,-1,181,180,182,-1,181,182,183,-1,182,184,183,-1,183,184,185,-1,183,185,186,-1,186,185,171,-1,186,171,170,-1,187,188,189,-1,187,189,190,-1,190,189,191,-1,190,191,192,-1,192,191,193,-1,192,193,194,-1,193,195,194,-1,194,195,196,-1,194,196,197,-1,197,196,198,-1,197,198,199,-1,199,198,200,-1,199,200,201,-1,201,200,173,-1,201,173,172,-1,202,203,204,-1,202,204,205,-1,205,204,206,-1,205,206,207,-1,207,206,208,-1,207,208,209,-1,209,208,210,-1,209,210,211,-1,211,210,212,-1,211,212,213,-1,213,212,214,-1,213,214,215,-1,215,214,188,-1,215,188,187,-1,216,217,218,-1,216,218,219,-1,219,218,220,-1,219,220,221,-1,221,220,222,-1,221,222,223,-1,223,222,203,-1,223,203,202,-1,216,224,217,-1,217,224,225,-1,224,226,225,-1,225,226,227,-1,226,228,227,-1,227,228,229,-1,228,230,229,-1,229,230,231,-1,230,114,231,-1,231,114,116,-1,230,228,114,-1,114,228,226,-1,114,226,115,-1,115,226,224,-1,150,152,197,-1,197,152,154,-1,197,154,194,-1,194,154,138,-1,194,138,192,-1,192,138,141,-1,192,141,190,-1,170,155,186,-1,186,155,158,-1,186,158,183,-1,183,158,160,-1,183,160,181,-1,181,160,163,-1,181,163,179,-1,179,163,165,-1,179,165,177,-1,177,165,167,-1,177,167,175,-1,175,167,169,-1,175,169,172,-1,172,169,147,-1,172,147,201,-1,201,147,150,-1,201,150,199,-1,199,150,197,-1,224,216,115,-1,115,216,219,-1,115,219,123,-1,123,219,221,-1,123,221,121,-1,121,221,223,-1,121,223,118,-1,118,223,202,-1,118,202,137,-1,137,202,205,-1,137,205,135,-1,135,205,207,-1,135,207,133,-1,133,207,209,-1,133,209,131,-1,131,209,211,-1,131,211,129,-1,129,211,213,-1,129,213,127,-1,127,213,215,-1,127,215,124,-1,124,215,187,-1,124,187,146,-1,146,187,190,-1,146,190,143,-1,143,190,141,-1,232,233,234,-1,234,233,235,-1,236,237,238,-1,236,238,239,-1,239,238,240,-1,239,240,241,-1,241,240,235,-1,241,235,233,-1,242,243,244,-1,244,243,245,-1,243,246,245,-1,245,246,247,-1,245,247,248,-1,248,247,249,-1,248,249,250,-1,250,249,237,-1,250,237,236,-1,251,252,253,-1,253,252,254,-1,253,254,255,-1,255,254,256,-1,255,256,257,-1,257,256,258,-1,257,258,259,-1,259,258,260,-1,259,260,261,-1,262,263,251,-1,251,263,264,-1,251,264,252,-1,262,265,263,-1,263,265,242,-1,263,242,244,-1,266,267,268,-1,266,268,269,-1,269,268,270,-1,269,270,271,-1,271,270,272,-1,271,272,273,-1,273,272,274,-1,273,274,275,-1,275,274,261,-1,275,261,260,-1,266,276,267,-1,267,276,277,-1,278,279,280,-1,280,279,281,-1,281,282,280,-1,280,282,283,-1,280,283,284,-1,284,283,285,-1,284,285,286,-1,286,285,277,-1,286,277,276,-1,278,287,279,-1,279,287,288,-1,287,289,288,-1,288,289,290,-1,289,291,290,-1,290,291,292,-1,292,291,293,-1,294,295,296,-1,294,296,297,-1,297,296,298,-1,297,298,299,-1,299,298,300,-1,299,300,301,-1,301,300,302,-1,301,302,293,-1,293,302,303,-1,293,303,292,-1,294,304,295,-1,295,304,305,-1,306,307,308,-1,306,308,309,-1,309,308,305,-1,309,305,304,-1,310,311,312,-1,310,312,313,-1,313,312,314,-1,313,314,315,-1,315,314,307,-1,315,307,306,-1,316,317,318,-1,316,318,319,-1,319,318,320,-1,319,320,321,-1,321,320,322,-1,321,322,323,-1,323,322,324,-1,323,324,325,-1,325,324,326,-1,325,326,327,-1,327,326,328,-1,327,328,329,-1,329,328,330,-1,329,330,331,-1,331,330,311,-1,331,311,310,-1,232,234,332,-1,232,332,333,-1,333,332,334,-1,333,334,335,-1,335,334,336,-1,335,336,337,-1,337,336,338,-1,337,338,339,-1,339,338,340,-1,339,340,341,-1,341,340,342,-1,341,342,343,-1,343,342,344,-1,343,344,345,-1,345,344,317,-1,345,317,316,-1,289,287,291,-1,291,287,278,-1,260,310,275,-1,275,310,313,-1,275,313,273,-1,273,313,315,-1,273,315,271,-1,271,315,306,-1,271,306,269,-1,269,306,309,-1,269,309,266,-1,266,309,304,-1,266,304,276,-1,276,304,294,-1,276,294,286,-1,286,294,297,-1,286,297,284,-1,284,297,299,-1,284,299,280,-1,280,299,301,-1,280,301,278,-1,278,301,293,-1,278,293,291,-1,233,232,241,-1,241,232,333,-1,241,333,239,-1,239,333,335,-1,239,335,236,-1,236,335,337,-1,236,337,250,-1,250,337,339,-1,250,339,248,-1,248,339,341,-1,248,341,245,-1,245,341,343,-1,245,343,244,-1,343,345,244,-1,244,345,316,-1,244,316,263,-1,263,316,319,-1,263,319,264,-1,264,319,321,-1,264,321,252,-1,252,321,323,-1,252,323,254,-1,254,323,325,-1,254,325,256,-1,256,325,327,-1,256,327,258,-1,258,327,329,-1,258,329,260,-1,260,329,331,-1,260,331,310,-1,346,347,348,-1,348,347,349,-1,347,350,349,-1,349,350,351,-1,350,352,351,-1,351,352,353,-1,352,346,353,-1,353,346,348,-1,352,350,346,-1,346,350,347,-1,354,355,356,-1,356,355,357,-1,358,359,360,-1,358,360,361,-1,361,360,362,-1,361,362,363,-1,363,362,357,-1,363,357,355,-1,364,365,366,-1,366,365,367,-1,365,368,367,-1,367,368,369,-1,367,369,370,-1,370,369,371,-1,370,371,372,-1,372,371,359,-1,372,359,358,-1,373,374,375,-1,375,374,376,-1,375,376,377,-1,377,376,378,-1,377,378,379,-1,379,378,380,-1,379,380,381,-1,381,380,382,-1,381,382,383,-1,384,385,373,-1,373,385,386,-1,373,386,374,-1,384,387,385,-1,385,387,364,-1,385,364,366,-1,388,389,390,-1,388,390,391,-1,391,390,392,-1,391,392,393,-1,393,392,394,-1,393,394,395,-1,395,394,396,-1,395,396,397,-1,397,396,383,-1,397,383,382,-1,388,398,389,-1,389,398,399,-1,400,401,402,-1,402,401,403,-1,403,404,402,-1,402,404,405,-1,402,405,406,-1,406,405,407,-1,406,407,408,-1,408,407,399,-1,408,399,398,-1,400,409,401,-1,401,409,410,-1,409,411,410,-1,410,411,412,-1,411,413,412,-1,412,413,414,-1,414,413,415,-1,416,417,418,-1,416,418,419,-1,419,418,420,-1,419,420,421,-1,421,420,422,-1,421,422,423,-1,423,422,424,-1,423,424,415,-1,415,424,425,-1,415,425,414,-1,416,426,417,-1,417,426,427,-1,428,429,430,-1,428,430,431,-1,431,430,427,-1,431,427,426,-1,432,433,434,-1,432,434,435,-1,435,434,436,-1,435,436,437,-1,437,436,429,-1,437,429,428,-1,438,439,440,-1,438,440,441,-1,441,440,442,-1,441,442,443,-1,443,442,444,-1,443,444,445,-1,445,444,446,-1,445,446,447,-1,447,446,448,-1,447,448,449,-1,449,448,450,-1,449,450,451,-1,451,450,452,-1,451,452,453,-1,453,452,433,-1,453,433,432,-1,354,356,454,-1,354,454,455,-1,455,454,456,-1,455,456,457,-1,457,456,458,-1,457,458,459,-1,459,458,460,-1,459,460,461,-1,461,460,462,-1,461,462,463,-1,463,462,464,-1,463,464,465,-1,465,464,466,-1,465,466,467,-1,467,466,439,-1,467,439,438,-1,411,409,413,-1,413,409,400,-1,382,432,397,-1,397,432,435,-1,397,435,395,-1,395,435,437,-1,395,437,393,-1,393,437,428,-1,393,428,391,-1,391,428,431,-1,391,431,388,-1,388,431,426,-1,388,426,398,-1,398,426,416,-1,398,416,408,-1,408,416,419,-1,408,419,406,-1,406,419,421,-1,406,421,402,-1,402,421,423,-1,402,423,400,-1,400,423,415,-1,400,415,413,-1,355,354,363,-1,363,354,455,-1,363,455,361,-1,361,455,457,-1,361,457,358,-1,358,457,459,-1,358,459,372,-1,372,459,461,-1,372,461,370,-1,370,461,463,-1,370,463,367,-1,367,463,465,-1,367,465,366,-1,465,467,366,-1,366,467,438,-1,366,438,385,-1,385,438,441,-1,385,441,386,-1,386,441,443,-1,386,443,374,-1,374,443,445,-1,374,445,376,-1,376,445,447,-1,376,447,378,-1,378,447,449,-1,378,449,380,-1,380,449,451,-1,380,451,382,-1,382,451,453,-1,382,453,432,-1,
        ]
    }
}
Shape{
    appearance Appearance {
        material  Material 	{
            diffuseColor 0.7686274509803922 0.7686274509803922 0.7686274509803922
            specularColor 0.615686274509804 0.615686274509804 0.615686274509804
            ambientIntensity 0.7686
            transparency 0.0
            shininess 0.5
        }
    }
    geometry IndexedFaceSet {
        ccw TRUE
        solid FALSE
        coord DEF co Coordinate {
            point [
                -0.9831 0.2674 0.0, -0.9831 0.5648 0.0, -0.0345 0.5648 0.0, -0.2554 0.566 0.0, -0.2266 0.566 0.0, -0.3754 0.566 0.0, -0.3555 0.6212 0.0, -0.2742 0.6212 0.0, -0.2024 0.6199 0.0, -0.1911 0.6023 0.0, -0.1749 0.5868 0.0, -0.1543 0.5749 0.0, -0.9831 2.199 0.0, -0.7862 2.3959 0.0, -0.0345 2.3959 0.0, -0.9831 1.8029 0.0, -0.7862 1.8029 0.0, -0.7862 1.6848 0.0, -0.0537 0.7628 0.0, -0.1093 0.7628 0.0, -0.1377 0.7598 0.0, -0.301 0.7628 0.0, -0.1608 0.7517 0.0, -0.1822 0.7374 0.0, -0.0537 0.566 0.0, -0.1073 0.566 0.0, -0.1316 0.5681 0.0, -0.1824 0.7372 0.0, -0.1963 0.7217 0.0, -0.2055 0.7048 0.0, -0.4042 0.566 0.0, -0.3274 0.7628 0.0, -0.9831 1.6848 0.0, -0.2108 0.6854 0.0, -0.2122 0.6669 0.0, -0.2094 0.6406 0.0, -0.8372 0.0773 0.0, -0.8847 0.097 0.0, -0.9254 0.1283 0.0, -0.9567 0.169 0.0, -0.9764 0.2165 0.0, 0.1696 0.5648 0.0, 0.1775 0.5637 0.0, -0.0345 0.0706 0.0, 0.1829 0.5636 0.0, 0.1944 0.5648 0.0, 0.9854 0.5648 0.0, 0.9854 0.2674 0.0, 0.7886 0.0706 0.0, 0.9787 0.2165 0.0, 0.959 0.169 0.0, 0.9278 0.1283 0.0, 0.887 0.097 0.0, 0.8395 0.0773 0.0, -0.0153 0.5876 0.0, -0.0153 0.566 0.0, 0.0903 0.566 0.0, -0.0105 0.7628 0.0, -0.0105 0.7412 0.0, 0.1287 0.5762 0.0, 0.1287 0.5978 0.0, 0.0903 0.7628 0.0, 0.1497 0.5676 0.0, -0.7862 0.0706 0.0, 0.7886 2.3959 0.0, 0.7886 1.8029 0.0, 0.9854 2.199 0.0, 0.9854 1.8029 0.0, 0.0639 0.6548 0.0, 0.0639 0.5876 0.0, -0.0057 0.6548 0.0, -0.0057 0.6764 0.0, 0.0639 0.6764 0.0, 0.0639 0.7412 0.0, 0.1942 0.7415 0.0, 0.2089 0.7361 0.0, 0.1322 0.5958 0.0, 0.2225 0.727 0.0, 0.2344 0.7139 0.0, 0.2487 0.6623 0.0, 0.2467 0.641 0.0, 0.2414 0.6241 0.0, 0.1976 0.5873 0.0, 0.1792 0.5852 0.0, 0.2119 0.5925 0.0, 0.224 0.6007 0.0, 0.2333 0.6104 0.0, 0.1531 0.5881 0.0, 0.3928 0.566 0.0, 0.2919 0.566 0.0, 0.2071 0.5661 0.0, 0.2262 0.5727 0.0, 0.7886 1.6848 0.0, 0.2647 0.711 0.0, 0.2532 0.7294 0.0, 0.3664 0.7628 0.0, 0.2425 0.6987 0.0, 0.2478 0.6776 0.0, 0.175 0.7652 0.0, 0.1515 0.7636 0.0, 0.1287 0.7574 0.0, 0.1287 0.731 0.0, 0.1509 0.7405 0.0, 0.1748 0.7436 0.0, 0.242 0.5828 0.0, 0.2568 0.5984 0.0, 0.2919 0.5876 0.0, 0.2673 0.6171 0.0, 0.3664 0.5876 0.0, 0.2354 0.7465 0.0, 0.2167 0.7573 0.0, 0.1948 0.7636 0.0, 0.3928 0.7628 0.0, 0.9854 1.6848 0.0, 0.2732 0.6379 0.0, 0.2751 0.6607 0.0, 0.2723 0.6887 0.0, 0.7886 1.6848 0.1969, 0.7886 1.8029 0.1969, -0.7862 1.8029 0.1969, 0.9854 1.8029 0.1969, 0.9854 2.199 0.1969, 0.7886 2.3959 0.1969, -0.7862 2.3959 0.1969, -0.9831 1.8029 0.1969, -0.9831 2.199 0.1969, 0.9854 0.2674 0.1969, 0.9854 1.6848 0.1969, -0.9831 1.6848 0.1969, -0.7862 0.0706 0.1969, -0.7862 1.6848 0.1969, 0.7886 0.0706 0.1969, 0.8395 0.0773 0.1969, -0.9831 0.2674 0.1969, -0.9764 0.2165 0.1969, -0.9567 0.169 0.1969, 0.887 0.097 0.1969, 0.9278 0.1283 0.1969, 0.959 0.169 0.1969, -0.9254 0.1283 0.1969, -0.8847 0.097 0.1969, -0.8372 0.0773 0.1969, 0.9787 0.2165 0.1969
            ]
        }
        coordIndex [
            0,1,2,-1,3,4,2,-1,5,6,7,-1,8,9,4,-1,4,9,10,-1,4,10,11,-1,12,13,14,-1,15,12,16,-1,16,12,14,-1,16,14,17,-1,17,14,18,-1,19,20,21,-1,21,20,22,-1,21,22,23,-1,24,2,25,-1,25,2,4,-1,25,4,26,-1,26,4,11,-1,23,27,21,-1,21,27,28,-1,21,28,29,-1,7,3,5,-1,5,3,2,-1,5,2,30,-1,30,2,1,-1,30,1,31,-1,31,1,32,-1,31,32,21,-1,21,32,17,-1,21,17,19,-1,19,17,18,-1,29,33,21,-1,21,33,34,-1,21,34,4,-1,4,34,35,-1,4,35,8,-1,36,37,0,-1,37,38,0,-1,0,38,39,-1,0,39,40,-1,41,42,43,-1,43,42,44,-1,43,44,45,-1,46,47,48,-1,48,47,49,-1,48,49,50,-1,50,51,48,-1,48,51,52,-1,48,52,53,-1,54,55,2,-1,2,55,56,-1,24,18,2,-1,2,18,14,-1,2,14,54,-1,54,14,57,-1,54,57,58,-1,59,56,60,-1,60,56,61,-1,59,62,56,-1,56,62,41,-1,56,41,2,-1,2,41,43,-1,2,43,0,-1,0,43,63,-1,0,63,36,-1,14,64,65,-1,65,64,66,-1,65,66,67,-1,68,69,70,-1,70,69,54,-1,70,54,71,-1,71,54,58,-1,71,58,72,-1,72,58,73,-1,74,75,76,-1,76,75,77,-1,76,77,78,-1,79,80,76,-1,76,80,81,-1,82,83,84,-1,84,83,85,-1,81,86,76,-1,76,86,85,-1,76,85,87,-1,87,85,83,-1,88,45,89,-1,89,45,90,-1,89,90,91,-1,14,65,57,-1,57,65,92,-1,57,92,61,-1,93,94,95,-1,78,96,76,-1,76,96,97,-1,76,97,79,-1,98,99,92,-1,92,99,100,-1,92,100,61,-1,61,100,101,-1,61,101,60,-1,60,101,102,-1,60,102,76,-1,76,102,103,-1,76,103,74,-1,91,104,89,-1,89,104,105,-1,89,105,106,-1,106,105,107,-1,106,107,108,-1,94,109,95,-1,95,109,110,-1,95,110,111,-1,111,98,95,-1,95,98,92,-1,95,92,112,-1,112,92,113,-1,112,113,88,-1,88,113,46,-1,88,46,45,-1,45,46,48,-1,45,48,43,-1,107,114,108,-1,108,114,115,-1,108,115,95,-1,95,115,116,-1,95,116,93,-1,117,118,119,-1,120,121,118,-1,118,121,122,-1,118,122,119,-1,119,122,123,-1,119,123,124,-1,124,123,125,-1,126,127,117,-1,128,129,130,-1,130,129,131,-1,130,131,132,-1,128,133,129,-1,129,133,134,-1,129,134,135,-1,136,137,138,-1,135,139,129,-1,129,139,140,-1,129,140,141,-1,119,130,117,-1,117,130,132,-1,117,132,126,-1,126,132,136,-1,126,136,142,-1,142,136,138,-1,16,119,15,-1,15,119,124,-1,17,130,16,-1,16,130,119,-1,32,128,17,-1,17,128,130,-1,128,32,133,-1,133,32,1,-1,133,1,0,-1,63,129,141,-1,63,141,36,-1,36,141,140,-1,36,140,37,-1,37,140,139,-1,37,139,38,-1,38,139,135,-1,38,135,39,-1,39,135,134,-1,39,134,40,-1,40,134,133,-1,40,133,0,-1,48,131,43,-1,43,131,129,-1,43,129,63,-1,47,126,142,-1,47,142,49,-1,49,142,138,-1,49,138,50,-1,50,138,137,-1,50,137,51,-1,51,137,136,-1,51,136,52,-1,52,136,132,-1,52,132,53,-1,53,132,131,-1,53,131,48,-1,113,127,46,-1,46,127,126,-1,46,126,47,-1,92,117,113,-1,113,117,127,-1,65,118,92,-1,92,118,117,-1,67,120,65,-1,65,120,118,-1,66,121,67,-1,67,121,120,-1,64,122,66,-1,66,122,121,-1,13,123,14,-1,14,123,122,-1,14,122,64,-1,12,125,13,-1,13,125,123,-1,15,124,12,-1,12,124,125,-1,
        ]
    }
}
Shape{
    appearance Appearance {
        material  Material 	{
            diffuseColor 0.25098039215686274 0.25098039215686274 0.25098039215686274
            specularColor 0.07450980392156863 0.07450980392156863 0.07450980392156863
            ambientIntensity 0.251
            transparency 0.0
            shininess 0.5
        }
    }
    geometry IndexedFaceSet {
        ccw TRUE
        solid FALSE
        coord DEF co Coordinate {
            point [
                -0.3274 0.7628 0.0039, -0.4042 0.566 0.0039, -0.3274 0.7628 0.0, -0.4042 0.566 0.0, -0.3754 0.566 0.0039, -0.3754 0.566 0.0, -0.3555 0.6212 0.0039, -0.3555 0.6212 0.0, -0.2742 0.6212 0.0039, -0.2742 0.6212 0.0, -0.2554 0.566 0.0039, -0.2554 0.566 0.0, -0.2266 0.566 0.0039, -0.2266 0.566 0.0, -0.301 0.7628 0.0039, -0.301 0.7628 0.0, -0.2808 0.6428 0.0039, -0.3467 0.6428 0.0039, -0.3102 0.725 0.0039, -0.3121 0.7319 0.0039, -0.3133 0.7388 0.0039, -0.314 0.7388 0.0039, -0.3153 0.7319 0.0039, -0.317 0.725 0.0039, -0.2808 0.6428 0.0, -0.3467 0.6428 0.0, -0.3102 0.725 0.0
            ]
        }
        coordIndex [
            0,1,2,-1,2,1,3,-1,1,4,3,-1,3,4,5,-1,4,6,5,-1,5,6,7,-1,6,8,7,-1,7,8,9,-1,8,10,9,-1,9,10,11,-1,10,12,11,-1,11,12,13,-1,12,14,13,-1,13,14,15,-1,14,0,15,-1,15,0,2,-1,16,8,17,-1,17,8,6,-1,18,14,16,-1,16,14,12,-1,16,12,8,-1,8,12,10,-1,18,19,14,-1,14,19,20,-1,14,20,0,-1,0,20,21,-1,0,21,22,-1,22,23,0,-1,0,23,17,-1,0,17,1,-1,1,17,6,-1,1,6,4,-1,16,17,24,-1,24,17,25,-1,18,16,26,-1,26,16,24,-1,
        ]
    }
}
Shape{
    appearance Appearance {
        material  Material 	{
            diffuseColor 0.7686274509803922 0.7686274509803922 0.7686274509803922
            specularColor 0.615686274509804 0.615686274509804 0.615686274509804
            ambientIntensity 0.7686
            transparency 0.0
            shininess 0.5
        }
    }
    geometry IndexedFaceSet {
        ccw TRUE
        solid FALSE
        coord DEF co Coordinate {
            point [
                -0.3102 0.725 0.0039, -0.3102 0.725 0.0, -0.3121 0.7319 0.0, -0.3121 0.7319 0.0039, -0.3133 0.7388 0.0, -0.3133 0.7388 0.0039, -0.314 0.7388 0.0039, -0.314 0.7388 0.0, -0.3153 0.7319 0.0, -0.3153 0.7319 0.0039, -0.317 0.725 0.0, -0.317 0.725 0.0039, -0.3467 0.6428 0.0039, -0.3467 0.6428 0.0, -0.1073 0.566 0.0039, -0.0537 0.566 0.0039, -0.1073 0.566 0.0, -0.0537 0.566 0.0, -0.0537 0.7628 0.0039, -0.0537 0.7628 0.0, -0.1093 0.7628 0.0039, -0.1093 0.7628 0.0, -0.2122 0.6669 0.0039, -0.2122 0.6669 0.0, -0.2108 0.6854 0.0, -0.2108 0.6854 0.0039, -0.2055 0.7048 0.0, -0.2055 0.7048 0.0039, -0.1963 0.7217 0.0, -0.1963 0.7217 0.0039, -0.1824 0.7372 0.0, -0.1824 0.7372 0.0039, -0.1822 0.7374 0.0, -0.1822 0.7374 0.0039, -0.1608 0.7517 0.0, -0.1608 0.7517 0.0039, -0.1377 0.7598 0.0, -0.1377 0.7598 0.0039
            ]
        }
        coordIndex [
            0,1,2,-1,0,2,3,-1,3,2,4,-1,3,4,5,-1,6,5,7,-1,7,5,4,-1,6,7,8,-1,6,8,9,-1,9,8,10,-1,9,10,11,-1,12,11,13,-1,13,11,10,-1,14,15,16,-1,16,15,17,-1,15,18,17,-1,17,18,19,-1,18,20,19,-1,19,20,21,-1,22,23,24,-1,22,24,25,-1,25,24,26,-1,25,26,27,-1,27,26,28,-1,27,28,29,-1,29,28,30,-1,29,30,31,-1,31,30,32,-1,31,32,33,-1,33,32,34,-1,33,34,35,-1,35,34,36,-1,35,36,37,-1,37,36,21,-1,37,21,20,-1,
        ]
    }
}
Shape{
    appearance Appearance {
        material  Material 	{
            diffuseColor 0.25098039215686274 0.25098039215686274 0.25098039215686274
            specularColor 0.07450980392156863 0.07450980392156863 0.07450980392156863
            ambientIntensity 0.251
            transparency 0.0
            shininess 0.5
        }
    }
    geometry IndexedFaceSet {
        ccw TRUE
        solid FALSE
        coord DEF co Coordinate {
            point [
                -0.1073 0.566 0.0039, -0.1073 0.566 0.0, -0.1316 0.5681 0.0, -0.1316 0.5681 0.0039, -0.1543 0.5749 0.0, -0.1543 0.5749 0.0039, -0.1749 0.5868 0.0, -0.1749 0.5868 0.0039, -0.1911 0.6023 0.0, -0.1911 0.6023 0.0039, -0.2024 0.6199 0.0, -0.2024 0.6199 0.0039, -0.2094 0.6406 0.0, -0.2094 0.6406 0.0039, -0.2122 0.6669 0.0, -0.2122 0.6669 0.0039, -0.2055 0.7048 0.0039, -0.1963 0.7217 0.0039, -0.1727 0.7136 0.0039, -0.1824 0.7372 0.0039, -0.1631 0.7238 0.0039, -0.1822 0.7374 0.0039, -0.1487 0.7331 0.0039, -0.1608 0.7517 0.0039, -0.1325 0.7388 0.0039, -0.1377 0.7598 0.0039, -0.1092 0.7412 0.0039, -0.1093 0.7628 0.0039, -0.0802 0.7412 0.0039, -0.0537 0.7628 0.0039, -0.0802 0.5876 0.0039, -0.0537 0.566 0.0039, -0.1081 0.5876 0.0039, -0.1289 0.5895 0.0039, -0.1454 0.5947 0.0039, -0.1589 0.6027 0.0039, -0.1699 0.6136 0.0039, -0.1782 0.6272 0.0039, -0.184 0.6457 0.0039, -0.1858 0.6663 0.0039, -0.1841 0.6859 0.0039, -0.2108 0.6854 0.0039, -0.1795 0.7015 0.0039, -0.1092 0.7412 0.0, -0.0802 0.7412 0.0, -0.1325 0.7388 0.0, -0.1487 0.7331 0.0, -0.1631 0.7238 0.0, -0.1727 0.7136 0.0, -0.1795 0.7015 0.0, -0.1841 0.6859 0.0, -0.1858 0.6663 0.0, -0.184 0.6457 0.0, -0.1782 0.6272 0.0, -0.1699 0.6136 0.0, -0.1589 0.6027 0.0, -0.1454 0.5947 0.0, -0.1289 0.5895 0.0, -0.1081 0.5876 0.0, -0.0802 0.5876 0.0
            ]
        }
        coordIndex [
            0,1,2,-1,0,2,3,-1,3,2,4,-1,3,4,5,-1,5,4,6,-1,5,6,7,-1,7,6,8,-1,7,8,9,-1,9,8,10,-1,9,10,11,-1,11,10,12,-1,11,12,13,-1,13,12,14,-1,13,14,15,-1,16,17,18,-1,18,17,19,-1,18,19,20,-1,20,19,21,-1,20,21,22,-1,22,21,23,-1,22,23,24,-1,24,23,25,-1,24,25,26,-1,26,25,27,-1,26,27,28,-1,28,27,29,-1,28,29,30,-1,30,29,31,-1,30,31,32,-1,32,31,0,-1,32,0,33,-1,33,0,3,-1,33,3,34,-1,34,3,5,-1,34,5,35,-1,35,5,7,-1,35,7,36,-1,36,7,9,-1,36,9,37,-1,37,9,11,-1,37,11,38,-1,38,11,13,-1,38,13,39,-1,39,13,15,-1,39,15,40,-1,40,15,41,-1,40,41,42,-1,42,41,16,-1,42,16,18,-1,26,28,43,-1,43,28,44,-1,26,43,45,-1,26,45,24,-1,24,45,46,-1,24,46,22,-1,22,46,47,-1,22,47,20,-1,20,47,48,-1,20,48,18,-1,18,48,49,-1,18,49,42,-1,42,49,50,-1,42,50,40,-1,40,50,51,-1,40,51,39,-1,39,51,52,-1,39,52,38,-1,38,52,53,-1,38,53,37,-1,37,53,54,-1,37,54,36,-1,36,54,55,-1,36,55,35,-1,35,55,56,-1,35,56,34,-1,34,56,57,-1,34,57,33,-1,33,57,58,-1,33,58,32,-1,30,32,59,-1,59,32,58,-1,
        ]
    }
}
Shape{
    appearance Appearance {
        material  Material 	{
            diffuseColor 0.7686274509803922 0.7686274509803922 0.7686274509803922
            specularColor 0.615686274509804 0.615686274509804 0.615686274509804
            ambientIntensity 0.7686
            transparency 0.0
            shininess 0.5
        }
    }
    geometry IndexedFaceSet {
        ccw TRUE
        solid FALSE
        coord DEF co Coordinate {
            point [
                -0.0802 0.7412 0.0039, -0.0802 0.5876 0.0039, -0.0802 0.7412 0.0, -0.0802 0.5876 0.0, -0.0153 0.5876 0.0039, -0.0153 0.566 0.0039, -0.0153 0.5876 0.0, -0.0153 0.566 0.0, 0.0903 0.566 0.0039, 0.0903 0.566 0.0
            ]
        }
        coordIndex [
            0,1,2,-1,2,1,3,-1,4,5,6,-1,6,5,7,-1,5,8,7,-1,7,8,9,-1,
        ]
    }
}
Shape{
    appearance Appearance {
        material  Material 	{
            diffuseColor 0.25098039215686274 0.25098039215686274 0.25098039215686274
            specularColor 0.07450980392156863 0.07450980392156863 0.07450980392156863
            ambientIntensity 0.251
            transparency 0.0
            shininess 0.5
        }
    }
    geometry IndexedFaceSet {
        ccw TRUE
        solid FALSE
        coord DEF co Coordinate {
            point [
                0.0903 0.566 0.0039, 0.0903 0.7628 0.0039, 0.0903 0.566 0.0, 0.0903 0.7628 0.0
            ]
        }
        coordIndex [
            0,1,2,-1,2,1,3,-1,
        ]
    }
}
Shape{
    appearance Appearance {
        material  Material 	{
            diffuseColor 1.0 1.0 1.0
            specularColor 0.8784313725490196 0.8784313725490196 0.8784313725490196
            ambientIntensity 1.0
            transparency 0.0
            shininess 0.5
        }
    }
    geometry IndexedFaceSet {
        ccw TRUE
        solid FALSE
        coord DEF co Coordinate {
            point [
                0.0903 0.7628 0.0039, -0.0105 0.7628 0.0039, 0.0903 0.7628 0.0, -0.0105 0.7628 0.0, -0.0105 0.7412 0.0039, -0.0105 0.7412 0.0, 0.0639 0.7412 0.0039, 0.0639 0.7412 0.0, 0.0639 0.6764 0.0039, 0.0639 0.6764 0.0, -0.0057 0.6764 0.0039, -0.0057 0.6764 0.0, -0.0057 0.6548 0.0039, -0.0057 0.6548 0.0, 0.0639 0.6548 0.0039, 0.0639 0.6548 0.0, 0.0639 0.5876 0.0039, 0.0639 0.5876 0.0, -0.0153 0.5876 0.0039, -0.0153 0.5876 0.0, 0.0903 0.566 0.0039, -0.0153 0.566 0.0039, 0.1287 0.5978 0.0039, 0.1287 0.5762 0.0039, 0.1287 0.5978 0.0, 0.1287 0.5762 0.0, 0.1497 0.5676 0.0039, 0.1829 0.5636 0.0039, 0.1829 0.5636 0.0, 0.1775 0.5637 0.0, 0.1775 0.5637 0.0039, 0.1696 0.5648 0.0, 0.1497 0.5676 0.0, 0.2751 0.6607 0.0039, 0.2751 0.6607 0.0, 0.2732 0.6379 0.0, 0.2732 0.6379 0.0039, 0.2673 0.6171 0.0, 0.2673 0.6171 0.0039, 0.2568 0.5984 0.0, 0.2568 0.5984 0.0039, 0.242 0.5828 0.0, 0.242 0.5828 0.0039, 0.2262 0.5727 0.0, 0.2262 0.5727 0.0039, 0.2071 0.5661 0.0, 0.2071 0.5661 0.0039, 0.1944 0.5648 0.0, 0.175 0.7652 0.0039, 0.175 0.7652 0.0, 0.1948 0.7636 0.0, 0.1948 0.7636 0.0039, 0.2167 0.7573 0.0, 0.2167 0.7573 0.0039, 0.2354 0.7465 0.0, 0.2354 0.7465 0.0039, 0.2532 0.7294 0.0, 0.2532 0.7294 0.0039, 0.2647 0.711 0.0, 0.2647 0.711 0.0039, 0.2723 0.6887 0.0, 0.2723 0.6887 0.0039, 0.1287 0.7574 0.0039, 0.1287 0.7574 0.0, 0.1515 0.7636 0.0, 0.1515 0.7636 0.0039, 0.1287 0.731 0.0039, 0.1287 0.731 0.0, 0.1748 0.7436 0.0039, 0.1748 0.7436 0.0, 0.1509 0.7405 0.0, 0.1509 0.7405 0.0039, 0.2487 0.6623 0.0039, 0.2487 0.6623 0.0, 0.2478 0.6776 0.0, 0.2478 0.6776 0.0039, 0.2425 0.6987 0.0, 0.2425 0.6987 0.0039, 0.2344 0.7139 0.0, 0.2344 0.7139 0.0039, 0.2225 0.727 0.0, 0.2225 0.727 0.0039, 0.2089 0.7361 0.0, 0.2089 0.7361 0.0039, 0.1942 0.7415 0.0, 0.1942 0.7415 0.0039, 0.1792 0.5852 0.0039, 0.1792 0.5852 0.0, 0.1976 0.5873 0.0, 0.1976 0.5873 0.0039, 0.2119 0.5925 0.0, 0.2119 0.5925 0.0039, 0.224 0.6007 0.0, 0.224 0.6007 0.0039, 0.2333 0.6104 0.0, 0.2333 0.6104 0.0039, 0.2414 0.6241 0.0, 0.2414 0.6241 0.0039, 0.2467 0.641 0.0, 0.2467 0.641 0.0039, 0.1322 0.5958 0.0, 0.1322 0.5958 0.0039, 0.1531 0.5881 0.0, 0.1531 0.5881 0.0039, 0.2919 0.5876 0.0039, 0.2919 0.566 0.0039, 0.2919 0.5876 0.0, 0.2919 0.566 0.0, 0.3928 0.566 0.0039, 0.3928 0.566 0.0, 0.3928 0.7628 0.0039, 0.3928 0.7628 0.0, 0.3664 0.7628 0.0039, 0.3664 0.7628 0.0, 0.3664 0.5876 0.0039, 0.3664 0.5876 0.0
            ]
        }
        coordIndex [
            0,1,2,-1,2,1,3,-1,1,4,3,-1,3,4,5,-1,4,6,5,-1,5,6,7,-1,6,8,7,-1,7,8,9,-1,8,10,9,-1,9,10,11,-1,10,12,11,-1,11,12,13,-1,12,14,13,-1,13,14,15,-1,14,16,15,-1,15,16,17,-1,16,18,17,-1,17,18,19,-1,20,21,18,-1,18,16,20,-1,20,16,14,-1,20,14,0,-1,4,1,6,-1,6,1,0,-1,6,0,8,-1,8,0,14,-1,8,14,10,-1,10,14,12,-1,22,23,24,-1,24,23,25,-1,25,23,26,-1,27,28,29,-1,27,29,30,-1,30,29,31,-1,30,31,26,-1,26,31,32,-1,26,32,25,-1,33,34,35,-1,33,35,36,-1,36,35,37,-1,36,37,38,-1,38,37,39,-1,38,39,40,-1,40,39,41,-1,40,41,42,-1,42,41,43,-1,42,43,44,-1,44,43,45,-1,44,45,46,-1,46,45,27,-1,27,45,47,-1,27,47,28,-1,48,49,50,-1,48,50,51,-1,51,50,52,-1,51,52,53,-1,53,52,54,-1,53,54,55,-1,55,54,56,-1,55,56,57,-1,57,56,58,-1,57,58,59,-1,59,58,60,-1,59,60,61,-1,61,60,34,-1,61,34,33,-1,62,63,64,-1,62,64,65,-1,65,64,49,-1,65,49,48,-1,62,66,63,-1,63,66,67,-1,68,69,70,-1,68,70,71,-1,71,70,67,-1,71,67,66,-1,72,73,74,-1,72,74,75,-1,75,74,76,-1,75,76,77,-1,77,76,78,-1,77,78,79,-1,79,78,80,-1,79,80,81,-1,81,80,82,-1,81,82,83,-1,83,82,84,-1,83,84,85,-1,85,84,69,-1,85,69,68,-1,86,87,88,-1,86,88,89,-1,89,88,90,-1,89,90,91,-1,91,90,92,-1,91,92,93,-1,93,92,94,-1,93,94,95,-1,95,94,96,-1,95,96,97,-1,97,96,98,-1,97,98,99,-1,99,98,73,-1,99,73,72,-1,22,24,100,-1,22,100,101,-1,101,100,102,-1,101,102,103,-1,103,102,87,-1,103,87,86,-1,89,27,86,-1,86,27,30,-1,86,30,103,-1,103,30,26,-1,103,26,101,-1,101,26,23,-1,101,23,22,-1,66,62,71,-1,71,62,65,-1,71,65,68,-1,68,65,48,-1,68,48,85,-1,85,48,51,-1,85,51,83,-1,83,51,53,-1,83,53,81,-1,81,53,55,-1,81,55,79,-1,79,55,57,-1,79,57,77,-1,77,57,59,-1,77,59,75,-1,75,59,61,-1,75,61,72,-1,72,61,33,-1,72,33,99,-1,99,33,36,-1,99,36,97,-1,97,36,38,-1,97,38,95,-1,95,38,40,-1,95,40,93,-1,93,40,42,-1,93,42,91,-1,91,42,44,-1,91,44,89,-1,89,44,46,-1,89,46,27,-1,104,105,106,-1,106,105,107,-1,105,108,107,-1,107,108,109,-1,108,110,109,-1,109,110,111,-1,110,112,111,-1,111,112,113,-1,112,114,113,-1,113,114,115,-1,114,104,115,-1,115,104,106,-1,112,110,114,-1,114,110,108,-1,114,108,104,-1,104,108,105,-1,
        ]
    }
}
Shape{
    appearance Appearance {
        material  Material 	{
            diffuseColor 0.7686274509803922 0.7686274509803922 0.7686274509803922
            specularColor 0.615686274509804 0.615686274509804 0.615686274509804
            ambientIntensity 0.7686
            transparency 0.0
            shininess 0.5
        }
    }
    geometry IndexedFaceSet {
        ccw TRUE
        solid FALSE
        coord DEF co Coordinate {
            point [
                -0.2808 0.6428 0.0, -0.3467 0.6428 0.0, -0.3102 0.725 0.0, -0.317 0.725 0.0, -0.3121 0.7319 0.0, -0.3153 0.7319 0.0, -0.3133 0.7388 0.0, -0.314 0.7388 0.0, -0.0802 0.7412 0.0, -0.0802 0.5876 0.0, -0.1092 0.7412 0.0, -0.1081 0.5876 0.0, -0.1289 0.5895 0.0, -0.1858 0.6663 0.0, -0.1841 0.6859 0.0, -0.1795 0.7015 0.0, -0.1325 0.7388 0.0, -0.1454 0.5947 0.0, -0.1589 0.6027 0.0, -0.1699 0.6136 0.0, -0.1782 0.6272 0.0, -0.184 0.6457 0.0, -0.1727 0.7136 0.0, -0.1631 0.7238 0.0, -0.1487 0.7331 0.0
            ]
        }
        coordIndex [
            0,1,2,-1,2,1,3,-1,2,3,4,-1,4,3,5,-1,4,5,6,-1,6,5,7,-1,8,9,10,-1,10,9,11,-1,10,11,12,-1,13,14,10,-1,10,14,15,-1,10,15,16,-1,12,17,10,-1,10,17,18,-1,10,18,19,-1,19,20,10,-1,10,20,21,-1,10,21,13,-1,22,23,15,-1,15,23,24,-1,15,24,16,-1,
        ]
    }
}